<?xml version="1.0" encoding="utf-8"?>
<svg xmlns="http://www.w3.org/2000/svg" xmlns:xlink="http://www.w3.org/1999/xlink" width="600" height="400" viewBox="0 0 2400 1600">
<defs>
  <clipPath id="clip110">
    <rect x="0" y="0" width="2400" height="1600"/>
  </clipPath>
</defs>
<path clip-path="url(#clip110)" d="
M0 1600 L2400 1600 L2400 0 L0 0  Z
  " fill="#ffffff" fill-rule="evenodd" fill-opacity="1"/>
<defs>
  <clipPath id="clip111">
    <rect x="480" y="0" width="1681" height="1600"/>
  </clipPath>
</defs>
<path clip-path="url(#clip110)" d="
M201.019 1486.45 L2352.76 1486.45 L2352.76 47.2441 L201.019 47.2441  Z
  " fill="#ffffff" fill-rule="evenodd" fill-opacity="1"/>
<defs>
  <clipPath id="clip112">
    <rect x="201" y="47" width="2153" height="1440"/>
  </clipPath>
</defs>
<polyline clip-path="url(#clip112)" style="stroke:#000000; stroke-linecap:butt; stroke-linejoin:round; stroke-width:2; stroke-opacity:0.1; fill:none" points="
  261.917,1486.45 261.917,47.2441 
  "/>
<polyline clip-path="url(#clip112)" style="stroke:#000000; stroke-linecap:butt; stroke-linejoin:round; stroke-width:2; stroke-opacity:0.1; fill:none" points="
  803.235,1486.45 803.235,47.2441 
  "/>
<polyline clip-path="url(#clip112)" style="stroke:#000000; stroke-linecap:butt; stroke-linejoin:round; stroke-width:2; stroke-opacity:0.1; fill:none" points="
  1344.55,1486.45 1344.55,47.2441 
  "/>
<polyline clip-path="url(#clip112)" style="stroke:#000000; stroke-linecap:butt; stroke-linejoin:round; stroke-width:2; stroke-opacity:0.1; fill:none" points="
  1885.87,1486.45 1885.87,47.2441 
  "/>
<polyline clip-path="url(#clip110)" style="stroke:#000000; stroke-linecap:butt; stroke-linejoin:round; stroke-width:4; stroke-opacity:1; fill:none" points="
  201.019,1486.45 2352.76,1486.45 
  "/>
<polyline clip-path="url(#clip110)" style="stroke:#000000; stroke-linecap:butt; stroke-linejoin:round; stroke-width:4; stroke-opacity:1; fill:none" points="
  261.917,1486.45 261.917,1469.18 
  "/>
<polyline clip-path="url(#clip110)" style="stroke:#000000; stroke-linecap:butt; stroke-linejoin:round; stroke-width:4; stroke-opacity:1; fill:none" points="
  803.235,1486.45 803.235,1469.18 
  "/>
<polyline clip-path="url(#clip110)" style="stroke:#000000; stroke-linecap:butt; stroke-linejoin:round; stroke-width:4; stroke-opacity:1; fill:none" points="
  1344.55,1486.45 1344.55,1469.18 
  "/>
<polyline clip-path="url(#clip110)" style="stroke:#000000; stroke-linecap:butt; stroke-linejoin:round; stroke-width:4; stroke-opacity:1; fill:none" points="
  1885.87,1486.45 1885.87,1469.18 
  "/>
<path clip-path="url(#clip110)" d="M132.856 1543.18 L149.175 1543.18 L149.175 1547.12 L127.231 1547.12 L127.231 1543.18 Q129.893 1540.43 134.476 1535.8 Q139.083 1531.15 140.263 1529.81 Q142.508 1527.28 143.388 1525.55 Q144.291 1523.79 144.291 1522.1 Q144.291 1519.34 142.346 1517.61 Q140.425 1515.87 137.323 1515.87 Q135.124 1515.87 132.671 1516.63 Q130.24 1517.4 127.462 1518.95 L127.462 1514.23 Q130.286 1513.09 132.74 1512.51 Q135.194 1511.93 137.231 1511.93 Q142.601 1511.93 145.795 1514.62 Q148.99 1517.31 148.99 1521.8 Q148.99 1523.93 148.18 1525.85 Q147.393 1527.74 145.286 1530.34 Q144.707 1531.01 141.606 1534.23 Q138.504 1537.42 132.856 1543.18 Z" fill="#000000" fill-rule="evenodd" fill-opacity="1" /><path clip-path="url(#clip110)" d="M168.99 1515.64 Q165.379 1515.64 163.55 1519.2 Q161.744 1522.75 161.744 1529.87 Q161.744 1536.98 163.55 1540.55 Q165.379 1544.09 168.99 1544.09 Q172.624 1544.09 174.43 1540.55 Q176.258 1536.98 176.258 1529.87 Q176.258 1522.75 174.43 1519.2 Q172.624 1515.64 168.99 1515.64 M168.99 1511.93 Q174.8 1511.93 177.855 1516.54 Q180.934 1521.12 180.934 1529.87 Q180.934 1538.6 177.855 1543.21 Q174.8 1547.79 168.99 1547.79 Q163.18 1547.79 160.101 1543.21 Q157.045 1538.6 157.045 1529.87 Q157.045 1521.12 160.101 1516.54 Q163.18 1511.93 168.99 1511.93 Z" fill="#000000" fill-rule="evenodd" fill-opacity="1" /><path clip-path="url(#clip110)" d="M193.179 1543.18 L209.499 1543.18 L209.499 1547.12 L187.554 1547.12 L187.554 1543.18 Q190.216 1540.43 194.8 1535.8 Q199.406 1531.15 200.587 1529.81 Q202.832 1527.28 203.712 1525.55 Q204.615 1523.79 204.615 1522.1 Q204.615 1519.34 202.67 1517.61 Q200.749 1515.87 197.647 1515.87 Q195.448 1515.87 192.994 1516.63 Q190.564 1517.4 187.786 1518.95 L187.786 1514.23 Q190.61 1513.09 193.064 1512.51 Q195.517 1511.93 197.554 1511.93 Q202.925 1511.93 206.119 1514.62 Q209.314 1517.31 209.314 1521.8 Q209.314 1523.93 208.503 1525.85 Q207.716 1527.74 205.61 1530.34 Q205.031 1531.01 201.929 1534.23 Q198.828 1537.42 193.179 1543.18 Z" fill="#000000" fill-rule="evenodd" fill-opacity="1" /><path clip-path="url(#clip110)" d="M220.124 1543.18 L227.763 1543.18 L227.763 1516.82 L219.452 1518.49 L219.452 1514.23 L227.716 1512.56 L232.392 1512.56 L232.392 1543.18 L240.031 1543.18 L240.031 1547.12 L220.124 1547.12 L220.124 1543.18 Z" fill="#000000" fill-rule="evenodd" fill-opacity="1" /><path clip-path="url(#clip110)" d="M246.721 1532.24 L259.198 1532.24 L259.198 1536.03 L246.721 1536.03 L246.721 1532.24 Z" fill="#000000" fill-rule="evenodd" fill-opacity="1" /><path clip-path="url(#clip110)" d="M276.582 1515.64 Q272.971 1515.64 271.142 1519.2 Q269.336 1522.75 269.336 1529.87 Q269.336 1536.98 271.142 1540.55 Q272.971 1544.09 276.582 1544.09 Q280.216 1544.09 282.022 1540.55 Q283.85 1536.98 283.85 1529.87 Q283.85 1522.75 282.022 1519.2 Q280.216 1515.64 276.582 1515.64 M276.582 1511.93 Q282.392 1511.93 285.447 1516.54 Q288.526 1521.12 288.526 1529.87 Q288.526 1538.6 285.447 1543.21 Q282.392 1547.79 276.582 1547.79 Q270.772 1547.79 267.693 1543.21 Q264.637 1538.6 264.637 1529.87 Q264.637 1521.12 267.693 1516.54 Q270.772 1511.93 276.582 1511.93 Z" fill="#000000" fill-rule="evenodd" fill-opacity="1" /><path clip-path="url(#clip110)" d="M296.79 1512.56 L315.146 1512.56 L315.146 1516.5 L301.072 1516.5 L301.072 1524.97 Q302.091 1524.62 303.109 1524.46 Q304.128 1524.27 305.146 1524.27 Q310.933 1524.27 314.313 1527.44 Q317.693 1530.62 317.693 1536.03 Q317.693 1541.61 314.22 1544.71 Q310.748 1547.79 304.429 1547.79 Q302.253 1547.79 299.984 1547.42 Q297.739 1547.05 295.332 1546.31 L295.332 1541.61 Q297.415 1542.74 299.637 1543.3 Q301.859 1543.86 304.336 1543.86 Q308.341 1543.86 310.679 1541.75 Q313.017 1539.64 313.017 1536.03 Q313.017 1532.42 310.679 1530.31 Q308.341 1528.21 304.336 1528.21 Q302.461 1528.21 300.586 1528.62 Q298.734 1529.04 296.79 1529.92 L296.79 1512.56 Z" fill="#000000" fill-rule="evenodd" fill-opacity="1" /><path clip-path="url(#clip110)" d="M324.151 1532.24 L336.628 1532.24 L336.628 1536.03 L324.151 1536.03 L324.151 1532.24 Z" fill="#000000" fill-rule="evenodd" fill-opacity="1" /><path clip-path="url(#clip110)" d="M354.012 1515.64 Q350.401 1515.64 348.572 1519.2 Q346.767 1522.75 346.767 1529.87 Q346.767 1536.98 348.572 1540.55 Q350.401 1544.09 354.012 1544.09 Q357.646 1544.09 359.452 1540.55 Q361.28 1536.98 361.28 1529.87 Q361.28 1522.75 359.452 1519.2 Q357.646 1515.64 354.012 1515.64 M354.012 1511.93 Q359.822 1511.93 362.878 1516.54 Q365.956 1521.12 365.956 1529.87 Q365.956 1538.6 362.878 1543.21 Q359.822 1547.79 354.012 1547.79 Q348.202 1547.79 345.123 1543.21 Q342.068 1538.6 342.068 1529.87 Q342.068 1521.12 345.123 1516.54 Q348.202 1511.93 354.012 1511.93 Z" fill="#000000" fill-rule="evenodd" fill-opacity="1" /><path clip-path="url(#clip110)" d="M387.021 1516.63 L375.216 1535.08 L387.021 1535.08 L387.021 1516.63 M385.794 1512.56 L391.674 1512.56 L391.674 1535.08 L396.604 1535.08 L396.604 1538.97 L391.674 1538.97 L391.674 1547.12 L387.021 1547.12 L387.021 1538.97 L371.419 1538.97 L371.419 1534.46 L385.794 1512.56 Z" fill="#000000" fill-rule="evenodd" fill-opacity="1" /><path clip-path="url(#clip110)" d="M675.215 1543.18 L691.534 1543.18 L691.534 1547.12 L669.59 1547.12 L669.59 1543.18 Q672.252 1540.43 676.835 1535.8 Q681.442 1531.15 682.622 1529.81 Q684.867 1527.28 685.747 1525.55 Q686.65 1523.79 686.65 1522.1 Q686.65 1519.34 684.705 1517.61 Q682.784 1515.87 679.682 1515.87 Q677.483 1515.87 675.03 1516.63 Q672.599 1517.4 669.821 1518.95 L669.821 1514.23 Q672.645 1513.09 675.099 1512.51 Q677.553 1511.93 679.59 1511.93 Q684.96 1511.93 688.154 1514.62 Q691.349 1517.31 691.349 1521.8 Q691.349 1523.93 690.539 1525.85 Q689.752 1527.74 687.645 1530.34 Q687.067 1531.01 683.965 1534.23 Q680.863 1537.42 675.215 1543.18 Z" fill="#000000" fill-rule="evenodd" fill-opacity="1" /><path clip-path="url(#clip110)" d="M711.349 1515.64 Q707.738 1515.64 705.909 1519.2 Q704.103 1522.75 704.103 1529.87 Q704.103 1536.98 705.909 1540.55 Q707.738 1544.09 711.349 1544.09 Q714.983 1544.09 716.789 1540.55 Q718.617 1536.98 718.617 1529.87 Q718.617 1522.75 716.789 1519.2 Q714.983 1515.64 711.349 1515.64 M711.349 1511.93 Q717.159 1511.93 720.214 1516.54 Q723.293 1521.12 723.293 1529.87 Q723.293 1538.6 720.214 1543.21 Q717.159 1547.79 711.349 1547.79 Q705.539 1547.79 702.46 1543.21 Q699.404 1538.6 699.404 1529.87 Q699.404 1521.12 702.46 1516.54 Q705.539 1511.93 711.349 1511.93 Z" fill="#000000" fill-rule="evenodd" fill-opacity="1" /><path clip-path="url(#clip110)" d="M735.538 1543.18 L751.858 1543.18 L751.858 1547.12 L729.914 1547.12 L729.914 1543.18 Q732.576 1540.43 737.159 1535.8 Q741.765 1531.15 742.946 1529.81 Q745.191 1527.28 746.071 1525.55 Q746.974 1523.79 746.974 1522.1 Q746.974 1519.34 745.029 1517.61 Q743.108 1515.87 740.006 1515.87 Q737.807 1515.87 735.353 1516.63 Q732.923 1517.4 730.145 1518.95 L730.145 1514.23 Q732.969 1513.09 735.423 1512.51 Q737.876 1511.93 739.913 1511.93 Q745.284 1511.93 748.478 1514.62 Q751.673 1517.31 751.673 1521.8 Q751.673 1523.93 750.862 1525.85 Q750.075 1527.74 747.969 1530.34 Q747.39 1531.01 744.288 1534.23 Q741.187 1537.42 735.538 1543.18 Z" fill="#000000" fill-rule="evenodd" fill-opacity="1" /><path clip-path="url(#clip110)" d="M762.483 1543.18 L770.122 1543.18 L770.122 1516.82 L761.811 1518.49 L761.811 1514.23 L770.075 1512.56 L774.751 1512.56 L774.751 1543.18 L782.39 1543.18 L782.39 1547.12 L762.483 1547.12 L762.483 1543.18 Z" fill="#000000" fill-rule="evenodd" fill-opacity="1" /><path clip-path="url(#clip110)" d="M789.08 1532.24 L801.557 1532.24 L801.557 1536.03 L789.08 1536.03 L789.08 1532.24 Z" fill="#000000" fill-rule="evenodd" fill-opacity="1" /><path clip-path="url(#clip110)" d="M818.941 1515.64 Q815.33 1515.64 813.501 1519.2 Q811.695 1522.75 811.695 1529.87 Q811.695 1536.98 813.501 1540.55 Q815.33 1544.09 818.941 1544.09 Q822.575 1544.09 824.381 1540.55 Q826.209 1536.98 826.209 1529.87 Q826.209 1522.75 824.381 1519.2 Q822.575 1515.64 818.941 1515.64 M818.941 1511.93 Q824.751 1511.93 827.807 1516.54 Q830.885 1521.12 830.885 1529.87 Q830.885 1538.6 827.807 1543.21 Q824.751 1547.79 818.941 1547.79 Q813.131 1547.79 810.052 1543.21 Q806.996 1538.6 806.996 1529.87 Q806.996 1521.12 810.052 1516.54 Q813.131 1511.93 818.941 1511.93 Z" fill="#000000" fill-rule="evenodd" fill-opacity="1" /><path clip-path="url(#clip110)" d="M839.149 1512.56 L857.505 1512.56 L857.505 1516.5 L843.431 1516.5 L843.431 1524.97 Q844.45 1524.62 845.468 1524.46 Q846.487 1524.27 847.505 1524.27 Q853.292 1524.27 856.672 1527.44 Q860.052 1530.62 860.052 1536.03 Q860.052 1541.61 856.58 1544.71 Q853.107 1547.79 846.788 1547.79 Q844.612 1547.79 842.343 1547.42 Q840.098 1547.05 837.691 1546.31 L837.691 1541.61 Q839.774 1542.74 841.996 1543.3 Q844.218 1543.86 846.695 1543.86 Q850.7 1543.86 853.038 1541.75 Q855.376 1539.64 855.376 1536.03 Q855.376 1532.42 853.038 1530.31 Q850.7 1528.21 846.695 1528.21 Q844.82 1528.21 842.945 1528.62 Q841.093 1529.04 839.149 1529.92 L839.149 1512.56 Z" fill="#000000" fill-rule="evenodd" fill-opacity="1" /><path clip-path="url(#clip110)" d="M866.51 1532.24 L878.987 1532.24 L878.987 1536.03 L866.51 1536.03 L866.51 1532.24 Z" fill="#000000" fill-rule="evenodd" fill-opacity="1" /><path clip-path="url(#clip110)" d="M887.181 1543.18 L894.82 1543.18 L894.82 1516.82 L886.51 1518.49 L886.51 1514.23 L894.774 1512.56 L899.45 1512.56 L899.45 1543.18 L907.088 1543.18 L907.088 1547.12 L887.181 1547.12 L887.181 1543.18 Z" fill="#000000" fill-rule="evenodd" fill-opacity="1" /><path clip-path="url(#clip110)" d="M920.561 1543.18 L936.88 1543.18 L936.88 1547.12 L914.936 1547.12 L914.936 1543.18 Q917.598 1540.43 922.181 1535.8 Q926.787 1531.15 927.968 1529.81 Q930.213 1527.28 931.093 1525.55 Q931.996 1523.79 931.996 1522.1 Q931.996 1519.34 930.051 1517.61 Q928.13 1515.87 925.028 1515.87 Q922.829 1515.87 920.375 1516.63 Q917.945 1517.4 915.167 1518.95 L915.167 1514.23 Q917.991 1513.09 920.445 1512.51 Q922.899 1511.93 924.936 1511.93 Q930.306 1511.93 933.5 1514.62 Q936.695 1517.31 936.695 1521.8 Q936.695 1523.93 935.885 1525.85 Q935.098 1527.74 932.991 1530.34 Q932.412 1531.01 929.311 1534.23 Q926.209 1537.42 920.561 1543.18 Z" fill="#000000" fill-rule="evenodd" fill-opacity="1" /><path clip-path="url(#clip110)" d="M1215.73 1543.18 L1232.05 1543.18 L1232.05 1547.12 L1210.11 1547.12 L1210.11 1543.18 Q1212.77 1540.43 1217.35 1535.8 Q1221.96 1531.15 1223.14 1529.81 Q1225.39 1527.28 1226.27 1525.55 Q1227.17 1523.79 1227.17 1522.1 Q1227.17 1519.34 1225.22 1517.61 Q1223.3 1515.87 1220.2 1515.87 Q1218 1515.87 1215.55 1516.63 Q1213.12 1517.4 1210.34 1518.95 L1210.34 1514.23 Q1213.16 1513.09 1215.62 1512.51 Q1218.07 1511.93 1220.11 1511.93 Q1225.48 1511.93 1228.67 1514.62 Q1231.87 1517.31 1231.87 1521.8 Q1231.87 1523.93 1231.06 1525.85 Q1230.27 1527.74 1228.16 1530.34 Q1227.59 1531.01 1224.48 1534.23 Q1221.38 1537.42 1215.73 1543.18 Z" fill="#000000" fill-rule="evenodd" fill-opacity="1" /><path clip-path="url(#clip110)" d="M1251.87 1515.64 Q1248.26 1515.64 1246.43 1519.2 Q1244.62 1522.75 1244.62 1529.87 Q1244.62 1536.98 1246.43 1540.55 Q1248.26 1544.09 1251.87 1544.09 Q1255.5 1544.09 1257.31 1540.55 Q1259.14 1536.98 1259.14 1529.87 Q1259.14 1522.75 1257.31 1519.2 Q1255.5 1515.64 1251.87 1515.64 M1251.87 1511.93 Q1257.68 1511.93 1260.73 1516.54 Q1263.81 1521.12 1263.81 1529.87 Q1263.81 1538.6 1260.73 1543.21 Q1257.68 1547.79 1251.87 1547.79 Q1246.06 1547.79 1242.98 1543.21 Q1239.92 1538.6 1239.92 1529.87 Q1239.92 1521.12 1242.98 1516.54 Q1246.06 1511.93 1251.87 1511.93 Z" fill="#000000" fill-rule="evenodd" fill-opacity="1" /><path clip-path="url(#clip110)" d="M1276.06 1543.18 L1292.38 1543.18 L1292.38 1547.12 L1270.43 1547.12 L1270.43 1543.18 Q1273.09 1540.43 1277.68 1535.8 Q1282.28 1531.15 1283.46 1529.81 Q1285.71 1527.28 1286.59 1525.55 Q1287.49 1523.79 1287.49 1522.1 Q1287.49 1519.34 1285.55 1517.61 Q1283.63 1515.87 1280.52 1515.87 Q1278.33 1515.87 1275.87 1516.63 Q1273.44 1517.4 1270.66 1518.95 L1270.66 1514.23 Q1273.49 1513.09 1275.94 1512.51 Q1278.4 1511.93 1280.43 1511.93 Q1285.8 1511.93 1289 1514.62 Q1292.19 1517.31 1292.19 1521.8 Q1292.19 1523.93 1291.38 1525.85 Q1290.59 1527.74 1288.49 1530.34 Q1287.91 1531.01 1284.81 1534.23 Q1281.71 1537.42 1276.06 1543.18 Z" fill="#000000" fill-rule="evenodd" fill-opacity="1" /><path clip-path="url(#clip110)" d="M1303 1543.18 L1310.64 1543.18 L1310.64 1516.82 L1302.33 1518.49 L1302.33 1514.23 L1310.59 1512.56 L1315.27 1512.56 L1315.27 1543.18 L1322.91 1543.18 L1322.91 1547.12 L1303 1547.12 L1303 1543.18 Z" fill="#000000" fill-rule="evenodd" fill-opacity="1" /><path clip-path="url(#clip110)" d="M1329.6 1532.24 L1342.08 1532.24 L1342.08 1536.03 L1329.6 1536.03 L1329.6 1532.24 Z" fill="#000000" fill-rule="evenodd" fill-opacity="1" /><path clip-path="url(#clip110)" d="M1359.46 1515.64 Q1355.85 1515.64 1354.02 1519.2 Q1352.21 1522.75 1352.21 1529.87 Q1352.21 1536.98 1354.02 1540.55 Q1355.85 1544.09 1359.46 1544.09 Q1363.09 1544.09 1364.9 1540.55 Q1366.73 1536.98 1366.73 1529.87 Q1366.73 1522.75 1364.9 1519.2 Q1363.09 1515.64 1359.46 1515.64 M1359.46 1511.93 Q1365.27 1511.93 1368.33 1516.54 Q1371.4 1521.12 1371.4 1529.87 Q1371.4 1538.6 1368.33 1543.21 Q1365.27 1547.79 1359.46 1547.79 Q1353.65 1547.79 1350.57 1543.21 Q1347.52 1538.6 1347.52 1529.87 Q1347.52 1521.12 1350.57 1516.54 Q1353.65 1511.93 1359.46 1511.93 Z" fill="#000000" fill-rule="evenodd" fill-opacity="1" /><path clip-path="url(#clip110)" d="M1379.67 1512.56 L1398.02 1512.56 L1398.02 1516.5 L1383.95 1516.5 L1383.95 1524.97 Q1384.97 1524.62 1385.99 1524.46 Q1387.01 1524.27 1388.02 1524.27 Q1393.81 1524.27 1397.19 1527.44 Q1400.57 1530.62 1400.57 1536.03 Q1400.57 1541.61 1397.1 1544.71 Q1393.63 1547.79 1387.31 1547.79 Q1385.13 1547.79 1382.86 1547.42 Q1380.62 1547.05 1378.21 1546.31 L1378.21 1541.61 Q1380.29 1542.74 1382.52 1543.3 Q1384.74 1543.86 1387.21 1543.86 Q1391.22 1543.86 1393.56 1541.75 Q1395.89 1539.64 1395.89 1536.03 Q1395.89 1532.42 1393.56 1530.31 Q1391.22 1528.21 1387.21 1528.21 Q1385.34 1528.21 1383.46 1528.62 Q1381.61 1529.04 1379.67 1529.92 L1379.67 1512.56 Z" fill="#000000" fill-rule="evenodd" fill-opacity="1" /><path clip-path="url(#clip110)" d="M1407.03 1532.24 L1419.51 1532.24 L1419.51 1536.03 L1407.03 1536.03 L1407.03 1532.24 Z" fill="#000000" fill-rule="evenodd" fill-opacity="1" /><path clip-path="url(#clip110)" d="M1430.92 1543.18 L1447.24 1543.18 L1447.24 1547.12 L1425.29 1547.12 L1425.29 1543.18 Q1427.95 1540.43 1432.54 1535.8 Q1437.14 1531.15 1438.32 1529.81 Q1440.57 1527.28 1441.45 1525.55 Q1442.35 1523.79 1442.35 1522.1 Q1442.35 1519.34 1440.41 1517.61 Q1438.49 1515.87 1435.39 1515.87 Q1433.19 1515.87 1430.73 1516.63 Q1428.3 1517.4 1425.52 1518.95 L1425.52 1514.23 Q1428.35 1513.09 1430.8 1512.51 Q1433.26 1511.93 1435.29 1511.93 Q1440.66 1511.93 1443.86 1514.62 Q1447.05 1517.31 1447.05 1521.8 Q1447.05 1523.93 1446.24 1525.85 Q1445.45 1527.74 1443.35 1530.34 Q1442.77 1531.01 1439.67 1534.23 Q1436.57 1537.42 1430.92 1543.18 Z" fill="#000000" fill-rule="evenodd" fill-opacity="1" /><path clip-path="url(#clip110)" d="M1467.05 1515.64 Q1463.44 1515.64 1461.61 1519.2 Q1459.81 1522.75 1459.81 1529.87 Q1459.81 1536.98 1461.61 1540.55 Q1463.44 1544.09 1467.05 1544.09 Q1470.69 1544.09 1472.49 1540.55 Q1474.32 1536.98 1474.32 1529.87 Q1474.32 1522.75 1472.49 1519.2 Q1470.69 1515.64 1467.05 1515.64 M1467.05 1511.93 Q1472.86 1511.93 1475.92 1516.54 Q1479 1521.12 1479 1529.87 Q1479 1538.6 1475.92 1543.21 Q1472.86 1547.79 1467.05 1547.79 Q1461.24 1547.79 1458.16 1543.21 Q1455.11 1538.6 1455.11 1529.87 Q1455.11 1521.12 1458.16 1516.54 Q1461.24 1511.93 1467.05 1511.93 Z" fill="#000000" fill-rule="evenodd" fill-opacity="1" /><path clip-path="url(#clip110)" d="M1757.1 1543.18 L1773.42 1543.18 L1773.42 1547.12 L1751.47 1547.12 L1751.47 1543.18 Q1754.13 1540.43 1758.72 1535.8 Q1763.32 1531.15 1764.5 1529.81 Q1766.75 1527.28 1767.63 1525.55 Q1768.53 1523.79 1768.53 1522.1 Q1768.53 1519.34 1766.59 1517.61 Q1764.67 1515.87 1761.56 1515.87 Q1759.37 1515.87 1756.91 1516.63 Q1754.48 1517.4 1751.7 1518.95 L1751.7 1514.23 Q1754.53 1513.09 1756.98 1512.51 Q1759.44 1511.93 1761.47 1511.93 Q1766.84 1511.93 1770.04 1514.62 Q1773.23 1517.31 1773.23 1521.8 Q1773.23 1523.93 1772.42 1525.85 Q1771.63 1527.74 1769.53 1530.34 Q1768.95 1531.01 1765.85 1534.23 Q1762.75 1537.42 1757.1 1543.18 Z" fill="#000000" fill-rule="evenodd" fill-opacity="1" /><path clip-path="url(#clip110)" d="M1793.23 1515.64 Q1789.62 1515.64 1787.79 1519.2 Q1785.99 1522.75 1785.99 1529.87 Q1785.99 1536.98 1787.79 1540.55 Q1789.62 1544.09 1793.23 1544.09 Q1796.87 1544.09 1798.67 1540.55 Q1800.5 1536.98 1800.5 1529.87 Q1800.5 1522.75 1798.67 1519.2 Q1796.87 1515.64 1793.23 1515.64 M1793.23 1511.93 Q1799.04 1511.93 1802.1 1516.54 Q1805.18 1521.12 1805.18 1529.87 Q1805.18 1538.6 1802.1 1543.21 Q1799.04 1547.79 1793.23 1547.79 Q1787.42 1547.79 1784.34 1543.21 Q1781.29 1538.6 1781.29 1529.87 Q1781.29 1521.12 1784.34 1516.54 Q1787.42 1511.93 1793.23 1511.93 Z" fill="#000000" fill-rule="evenodd" fill-opacity="1" /><path clip-path="url(#clip110)" d="M1817.42 1543.18 L1833.74 1543.18 L1833.74 1547.12 L1811.8 1547.12 L1811.8 1543.18 Q1814.46 1540.43 1819.04 1535.8 Q1823.65 1531.15 1824.83 1529.81 Q1827.07 1527.28 1827.95 1525.55 Q1828.86 1523.79 1828.86 1522.1 Q1828.86 1519.34 1826.91 1517.61 Q1824.99 1515.87 1821.89 1515.87 Q1819.69 1515.87 1817.24 1516.63 Q1814.81 1517.4 1812.03 1518.95 L1812.03 1514.23 Q1814.85 1513.09 1817.31 1512.51 Q1819.76 1511.93 1821.8 1511.93 Q1827.17 1511.93 1830.36 1514.62 Q1833.56 1517.31 1833.56 1521.8 Q1833.56 1523.93 1832.74 1525.85 Q1831.96 1527.74 1829.85 1530.34 Q1829.27 1531.01 1826.17 1534.23 Q1823.07 1537.42 1817.42 1543.18 Z" fill="#000000" fill-rule="evenodd" fill-opacity="1" /><path clip-path="url(#clip110)" d="M1844.37 1543.18 L1852 1543.18 L1852 1516.82 L1843.69 1518.49 L1843.69 1514.23 L1851.96 1512.56 L1856.63 1512.56 L1856.63 1543.18 L1864.27 1543.18 L1864.27 1547.12 L1844.37 1547.12 L1844.37 1543.18 Z" fill="#000000" fill-rule="evenodd" fill-opacity="1" /><path clip-path="url(#clip110)" d="M1870.96 1532.24 L1883.44 1532.24 L1883.44 1536.03 L1870.96 1536.03 L1870.96 1532.24 Z" fill="#000000" fill-rule="evenodd" fill-opacity="1" /><path clip-path="url(#clip110)" d="M1900.82 1515.64 Q1897.21 1515.64 1895.38 1519.2 Q1893.58 1522.75 1893.58 1529.87 Q1893.58 1536.98 1895.38 1540.55 Q1897.21 1544.09 1900.82 1544.09 Q1904.46 1544.09 1906.26 1540.55 Q1908.09 1536.98 1908.09 1529.87 Q1908.09 1522.75 1906.26 1519.2 Q1904.46 1515.64 1900.82 1515.64 M1900.82 1511.93 Q1906.63 1511.93 1909.69 1516.54 Q1912.77 1521.12 1912.77 1529.87 Q1912.77 1538.6 1909.69 1543.21 Q1906.63 1547.79 1900.82 1547.79 Q1895.01 1547.79 1891.93 1543.21 Q1888.88 1538.6 1888.88 1529.87 Q1888.88 1521.12 1891.93 1516.54 Q1895.01 1511.93 1900.82 1511.93 Z" fill="#000000" fill-rule="evenodd" fill-opacity="1" /><path clip-path="url(#clip110)" d="M1921.03 1512.56 L1939.39 1512.56 L1939.39 1516.5 L1925.31 1516.5 L1925.31 1524.97 Q1926.33 1524.62 1927.35 1524.46 Q1928.37 1524.27 1929.39 1524.27 Q1935.17 1524.27 1938.55 1527.44 Q1941.93 1530.62 1941.93 1536.03 Q1941.93 1541.61 1938.46 1544.71 Q1934.99 1547.79 1928.67 1547.79 Q1926.49 1547.79 1924.23 1547.42 Q1921.98 1547.05 1919.57 1546.31 L1919.57 1541.61 Q1921.66 1542.74 1923.88 1543.3 Q1926.1 1543.86 1928.58 1543.86 Q1932.58 1543.86 1934.92 1541.75 Q1937.26 1539.64 1937.26 1536.03 Q1937.26 1532.42 1934.92 1530.31 Q1932.58 1528.21 1928.58 1528.21 Q1926.7 1528.21 1924.83 1528.62 Q1922.98 1529.04 1921.03 1529.92 L1921.03 1512.56 Z" fill="#000000" fill-rule="evenodd" fill-opacity="1" /><path clip-path="url(#clip110)" d="M1948.39 1532.24 L1960.87 1532.24 L1960.87 1536.03 L1948.39 1536.03 L1948.39 1532.24 Z" fill="#000000" fill-rule="evenodd" fill-opacity="1" /><path clip-path="url(#clip110)" d="M1972.28 1543.18 L1988.6 1543.18 L1988.6 1547.12 L1966.66 1547.12 L1966.66 1543.18 Q1969.32 1540.43 1973.9 1535.8 Q1978.51 1531.15 1979.69 1529.81 Q1981.93 1527.28 1982.81 1525.55 Q1983.72 1523.79 1983.72 1522.1 Q1983.72 1519.34 1981.77 1517.61 Q1979.85 1515.87 1976.75 1515.87 Q1974.55 1515.87 1972.1 1516.63 Q1969.67 1517.4 1966.89 1518.95 L1966.89 1514.23 Q1969.71 1513.09 1972.17 1512.51 Q1974.62 1511.93 1976.66 1511.93 Q1982.03 1511.93 1985.22 1514.62 Q1988.42 1517.31 1988.42 1521.8 Q1988.42 1523.93 1987.61 1525.85 Q1986.82 1527.74 1984.71 1530.34 Q1984.13 1531.01 1981.03 1534.23 Q1977.93 1537.42 1972.28 1543.18 Z" fill="#000000" fill-rule="evenodd" fill-opacity="1" /><path clip-path="url(#clip110)" d="M2008.42 1530.71 Q2005.08 1530.71 2003.16 1532.49 Q2001.26 1534.27 2001.26 1537.4 Q2001.26 1540.52 2003.16 1542.31 Q2005.08 1544.09 2008.42 1544.09 Q2011.75 1544.09 2013.67 1542.31 Q2015.59 1540.5 2015.59 1537.4 Q2015.59 1534.27 2013.67 1532.49 Q2011.77 1530.71 2008.42 1530.71 M2003.74 1528.72 Q2000.73 1527.98 1999.04 1525.92 Q1997.37 1523.86 1997.37 1520.89 Q1997.37 1516.75 2000.31 1514.34 Q2003.28 1511.93 2008.42 1511.93 Q2013.58 1511.93 2016.52 1514.34 Q2019.46 1516.75 2019.46 1520.89 Q2019.46 1523.86 2017.77 1525.92 Q2016.1 1527.98 2013.11 1528.72 Q2016.49 1529.5 2018.37 1531.8 Q2020.27 1534.09 2020.27 1537.4 Q2020.27 1542.42 2017.19 1545.11 Q2014.13 1547.79 2008.42 1547.79 Q2002.7 1547.79 1999.62 1545.11 Q1996.56 1542.42 1996.56 1537.4 Q1996.56 1534.09 1998.46 1531.8 Q2000.36 1529.5 2003.74 1528.72 M2002.03 1521.33 Q2002.03 1524.02 2003.69 1525.52 Q2005.38 1527.03 2008.42 1527.03 Q2011.42 1527.03 2013.11 1525.52 Q2014.83 1524.02 2014.83 1521.33 Q2014.83 1518.65 2013.11 1517.14 Q2011.42 1515.64 2008.42 1515.64 Q2005.38 1515.64 2003.69 1517.14 Q2002.03 1518.65 2002.03 1521.33 Z" fill="#000000" fill-rule="evenodd" fill-opacity="1" /><polyline clip-path="url(#clip112)" style="stroke:#000000; stroke-linecap:butt; stroke-linejoin:round; stroke-width:2; stroke-opacity:0.1; fill:none" points="
  201.019,1318.48 2352.76,1318.48 
  "/>
<polyline clip-path="url(#clip112)" style="stroke:#000000; stroke-linecap:butt; stroke-linejoin:round; stroke-width:2; stroke-opacity:0.1; fill:none" points="
  201.019,999.607 2352.76,999.607 
  "/>
<polyline clip-path="url(#clip112)" style="stroke:#000000; stroke-linecap:butt; stroke-linejoin:round; stroke-width:2; stroke-opacity:0.1; fill:none" points="
  201.019,680.731 2352.76,680.731 
  "/>
<polyline clip-path="url(#clip112)" style="stroke:#000000; stroke-linecap:butt; stroke-linejoin:round; stroke-width:2; stroke-opacity:0.1; fill:none" points="
  201.019,361.854 2352.76,361.854 
  "/>
<polyline clip-path="url(#clip110)" style="stroke:#000000; stroke-linecap:butt; stroke-linejoin:round; stroke-width:4; stroke-opacity:1; fill:none" points="
  201.019,1486.45 201.019,47.2441 
  "/>
<polyline clip-path="url(#clip110)" style="stroke:#000000; stroke-linecap:butt; stroke-linejoin:round; stroke-width:4; stroke-opacity:1; fill:none" points="
  201.019,1318.48 226.84,1318.48 
  "/>
<polyline clip-path="url(#clip110)" style="stroke:#000000; stroke-linecap:butt; stroke-linejoin:round; stroke-width:4; stroke-opacity:1; fill:none" points="
  201.019,999.607 226.84,999.607 
  "/>
<polyline clip-path="url(#clip110)" style="stroke:#000000; stroke-linecap:butt; stroke-linejoin:round; stroke-width:4; stroke-opacity:1; fill:none" points="
  201.019,680.731 226.84,680.731 
  "/>
<polyline clip-path="url(#clip110)" style="stroke:#000000; stroke-linecap:butt; stroke-linejoin:round; stroke-width:4; stroke-opacity:1; fill:none" points="
  201.019,361.854 226.84,361.854 
  "/>
<path clip-path="url(#clip110)" d="M56.6171 1331.83 L72.9365 1331.83 L72.9365 1335.76 L50.9921 1335.76 L50.9921 1331.83 Q53.6541 1329.07 58.2375 1324.44 Q62.8439 1319.79 64.0245 1318.45 Q66.2698 1315.93 67.1494 1314.19 Q68.0522 1312.43 68.0522 1310.74 Q68.0522 1307.99 66.1078 1306.25 Q64.1865 1304.51 61.0847 1304.51 Q58.8856 1304.51 56.4319 1305.28 Q54.0014 1306.04 51.2236 1307.59 L51.2236 1302.87 Q54.0477 1301.74 56.5014 1301.16 Q58.955 1300.58 60.9921 1300.58 Q66.3624 1300.58 69.5568 1303.26 Q72.7513 1305.95 72.7513 1310.44 Q72.7513 1312.57 71.9411 1314.49 Q71.1541 1316.39 69.0476 1318.98 Q68.4689 1319.65 65.367 1322.87 Q62.2652 1326.07 56.6171 1331.83 Z" fill="#000000" fill-rule="evenodd" fill-opacity="1" /><path clip-path="url(#clip110)" d="M86.779 1331.83 L103.098 1331.83 L103.098 1335.76 L81.154 1335.76 L81.154 1331.83 Q83.816 1329.07 88.3993 1324.44 Q93.0058 1319.79 94.1863 1318.45 Q96.4317 1315.93 97.3113 1314.19 Q98.2141 1312.43 98.2141 1310.74 Q98.2141 1307.99 96.2697 1306.25 Q94.3484 1304.51 91.2465 1304.51 Q89.0475 1304.51 86.5938 1305.28 Q84.1632 1306.04 81.3855 1307.59 L81.3855 1302.87 Q84.2095 1301.74 86.6632 1301.16 Q89.1169 1300.58 91.1539 1300.58 Q96.5243 1300.58 99.7187 1303.26 Q102.913 1305.95 102.913 1310.44 Q102.913 1312.57 102.103 1314.49 Q101.316 1316.39 99.2095 1318.98 Q98.6308 1319.65 95.5289 1322.87 Q92.4271 1326.07 86.779 1331.83 Z" fill="#000000" fill-rule="evenodd" fill-opacity="1" /><path clip-path="url(#clip110)" d="M112.959 1301.2 L131.316 1301.2 L131.316 1305.14 L117.242 1305.14 L117.242 1313.61 Q118.26 1313.26 119.279 1313.1 Q120.297 1312.92 121.316 1312.92 Q127.103 1312.92 130.482 1316.09 Q133.862 1319.26 133.862 1324.68 Q133.862 1330.25 130.39 1333.36 Q126.918 1336.44 120.598 1336.44 Q118.422 1336.44 116.154 1336.07 Q113.908 1335.69 111.501 1334.95 L111.501 1330.25 Q113.584 1331.39 115.807 1331.94 Q118.029 1332.5 120.506 1332.5 Q124.51 1332.5 126.848 1330.39 Q129.186 1328.29 129.186 1324.68 Q129.186 1321.07 126.848 1318.96 Q124.51 1316.85 120.506 1316.85 Q118.631 1316.85 116.756 1317.27 Q114.904 1317.69 112.959 1318.57 L112.959 1301.2 Z" fill="#000000" fill-rule="evenodd" fill-opacity="1" /><path clip-path="url(#clip110)" d="M153.075 1304.28 Q149.464 1304.28 147.635 1307.85 Q145.83 1311.39 145.83 1318.52 Q145.83 1325.63 147.635 1329.19 Q149.464 1332.73 153.075 1332.73 Q156.709 1332.73 158.515 1329.19 Q160.343 1325.63 160.343 1318.52 Q160.343 1311.39 158.515 1307.85 Q156.709 1304.28 153.075 1304.28 M153.075 1300.58 Q158.885 1300.58 161.941 1305.19 Q165.019 1309.77 165.019 1318.52 Q165.019 1327.25 161.941 1331.85 Q158.885 1336.44 153.075 1336.44 Q147.265 1336.44 144.186 1331.85 Q141.131 1327.25 141.131 1318.52 Q141.131 1309.77 144.186 1305.19 Q147.265 1300.58 153.075 1300.58 Z" fill="#000000" fill-rule="evenodd" fill-opacity="1" /><path clip-path="url(#clip110)" d="M56.6171 1012.95 L72.9365 1012.95 L72.9365 1016.89 L50.9921 1016.89 L50.9921 1012.95 Q53.6541 1010.2 58.2375 1005.57 Q62.8439 1000.92 64.0245 999.573 Q66.2698 997.05 67.1494 995.313 Q68.0522 993.554 68.0522 991.864 Q68.0522 989.11 66.1078 987.374 Q64.1865 985.638 61.0847 985.638 Q58.8856 985.638 56.4319 986.401 Q54.0014 987.165 51.2236 988.716 L51.2236 983.994 Q54.0477 982.86 56.5014 982.281 Q58.955 981.702 60.9921 981.702 Q66.3624 981.702 69.5568 984.388 Q72.7513 987.073 72.7513 991.563 Q72.7513 993.693 71.9411 995.614 Q71.1541 997.512 69.0476 1000.11 Q68.4689 1000.78 65.367 1003.99 Q62.2652 1007.19 56.6171 1012.95 Z" fill="#000000" fill-rule="evenodd" fill-opacity="1" /><path clip-path="url(#clip110)" d="M96.9178 998.253 Q100.274 998.971 102.149 1001.24 Q104.047 1003.51 104.047 1006.84 Q104.047 1011.96 100.529 1014.76 Q97.0104 1017.56 90.529 1017.56 Q88.353 1017.56 86.0382 1017.12 Q83.7466 1016.7 81.2929 1015.85 L81.2929 1011.33 Q83.2373 1012.47 85.5521 1013.04 Q87.8669 1013.62 90.3901 1013.62 Q94.7882 1013.62 97.0798 1011.89 Q99.3946 1010.15 99.3946 1006.84 Q99.3946 1003.79 97.2419 1002.07 Q95.1123 1000.34 91.2928 1000.34 L87.2651 1000.34 L87.2651 996.494 L91.478 996.494 Q94.9271 996.494 96.7558 995.128 Q98.5845 993.739 98.5845 991.147 Q98.5845 988.485 96.6863 987.073 Q94.8113 985.638 91.2928 985.638 Q89.3715 985.638 87.1725 986.054 Q84.9734 986.471 82.3346 987.35 L82.3346 983.184 Q84.9966 982.443 87.3114 982.073 Q89.6493 981.702 91.7095 981.702 Q97.0335 981.702 100.135 984.133 Q103.237 986.54 103.237 990.661 Q103.237 993.531 101.594 995.522 Q99.9502 997.489 96.9178 998.253 Z" fill="#000000" fill-rule="evenodd" fill-opacity="1" /><path clip-path="url(#clip110)" d="M122.913 985.406 Q119.302 985.406 117.473 988.971 Q115.668 992.512 115.668 999.642 Q115.668 1006.75 117.473 1010.31 Q119.302 1013.85 122.913 1013.85 Q126.547 1013.85 128.353 1010.31 Q130.182 1006.75 130.182 999.642 Q130.182 992.512 128.353 988.971 Q126.547 985.406 122.913 985.406 M122.913 981.702 Q128.723 981.702 131.779 986.309 Q134.857 990.892 134.857 999.642 Q134.857 1008.37 131.779 1012.98 Q128.723 1017.56 122.913 1017.56 Q117.103 1017.56 114.024 1012.98 Q110.969 1008.37 110.969 999.642 Q110.969 990.892 114.024 986.309 Q117.103 981.702 122.913 981.702 Z" fill="#000000" fill-rule="evenodd" fill-opacity="1" /><path clip-path="url(#clip110)" d="M153.075 985.406 Q149.464 985.406 147.635 988.971 Q145.83 992.512 145.83 999.642 Q145.83 1006.75 147.635 1010.31 Q149.464 1013.85 153.075 1013.85 Q156.709 1013.85 158.515 1010.31 Q160.343 1006.75 160.343 999.642 Q160.343 992.512 158.515 988.971 Q156.709 985.406 153.075 985.406 M153.075 981.702 Q158.885 981.702 161.941 986.309 Q165.019 990.892 165.019 999.642 Q165.019 1008.37 161.941 1012.98 Q158.885 1017.56 153.075 1017.56 Q147.265 1017.56 144.186 1012.98 Q141.131 1008.37 141.131 999.642 Q141.131 990.892 144.186 986.309 Q147.265 981.702 153.075 981.702 Z" fill="#000000" fill-rule="evenodd" fill-opacity="1" /><path clip-path="url(#clip110)" d="M56.6171 694.075 L72.9365 694.075 L72.9365 698.011 L50.9921 698.011 L50.9921 694.075 Q53.6541 691.321 58.2375 686.691 Q62.8439 682.038 64.0245 680.696 Q66.2698 678.173 67.1494 676.437 Q68.0522 674.677 68.0522 672.988 Q68.0522 670.233 66.1078 668.497 Q64.1865 666.761 61.0847 666.761 Q58.8856 666.761 56.4319 667.525 Q54.0014 668.289 51.2236 669.839 L51.2236 665.117 Q54.0477 663.983 56.5014 663.404 Q58.955 662.826 60.9921 662.826 Q66.3624 662.826 69.5568 665.511 Q72.7513 668.196 72.7513 672.687 Q72.7513 674.816 71.9411 676.738 Q71.1541 678.636 69.0476 681.228 Q68.4689 681.9 65.367 685.117 Q62.2652 688.312 56.6171 694.075 Z" fill="#000000" fill-rule="evenodd" fill-opacity="1" /><path clip-path="url(#clip110)" d="M96.9178 679.376 Q100.274 680.094 102.149 682.363 Q104.047 684.631 104.047 687.964 Q104.047 693.08 100.529 695.881 Q97.0104 698.682 90.529 698.682 Q88.353 698.682 86.0382 698.242 Q83.7466 697.825 81.2929 696.969 L81.2929 692.455 Q83.2373 693.589 85.5521 694.168 Q87.8669 694.747 90.3901 694.747 Q94.7882 694.747 97.0798 693.011 Q99.3946 691.274 99.3946 687.964 Q99.3946 684.909 97.2419 683.196 Q95.1123 681.46 91.2928 681.46 L87.2651 681.46 L87.2651 677.617 L91.478 677.617 Q94.9271 677.617 96.7558 676.251 Q98.5845 674.863 98.5845 672.27 Q98.5845 669.608 96.6863 668.196 Q94.8113 666.761 91.2928 666.761 Q89.3715 666.761 87.1725 667.177 Q84.9734 667.594 82.3346 668.474 L82.3346 664.307 Q84.9966 663.566 87.3114 663.196 Q89.6493 662.826 91.7095 662.826 Q97.0335 662.826 100.135 665.256 Q103.237 667.664 103.237 671.784 Q103.237 674.654 101.594 676.645 Q99.9502 678.613 96.9178 679.376 Z" fill="#000000" fill-rule="evenodd" fill-opacity="1" /><path clip-path="url(#clip110)" d="M112.959 663.451 L131.316 663.451 L131.316 667.386 L117.242 667.386 L117.242 675.858 Q118.26 675.511 119.279 675.349 Q120.297 675.163 121.316 675.163 Q127.103 675.163 130.482 678.335 Q133.862 681.506 133.862 686.923 Q133.862 692.501 130.39 695.603 Q126.918 698.682 120.598 698.682 Q118.422 698.682 116.154 698.311 Q113.908 697.941 111.501 697.2 L111.501 692.501 Q113.584 693.636 115.807 694.191 Q118.029 694.747 120.506 694.747 Q124.51 694.747 126.848 692.64 Q129.186 690.534 129.186 686.923 Q129.186 683.312 126.848 681.205 Q124.51 679.099 120.506 679.099 Q118.631 679.099 116.756 679.515 Q114.904 679.932 112.959 680.812 L112.959 663.451 Z" fill="#000000" fill-rule="evenodd" fill-opacity="1" /><path clip-path="url(#clip110)" d="M153.075 666.529 Q149.464 666.529 147.635 670.094 Q145.83 673.636 145.83 680.765 Q145.83 687.872 147.635 691.437 Q149.464 694.978 153.075 694.978 Q156.709 694.978 158.515 691.437 Q160.343 687.872 160.343 680.765 Q160.343 673.636 158.515 670.094 Q156.709 666.529 153.075 666.529 M153.075 662.826 Q158.885 662.826 161.941 667.432 Q165.019 672.015 165.019 680.765 Q165.019 689.492 161.941 694.099 Q158.885 698.682 153.075 698.682 Q147.265 698.682 144.186 694.099 Q141.131 689.492 141.131 680.765 Q141.131 672.015 144.186 667.432 Q147.265 662.826 153.075 662.826 Z" fill="#000000" fill-rule="evenodd" fill-opacity="1" /><path clip-path="url(#clip110)" d="M56.6171 375.199 L72.9365 375.199 L72.9365 379.134 L50.9921 379.134 L50.9921 375.199 Q53.6541 372.444 58.2375 367.814 Q62.8439 363.162 64.0245 361.819 Q66.2698 359.296 67.1494 357.56 Q68.0522 355.801 68.0522 354.111 Q68.0522 351.356 66.1078 349.62 Q64.1865 347.884 61.0847 347.884 Q58.8856 347.884 56.4319 348.648 Q54.0014 349.412 51.2236 350.963 L51.2236 346.24 Q54.0477 345.106 56.5014 344.527 Q58.955 343.949 60.9921 343.949 Q66.3624 343.949 69.5568 346.634 Q72.7513 349.319 72.7513 353.81 Q72.7513 355.939 71.9411 357.861 Q71.1541 359.759 69.0476 362.351 Q68.4689 363.023 65.367 366.24 Q62.2652 369.435 56.6171 375.199 Z" fill="#000000" fill-rule="evenodd" fill-opacity="1" /><path clip-path="url(#clip110)" d="M95.5984 348.648 L83.7929 367.097 L95.5984 367.097 L95.5984 348.648 M94.3715 344.574 L100.251 344.574 L100.251 367.097 L105.182 367.097 L105.182 370.986 L100.251 370.986 L100.251 379.134 L95.5984 379.134 L95.5984 370.986 L79.9966 370.986 L79.9966 366.472 L94.3715 344.574 Z" fill="#000000" fill-rule="evenodd" fill-opacity="1" /><path clip-path="url(#clip110)" d="M122.913 347.652 Q119.302 347.652 117.473 351.217 Q115.668 354.759 115.668 361.888 Q115.668 368.995 117.473 372.56 Q119.302 376.101 122.913 376.101 Q126.547 376.101 128.353 372.56 Q130.182 368.995 130.182 361.888 Q130.182 354.759 128.353 351.217 Q126.547 347.652 122.913 347.652 M122.913 343.949 Q128.723 343.949 131.779 348.555 Q134.857 353.139 134.857 361.888 Q134.857 370.615 131.779 375.222 Q128.723 379.805 122.913 379.805 Q117.103 379.805 114.024 375.222 Q110.969 370.615 110.969 361.888 Q110.969 353.139 114.024 348.555 Q117.103 343.949 122.913 343.949 Z" fill="#000000" fill-rule="evenodd" fill-opacity="1" /><path clip-path="url(#clip110)" d="M153.075 347.652 Q149.464 347.652 147.635 351.217 Q145.83 354.759 145.83 361.888 Q145.83 368.995 147.635 372.56 Q149.464 376.101 153.075 376.101 Q156.709 376.101 158.515 372.56 Q160.343 368.995 160.343 361.888 Q160.343 354.759 158.515 351.217 Q156.709 347.652 153.075 347.652 M153.075 343.949 Q158.885 343.949 161.941 348.555 Q165.019 353.139 165.019 361.888 Q165.019 370.615 161.941 375.222 Q158.885 379.805 153.075 379.805 Q147.265 379.805 144.186 375.222 Q141.131 370.615 141.131 361.888 Q141.131 353.139 144.186 348.555 Q147.265 343.949 153.075 343.949 Z" fill="#000000" fill-rule="evenodd" fill-opacity="1" /><polyline clip-path="url(#clip112)" style="stroke:#009af9; stroke-linecap:butt; stroke-linejoin:round; stroke-width:4; stroke-opacity:1; fill:none" points="
  261.917,554.838 329.582,563.257 397.247,676.65 464.912,361.854 667.906,521.994 735.57,1051.52 803.235,1243.8 870.9,1247.76 938.564,1051.71 1141.56,940.168 
  1209.22,764.238 1276.89,1226.65 1344.55,820.781 1412.22,578.754 1615.21,572.312 1682.88,234.303 1750.54,279.998 1818.2,126.268 1885.87,221.803 2156.53,221.548 
  2224.19,136.663 2291.86,393.614 
  "/>
<polyline clip-path="url(#clip112)" style="stroke:#e26f46; stroke-linecap:butt; stroke-linejoin:round; stroke-width:4; stroke-opacity:1; fill:none" points="
  261.917,494.124 329.582,475.374 397.247,472.122 464.912,257.199 667.906,502.16 735.57,859.302 803.235,1092.91 870.9,1148.83 938.564,864.787 1141.56,850.755 
  1209.22,724.417 1276.89,892.72 1344.55,614.786 1412.22,559.557 1615.21,243.997 1682.88,152.097 1750.54,87.9763 1818.2,106.752 1885.87,182.391 2156.53,119.693 
  2224.19,93.9973 2291.86,299.704 
  "/>
<polyline clip-path="url(#clip112)" style="stroke:#3da44d; stroke-linecap:butt; stroke-linejoin:round; stroke-width:4; stroke-opacity:1; fill:none" points="
  261.917,924.991 329.582,671.739 397.247,729.596 464.912,425.629 667.906,778.116 735.57,1108.03 803.235,1445.72 870.9,1364.91 938.564,1105.98 1141.56,1031.5 
  1209.22,979.455 1276.89,1232.26 1344.55,865.105 1412.22,729.39 1615.21,616.253 1682.88,342.785 1750.54,282.04 1818.2,349.099 1885.87,312.811 2156.53,330.732 
  2224.19,335.068 2291.86,471.356 
  "/>
<polyline clip-path="url(#clip112)" style="stroke:#c271d2; stroke-linecap:butt; stroke-linejoin:round; stroke-width:4; stroke-opacity:1; fill:none" points="
  261.917,653.626 329.582,637.746 397.247,480.794 464.912,370.209 667.906,733.92 735.57,943.74 803.235,1388.13 870.9,1242.15 938.564,896.547 1141.56,863.065 
  1209.22,977.733 1276.89,944.059 1344.55,641.891 1412.22,711.98 1615.21,319.316 1682.88,304.009 1750.54,148.015 1818.2,345.846 1885.87,288.129 2156.53,171.739 
  2224.19,226.14 2291.86,332.453 
  "/>
<path clip-path="url(#clip110)" d="
M1917.99 397.618 L2281.03 397.618 L2281.03 95.2176 L1917.99 95.2176  Z
  " fill="#ffffff" fill-rule="evenodd" fill-opacity="1"/>
<polyline clip-path="url(#clip110)" style="stroke:#000000; stroke-linecap:butt; stroke-linejoin:round; stroke-width:4; stroke-opacity:1; fill:none" points="
  1917.99,397.618 2281.03,397.618 2281.03,95.2176 1917.99,95.2176 1917.99,397.618 
  "/>
<polyline clip-path="url(#clip110)" style="stroke:#009af9; stroke-linecap:butt; stroke-linejoin:round; stroke-width:4; stroke-opacity:1; fill:none" points="
  1941.9,155.698 2085.35,155.698 
  "/>
<path clip-path="url(#clip110)" d="M2125.28 141.589 Q2120.18 141.589 2117.17 145.385 Q2114.19 149.181 2114.19 155.732 Q2114.19 162.26 2117.17 166.056 Q2120.18 169.853 2125.28 169.853 Q2130.37 169.853 2133.33 166.056 Q2136.32 162.26 2136.32 155.732 Q2136.32 149.181 2133.33 145.385 Q2130.37 141.589 2125.28 141.589 M2125.28 137.793 Q2132.54 137.793 2136.9 142.677 Q2141.25 147.538 2141.25 155.732 Q2141.25 163.904 2136.9 168.788 Q2132.54 173.649 2125.28 173.649 Q2117.98 173.649 2113.61 168.788 Q2109.26 163.927 2109.26 155.732 Q2109.26 147.538 2113.61 142.677 Q2117.98 137.793 2125.28 137.793 Z" fill="#000000" fill-rule="evenodd" fill-opacity="1" /><path clip-path="url(#clip110)" d="M2152.5 169.089 L2152.5 182.839 L2148.22 182.839 L2148.22 147.052 L2152.5 147.052 L2152.5 150.987 Q2153.84 148.672 2155.88 147.561 Q2157.94 146.427 2160.78 146.427 Q2165.51 146.427 2168.45 150.177 Q2171.41 153.927 2171.41 160.038 Q2171.41 166.149 2168.45 169.899 Q2165.51 173.649 2160.78 173.649 Q2157.94 173.649 2155.88 172.538 Q2153.84 171.403 2152.5 169.089 M2166.99 160.038 Q2166.99 155.339 2165.04 152.677 Q2163.12 149.992 2159.74 149.992 Q2156.36 149.992 2154.42 152.677 Q2152.5 155.339 2152.5 160.038 Q2152.5 164.737 2154.42 167.422 Q2156.36 170.084 2159.74 170.084 Q2163.12 170.084 2165.04 167.422 Q2166.99 164.737 2166.99 160.038 Z" fill="#000000" fill-rule="evenodd" fill-opacity="1" /><path clip-path="url(#clip110)" d="M2200.65 158.95 L2200.65 161.033 L2181.06 161.033 Q2181.34 165.431 2183.7 167.746 Q2186.09 170.038 2190.32 170.038 Q2192.78 170.038 2195.07 169.436 Q2197.38 168.834 2199.65 167.63 L2199.65 171.658 Q2197.36 172.63 2194.95 173.14 Q2192.54 173.649 2190.07 173.649 Q2183.86 173.649 2180.23 170.038 Q2176.62 166.427 2176.62 160.269 Q2176.62 153.904 2180.04 150.177 Q2183.49 146.427 2189.33 146.427 Q2194.56 146.427 2197.59 149.806 Q2200.65 153.163 2200.65 158.95 M2196.39 157.7 Q2196.34 154.205 2194.42 152.121 Q2192.52 150.038 2189.37 150.038 Q2185.81 150.038 2183.66 152.052 Q2181.53 154.066 2181.2 157.723 L2196.39 157.7 Z" fill="#000000" fill-rule="evenodd" fill-opacity="1" /><path clip-path="url(#clip110)" d="M2229.19 157.329 L2229.19 172.978 L2224.93 172.978 L2224.93 157.468 Q2224.93 153.788 2223.49 151.959 Q2222.06 150.13 2219.19 150.13 Q2215.74 150.13 2213.75 152.33 Q2211.76 154.529 2211.76 158.325 L2211.76 172.978 L2207.47 172.978 L2207.47 147.052 L2211.76 147.052 L2211.76 151.08 Q2213.28 148.742 2215.34 147.584 Q2217.43 146.427 2220.14 146.427 Q2224.6 146.427 2226.9 149.205 Q2229.19 151.959 2229.19 157.329 Z" fill="#000000" fill-rule="evenodd" fill-opacity="1" /><polyline clip-path="url(#clip110)" style="stroke:#e26f46; stroke-linecap:butt; stroke-linejoin:round; stroke-width:4; stroke-opacity:1; fill:none" points="
  1941.9,216.178 2085.35,216.178 
  "/>
<path clip-path="url(#clip110)" d="M2109.26 198.898 L2113.93 198.898 L2113.93 213.064 L2130.92 213.064 L2130.92 198.898 L2135.6 198.898 L2135.6 233.458 L2130.92 233.458 L2130.92 216.999 L2113.93 216.999 L2113.93 233.458 L2109.26 233.458 L2109.26 198.898 Z" fill="#000000" fill-rule="evenodd" fill-opacity="1" /><path clip-path="url(#clip110)" d="M2144.72 207.532 L2148.98 207.532 L2148.98 233.458 L2144.72 233.458 L2144.72 207.532 M2144.72 197.439 L2148.98 197.439 L2148.98 202.833 L2144.72 202.833 L2144.72 197.439 Z" fill="#000000" fill-rule="evenodd" fill-opacity="1" /><path clip-path="url(#clip110)" d="M2174.95 220.194 Q2174.95 215.564 2173.03 213.018 Q2171.13 210.472 2167.68 210.472 Q2164.26 210.472 2162.34 213.018 Q2160.44 215.564 2160.44 220.194 Q2160.44 224.8 2162.34 227.346 Q2164.26 229.893 2167.68 229.893 Q2171.13 229.893 2173.03 227.346 Q2174.95 224.8 2174.95 220.194 M2179.21 230.24 Q2179.21 236.86 2176.27 240.078 Q2173.33 243.319 2167.27 243.319 Q2165.02 243.319 2163.03 242.971 Q2161.04 242.647 2159.16 241.953 L2159.16 237.809 Q2161.04 238.828 2162.87 239.314 Q2164.7 239.8 2166.59 239.8 Q2170.78 239.8 2172.87 237.601 Q2174.95 235.425 2174.95 231.004 L2174.95 228.897 Q2173.63 231.189 2171.57 232.323 Q2169.51 233.458 2166.64 233.458 Q2161.87 233.458 2158.96 229.823 Q2156.04 226.189 2156.04 220.194 Q2156.04 214.175 2158.96 210.541 Q2161.87 206.907 2166.64 206.907 Q2169.51 206.907 2171.57 208.041 Q2173.63 209.175 2174.95 211.467 L2174.95 207.532 L2179.21 207.532 L2179.21 230.24 Z" fill="#000000" fill-rule="evenodd" fill-opacity="1" /><path clip-path="url(#clip110)" d="M2209.53 217.809 L2209.53 233.458 L2205.28 233.458 L2205.28 217.948 Q2205.28 214.268 2203.84 212.439 Q2202.4 210.61 2199.53 210.61 Q2196.09 210.61 2194.09 212.81 Q2192.1 215.009 2192.1 218.805 L2192.1 233.458 L2187.82 233.458 L2187.82 197.439 L2192.1 197.439 L2192.1 211.56 Q2193.63 209.222 2195.69 208.064 Q2197.78 206.907 2200.48 206.907 Q2204.95 206.907 2207.24 209.685 Q2209.53 212.439 2209.53 217.809 Z" fill="#000000" fill-rule="evenodd" fill-opacity="1" /><polyline clip-path="url(#clip110)" style="stroke:#3da44d; stroke-linecap:butt; stroke-linejoin:round; stroke-width:4; stroke-opacity:1; fill:none" points="
  1941.9,276.658 2085.35,276.658 
  "/>
<path clip-path="url(#clip110)" d="M2109.26 259.378 L2113.93 259.378 L2113.93 290.002 L2130.76 290.002 L2130.76 293.938 L2109.26 293.938 L2109.26 259.378 Z" fill="#000000" fill-rule="evenodd" fill-opacity="1" /><path clip-path="url(#clip110)" d="M2144.7 270.998 Q2141.27 270.998 2139.28 273.683 Q2137.29 276.345 2137.29 280.998 Q2137.29 285.651 2139.26 288.336 Q2141.25 290.998 2144.7 290.998 Q2148.1 290.998 2150.09 288.313 Q2152.08 285.627 2152.08 280.998 Q2152.08 276.391 2150.09 273.706 Q2148.1 270.998 2144.7 270.998 M2144.7 267.387 Q2150.25 267.387 2153.42 270.998 Q2156.6 274.609 2156.6 280.998 Q2156.6 287.364 2153.42 290.998 Q2150.25 294.609 2144.7 294.609 Q2139.12 294.609 2135.95 290.998 Q2132.8 287.364 2132.8 280.998 Q2132.8 274.609 2135.95 270.998 Q2139.12 267.387 2144.7 267.387 Z" fill="#000000" fill-rule="evenodd" fill-opacity="1" /><path clip-path="url(#clip110)" d="M2161.18 268.012 L2165.44 268.012 L2170.76 288.243 L2176.06 268.012 L2181.09 268.012 L2186.41 288.243 L2191.71 268.012 L2195.97 268.012 L2189.19 293.938 L2184.16 293.938 L2178.59 272.688 L2172.98 293.938 L2167.96 293.938 L2161.18 268.012 Z" fill="#000000" fill-rule="evenodd" fill-opacity="1" /><polyline clip-path="url(#clip110)" style="stroke:#c271d2; stroke-linecap:butt; stroke-linejoin:round; stroke-width:4; stroke-opacity:1; fill:none" points="
  1941.9,337.138 2085.35,337.138 
  "/>
<path clip-path="url(#clip110)" d="M2137.13 322.52 L2137.13 327.45 Q2134.77 325.251 2132.08 324.163 Q2129.42 323.075 2126.41 323.075 Q2120.48 323.075 2117.34 326.709 Q2114.19 330.32 2114.19 337.172 Q2114.19 344.001 2117.34 347.635 Q2120.48 351.246 2126.41 351.246 Q2129.42 351.246 2132.08 350.158 Q2134.77 349.07 2137.13 346.871 L2137.13 351.756 Q2134.67 353.422 2131.92 354.256 Q2129.19 355.089 2126.13 355.089 Q2118.29 355.089 2113.77 350.297 Q2109.26 345.482 2109.26 337.172 Q2109.26 328.839 2113.77 324.047 Q2118.29 319.233 2126.13 319.233 Q2129.23 319.233 2131.97 320.066 Q2134.72 320.876 2137.13 322.52 Z" fill="#000000" fill-rule="evenodd" fill-opacity="1" /><path clip-path="url(#clip110)" d="M2144.16 318.399 L2148.42 318.399 L2148.42 354.418 L2144.16 354.418 L2144.16 318.399 Z" fill="#000000" fill-rule="evenodd" fill-opacity="1" /><path clip-path="url(#clip110)" d="M2167.38 331.478 Q2163.96 331.478 2161.97 334.163 Q2159.97 336.825 2159.97 341.478 Q2159.97 346.131 2161.94 348.816 Q2163.93 351.478 2167.38 351.478 Q2170.78 351.478 2172.78 348.793 Q2174.77 346.107 2174.77 341.478 Q2174.77 336.871 2172.78 334.186 Q2170.78 331.478 2167.38 331.478 M2167.38 327.867 Q2172.94 327.867 2176.11 331.478 Q2179.28 335.089 2179.28 341.478 Q2179.28 347.844 2176.11 351.478 Q2172.94 355.089 2167.38 355.089 Q2161.8 355.089 2158.63 351.478 Q2155.48 347.844 2155.48 341.478 Q2155.48 335.089 2158.63 331.478 Q2161.8 327.867 2167.38 327.867 Z" fill="#000000" fill-rule="evenodd" fill-opacity="1" /><path clip-path="url(#clip110)" d="M2202.87 329.256 L2202.87 333.283 Q2201.06 332.357 2199.12 331.895 Q2197.17 331.432 2195.09 331.432 Q2191.92 331.432 2190.32 332.404 Q2188.75 333.376 2188.75 335.32 Q2188.75 336.802 2189.88 337.658 Q2191.02 338.492 2194.44 339.256 L2195.9 339.58 Q2200.44 340.552 2202.34 342.334 Q2204.26 344.094 2204.26 347.265 Q2204.26 350.876 2201.39 352.982 Q2198.54 355.089 2193.54 355.089 Q2191.46 355.089 2189.19 354.672 Q2186.94 354.279 2184.44 353.468 L2184.44 349.07 Q2186.8 350.297 2189.09 350.922 Q2191.39 351.524 2193.63 351.524 Q2196.64 351.524 2198.26 350.506 Q2199.88 349.464 2199.88 347.589 Q2199.88 345.853 2198.7 344.927 Q2197.54 344.001 2193.59 343.144 L2192.1 342.797 Q2188.15 341.964 2186.39 340.251 Q2184.63 338.515 2184.63 335.506 Q2184.63 331.848 2187.22 329.858 Q2189.81 327.867 2194.58 327.867 Q2196.94 327.867 2199.03 328.214 Q2201.11 328.561 2202.87 329.256 Z" fill="#000000" fill-rule="evenodd" fill-opacity="1" /><path clip-path="url(#clip110)" d="M2233.21 340.39 L2233.21 342.473 L2213.63 342.473 Q2213.91 346.871 2216.27 349.186 Q2218.65 351.478 2222.89 351.478 Q2225.34 351.478 2227.64 350.876 Q2229.95 350.274 2232.22 349.07 L2232.22 353.098 Q2229.93 354.07 2227.52 354.58 Q2225.11 355.089 2222.64 355.089 Q2216.43 355.089 2212.8 351.478 Q2209.19 347.867 2209.19 341.709 Q2209.19 335.344 2212.61 331.617 Q2216.06 327.867 2221.9 327.867 Q2227.13 327.867 2230.16 331.246 Q2233.21 334.603 2233.21 340.39 M2228.96 339.14 Q2228.91 335.645 2226.99 333.561 Q2225.09 331.478 2221.94 331.478 Q2218.38 331.478 2216.22 333.492 Q2214.09 335.506 2213.77 339.163 L2228.96 339.14 Z" fill="#000000" fill-rule="evenodd" fill-opacity="1" /></svg>
