<?xml version="1.0" encoding="utf-8"?>
<svg xmlns="http://www.w3.org/2000/svg" xmlns:xlink="http://www.w3.org/1999/xlink" width="600" height="400" viewBox="0 0 2400 1600">
<defs>
  <clipPath id="clip170">
    <rect x="0" y="0" width="2400" height="1600"/>
  </clipPath>
</defs>
<path clip-path="url(#clip170)" d="
M0 1600 L2400 1600 L2400 0 L0 0  Z
  " fill="#ffffff" fill-rule="evenodd" fill-opacity="1"/>
<defs>
  <clipPath id="clip171">
    <rect x="480" y="0" width="1681" height="1600"/>
  </clipPath>
</defs>
<path clip-path="url(#clip170)" d="
M201.019 1486.45 L2352.76 1486.45 L2352.76 47.2441 L201.019 47.2441  Z
  " fill="#ffffff" fill-rule="evenodd" fill-opacity="1"/>
<defs>
  <clipPath id="clip172">
    <rect x="201" y="47" width="2153" height="1440"/>
  </clipPath>
</defs>
<polyline clip-path="url(#clip172)" style="stroke:#000000; stroke-linecap:butt; stroke-linejoin:round; stroke-width:2; stroke-opacity:0.1; fill:none" points="
  261.917,1486.45 261.917,47.2441 
  "/>
<polyline clip-path="url(#clip172)" style="stroke:#000000; stroke-linecap:butt; stroke-linejoin:round; stroke-width:2; stroke-opacity:0.1; fill:none" points="
  785.773,1486.45 785.773,47.2441 
  "/>
<polyline clip-path="url(#clip172)" style="stroke:#000000; stroke-linecap:butt; stroke-linejoin:round; stroke-width:2; stroke-opacity:0.1; fill:none" points="
  1309.63,1486.45 1309.63,47.2441 
  "/>
<polyline clip-path="url(#clip172)" style="stroke:#000000; stroke-linecap:butt; stroke-linejoin:round; stroke-width:2; stroke-opacity:0.1; fill:none" points="
  1833.48,1486.45 1833.48,47.2441 
  "/>
<polyline clip-path="url(#clip170)" style="stroke:#000000; stroke-linecap:butt; stroke-linejoin:round; stroke-width:4; stroke-opacity:1; fill:none" points="
  201.019,1486.45 2352.76,1486.45 
  "/>
<polyline clip-path="url(#clip170)" style="stroke:#000000; stroke-linecap:butt; stroke-linejoin:round; stroke-width:4; stroke-opacity:1; fill:none" points="
  261.917,1486.45 261.917,1469.18 
  "/>
<polyline clip-path="url(#clip170)" style="stroke:#000000; stroke-linecap:butt; stroke-linejoin:round; stroke-width:4; stroke-opacity:1; fill:none" points="
  785.773,1486.45 785.773,1469.18 
  "/>
<polyline clip-path="url(#clip170)" style="stroke:#000000; stroke-linecap:butt; stroke-linejoin:round; stroke-width:4; stroke-opacity:1; fill:none" points="
  1309.63,1486.45 1309.63,1469.18 
  "/>
<polyline clip-path="url(#clip170)" style="stroke:#000000; stroke-linecap:butt; stroke-linejoin:round; stroke-width:4; stroke-opacity:1; fill:none" points="
  1833.48,1486.45 1833.48,1469.18 
  "/>
<path clip-path="url(#clip170)" d="M132.856 1543.18 L149.175 1543.18 L149.175 1547.12 L127.231 1547.12 L127.231 1543.18 Q129.893 1540.43 134.476 1535.8 Q139.083 1531.15 140.263 1529.81 Q142.508 1527.28 143.388 1525.55 Q144.291 1523.79 144.291 1522.1 Q144.291 1519.34 142.346 1517.61 Q140.425 1515.87 137.323 1515.87 Q135.124 1515.87 132.671 1516.63 Q130.24 1517.4 127.462 1518.95 L127.462 1514.23 Q130.286 1513.09 132.74 1512.51 Q135.194 1511.93 137.231 1511.93 Q142.601 1511.93 145.795 1514.62 Q148.99 1517.31 148.99 1521.8 Q148.99 1523.93 148.18 1525.85 Q147.393 1527.74 145.286 1530.34 Q144.707 1531.01 141.606 1534.23 Q138.504 1537.42 132.856 1543.18 Z" fill="#000000" fill-rule="evenodd" fill-opacity="1" /><path clip-path="url(#clip170)" d="M168.99 1515.64 Q165.379 1515.64 163.55 1519.2 Q161.744 1522.75 161.744 1529.87 Q161.744 1536.98 163.55 1540.55 Q165.379 1544.09 168.99 1544.09 Q172.624 1544.09 174.43 1540.55 Q176.258 1536.98 176.258 1529.87 Q176.258 1522.75 174.43 1519.2 Q172.624 1515.64 168.99 1515.64 M168.99 1511.93 Q174.8 1511.93 177.855 1516.54 Q180.934 1521.12 180.934 1529.87 Q180.934 1538.6 177.855 1543.21 Q174.8 1547.79 168.99 1547.79 Q163.18 1547.79 160.101 1543.21 Q157.045 1538.6 157.045 1529.87 Q157.045 1521.12 160.101 1516.54 Q163.18 1511.93 168.99 1511.93 Z" fill="#000000" fill-rule="evenodd" fill-opacity="1" /><path clip-path="url(#clip170)" d="M193.179 1543.18 L209.499 1543.18 L209.499 1547.12 L187.554 1547.12 L187.554 1543.18 Q190.216 1540.43 194.8 1535.8 Q199.406 1531.15 200.587 1529.81 Q202.832 1527.28 203.712 1525.55 Q204.615 1523.79 204.615 1522.1 Q204.615 1519.34 202.67 1517.61 Q200.749 1515.87 197.647 1515.87 Q195.448 1515.87 192.994 1516.63 Q190.564 1517.4 187.786 1518.95 L187.786 1514.23 Q190.61 1513.09 193.064 1512.51 Q195.517 1511.93 197.554 1511.93 Q202.925 1511.93 206.119 1514.62 Q209.314 1517.31 209.314 1521.8 Q209.314 1523.93 208.503 1525.85 Q207.716 1527.74 205.61 1530.34 Q205.031 1531.01 201.929 1534.23 Q198.828 1537.42 193.179 1543.18 Z" fill="#000000" fill-rule="evenodd" fill-opacity="1" /><path clip-path="url(#clip170)" d="M220.124 1543.18 L227.763 1543.18 L227.763 1516.82 L219.452 1518.49 L219.452 1514.23 L227.716 1512.56 L232.392 1512.56 L232.392 1543.18 L240.031 1543.18 L240.031 1547.12 L220.124 1547.12 L220.124 1543.18 Z" fill="#000000" fill-rule="evenodd" fill-opacity="1" /><path clip-path="url(#clip170)" d="M246.721 1532.24 L259.198 1532.24 L259.198 1536.03 L246.721 1536.03 L246.721 1532.24 Z" fill="#000000" fill-rule="evenodd" fill-opacity="1" /><path clip-path="url(#clip170)" d="M276.582 1515.64 Q272.971 1515.64 271.142 1519.2 Q269.336 1522.75 269.336 1529.87 Q269.336 1536.98 271.142 1540.55 Q272.971 1544.09 276.582 1544.09 Q280.216 1544.09 282.022 1540.55 Q283.85 1536.98 283.85 1529.87 Q283.85 1522.75 282.022 1519.2 Q280.216 1515.64 276.582 1515.64 M276.582 1511.93 Q282.392 1511.93 285.447 1516.54 Q288.526 1521.12 288.526 1529.87 Q288.526 1538.6 285.447 1543.21 Q282.392 1547.79 276.582 1547.79 Q270.772 1547.79 267.693 1543.21 Q264.637 1538.6 264.637 1529.87 Q264.637 1521.12 267.693 1516.54 Q270.772 1511.93 276.582 1511.93 Z" fill="#000000" fill-rule="evenodd" fill-opacity="1" /><path clip-path="url(#clip170)" d="M296.79 1512.56 L315.146 1512.56 L315.146 1516.5 L301.072 1516.5 L301.072 1524.97 Q302.091 1524.62 303.109 1524.46 Q304.128 1524.27 305.146 1524.27 Q310.933 1524.27 314.313 1527.44 Q317.693 1530.62 317.693 1536.03 Q317.693 1541.61 314.22 1544.71 Q310.748 1547.79 304.429 1547.79 Q302.253 1547.79 299.984 1547.42 Q297.739 1547.05 295.332 1546.31 L295.332 1541.61 Q297.415 1542.74 299.637 1543.3 Q301.859 1543.86 304.336 1543.86 Q308.341 1543.86 310.679 1541.75 Q313.017 1539.64 313.017 1536.03 Q313.017 1532.42 310.679 1530.31 Q308.341 1528.21 304.336 1528.21 Q302.461 1528.21 300.586 1528.62 Q298.734 1529.04 296.79 1529.92 L296.79 1512.56 Z" fill="#000000" fill-rule="evenodd" fill-opacity="1" /><path clip-path="url(#clip170)" d="M324.151 1532.24 L336.628 1532.24 L336.628 1536.03 L324.151 1536.03 L324.151 1532.24 Z" fill="#000000" fill-rule="evenodd" fill-opacity="1" /><path clip-path="url(#clip170)" d="M354.012 1515.64 Q350.401 1515.64 348.572 1519.2 Q346.767 1522.75 346.767 1529.87 Q346.767 1536.98 348.572 1540.55 Q350.401 1544.09 354.012 1544.09 Q357.646 1544.09 359.452 1540.55 Q361.28 1536.98 361.28 1529.87 Q361.28 1522.75 359.452 1519.2 Q357.646 1515.64 354.012 1515.64 M354.012 1511.93 Q359.822 1511.93 362.878 1516.54 Q365.956 1521.12 365.956 1529.87 Q365.956 1538.6 362.878 1543.21 Q359.822 1547.79 354.012 1547.79 Q348.202 1547.79 345.123 1543.21 Q342.068 1538.6 342.068 1529.87 Q342.068 1521.12 345.123 1516.54 Q348.202 1511.93 354.012 1511.93 Z" fill="#000000" fill-rule="evenodd" fill-opacity="1" /><path clip-path="url(#clip170)" d="M387.021 1516.63 L375.216 1535.08 L387.021 1535.08 L387.021 1516.63 M385.794 1512.56 L391.674 1512.56 L391.674 1535.08 L396.604 1535.08 L396.604 1538.97 L391.674 1538.97 L391.674 1547.12 L387.021 1547.12 L387.021 1538.97 L371.419 1538.97 L371.419 1534.46 L385.794 1512.56 Z" fill="#000000" fill-rule="evenodd" fill-opacity="1" /><path clip-path="url(#clip170)" d="M657.753 1543.18 L674.072 1543.18 L674.072 1547.12 L652.128 1547.12 L652.128 1543.18 Q654.79 1540.43 659.373 1535.8 Q663.98 1531.15 665.16 1529.81 Q667.406 1527.28 668.285 1525.55 Q669.188 1523.79 669.188 1522.1 Q669.188 1519.34 667.244 1517.61 Q665.322 1515.87 662.22 1515.87 Q660.021 1515.87 657.568 1516.63 Q655.137 1517.4 652.359 1518.95 L652.359 1514.23 Q655.183 1513.09 657.637 1512.51 Q660.091 1511.93 662.128 1511.93 Q667.498 1511.93 670.693 1514.62 Q673.887 1517.31 673.887 1521.8 Q673.887 1523.93 673.077 1525.85 Q672.29 1527.74 670.183 1530.34 Q669.605 1531.01 666.503 1534.23 Q663.401 1537.42 657.753 1543.18 Z" fill="#000000" fill-rule="evenodd" fill-opacity="1" /><path clip-path="url(#clip170)" d="M693.887 1515.64 Q690.276 1515.64 688.447 1519.2 Q686.642 1522.75 686.642 1529.87 Q686.642 1536.98 688.447 1540.55 Q690.276 1544.09 693.887 1544.09 Q697.521 1544.09 699.327 1540.55 Q701.155 1536.98 701.155 1529.87 Q701.155 1522.75 699.327 1519.2 Q697.521 1515.64 693.887 1515.64 M693.887 1511.93 Q699.697 1511.93 702.753 1516.54 Q705.831 1521.12 705.831 1529.87 Q705.831 1538.6 702.753 1543.21 Q699.697 1547.79 693.887 1547.79 Q688.077 1547.79 684.998 1543.21 Q681.943 1538.6 681.943 1529.87 Q681.943 1521.12 684.998 1516.54 Q688.077 1511.93 693.887 1511.93 Z" fill="#000000" fill-rule="evenodd" fill-opacity="1" /><path clip-path="url(#clip170)" d="M718.077 1543.18 L734.396 1543.18 L734.396 1547.12 L712.452 1547.12 L712.452 1543.18 Q715.114 1540.43 719.697 1535.8 Q724.303 1531.15 725.484 1529.81 Q727.729 1527.28 728.609 1525.55 Q729.512 1523.79 729.512 1522.1 Q729.512 1519.34 727.567 1517.61 Q725.646 1515.87 722.544 1515.87 Q720.345 1515.87 717.891 1516.63 Q715.461 1517.4 712.683 1518.95 L712.683 1514.23 Q715.507 1513.09 717.961 1512.51 Q720.415 1511.93 722.452 1511.93 Q727.822 1511.93 731.016 1514.62 Q734.211 1517.31 734.211 1521.8 Q734.211 1523.93 733.401 1525.85 Q732.614 1527.74 730.507 1530.34 Q729.928 1531.01 726.827 1534.23 Q723.725 1537.42 718.077 1543.18 Z" fill="#000000" fill-rule="evenodd" fill-opacity="1" /><path clip-path="url(#clip170)" d="M745.021 1543.18 L752.66 1543.18 L752.66 1516.82 L744.35 1518.49 L744.35 1514.23 L752.613 1512.56 L757.289 1512.56 L757.289 1543.18 L764.928 1543.18 L764.928 1547.12 L745.021 1547.12 L745.021 1543.18 Z" fill="#000000" fill-rule="evenodd" fill-opacity="1" /><path clip-path="url(#clip170)" d="M771.618 1532.24 L784.095 1532.24 L784.095 1536.03 L771.618 1536.03 L771.618 1532.24 Z" fill="#000000" fill-rule="evenodd" fill-opacity="1" /><path clip-path="url(#clip170)" d="M801.479 1515.64 Q797.868 1515.64 796.039 1519.2 Q794.234 1522.75 794.234 1529.87 Q794.234 1536.98 796.039 1540.55 Q797.868 1544.09 801.479 1544.09 Q805.113 1544.09 806.919 1540.55 Q808.747 1536.98 808.747 1529.87 Q808.747 1522.75 806.919 1519.2 Q805.113 1515.64 801.479 1515.64 M801.479 1511.93 Q807.289 1511.93 810.345 1516.54 Q813.423 1521.12 813.423 1529.87 Q813.423 1538.6 810.345 1543.21 Q807.289 1547.79 801.479 1547.79 Q795.669 1547.79 792.59 1543.21 Q789.535 1538.6 789.535 1529.87 Q789.535 1521.12 792.59 1516.54 Q795.669 1511.93 801.479 1511.93 Z" fill="#000000" fill-rule="evenodd" fill-opacity="1" /><path clip-path="url(#clip170)" d="M821.687 1512.56 L840.044 1512.56 L840.044 1516.5 L825.97 1516.5 L825.97 1524.97 Q826.988 1524.62 828.007 1524.46 Q829.025 1524.27 830.044 1524.27 Q835.831 1524.27 839.21 1527.44 Q842.59 1530.62 842.59 1536.03 Q842.59 1541.61 839.118 1544.71 Q835.645 1547.79 829.326 1547.79 Q827.15 1547.79 824.882 1547.42 Q822.636 1547.05 820.229 1546.31 L820.229 1541.61 Q822.312 1542.74 824.534 1543.3 Q826.757 1543.86 829.233 1543.86 Q833.238 1543.86 835.576 1541.75 Q837.914 1539.64 837.914 1536.03 Q837.914 1532.42 835.576 1530.31 Q833.238 1528.21 829.233 1528.21 Q827.358 1528.21 825.483 1528.62 Q823.632 1529.04 821.687 1529.92 L821.687 1512.56 Z" fill="#000000" fill-rule="evenodd" fill-opacity="1" /><path clip-path="url(#clip170)" d="M849.048 1532.24 L861.525 1532.24 L861.525 1536.03 L849.048 1536.03 L849.048 1532.24 Z" fill="#000000" fill-rule="evenodd" fill-opacity="1" /><path clip-path="url(#clip170)" d="M869.719 1543.18 L877.358 1543.18 L877.358 1516.82 L869.048 1518.49 L869.048 1514.23 L877.312 1512.56 L881.988 1512.56 L881.988 1543.18 L889.627 1543.18 L889.627 1547.12 L869.719 1547.12 L869.719 1543.18 Z" fill="#000000" fill-rule="evenodd" fill-opacity="1" /><path clip-path="url(#clip170)" d="M903.099 1543.18 L919.418 1543.18 L919.418 1547.12 L897.474 1547.12 L897.474 1543.18 Q900.136 1540.43 904.719 1535.8 Q909.326 1531.15 910.506 1529.81 Q912.752 1527.28 913.631 1525.55 Q914.534 1523.79 914.534 1522.1 Q914.534 1519.34 912.589 1517.61 Q910.668 1515.87 907.566 1515.87 Q905.367 1515.87 902.914 1516.63 Q900.483 1517.4 897.705 1518.95 L897.705 1514.23 Q900.529 1513.09 902.983 1512.51 Q905.437 1511.93 907.474 1511.93 Q912.844 1511.93 916.039 1514.62 Q919.233 1517.31 919.233 1521.8 Q919.233 1523.93 918.423 1525.85 Q917.636 1527.74 915.529 1530.34 Q914.951 1531.01 911.849 1534.23 Q908.747 1537.42 903.099 1543.18 Z" fill="#000000" fill-rule="evenodd" fill-opacity="1" /><path clip-path="url(#clip170)" d="M1180.81 1543.18 L1197.13 1543.18 L1197.13 1547.12 L1175.18 1547.12 L1175.18 1543.18 Q1177.85 1540.43 1182.43 1535.8 Q1187.04 1531.15 1188.22 1529.81 Q1190.46 1527.28 1191.34 1525.55 Q1192.24 1523.79 1192.24 1522.1 Q1192.24 1519.34 1190.3 1517.61 Q1188.38 1515.87 1185.28 1515.87 Q1183.08 1515.87 1180.62 1516.63 Q1178.19 1517.4 1175.42 1518.95 L1175.42 1514.23 Q1178.24 1513.09 1180.69 1512.51 Q1183.15 1511.93 1185.18 1511.93 Q1190.56 1511.93 1193.75 1514.62 Q1196.94 1517.31 1196.94 1521.8 Q1196.94 1523.93 1196.13 1525.85 Q1195.35 1527.74 1193.24 1530.34 Q1192.66 1531.01 1189.56 1534.23 Q1186.46 1537.42 1180.81 1543.18 Z" fill="#000000" fill-rule="evenodd" fill-opacity="1" /><path clip-path="url(#clip170)" d="M1216.94 1515.64 Q1213.33 1515.64 1211.5 1519.2 Q1209.7 1522.75 1209.7 1529.87 Q1209.7 1536.98 1211.5 1540.55 Q1213.33 1544.09 1216.94 1544.09 Q1220.58 1544.09 1222.38 1540.55 Q1224.21 1536.98 1224.21 1529.87 Q1224.21 1522.75 1222.38 1519.2 Q1220.58 1515.64 1216.94 1515.64 M1216.94 1511.93 Q1222.75 1511.93 1225.81 1516.54 Q1228.89 1521.12 1228.89 1529.87 Q1228.89 1538.6 1225.81 1543.21 Q1222.75 1547.79 1216.94 1547.79 Q1211.13 1547.79 1208.06 1543.21 Q1205 1538.6 1205 1529.87 Q1205 1521.12 1208.06 1516.54 Q1211.13 1511.93 1216.94 1511.93 Z" fill="#000000" fill-rule="evenodd" fill-opacity="1" /><path clip-path="url(#clip170)" d="M1241.13 1543.18 L1257.45 1543.18 L1257.45 1547.12 L1235.51 1547.12 L1235.51 1543.18 Q1238.17 1540.43 1242.75 1535.8 Q1247.36 1531.15 1248.54 1529.81 Q1250.79 1527.28 1251.67 1525.55 Q1252.57 1523.79 1252.57 1522.1 Q1252.57 1519.34 1250.62 1517.61 Q1248.7 1515.87 1245.6 1515.87 Q1243.4 1515.87 1240.95 1516.63 Q1238.52 1517.4 1235.74 1518.95 L1235.74 1514.23 Q1238.56 1513.09 1241.02 1512.51 Q1243.47 1511.93 1245.51 1511.93 Q1250.88 1511.93 1254.07 1514.62 Q1257.27 1517.31 1257.27 1521.8 Q1257.27 1523.93 1256.46 1525.85 Q1255.67 1527.74 1253.56 1530.34 Q1252.99 1531.01 1249.88 1534.23 Q1246.78 1537.42 1241.13 1543.18 Z" fill="#000000" fill-rule="evenodd" fill-opacity="1" /><path clip-path="url(#clip170)" d="M1268.08 1543.18 L1275.72 1543.18 L1275.72 1516.82 L1267.41 1518.49 L1267.41 1514.23 L1275.67 1512.56 L1280.35 1512.56 L1280.35 1543.18 L1287.99 1543.18 L1287.99 1547.12 L1268.08 1547.12 L1268.08 1543.18 Z" fill="#000000" fill-rule="evenodd" fill-opacity="1" /><path clip-path="url(#clip170)" d="M1294.67 1532.24 L1307.15 1532.24 L1307.15 1536.03 L1294.67 1536.03 L1294.67 1532.24 Z" fill="#000000" fill-rule="evenodd" fill-opacity="1" /><path clip-path="url(#clip170)" d="M1324.54 1515.64 Q1320.92 1515.64 1319.1 1519.2 Q1317.29 1522.75 1317.29 1529.87 Q1317.29 1536.98 1319.1 1540.55 Q1320.92 1544.09 1324.54 1544.09 Q1328.17 1544.09 1329.98 1540.55 Q1331.8 1536.98 1331.8 1529.87 Q1331.8 1522.75 1329.98 1519.2 Q1328.17 1515.64 1324.54 1515.64 M1324.54 1511.93 Q1330.35 1511.93 1333.4 1516.54 Q1336.48 1521.12 1336.48 1529.87 Q1336.48 1538.6 1333.4 1543.21 Q1330.35 1547.79 1324.54 1547.79 Q1318.73 1547.79 1315.65 1543.21 Q1312.59 1538.6 1312.59 1529.87 Q1312.59 1521.12 1315.65 1516.54 Q1318.73 1511.93 1324.54 1511.93 Z" fill="#000000" fill-rule="evenodd" fill-opacity="1" /><path clip-path="url(#clip170)" d="M1344.74 1512.56 L1363.1 1512.56 L1363.1 1516.5 L1349.03 1516.5 L1349.03 1524.97 Q1350.05 1524.62 1351.06 1524.46 Q1352.08 1524.27 1353.1 1524.27 Q1358.89 1524.27 1362.27 1527.44 Q1365.65 1530.62 1365.65 1536.03 Q1365.65 1541.61 1362.17 1544.71 Q1358.7 1547.79 1352.38 1547.79 Q1350.21 1547.79 1347.94 1547.42 Q1345.69 1547.05 1343.29 1546.31 L1343.29 1541.61 Q1345.37 1542.74 1347.59 1543.3 Q1349.81 1543.86 1352.29 1543.86 Q1356.29 1543.86 1358.63 1541.75 Q1360.97 1539.64 1360.97 1536.03 Q1360.97 1532.42 1358.63 1530.31 Q1356.29 1528.21 1352.29 1528.21 Q1350.42 1528.21 1348.54 1528.62 Q1346.69 1529.04 1344.74 1529.92 L1344.74 1512.56 Z" fill="#000000" fill-rule="evenodd" fill-opacity="1" /><path clip-path="url(#clip170)" d="M1372.11 1532.24 L1384.58 1532.24 L1384.58 1536.03 L1372.11 1536.03 L1372.11 1532.24 Z" fill="#000000" fill-rule="evenodd" fill-opacity="1" /><path clip-path="url(#clip170)" d="M1395.99 1543.18 L1412.31 1543.18 L1412.31 1547.12 L1390.37 1547.12 L1390.37 1543.18 Q1393.03 1540.43 1397.61 1535.8 Q1402.22 1531.15 1403.4 1529.81 Q1405.65 1527.28 1406.53 1525.55 Q1407.43 1523.79 1407.43 1522.1 Q1407.43 1519.34 1405.48 1517.61 Q1403.56 1515.87 1400.46 1515.87 Q1398.26 1515.87 1395.81 1516.63 Q1393.38 1517.4 1390.6 1518.95 L1390.6 1514.23 Q1393.42 1513.09 1395.88 1512.51 Q1398.33 1511.93 1400.37 1511.93 Q1405.74 1511.93 1408.93 1514.62 Q1412.13 1517.31 1412.13 1521.8 Q1412.13 1523.93 1411.32 1525.85 Q1410.53 1527.74 1408.42 1530.34 Q1407.85 1531.01 1404.74 1534.23 Q1401.64 1537.42 1395.99 1543.18 Z" fill="#000000" fill-rule="evenodd" fill-opacity="1" /><path clip-path="url(#clip170)" d="M1432.13 1515.64 Q1428.52 1515.64 1426.69 1519.2 Q1424.88 1522.75 1424.88 1529.87 Q1424.88 1536.98 1426.69 1540.55 Q1428.52 1544.09 1432.13 1544.09 Q1435.76 1544.09 1437.57 1540.55 Q1439.4 1536.98 1439.4 1529.87 Q1439.4 1522.75 1437.57 1519.2 Q1435.76 1515.64 1432.13 1515.64 M1432.13 1511.93 Q1437.94 1511.93 1440.99 1516.54 Q1444.07 1521.12 1444.07 1529.87 Q1444.07 1538.6 1440.99 1543.21 Q1437.94 1547.79 1432.13 1547.79 Q1426.32 1547.79 1423.24 1543.21 Q1420.18 1538.6 1420.18 1529.87 Q1420.18 1521.12 1423.24 1516.54 Q1426.32 1511.93 1432.13 1511.93 Z" fill="#000000" fill-rule="evenodd" fill-opacity="1" /><path clip-path="url(#clip170)" d="M1704.71 1543.18 L1721.03 1543.18 L1721.03 1547.12 L1699.09 1547.12 L1699.09 1543.18 Q1701.75 1540.43 1706.33 1535.8 Q1710.94 1531.15 1712.12 1529.81 Q1714.36 1527.28 1715.24 1525.55 Q1716.15 1523.79 1716.15 1522.1 Q1716.15 1519.34 1714.2 1517.61 Q1712.28 1515.87 1709.18 1515.87 Q1706.98 1515.87 1704.53 1516.63 Q1702.1 1517.4 1699.32 1518.95 L1699.32 1514.23 Q1702.14 1513.09 1704.6 1512.51 Q1707.05 1511.93 1709.09 1511.93 Q1714.46 1511.93 1717.65 1514.62 Q1720.85 1517.31 1720.85 1521.8 Q1720.85 1523.93 1720.04 1525.85 Q1719.25 1527.74 1717.14 1530.34 Q1716.56 1531.01 1713.46 1534.23 Q1710.36 1537.42 1704.71 1543.18 Z" fill="#000000" fill-rule="evenodd" fill-opacity="1" /><path clip-path="url(#clip170)" d="M1740.85 1515.64 Q1737.23 1515.64 1735.41 1519.2 Q1733.6 1522.75 1733.6 1529.87 Q1733.6 1536.98 1735.41 1540.55 Q1737.23 1544.09 1740.85 1544.09 Q1744.48 1544.09 1746.29 1540.55 Q1748.11 1536.98 1748.11 1529.87 Q1748.11 1522.75 1746.29 1519.2 Q1744.48 1515.64 1740.85 1515.64 M1740.85 1511.93 Q1746.66 1511.93 1749.71 1516.54 Q1752.79 1521.12 1752.79 1529.87 Q1752.79 1538.6 1749.71 1543.21 Q1746.66 1547.79 1740.85 1547.79 Q1735.04 1547.79 1731.96 1543.21 Q1728.9 1538.6 1728.9 1529.87 Q1728.9 1521.12 1731.96 1516.54 Q1735.04 1511.93 1740.85 1511.93 Z" fill="#000000" fill-rule="evenodd" fill-opacity="1" /><path clip-path="url(#clip170)" d="M1765.04 1543.18 L1781.35 1543.18 L1781.35 1547.12 L1759.41 1547.12 L1759.41 1543.18 Q1762.07 1540.43 1766.66 1535.8 Q1771.26 1531.15 1772.44 1529.81 Q1774.69 1527.28 1775.57 1525.55 Q1776.47 1523.79 1776.47 1522.1 Q1776.47 1519.34 1774.53 1517.61 Q1772.6 1515.87 1769.5 1515.87 Q1767.3 1515.87 1764.85 1516.63 Q1762.42 1517.4 1759.64 1518.95 L1759.64 1514.23 Q1762.47 1513.09 1764.92 1512.51 Q1767.37 1511.93 1769.41 1511.93 Q1774.78 1511.93 1777.98 1514.62 Q1781.17 1517.31 1781.17 1521.8 Q1781.17 1523.93 1780.36 1525.85 Q1779.57 1527.74 1777.47 1530.34 Q1776.89 1531.01 1773.79 1534.23 Q1770.68 1537.42 1765.04 1543.18 Z" fill="#000000" fill-rule="evenodd" fill-opacity="1" /><path clip-path="url(#clip170)" d="M1791.98 1543.18 L1799.62 1543.18 L1799.62 1516.82 L1791.31 1518.49 L1791.31 1514.23 L1799.57 1512.56 L1804.25 1512.56 L1804.25 1543.18 L1811.89 1543.18 L1811.89 1547.12 L1791.98 1547.12 L1791.98 1543.18 Z" fill="#000000" fill-rule="evenodd" fill-opacity="1" /><path clip-path="url(#clip170)" d="M1818.58 1532.24 L1831.05 1532.24 L1831.05 1536.03 L1818.58 1536.03 L1818.58 1532.24 Z" fill="#000000" fill-rule="evenodd" fill-opacity="1" /><path clip-path="url(#clip170)" d="M1848.44 1515.64 Q1844.83 1515.64 1843 1519.2 Q1841.19 1522.75 1841.19 1529.87 Q1841.19 1536.98 1843 1540.55 Q1844.83 1544.09 1848.44 1544.09 Q1852.07 1544.09 1853.88 1540.55 Q1855.71 1536.98 1855.71 1529.87 Q1855.71 1522.75 1853.88 1519.2 Q1852.07 1515.64 1848.44 1515.64 M1848.44 1511.93 Q1854.25 1511.93 1857.3 1516.54 Q1860.38 1521.12 1860.38 1529.87 Q1860.38 1538.6 1857.3 1543.21 Q1854.25 1547.79 1848.44 1547.79 Q1842.63 1547.79 1839.55 1543.21 Q1836.49 1538.6 1836.49 1529.87 Q1836.49 1521.12 1839.55 1516.54 Q1842.63 1511.93 1848.44 1511.93 Z" fill="#000000" fill-rule="evenodd" fill-opacity="1" /><path clip-path="url(#clip170)" d="M1868.65 1512.56 L1887 1512.56 L1887 1516.5 L1872.93 1516.5 L1872.93 1524.97 Q1873.95 1524.62 1874.97 1524.46 Q1875.98 1524.27 1877 1524.27 Q1882.79 1524.27 1886.17 1527.44 Q1889.55 1530.62 1889.55 1536.03 Q1889.55 1541.61 1886.08 1544.71 Q1882.6 1547.79 1876.28 1547.79 Q1874.11 1547.79 1871.84 1547.42 Q1869.6 1547.05 1867.19 1546.31 L1867.19 1541.61 Q1869.27 1542.74 1871.49 1543.3 Q1873.72 1543.86 1876.19 1543.86 Q1880.2 1543.86 1882.53 1541.75 Q1884.87 1539.64 1884.87 1536.03 Q1884.87 1532.42 1882.53 1530.31 Q1880.2 1528.21 1876.19 1528.21 Q1874.32 1528.21 1872.44 1528.62 Q1870.59 1529.04 1868.65 1529.92 L1868.65 1512.56 Z" fill="#000000" fill-rule="evenodd" fill-opacity="1" /><path clip-path="url(#clip170)" d="M1896.01 1532.24 L1908.48 1532.24 L1908.48 1536.03 L1896.01 1536.03 L1896.01 1532.24 Z" fill="#000000" fill-rule="evenodd" fill-opacity="1" /><path clip-path="url(#clip170)" d="M1919.9 1543.18 L1936.22 1543.18 L1936.22 1547.12 L1914.27 1547.12 L1914.27 1543.18 Q1916.93 1540.43 1921.52 1535.8 Q1926.12 1531.15 1927.3 1529.81 Q1929.55 1527.28 1930.43 1525.55 Q1931.33 1523.79 1931.33 1522.1 Q1931.33 1519.34 1929.39 1517.61 Q1927.47 1515.87 1924.36 1515.87 Q1922.16 1515.87 1919.71 1516.63 Q1917.28 1517.4 1914.5 1518.95 L1914.5 1514.23 Q1917.33 1513.09 1919.78 1512.51 Q1922.23 1511.93 1924.27 1511.93 Q1929.64 1511.93 1932.84 1514.62 Q1936.03 1517.31 1936.03 1521.8 Q1936.03 1523.93 1935.22 1525.85 Q1934.43 1527.74 1932.33 1530.34 Q1931.75 1531.01 1928.65 1534.23 Q1925.54 1537.42 1919.9 1543.18 Z" fill="#000000" fill-rule="evenodd" fill-opacity="1" /><path clip-path="url(#clip170)" d="M1956.03 1530.71 Q1952.7 1530.71 1950.78 1532.49 Q1948.88 1534.27 1948.88 1537.4 Q1948.88 1540.52 1950.78 1542.31 Q1952.7 1544.09 1956.03 1544.09 Q1959.36 1544.09 1961.28 1542.31 Q1963.21 1540.5 1963.21 1537.4 Q1963.21 1534.27 1961.28 1532.49 Q1959.39 1530.71 1956.03 1530.71 M1951.35 1528.72 Q1948.34 1527.98 1946.65 1525.92 Q1944.99 1523.86 1944.99 1520.89 Q1944.99 1516.75 1947.93 1514.34 Q1950.89 1511.93 1956.03 1511.93 Q1961.19 1511.93 1964.13 1514.34 Q1967.07 1516.75 1967.07 1520.89 Q1967.07 1523.86 1965.38 1525.92 Q1963.71 1527.98 1960.73 1528.72 Q1964.11 1529.5 1965.98 1531.8 Q1967.88 1534.09 1967.88 1537.4 Q1967.88 1542.42 1964.8 1545.11 Q1961.75 1547.79 1956.03 1547.79 Q1950.31 1547.79 1947.23 1545.11 Q1944.18 1542.42 1944.18 1537.4 Q1944.18 1534.09 1946.08 1531.8 Q1947.97 1529.5 1951.35 1528.72 M1949.64 1521.33 Q1949.64 1524.02 1951.31 1525.52 Q1953 1527.03 1956.03 1527.03 Q1959.04 1527.03 1960.73 1525.52 Q1962.44 1524.02 1962.44 1521.33 Q1962.44 1518.65 1960.73 1517.14 Q1959.04 1515.64 1956.03 1515.64 Q1953 1515.64 1951.31 1517.14 Q1949.64 1518.65 1949.64 1521.33 Z" fill="#000000" fill-rule="evenodd" fill-opacity="1" /><polyline clip-path="url(#clip172)" style="stroke:#000000; stroke-linecap:butt; stroke-linejoin:round; stroke-width:2; stroke-opacity:0.1; fill:none" points="
  201.019,1324.3 2352.76,1324.3 
  "/>
<polyline clip-path="url(#clip172)" style="stroke:#000000; stroke-linecap:butt; stroke-linejoin:round; stroke-width:2; stroke-opacity:0.1; fill:none" points="
  201.019,1020 2352.76,1020 
  "/>
<polyline clip-path="url(#clip172)" style="stroke:#000000; stroke-linecap:butt; stroke-linejoin:round; stroke-width:2; stroke-opacity:0.1; fill:none" points="
  201.019,715.692 2352.76,715.692 
  "/>
<polyline clip-path="url(#clip172)" style="stroke:#000000; stroke-linecap:butt; stroke-linejoin:round; stroke-width:2; stroke-opacity:0.1; fill:none" points="
  201.019,411.389 2352.76,411.389 
  "/>
<polyline clip-path="url(#clip172)" style="stroke:#000000; stroke-linecap:butt; stroke-linejoin:round; stroke-width:2; stroke-opacity:0.1; fill:none" points="
  201.019,107.086 2352.76,107.086 
  "/>
<polyline clip-path="url(#clip170)" style="stroke:#000000; stroke-linecap:butt; stroke-linejoin:round; stroke-width:4; stroke-opacity:1; fill:none" points="
  201.019,1486.45 201.019,47.2441 
  "/>
<polyline clip-path="url(#clip170)" style="stroke:#000000; stroke-linecap:butt; stroke-linejoin:round; stroke-width:4; stroke-opacity:1; fill:none" points="
  201.019,1324.3 226.84,1324.3 
  "/>
<polyline clip-path="url(#clip170)" style="stroke:#000000; stroke-linecap:butt; stroke-linejoin:round; stroke-width:4; stroke-opacity:1; fill:none" points="
  201.019,1020 226.84,1020 
  "/>
<polyline clip-path="url(#clip170)" style="stroke:#000000; stroke-linecap:butt; stroke-linejoin:round; stroke-width:4; stroke-opacity:1; fill:none" points="
  201.019,715.692 226.84,715.692 
  "/>
<polyline clip-path="url(#clip170)" style="stroke:#000000; stroke-linecap:butt; stroke-linejoin:round; stroke-width:4; stroke-opacity:1; fill:none" points="
  201.019,411.389 226.84,411.389 
  "/>
<polyline clip-path="url(#clip170)" style="stroke:#000000; stroke-linecap:butt; stroke-linejoin:round; stroke-width:4; stroke-opacity:1; fill:none" points="
  201.019,107.086 226.84,107.086 
  "/>
<path clip-path="url(#clip170)" d="M56.6171 1337.64 L72.9365 1337.64 L72.9365 1341.58 L50.9921 1341.58 L50.9921 1337.64 Q53.6541 1334.89 58.2375 1330.26 Q62.8439 1325.61 64.0245 1324.26 Q66.2698 1321.74 67.1494 1320.01 Q68.0522 1318.25 68.0522 1316.56 Q68.0522 1313.8 66.1078 1312.07 Q64.1865 1310.33 61.0847 1310.33 Q58.8856 1310.33 56.4319 1311.09 Q54.0014 1311.86 51.2236 1313.41 L51.2236 1308.69 Q54.0477 1307.55 56.5014 1306.97 Q58.955 1306.39 60.9921 1306.39 Q66.3624 1306.39 69.5568 1309.08 Q72.7513 1311.76 72.7513 1316.26 Q72.7513 1318.38 71.9411 1320.31 Q71.1541 1322.2 69.0476 1324.8 Q68.4689 1325.47 65.367 1328.69 Q62.2652 1331.88 56.6171 1337.64 Z" fill="#000000" fill-rule="evenodd" fill-opacity="1" /><path clip-path="url(#clip170)" d="M86.779 1337.64 L103.098 1337.64 L103.098 1341.58 L81.154 1341.58 L81.154 1337.64 Q83.816 1334.89 88.3993 1330.26 Q93.0058 1325.61 94.1863 1324.26 Q96.4317 1321.74 97.3113 1320.01 Q98.2141 1318.25 98.2141 1316.56 Q98.2141 1313.8 96.2697 1312.07 Q94.3484 1310.33 91.2465 1310.33 Q89.0475 1310.33 86.5938 1311.09 Q84.1632 1311.86 81.3855 1313.41 L81.3855 1308.69 Q84.2095 1307.55 86.6632 1306.97 Q89.1169 1306.39 91.1539 1306.39 Q96.5243 1306.39 99.7187 1309.08 Q102.913 1311.76 102.913 1316.26 Q102.913 1318.38 102.103 1320.31 Q101.316 1322.2 99.2095 1324.8 Q98.6308 1325.47 95.5289 1328.69 Q92.4271 1331.88 86.779 1337.64 Z" fill="#000000" fill-rule="evenodd" fill-opacity="1" /><path clip-path="url(#clip170)" d="M112.959 1307.02 L131.316 1307.02 L131.316 1310.95 L117.242 1310.95 L117.242 1319.43 Q118.26 1319.08 119.279 1318.92 Q120.297 1318.73 121.316 1318.73 Q127.103 1318.73 130.482 1321.9 Q133.862 1325.07 133.862 1330.49 Q133.862 1336.07 130.39 1339.17 Q126.918 1342.25 120.598 1342.25 Q118.422 1342.25 116.154 1341.88 Q113.908 1341.51 111.501 1340.77 L111.501 1336.07 Q113.584 1337.2 115.807 1337.76 Q118.029 1338.32 120.506 1338.32 Q124.51 1338.32 126.848 1336.21 Q129.186 1334.1 129.186 1330.49 Q129.186 1326.88 126.848 1324.77 Q124.51 1322.67 120.506 1322.67 Q118.631 1322.67 116.756 1323.08 Q114.904 1323.5 112.959 1324.38 L112.959 1307.02 Z" fill="#000000" fill-rule="evenodd" fill-opacity="1" /><path clip-path="url(#clip170)" d="M153.075 1310.1 Q149.464 1310.1 147.635 1313.66 Q145.83 1317.2 145.83 1324.33 Q145.83 1331.44 147.635 1335 Q149.464 1338.55 153.075 1338.55 Q156.709 1338.55 158.515 1335 Q160.343 1331.44 160.343 1324.33 Q160.343 1317.2 158.515 1313.66 Q156.709 1310.1 153.075 1310.1 M153.075 1306.39 Q158.885 1306.39 161.941 1311 Q165.019 1315.58 165.019 1324.33 Q165.019 1333.06 161.941 1337.67 Q158.885 1342.25 153.075 1342.25 Q147.265 1342.25 144.186 1337.67 Q141.131 1333.06 141.131 1324.33 Q141.131 1315.58 144.186 1311 Q147.265 1306.39 153.075 1306.39 Z" fill="#000000" fill-rule="evenodd" fill-opacity="1" /><path clip-path="url(#clip170)" d="M56.6171 1033.34 L72.9365 1033.34 L72.9365 1037.28 L50.9921 1037.28 L50.9921 1033.34 Q53.6541 1030.59 58.2375 1025.96 Q62.8439 1021.3 64.0245 1019.96 Q66.2698 1017.44 67.1494 1015.7 Q68.0522 1013.94 68.0522 1012.25 Q68.0522 1009.5 66.1078 1007.76 Q64.1865 1006.03 61.0847 1006.03 Q58.8856 1006.03 56.4319 1006.79 Q54.0014 1007.55 51.2236 1009.1 L51.2236 1004.38 Q54.0477 1003.25 56.5014 1002.67 Q58.955 1002.09 60.9921 1002.09 Q66.3624 1002.09 69.5568 1004.78 Q72.7513 1007.46 72.7513 1011.95 Q72.7513 1014.08 71.9411 1016 Q71.1541 1017.9 69.0476 1020.49 Q68.4689 1021.16 65.367 1024.38 Q62.2652 1027.58 56.6171 1033.34 Z" fill="#000000" fill-rule="evenodd" fill-opacity="1" /><path clip-path="url(#clip170)" d="M96.9178 1018.64 Q100.274 1019.36 102.149 1021.63 Q104.047 1023.9 104.047 1027.23 Q104.047 1032.35 100.529 1035.15 Q97.0104 1037.95 90.529 1037.95 Q88.353 1037.95 86.0382 1037.51 Q83.7466 1037.09 81.2929 1036.23 L81.2929 1031.72 Q83.2373 1032.85 85.5521 1033.43 Q87.8669 1034.01 90.3901 1034.01 Q94.7882 1034.01 97.0798 1032.28 Q99.3946 1030.54 99.3946 1027.23 Q99.3946 1024.17 97.2419 1022.46 Q95.1123 1020.72 91.2928 1020.72 L87.2651 1020.72 L87.2651 1016.88 L91.478 1016.88 Q94.9271 1016.88 96.7558 1015.52 Q98.5845 1014.13 98.5845 1011.54 Q98.5845 1008.87 96.6863 1007.46 Q94.8113 1006.03 91.2928 1006.03 Q89.3715 1006.03 87.1725 1006.44 Q84.9734 1006.86 82.3346 1007.74 L82.3346 1003.57 Q84.9966 1002.83 87.3114 1002.46 Q89.6493 1002.09 91.7095 1002.09 Q97.0335 1002.09 100.135 1004.52 Q103.237 1006.93 103.237 1011.05 Q103.237 1013.92 101.594 1015.91 Q99.9502 1017.88 96.9178 1018.64 Z" fill="#000000" fill-rule="evenodd" fill-opacity="1" /><path clip-path="url(#clip170)" d="M122.913 1005.79 Q119.302 1005.79 117.473 1009.36 Q115.668 1012.9 115.668 1020.03 Q115.668 1027.14 117.473 1030.7 Q119.302 1034.24 122.913 1034.24 Q126.547 1034.24 128.353 1030.7 Q130.182 1027.14 130.182 1020.03 Q130.182 1012.9 128.353 1009.36 Q126.547 1005.79 122.913 1005.79 M122.913 1002.09 Q128.723 1002.09 131.779 1006.7 Q134.857 1011.28 134.857 1020.03 Q134.857 1028.76 131.779 1033.36 Q128.723 1037.95 122.913 1037.95 Q117.103 1037.95 114.024 1033.36 Q110.969 1028.76 110.969 1020.03 Q110.969 1011.28 114.024 1006.7 Q117.103 1002.09 122.913 1002.09 Z" fill="#000000" fill-rule="evenodd" fill-opacity="1" /><path clip-path="url(#clip170)" d="M153.075 1005.79 Q149.464 1005.79 147.635 1009.36 Q145.83 1012.9 145.83 1020.03 Q145.83 1027.14 147.635 1030.7 Q149.464 1034.24 153.075 1034.24 Q156.709 1034.24 158.515 1030.7 Q160.343 1027.14 160.343 1020.03 Q160.343 1012.9 158.515 1009.36 Q156.709 1005.79 153.075 1005.79 M153.075 1002.09 Q158.885 1002.09 161.941 1006.7 Q165.019 1011.28 165.019 1020.03 Q165.019 1028.76 161.941 1033.36 Q158.885 1037.95 153.075 1037.95 Q147.265 1037.95 144.186 1033.36 Q141.131 1028.76 141.131 1020.03 Q141.131 1011.28 144.186 1006.7 Q147.265 1002.09 153.075 1002.09 Z" fill="#000000" fill-rule="evenodd" fill-opacity="1" /><path clip-path="url(#clip170)" d="M56.6171 729.037 L72.9365 729.037 L72.9365 732.972 L50.9921 732.972 L50.9921 729.037 Q53.6541 726.283 58.2375 721.653 Q62.8439 717 64.0245 715.658 Q66.2698 713.135 67.1494 711.398 Q68.0522 709.639 68.0522 707.949 Q68.0522 705.195 66.1078 703.459 Q64.1865 701.723 61.0847 701.723 Q58.8856 701.723 56.4319 702.486 Q54.0014 703.25 51.2236 704.801 L51.2236 700.079 Q54.0477 698.945 56.5014 698.366 Q58.955 697.787 60.9921 697.787 Q66.3624 697.787 69.5568 700.473 Q72.7513 703.158 72.7513 707.648 Q72.7513 709.778 71.9411 711.699 Q71.1541 713.598 69.0476 716.19 Q68.4689 716.861 65.367 720.079 Q62.2652 723.273 56.6171 729.037 Z" fill="#000000" fill-rule="evenodd" fill-opacity="1" /><path clip-path="url(#clip170)" d="M96.9178 714.338 Q100.274 715.056 102.149 717.324 Q104.047 719.593 104.047 722.926 Q104.047 728.042 100.529 730.843 Q97.0104 733.644 90.529 733.644 Q88.353 733.644 86.0382 733.204 Q83.7466 732.787 81.2929 731.931 L81.2929 727.417 Q83.2373 728.551 85.5521 729.13 Q87.8669 729.709 90.3901 729.709 Q94.7882 729.709 97.0798 727.972 Q99.3946 726.236 99.3946 722.926 Q99.3946 719.871 97.2419 718.158 Q95.1123 716.422 91.2928 716.422 L87.2651 716.422 L87.2651 712.579 L91.478 712.579 Q94.9271 712.579 96.7558 711.213 Q98.5845 709.824 98.5845 707.232 Q98.5845 704.57 96.6863 703.158 Q94.8113 701.723 91.2928 701.723 Q89.3715 701.723 87.1725 702.139 Q84.9734 702.556 82.3346 703.436 L82.3346 699.269 Q84.9966 698.528 87.3114 698.158 Q89.6493 697.787 91.7095 697.787 Q97.0335 697.787 100.135 700.218 Q103.237 702.625 103.237 706.746 Q103.237 709.616 101.594 711.607 Q99.9502 713.574 96.9178 714.338 Z" fill="#000000" fill-rule="evenodd" fill-opacity="1" /><path clip-path="url(#clip170)" d="M112.959 698.412 L131.316 698.412 L131.316 702.348 L117.242 702.348 L117.242 710.82 Q118.26 710.473 119.279 710.311 Q120.297 710.125 121.316 710.125 Q127.103 710.125 130.482 713.297 Q133.862 716.468 133.862 721.885 Q133.862 727.463 130.39 730.565 Q126.918 733.644 120.598 733.644 Q118.422 733.644 116.154 733.273 Q113.908 732.903 111.501 732.162 L111.501 727.463 Q113.584 728.597 115.807 729.153 Q118.029 729.709 120.506 729.709 Q124.51 729.709 126.848 727.602 Q129.186 725.496 129.186 721.885 Q129.186 718.273 126.848 716.167 Q124.51 714.06 120.506 714.06 Q118.631 714.06 116.756 714.477 Q114.904 714.894 112.959 715.773 L112.959 698.412 Z" fill="#000000" fill-rule="evenodd" fill-opacity="1" /><path clip-path="url(#clip170)" d="M153.075 701.491 Q149.464 701.491 147.635 705.056 Q145.83 708.598 145.83 715.727 Q145.83 722.834 147.635 726.398 Q149.464 729.94 153.075 729.94 Q156.709 729.94 158.515 726.398 Q160.343 722.834 160.343 715.727 Q160.343 708.598 158.515 705.056 Q156.709 701.491 153.075 701.491 M153.075 697.787 Q158.885 697.787 161.941 702.394 Q165.019 706.977 165.019 715.727 Q165.019 724.454 161.941 729.06 Q158.885 733.644 153.075 733.644 Q147.265 733.644 144.186 729.06 Q141.131 724.454 141.131 715.727 Q141.131 706.977 144.186 702.394 Q147.265 697.787 153.075 697.787 Z" fill="#000000" fill-rule="evenodd" fill-opacity="1" /><path clip-path="url(#clip170)" d="M56.6171 424.734 L72.9365 424.734 L72.9365 428.669 L50.9921 428.669 L50.9921 424.734 Q53.6541 421.979 58.2375 417.35 Q62.8439 412.697 64.0245 411.354 Q66.2698 408.831 67.1494 407.095 Q68.0522 405.336 68.0522 403.646 Q68.0522 400.892 66.1078 399.155 Q64.1865 397.419 61.0847 397.419 Q58.8856 397.419 56.4319 398.183 Q54.0014 398.947 51.2236 400.498 L51.2236 395.776 Q54.0477 394.642 56.5014 394.063 Q58.955 393.484 60.9921 393.484 Q66.3624 393.484 69.5568 396.169 Q72.7513 398.854 72.7513 403.345 Q72.7513 405.475 71.9411 407.396 Q71.1541 409.294 69.0476 411.887 Q68.4689 412.558 65.367 415.776 Q62.2652 418.97 56.6171 424.734 Z" fill="#000000" fill-rule="evenodd" fill-opacity="1" /><path clip-path="url(#clip170)" d="M95.5984 398.183 L83.7929 416.632 L95.5984 416.632 L95.5984 398.183 M94.3715 394.109 L100.251 394.109 L100.251 416.632 L105.182 416.632 L105.182 420.521 L100.251 420.521 L100.251 428.669 L95.5984 428.669 L95.5984 420.521 L79.9966 420.521 L79.9966 416.007 L94.3715 394.109 Z" fill="#000000" fill-rule="evenodd" fill-opacity="1" /><path clip-path="url(#clip170)" d="M122.913 397.188 Q119.302 397.188 117.473 400.753 Q115.668 404.294 115.668 411.424 Q115.668 418.53 117.473 422.095 Q119.302 425.637 122.913 425.637 Q126.547 425.637 128.353 422.095 Q130.182 418.53 130.182 411.424 Q130.182 404.294 128.353 400.753 Q126.547 397.188 122.913 397.188 M122.913 393.484 Q128.723 393.484 131.779 398.091 Q134.857 402.674 134.857 411.424 Q134.857 420.151 131.779 424.757 Q128.723 429.34 122.913 429.34 Q117.103 429.34 114.024 424.757 Q110.969 420.151 110.969 411.424 Q110.969 402.674 114.024 398.091 Q117.103 393.484 122.913 393.484 Z" fill="#000000" fill-rule="evenodd" fill-opacity="1" /><path clip-path="url(#clip170)" d="M153.075 397.188 Q149.464 397.188 147.635 400.753 Q145.83 404.294 145.83 411.424 Q145.83 418.53 147.635 422.095 Q149.464 425.637 153.075 425.637 Q156.709 425.637 158.515 422.095 Q160.343 418.53 160.343 411.424 Q160.343 404.294 158.515 400.753 Q156.709 397.188 153.075 397.188 M153.075 393.484 Q158.885 393.484 161.941 398.091 Q165.019 402.674 165.019 411.424 Q165.019 420.151 161.941 424.757 Q158.885 429.34 153.075 429.34 Q147.265 429.34 144.186 424.757 Q141.131 420.151 141.131 411.424 Q141.131 402.674 144.186 398.091 Q147.265 393.484 153.075 393.484 Z" fill="#000000" fill-rule="evenodd" fill-opacity="1" /><path clip-path="url(#clip170)" d="M56.6171 120.431 L72.9365 120.431 L72.9365 124.366 L50.9921 124.366 L50.9921 120.431 Q53.6541 117.676 58.2375 113.046 Q62.8439 108.394 64.0245 107.051 Q66.2698 104.528 67.1494 102.792 Q68.0522 101.033 68.0522 99.3429 Q68.0522 96.5882 66.1078 94.8521 Q64.1865 93.116 61.0847 93.116 Q58.8856 93.116 56.4319 93.8799 Q54.0014 94.6438 51.2236 96.1947 L51.2236 91.4725 Q54.0477 90.3383 56.5014 89.7596 Q58.955 89.1809 60.9921 89.1809 Q66.3624 89.1809 69.5568 91.866 Q72.7513 94.5512 72.7513 99.0419 Q72.7513 101.172 71.9411 103.093 Q71.1541 104.991 69.0476 107.584 Q68.4689 108.255 65.367 111.472 Q62.2652 114.667 56.6171 120.431 Z" fill="#000000" fill-rule="evenodd" fill-opacity="1" /><path clip-path="url(#clip170)" d="M95.5984 93.8799 L83.7929 112.329 L95.5984 112.329 L95.5984 93.8799 M94.3715 89.8059 L100.251 89.8059 L100.251 112.329 L105.182 112.329 L105.182 116.218 L100.251 116.218 L100.251 124.366 L95.5984 124.366 L95.5984 116.218 L79.9966 116.218 L79.9966 111.704 L94.3715 89.8059 Z" fill="#000000" fill-rule="evenodd" fill-opacity="1" /><path clip-path="url(#clip170)" d="M112.959 89.8059 L131.316 89.8059 L131.316 93.741 L117.242 93.741 L117.242 102.213 Q118.26 101.866 119.279 101.704 Q120.297 101.519 121.316 101.519 Q127.103 101.519 130.482 104.69 Q133.862 107.861 133.862 113.278 Q133.862 118.857 130.39 121.958 Q126.918 125.037 120.598 125.037 Q118.422 125.037 116.154 124.667 Q113.908 124.296 111.501 123.556 L111.501 118.857 Q113.584 119.991 115.807 120.546 Q118.029 121.102 120.506 121.102 Q124.51 121.102 126.848 118.996 Q129.186 116.889 129.186 113.278 Q129.186 109.667 126.848 107.56 Q124.51 105.454 120.506 105.454 Q118.631 105.454 116.756 105.871 Q114.904 106.287 112.959 107.167 L112.959 89.8059 Z" fill="#000000" fill-rule="evenodd" fill-opacity="1" /><path clip-path="url(#clip170)" d="M153.075 92.8846 Q149.464 92.8846 147.635 96.4494 Q145.83 99.991 145.83 107.121 Q145.83 114.227 147.635 117.792 Q149.464 121.333 153.075 121.333 Q156.709 121.333 158.515 117.792 Q160.343 114.227 160.343 107.121 Q160.343 99.991 158.515 96.4494 Q156.709 92.8846 153.075 92.8846 M153.075 89.1809 Q158.885 89.1809 161.941 93.7873 Q165.019 98.3706 165.019 107.121 Q165.019 115.847 161.941 120.454 Q158.885 125.037 153.075 125.037 Q147.265 125.037 144.186 120.454 Q141.131 115.847 141.131 107.121 Q141.131 98.3706 144.186 93.7873 Q147.265 89.1809 153.075 89.1809 Z" fill="#000000" fill-rule="evenodd" fill-opacity="1" /><polyline clip-path="url(#clip172)" style="stroke:#009af9; stroke-linecap:butt; stroke-linejoin:round; stroke-width:4; stroke-opacity:1; fill:none" points="
  261.917,595.554 327.399,603.588 392.881,711.798 458.363,411.389 654.809,564.211 720.291,1069.54 785.773,1253.03 851.255,1256.8 916.737,1069.72 1113.18,963.273 
  1178.66,795.383 1244.15,1236.66 1309.63,849.342 1375.11,618.376 1571.56,612.229 1637.04,289.668 1702.52,333.275 1768,186.57 1833.48,277.739 2095.41,277.496 
  2160.89,196.49 2226.38,441.698 2291.86,274.331 
  "/>
<polyline clip-path="url(#clip172)" style="stroke:#e26f46; stroke-linecap:butt; stroke-linejoin:round; stroke-width:4; stroke-opacity:1; fill:none" points="
  261.917,537.614 327.399,519.721 392.881,516.617 458.363,311.517 654.809,545.283 720.291,886.102 785.773,1109.03 851.255,1162.4 916.737,891.337 1113.18,877.946 
  1178.66,757.383 1244.15,917.993 1309.63,652.762 1375.11,600.057 1571.56,298.919 1637.04,211.219 1702.52,150.029 1768,167.947 1833.48,240.128 2095.41,180.295 
  2160.89,155.774 2226.38,352.08 2291.86,87.9763 
  "/>
<polyline clip-path="url(#clip172)" style="stroke:#3da44d; stroke-linecap:butt; stroke-linejoin:round; stroke-width:4; stroke-opacity:1; fill:none" points="
  261.917,948.789 327.399,707.112 392.881,762.325 458.363,472.25 654.809,808.627 720.291,1123.46 785.773,1445.72 851.255,1368.61 916.737,1121.51 1113.18,1050.43 
  1178.66,1000.76 1244.15,1242.02 1309.63,891.64 1375.11,762.128 1571.56,654.162 1637.04,393.192 1702.52,335.223 1768,399.217 1833.48,364.588 2095.41,381.69 
  2160.89,385.828 2226.38,515.886 2291.86,303.24 
  "/>
<polyline clip-path="url(#clip172)" style="stroke:#c271d2; stroke-linecap:butt; stroke-linejoin:round; stroke-width:4; stroke-opacity:1; fill:none" points="
  261.917,689.827 327.399,674.672 392.881,524.894 458.363,419.362 654.809,766.451 720.291,966.682 785.773,1390.76 851.255,1251.45 916.737,921.645 1113.18,889.694 
  1178.66,999.121 1244.15,966.986 1309.63,678.628 1375.11,745.514 1571.56,370.796 1637.04,356.188 1702.52,207.323 1768,396.113 1833.48,341.034 2095.41,229.963 
  2160.89,281.877 2226.38,383.332 2291.86,92.6017 
  "/>
<path clip-path="url(#clip170)" d="
M1917.99 397.618 L2281.03 397.618 L2281.03 95.2176 L1917.99 95.2176  Z
  " fill="#ffffff" fill-rule="evenodd" fill-opacity="1"/>
<polyline clip-path="url(#clip170)" style="stroke:#000000; stroke-linecap:butt; stroke-linejoin:round; stroke-width:4; stroke-opacity:1; fill:none" points="
  1917.99,397.618 2281.03,397.618 2281.03,95.2176 1917.99,95.2176 1917.99,397.618 
  "/>
<polyline clip-path="url(#clip170)" style="stroke:#009af9; stroke-linecap:butt; stroke-linejoin:round; stroke-width:4; stroke-opacity:1; fill:none" points="
  1941.9,155.698 2085.35,155.698 
  "/>
<path clip-path="url(#clip170)" d="M2125.28 141.589 Q2120.18 141.589 2117.17 145.385 Q2114.19 149.181 2114.19 155.732 Q2114.19 162.26 2117.17 166.056 Q2120.18 169.853 2125.28 169.853 Q2130.37 169.853 2133.33 166.056 Q2136.32 162.26 2136.32 155.732 Q2136.32 149.181 2133.33 145.385 Q2130.37 141.589 2125.28 141.589 M2125.28 137.793 Q2132.54 137.793 2136.9 142.677 Q2141.25 147.538 2141.25 155.732 Q2141.25 163.904 2136.9 168.788 Q2132.54 173.649 2125.28 173.649 Q2117.98 173.649 2113.61 168.788 Q2109.26 163.927 2109.26 155.732 Q2109.26 147.538 2113.61 142.677 Q2117.98 137.793 2125.28 137.793 Z" fill="#000000" fill-rule="evenodd" fill-opacity="1" /><path clip-path="url(#clip170)" d="M2152.5 169.089 L2152.5 182.839 L2148.22 182.839 L2148.22 147.052 L2152.5 147.052 L2152.5 150.987 Q2153.84 148.672 2155.88 147.561 Q2157.94 146.427 2160.78 146.427 Q2165.51 146.427 2168.45 150.177 Q2171.41 153.927 2171.41 160.038 Q2171.41 166.149 2168.45 169.899 Q2165.51 173.649 2160.78 173.649 Q2157.94 173.649 2155.88 172.538 Q2153.84 171.403 2152.5 169.089 M2166.99 160.038 Q2166.99 155.339 2165.04 152.677 Q2163.12 149.992 2159.74 149.992 Q2156.36 149.992 2154.42 152.677 Q2152.5 155.339 2152.5 160.038 Q2152.5 164.737 2154.42 167.422 Q2156.36 170.084 2159.74 170.084 Q2163.12 170.084 2165.04 167.422 Q2166.99 164.737 2166.99 160.038 Z" fill="#000000" fill-rule="evenodd" fill-opacity="1" /><path clip-path="url(#clip170)" d="M2200.65 158.95 L2200.65 161.033 L2181.06 161.033 Q2181.34 165.431 2183.7 167.746 Q2186.09 170.038 2190.32 170.038 Q2192.78 170.038 2195.07 169.436 Q2197.38 168.834 2199.65 167.63 L2199.65 171.658 Q2197.36 172.63 2194.95 173.14 Q2192.54 173.649 2190.07 173.649 Q2183.86 173.649 2180.23 170.038 Q2176.62 166.427 2176.62 160.269 Q2176.62 153.904 2180.04 150.177 Q2183.49 146.427 2189.33 146.427 Q2194.56 146.427 2197.59 149.806 Q2200.65 153.163 2200.65 158.95 M2196.39 157.7 Q2196.34 154.205 2194.42 152.121 Q2192.52 150.038 2189.37 150.038 Q2185.81 150.038 2183.66 152.052 Q2181.53 154.066 2181.2 157.723 L2196.39 157.7 Z" fill="#000000" fill-rule="evenodd" fill-opacity="1" /><path clip-path="url(#clip170)" d="M2229.19 157.329 L2229.19 172.978 L2224.93 172.978 L2224.93 157.468 Q2224.93 153.788 2223.49 151.959 Q2222.06 150.13 2219.19 150.13 Q2215.74 150.13 2213.75 152.33 Q2211.76 154.529 2211.76 158.325 L2211.76 172.978 L2207.47 172.978 L2207.47 147.052 L2211.76 147.052 L2211.76 151.08 Q2213.28 148.742 2215.34 147.584 Q2217.43 146.427 2220.14 146.427 Q2224.6 146.427 2226.9 149.205 Q2229.19 151.959 2229.19 157.329 Z" fill="#000000" fill-rule="evenodd" fill-opacity="1" /><polyline clip-path="url(#clip170)" style="stroke:#e26f46; stroke-linecap:butt; stroke-linejoin:round; stroke-width:4; stroke-opacity:1; fill:none" points="
  1941.9,216.178 2085.35,216.178 
  "/>
<path clip-path="url(#clip170)" d="M2109.26 198.898 L2113.93 198.898 L2113.93 213.064 L2130.92 213.064 L2130.92 198.898 L2135.6 198.898 L2135.6 233.458 L2130.92 233.458 L2130.92 216.999 L2113.93 216.999 L2113.93 233.458 L2109.26 233.458 L2109.26 198.898 Z" fill="#000000" fill-rule="evenodd" fill-opacity="1" /><path clip-path="url(#clip170)" d="M2144.72 207.532 L2148.98 207.532 L2148.98 233.458 L2144.72 233.458 L2144.72 207.532 M2144.72 197.439 L2148.98 197.439 L2148.98 202.833 L2144.72 202.833 L2144.72 197.439 Z" fill="#000000" fill-rule="evenodd" fill-opacity="1" /><path clip-path="url(#clip170)" d="M2174.95 220.194 Q2174.95 215.564 2173.03 213.018 Q2171.13 210.472 2167.68 210.472 Q2164.26 210.472 2162.34 213.018 Q2160.44 215.564 2160.44 220.194 Q2160.44 224.8 2162.34 227.346 Q2164.26 229.893 2167.68 229.893 Q2171.13 229.893 2173.03 227.346 Q2174.95 224.8 2174.95 220.194 M2179.21 230.24 Q2179.21 236.86 2176.27 240.078 Q2173.33 243.319 2167.27 243.319 Q2165.02 243.319 2163.03 242.971 Q2161.04 242.647 2159.16 241.953 L2159.16 237.809 Q2161.04 238.828 2162.87 239.314 Q2164.7 239.8 2166.59 239.8 Q2170.78 239.8 2172.87 237.601 Q2174.95 235.425 2174.95 231.004 L2174.95 228.897 Q2173.63 231.189 2171.57 232.323 Q2169.51 233.458 2166.64 233.458 Q2161.87 233.458 2158.96 229.823 Q2156.04 226.189 2156.04 220.194 Q2156.04 214.175 2158.96 210.541 Q2161.87 206.907 2166.64 206.907 Q2169.51 206.907 2171.57 208.041 Q2173.63 209.175 2174.95 211.467 L2174.95 207.532 L2179.21 207.532 L2179.21 230.24 Z" fill="#000000" fill-rule="evenodd" fill-opacity="1" /><path clip-path="url(#clip170)" d="M2209.53 217.809 L2209.53 233.458 L2205.28 233.458 L2205.28 217.948 Q2205.28 214.268 2203.84 212.439 Q2202.4 210.61 2199.53 210.61 Q2196.09 210.61 2194.09 212.81 Q2192.1 215.009 2192.1 218.805 L2192.1 233.458 L2187.82 233.458 L2187.82 197.439 L2192.1 197.439 L2192.1 211.56 Q2193.63 209.222 2195.69 208.064 Q2197.78 206.907 2200.48 206.907 Q2204.95 206.907 2207.24 209.685 Q2209.53 212.439 2209.53 217.809 Z" fill="#000000" fill-rule="evenodd" fill-opacity="1" /><polyline clip-path="url(#clip170)" style="stroke:#3da44d; stroke-linecap:butt; stroke-linejoin:round; stroke-width:4; stroke-opacity:1; fill:none" points="
  1941.9,276.658 2085.35,276.658 
  "/>
<path clip-path="url(#clip170)" d="M2109.26 259.378 L2113.93 259.378 L2113.93 290.002 L2130.76 290.002 L2130.76 293.938 L2109.26 293.938 L2109.26 259.378 Z" fill="#000000" fill-rule="evenodd" fill-opacity="1" /><path clip-path="url(#clip170)" d="M2144.7 270.998 Q2141.27 270.998 2139.28 273.683 Q2137.29 276.345 2137.29 280.998 Q2137.29 285.651 2139.26 288.336 Q2141.25 290.998 2144.7 290.998 Q2148.1 290.998 2150.09 288.313 Q2152.08 285.627 2152.08 280.998 Q2152.08 276.391 2150.09 273.706 Q2148.1 270.998 2144.7 270.998 M2144.7 267.387 Q2150.25 267.387 2153.42 270.998 Q2156.6 274.609 2156.6 280.998 Q2156.6 287.364 2153.42 290.998 Q2150.25 294.609 2144.7 294.609 Q2139.12 294.609 2135.95 290.998 Q2132.8 287.364 2132.8 280.998 Q2132.8 274.609 2135.95 270.998 Q2139.12 267.387 2144.7 267.387 Z" fill="#000000" fill-rule="evenodd" fill-opacity="1" /><path clip-path="url(#clip170)" d="M2161.18 268.012 L2165.44 268.012 L2170.76 288.243 L2176.06 268.012 L2181.09 268.012 L2186.41 288.243 L2191.71 268.012 L2195.97 268.012 L2189.19 293.938 L2184.16 293.938 L2178.59 272.688 L2172.98 293.938 L2167.96 293.938 L2161.18 268.012 Z" fill="#000000" fill-rule="evenodd" fill-opacity="1" /><polyline clip-path="url(#clip170)" style="stroke:#c271d2; stroke-linecap:butt; stroke-linejoin:round; stroke-width:4; stroke-opacity:1; fill:none" points="
  1941.9,337.138 2085.35,337.138 
  "/>
<path clip-path="url(#clip170)" d="M2137.13 322.52 L2137.13 327.45 Q2134.77 325.251 2132.08 324.163 Q2129.42 323.075 2126.41 323.075 Q2120.48 323.075 2117.34 326.709 Q2114.19 330.32 2114.19 337.172 Q2114.19 344.001 2117.34 347.635 Q2120.48 351.246 2126.41 351.246 Q2129.42 351.246 2132.08 350.158 Q2134.77 349.07 2137.13 346.871 L2137.13 351.756 Q2134.67 353.422 2131.92 354.256 Q2129.19 355.089 2126.13 355.089 Q2118.29 355.089 2113.77 350.297 Q2109.26 345.482 2109.26 337.172 Q2109.26 328.839 2113.77 324.047 Q2118.29 319.233 2126.13 319.233 Q2129.23 319.233 2131.97 320.066 Q2134.72 320.876 2137.13 322.52 Z" fill="#000000" fill-rule="evenodd" fill-opacity="1" /><path clip-path="url(#clip170)" d="M2144.16 318.399 L2148.42 318.399 L2148.42 354.418 L2144.16 354.418 L2144.16 318.399 Z" fill="#000000" fill-rule="evenodd" fill-opacity="1" /><path clip-path="url(#clip170)" d="M2167.38 331.478 Q2163.96 331.478 2161.97 334.163 Q2159.97 336.825 2159.97 341.478 Q2159.97 346.131 2161.94 348.816 Q2163.93 351.478 2167.38 351.478 Q2170.78 351.478 2172.78 348.793 Q2174.77 346.107 2174.77 341.478 Q2174.77 336.871 2172.78 334.186 Q2170.78 331.478 2167.38 331.478 M2167.38 327.867 Q2172.94 327.867 2176.11 331.478 Q2179.28 335.089 2179.28 341.478 Q2179.28 347.844 2176.11 351.478 Q2172.94 355.089 2167.38 355.089 Q2161.8 355.089 2158.63 351.478 Q2155.48 347.844 2155.48 341.478 Q2155.48 335.089 2158.63 331.478 Q2161.8 327.867 2167.38 327.867 Z" fill="#000000" fill-rule="evenodd" fill-opacity="1" /><path clip-path="url(#clip170)" d="M2202.87 329.256 L2202.87 333.283 Q2201.06 332.357 2199.12 331.895 Q2197.17 331.432 2195.09 331.432 Q2191.92 331.432 2190.32 332.404 Q2188.75 333.376 2188.75 335.32 Q2188.75 336.802 2189.88 337.658 Q2191.02 338.492 2194.44 339.256 L2195.9 339.58 Q2200.44 340.552 2202.34 342.334 Q2204.26 344.094 2204.26 347.265 Q2204.26 350.876 2201.39 352.982 Q2198.54 355.089 2193.54 355.089 Q2191.46 355.089 2189.19 354.672 Q2186.94 354.279 2184.44 353.468 L2184.44 349.07 Q2186.8 350.297 2189.09 350.922 Q2191.39 351.524 2193.63 351.524 Q2196.64 351.524 2198.26 350.506 Q2199.88 349.464 2199.88 347.589 Q2199.88 345.853 2198.7 344.927 Q2197.54 344.001 2193.59 343.144 L2192.1 342.797 Q2188.15 341.964 2186.39 340.251 Q2184.63 338.515 2184.63 335.506 Q2184.63 331.848 2187.22 329.858 Q2189.81 327.867 2194.58 327.867 Q2196.94 327.867 2199.03 328.214 Q2201.11 328.561 2202.87 329.256 Z" fill="#000000" fill-rule="evenodd" fill-opacity="1" /><path clip-path="url(#clip170)" d="M2233.21 340.39 L2233.21 342.473 L2213.63 342.473 Q2213.91 346.871 2216.27 349.186 Q2218.65 351.478 2222.89 351.478 Q2225.34 351.478 2227.64 350.876 Q2229.95 350.274 2232.22 349.07 L2232.22 353.098 Q2229.93 354.07 2227.52 354.58 Q2225.11 355.089 2222.64 355.089 Q2216.43 355.089 2212.8 351.478 Q2209.19 347.867 2209.19 341.709 Q2209.19 335.344 2212.61 331.617 Q2216.06 327.867 2221.9 327.867 Q2227.13 327.867 2230.16 331.246 Q2233.21 334.603 2233.21 340.39 M2228.96 339.14 Q2228.91 335.645 2226.99 333.561 Q2225.09 331.478 2221.94 331.478 Q2218.38 331.478 2216.22 333.492 Q2214.09 335.506 2213.77 339.163 L2228.96 339.14 Z" fill="#000000" fill-rule="evenodd" fill-opacity="1" /></svg>
