<?xml version="1.0" encoding="utf-8"?>
<svg xmlns="http://www.w3.org/2000/svg" xmlns:xlink="http://www.w3.org/1999/xlink" width="600" height="400" viewBox="0 0 2400 1600">
<defs>
  <clipPath id="clip450">
    <rect x="0" y="0" width="2400" height="1600"/>
  </clipPath>
</defs>
<path clip-path="url(#clip450)" d="
M0 1600 L2400 1600 L2400 0 L0 0  Z
  " fill="#ffffff" fill-rule="evenodd" fill-opacity="1"/>
<defs>
  <clipPath id="clip451">
    <rect x="480" y="0" width="1681" height="1600"/>
  </clipPath>
</defs>
<path clip-path="url(#clip450)" d="
M201.019 1486.45 L2352.76 1486.45 L2352.76 47.2441 L201.019 47.2441  Z
  " fill="#ffffff" fill-rule="evenodd" fill-opacity="1"/>
<defs>
  <clipPath id="clip452">
    <rect x="201" y="47" width="2153" height="1440"/>
  </clipPath>
</defs>
<polyline clip-path="url(#clip452)" style="stroke:#000000; stroke-linecap:butt; stroke-linejoin:round; stroke-width:2; stroke-opacity:0.1; fill:none" points="
  261.917,1486.45 261.917,47.2441 
  "/>
<polyline clip-path="url(#clip452)" style="stroke:#000000; stroke-linecap:butt; stroke-linejoin:round; stroke-width:2; stroke-opacity:0.1; fill:none" points="
  803.235,1486.45 803.235,47.2441 
  "/>
<polyline clip-path="url(#clip452)" style="stroke:#000000; stroke-linecap:butt; stroke-linejoin:round; stroke-width:2; stroke-opacity:0.1; fill:none" points="
  1344.55,1486.45 1344.55,47.2441 
  "/>
<polyline clip-path="url(#clip452)" style="stroke:#000000; stroke-linecap:butt; stroke-linejoin:round; stroke-width:2; stroke-opacity:0.1; fill:none" points="
  1885.87,1486.45 1885.87,47.2441 
  "/>
<polyline clip-path="url(#clip450)" style="stroke:#000000; stroke-linecap:butt; stroke-linejoin:round; stroke-width:4; stroke-opacity:1; fill:none" points="
  201.019,1486.45 2352.76,1486.45 
  "/>
<polyline clip-path="url(#clip450)" style="stroke:#000000; stroke-linecap:butt; stroke-linejoin:round; stroke-width:4; stroke-opacity:1; fill:none" points="
  261.917,1486.45 261.917,1469.18 
  "/>
<polyline clip-path="url(#clip450)" style="stroke:#000000; stroke-linecap:butt; stroke-linejoin:round; stroke-width:4; stroke-opacity:1; fill:none" points="
  803.235,1486.45 803.235,1469.18 
  "/>
<polyline clip-path="url(#clip450)" style="stroke:#000000; stroke-linecap:butt; stroke-linejoin:round; stroke-width:4; stroke-opacity:1; fill:none" points="
  1344.55,1486.45 1344.55,1469.18 
  "/>
<polyline clip-path="url(#clip450)" style="stroke:#000000; stroke-linecap:butt; stroke-linejoin:round; stroke-width:4; stroke-opacity:1; fill:none" points="
  1885.87,1486.45 1885.87,1469.18 
  "/>
<path clip-path="url(#clip450)" d="M133.596 1543.18 L149.916 1543.18 L149.916 1547.12 L127.971 1547.12 L127.971 1543.18 Q130.633 1540.43 135.217 1535.8 Q139.823 1531.15 141.004 1529.81 Q143.249 1527.28 144.129 1525.55 Q145.032 1523.79 145.032 1522.1 Q145.032 1519.34 143.087 1517.61 Q141.166 1515.87 138.064 1515.87 Q135.865 1515.87 133.411 1516.63 Q130.981 1517.4 128.203 1518.95 L128.203 1514.23 Q131.027 1513.09 133.481 1512.51 Q135.934 1511.93 137.971 1511.93 Q143.342 1511.93 146.536 1514.62 Q149.731 1517.31 149.731 1521.8 Q149.731 1523.93 148.92 1525.85 Q148.133 1527.74 146.027 1530.34 Q145.448 1531.01 142.346 1534.23 Q139.245 1537.42 133.596 1543.18 Z" fill="#000000" fill-rule="evenodd" fill-opacity="1" /><path clip-path="url(#clip450)" d="M169.73 1515.64 Q166.119 1515.64 164.291 1519.2 Q162.485 1522.75 162.485 1529.87 Q162.485 1536.98 164.291 1540.55 Q166.119 1544.09 169.73 1544.09 Q173.365 1544.09 175.17 1540.55 Q176.999 1536.98 176.999 1529.87 Q176.999 1522.75 175.17 1519.2 Q173.365 1515.64 169.73 1515.64 M169.73 1511.93 Q175.541 1511.93 178.596 1516.54 Q181.675 1521.12 181.675 1529.87 Q181.675 1538.6 178.596 1543.21 Q175.541 1547.79 169.73 1547.79 Q163.92 1547.79 160.842 1543.21 Q157.786 1538.6 157.786 1529.87 Q157.786 1521.12 160.842 1516.54 Q163.92 1511.93 169.73 1511.93 Z" fill="#000000" fill-rule="evenodd" fill-opacity="1" /><path clip-path="url(#clip450)" d="M193.92 1543.18 L210.24 1543.18 L210.24 1547.12 L188.295 1547.12 L188.295 1543.18 Q190.957 1540.43 195.541 1535.8 Q200.147 1531.15 201.328 1529.81 Q203.573 1527.28 204.453 1525.55 Q205.355 1523.79 205.355 1522.1 Q205.355 1519.34 203.411 1517.61 Q201.49 1515.87 198.388 1515.87 Q196.189 1515.87 193.735 1516.63 Q191.304 1517.4 188.527 1518.95 L188.527 1514.23 Q191.351 1513.09 193.804 1512.51 Q196.258 1511.93 198.295 1511.93 Q203.665 1511.93 206.86 1514.62 Q210.054 1517.31 210.054 1521.8 Q210.054 1523.93 209.244 1525.85 Q208.457 1527.74 206.351 1530.34 Q205.772 1531.01 202.67 1534.23 Q199.568 1537.42 193.92 1543.18 Z" fill="#000000" fill-rule="evenodd" fill-opacity="1" /><path clip-path="url(#clip450)" d="M220.864 1543.18 L228.503 1543.18 L228.503 1516.82 L220.193 1518.49 L220.193 1514.23 L228.457 1512.56 L233.133 1512.56 L233.133 1543.18 L240.772 1543.18 L240.772 1547.12 L220.864 1547.12 L220.864 1543.18 Z" fill="#000000" fill-rule="evenodd" fill-opacity="1" /><path clip-path="url(#clip450)" d="M247.462 1532.24 L259.938 1532.24 L259.938 1536.03 L247.462 1536.03 L247.462 1532.24 Z" fill="#000000" fill-rule="evenodd" fill-opacity="1" /><path clip-path="url(#clip450)" d="M277.323 1515.64 Q273.711 1515.64 271.883 1519.2 Q270.077 1522.75 270.077 1529.87 Q270.077 1536.98 271.883 1540.55 Q273.711 1544.09 277.323 1544.09 Q280.957 1544.09 282.762 1540.55 Q284.591 1536.98 284.591 1529.87 Q284.591 1522.75 282.762 1519.2 Q280.957 1515.64 277.323 1515.64 M277.323 1511.93 Q283.133 1511.93 286.188 1516.54 Q289.267 1521.12 289.267 1529.87 Q289.267 1538.6 286.188 1543.21 Q283.133 1547.79 277.323 1547.79 Q271.512 1547.79 268.434 1543.21 Q265.378 1538.6 265.378 1529.87 Q265.378 1521.12 268.434 1516.54 Q271.512 1511.93 277.323 1511.93 Z" fill="#000000" fill-rule="evenodd" fill-opacity="1" /><path clip-path="url(#clip450)" d="M297.531 1512.56 L315.887 1512.56 L315.887 1516.5 L301.813 1516.5 L301.813 1524.97 Q302.832 1524.62 303.85 1524.46 Q304.869 1524.27 305.887 1524.27 Q311.674 1524.27 315.054 1527.44 Q318.433 1530.62 318.433 1536.03 Q318.433 1541.61 314.961 1544.71 Q311.489 1547.79 305.17 1547.79 Q302.994 1547.79 300.725 1547.42 Q298.48 1547.05 296.072 1546.31 L296.072 1541.61 Q298.156 1542.74 300.378 1543.3 Q302.6 1543.86 305.077 1543.86 Q309.082 1543.86 311.42 1541.75 Q313.757 1539.64 313.757 1536.03 Q313.757 1532.42 311.42 1530.31 Q309.082 1528.21 305.077 1528.21 Q303.202 1528.21 301.327 1528.62 Q299.475 1529.04 297.531 1529.92 L297.531 1512.56 Z" fill="#000000" fill-rule="evenodd" fill-opacity="1" /><path clip-path="url(#clip450)" d="M324.892 1532.24 L337.368 1532.24 L337.368 1536.03 L324.892 1536.03 L324.892 1532.24 Z" fill="#000000" fill-rule="evenodd" fill-opacity="1" /><path clip-path="url(#clip450)" d="M354.753 1515.64 Q351.142 1515.64 349.313 1519.2 Q347.507 1522.75 347.507 1529.87 Q347.507 1536.98 349.313 1540.55 Q351.142 1544.09 354.753 1544.09 Q358.387 1544.09 360.192 1540.55 Q362.021 1536.98 362.021 1529.87 Q362.021 1522.75 360.192 1519.2 Q358.387 1515.64 354.753 1515.64 M354.753 1511.93 Q360.563 1511.93 363.618 1516.54 Q366.697 1521.12 366.697 1529.87 Q366.697 1538.6 363.618 1543.21 Q360.563 1547.79 354.753 1547.79 Q348.942 1547.79 345.864 1543.21 Q342.808 1538.6 342.808 1529.87 Q342.808 1521.12 345.864 1516.54 Q348.942 1511.93 354.753 1511.93 Z" fill="#000000" fill-rule="evenodd" fill-opacity="1" /><path clip-path="url(#clip450)" d="M374.961 1512.56 L393.317 1512.56 L393.317 1516.5 L379.243 1516.5 L379.243 1524.97 Q380.262 1524.62 381.28 1524.46 Q382.299 1524.27 383.317 1524.27 Q389.104 1524.27 392.484 1527.44 Q395.864 1530.62 395.864 1536.03 Q395.864 1541.61 392.391 1544.71 Q388.919 1547.79 382.6 1547.79 Q380.424 1547.79 378.155 1547.42 Q375.91 1547.05 373.503 1546.31 L373.503 1541.61 Q375.586 1542.74 377.808 1543.3 Q380.03 1543.86 382.507 1543.86 Q386.512 1543.86 388.85 1541.75 Q391.188 1539.64 391.188 1536.03 Q391.188 1532.42 388.85 1530.31 Q386.512 1528.21 382.507 1528.21 Q380.632 1528.21 378.757 1528.62 Q376.905 1529.04 374.961 1529.92 L374.961 1512.56 Z" fill="#000000" fill-rule="evenodd" fill-opacity="1" /><path clip-path="url(#clip450)" d="M674.74 1543.18 L691.06 1543.18 L691.06 1547.12 L669.115 1547.12 L669.115 1543.18 Q671.777 1540.43 676.361 1535.8 Q680.967 1531.15 682.148 1529.81 Q684.393 1527.28 685.273 1525.55 Q686.175 1523.79 686.175 1522.1 Q686.175 1519.34 684.231 1517.61 Q682.31 1515.87 679.208 1515.87 Q677.009 1515.87 674.555 1516.63 Q672.124 1517.4 669.347 1518.95 L669.347 1514.23 Q672.171 1513.09 674.624 1512.51 Q677.078 1511.93 679.115 1511.93 Q684.486 1511.93 687.68 1514.62 Q690.874 1517.31 690.874 1521.8 Q690.874 1523.93 690.064 1525.85 Q689.277 1527.74 687.171 1530.34 Q686.592 1531.01 683.49 1534.23 Q680.388 1537.42 674.74 1543.18 Z" fill="#000000" fill-rule="evenodd" fill-opacity="1" /><path clip-path="url(#clip450)" d="M710.874 1515.64 Q707.263 1515.64 705.434 1519.2 Q703.629 1522.75 703.629 1529.87 Q703.629 1536.98 705.434 1540.55 Q707.263 1544.09 710.874 1544.09 Q714.509 1544.09 716.314 1540.55 Q718.143 1536.98 718.143 1529.87 Q718.143 1522.75 716.314 1519.2 Q714.509 1515.64 710.874 1515.64 M710.874 1511.93 Q716.684 1511.93 719.74 1516.54 Q722.819 1521.12 722.819 1529.87 Q722.819 1538.6 719.74 1543.21 Q716.684 1547.79 710.874 1547.79 Q705.064 1547.79 701.985 1543.21 Q698.93 1538.6 698.93 1529.87 Q698.93 1521.12 701.985 1516.54 Q705.064 1511.93 710.874 1511.93 Z" fill="#000000" fill-rule="evenodd" fill-opacity="1" /><path clip-path="url(#clip450)" d="M735.064 1543.18 L751.383 1543.18 L751.383 1547.12 L729.439 1547.12 L729.439 1543.18 Q732.101 1540.43 736.684 1535.8 Q741.291 1531.15 742.471 1529.81 Q744.717 1527.28 745.596 1525.55 Q746.499 1523.79 746.499 1522.1 Q746.499 1519.34 744.555 1517.61 Q742.633 1515.87 739.532 1515.87 Q737.332 1515.87 734.879 1516.63 Q732.448 1517.4 729.67 1518.95 L729.67 1514.23 Q732.495 1513.09 734.948 1512.51 Q737.402 1511.93 739.439 1511.93 Q744.809 1511.93 748.004 1514.62 Q751.198 1517.31 751.198 1521.8 Q751.198 1523.93 750.388 1525.85 Q749.601 1527.74 747.494 1530.34 Q746.916 1531.01 743.814 1534.23 Q740.712 1537.42 735.064 1543.18 Z" fill="#000000" fill-rule="evenodd" fill-opacity="1" /><path clip-path="url(#clip450)" d="M762.008 1543.18 L769.647 1543.18 L769.647 1516.82 L761.337 1518.49 L761.337 1514.23 L769.601 1512.56 L774.277 1512.56 L774.277 1543.18 L781.916 1543.18 L781.916 1547.12 L762.008 1547.12 L762.008 1543.18 Z" fill="#000000" fill-rule="evenodd" fill-opacity="1" /><path clip-path="url(#clip450)" d="M788.605 1532.24 L801.082 1532.24 L801.082 1536.03 L788.605 1536.03 L788.605 1532.24 Z" fill="#000000" fill-rule="evenodd" fill-opacity="1" /><path clip-path="url(#clip450)" d="M818.466 1515.64 Q814.855 1515.64 813.026 1519.2 Q811.221 1522.75 811.221 1529.87 Q811.221 1536.98 813.026 1540.55 Q814.855 1544.09 818.466 1544.09 Q822.101 1544.09 823.906 1540.55 Q825.735 1536.98 825.735 1529.87 Q825.735 1522.75 823.906 1519.2 Q822.101 1515.64 818.466 1515.64 M818.466 1511.93 Q824.276 1511.93 827.332 1516.54 Q830.411 1521.12 830.411 1529.87 Q830.411 1538.6 827.332 1543.21 Q824.276 1547.79 818.466 1547.79 Q812.656 1547.79 809.577 1543.21 Q806.522 1538.6 806.522 1529.87 Q806.522 1521.12 809.577 1516.54 Q812.656 1511.93 818.466 1511.93 Z" fill="#000000" fill-rule="evenodd" fill-opacity="1" /><path clip-path="url(#clip450)" d="M838.675 1512.56 L857.031 1512.56 L857.031 1516.5 L842.957 1516.5 L842.957 1524.97 Q843.975 1524.62 844.994 1524.46 Q846.012 1524.27 847.031 1524.27 Q852.818 1524.27 856.198 1527.44 Q859.577 1530.62 859.577 1536.03 Q859.577 1541.61 856.105 1544.71 Q852.633 1547.79 846.313 1547.79 Q844.137 1547.79 841.869 1547.42 Q839.624 1547.05 837.216 1546.31 L837.216 1541.61 Q839.3 1542.74 841.522 1543.3 Q843.744 1543.86 846.221 1543.86 Q850.225 1543.86 852.563 1541.75 Q854.901 1539.64 854.901 1536.03 Q854.901 1532.42 852.563 1530.31 Q850.225 1528.21 846.221 1528.21 Q844.346 1528.21 842.471 1528.62 Q840.619 1529.04 838.675 1529.92 L838.675 1512.56 Z" fill="#000000" fill-rule="evenodd" fill-opacity="1" /><path clip-path="url(#clip450)" d="M866.035 1532.24 L878.512 1532.24 L878.512 1536.03 L866.035 1536.03 L866.035 1532.24 Z" fill="#000000" fill-rule="evenodd" fill-opacity="1" /><path clip-path="url(#clip450)" d="M886.707 1543.18 L894.346 1543.18 L894.346 1516.82 L886.035 1518.49 L886.035 1514.23 L894.299 1512.56 L898.975 1512.56 L898.975 1543.18 L906.614 1543.18 L906.614 1547.12 L886.707 1547.12 L886.707 1543.18 Z" fill="#000000" fill-rule="evenodd" fill-opacity="1" /><path clip-path="url(#clip450)" d="M930.225 1528.49 Q933.581 1529.2 935.456 1531.47 Q937.355 1533.74 937.355 1537.07 Q937.355 1542.19 933.836 1544.99 Q930.318 1547.79 923.836 1547.79 Q921.66 1547.79 919.345 1547.35 Q917.054 1546.93 914.6 1546.08 L914.6 1541.56 Q916.544 1542.7 918.859 1543.28 Q921.174 1543.86 923.697 1543.86 Q928.095 1543.86 930.387 1542.12 Q932.702 1540.38 932.702 1537.07 Q932.702 1534.02 930.549 1532.31 Q928.419 1530.57 924.6 1530.57 L920.572 1530.57 L920.572 1526.73 L924.785 1526.73 Q928.234 1526.73 930.063 1525.36 Q931.892 1523.97 931.892 1521.38 Q931.892 1518.72 929.993 1517.31 Q928.118 1515.87 924.6 1515.87 Q922.679 1515.87 920.48 1516.29 Q918.281 1516.7 915.642 1517.58 L915.642 1513.42 Q918.304 1512.68 920.619 1512.31 Q922.956 1511.93 925.017 1511.93 Q930.341 1511.93 933.443 1514.37 Q936.544 1516.77 936.544 1520.89 Q936.544 1523.76 934.901 1525.75 Q933.257 1527.72 930.225 1528.49 Z" fill="#000000" fill-rule="evenodd" fill-opacity="1" /><path clip-path="url(#clip450)" d="M1216.35 1543.18 L1232.67 1543.18 L1232.67 1547.12 L1210.72 1547.12 L1210.72 1543.18 Q1213.38 1540.43 1217.97 1535.8 Q1222.57 1531.15 1223.75 1529.81 Q1226 1527.28 1226.88 1525.55 Q1227.78 1523.79 1227.78 1522.1 Q1227.78 1519.34 1225.84 1517.61 Q1223.92 1515.87 1220.81 1515.87 Q1218.62 1515.87 1216.16 1516.63 Q1213.73 1517.4 1210.95 1518.95 L1210.95 1514.23 Q1213.78 1513.09 1216.23 1512.51 Q1218.68 1511.93 1220.72 1511.93 Q1226.09 1511.93 1229.29 1514.62 Q1232.48 1517.31 1232.48 1521.8 Q1232.48 1523.93 1231.67 1525.85 Q1230.88 1527.74 1228.78 1530.34 Q1228.2 1531.01 1225.1 1534.23 Q1222 1537.42 1216.35 1543.18 Z" fill="#000000" fill-rule="evenodd" fill-opacity="1" /><path clip-path="url(#clip450)" d="M1252.48 1515.64 Q1248.87 1515.64 1247.04 1519.2 Q1245.24 1522.75 1245.24 1529.87 Q1245.24 1536.98 1247.04 1540.55 Q1248.87 1544.09 1252.48 1544.09 Q1256.12 1544.09 1257.92 1540.55 Q1259.75 1536.98 1259.75 1529.87 Q1259.75 1522.75 1257.92 1519.2 Q1256.12 1515.64 1252.48 1515.64 M1252.48 1511.93 Q1258.29 1511.93 1261.35 1516.54 Q1264.43 1521.12 1264.43 1529.87 Q1264.43 1538.6 1261.35 1543.21 Q1258.29 1547.79 1252.48 1547.79 Q1246.67 1547.79 1243.59 1543.21 Q1240.54 1538.6 1240.54 1529.87 Q1240.54 1521.12 1243.59 1516.54 Q1246.67 1511.93 1252.48 1511.93 Z" fill="#000000" fill-rule="evenodd" fill-opacity="1" /><path clip-path="url(#clip450)" d="M1276.67 1543.18 L1292.99 1543.18 L1292.99 1547.12 L1271.05 1547.12 L1271.05 1543.18 Q1273.71 1540.43 1278.29 1535.8 Q1282.9 1531.15 1284.08 1529.81 Q1286.32 1527.28 1287.2 1525.55 Q1288.11 1523.79 1288.11 1522.1 Q1288.11 1519.34 1286.16 1517.61 Q1284.24 1515.87 1281.14 1515.87 Q1278.94 1515.87 1276.49 1516.63 Q1274.05 1517.4 1271.28 1518.95 L1271.28 1514.23 Q1274.1 1513.09 1276.55 1512.51 Q1279.01 1511.93 1281.05 1511.93 Q1286.42 1511.93 1289.61 1514.62 Q1292.8 1517.31 1292.8 1521.8 Q1292.8 1523.93 1291.99 1525.85 Q1291.21 1527.74 1289.1 1530.34 Q1288.52 1531.01 1285.42 1534.23 Q1282.32 1537.42 1276.67 1543.18 Z" fill="#000000" fill-rule="evenodd" fill-opacity="1" /><path clip-path="url(#clip450)" d="M1303.61 1543.18 L1311.25 1543.18 L1311.25 1516.82 L1302.94 1518.49 L1302.94 1514.23 L1311.21 1512.56 L1315.88 1512.56 L1315.88 1543.18 L1323.52 1543.18 L1323.52 1547.12 L1303.61 1547.12 L1303.61 1543.18 Z" fill="#000000" fill-rule="evenodd" fill-opacity="1" /><path clip-path="url(#clip450)" d="M1330.21 1532.24 L1342.69 1532.24 L1342.69 1536.03 L1330.21 1536.03 L1330.21 1532.24 Z" fill="#000000" fill-rule="evenodd" fill-opacity="1" /><path clip-path="url(#clip450)" d="M1360.07 1515.64 Q1356.46 1515.64 1354.63 1519.2 Q1352.83 1522.75 1352.83 1529.87 Q1352.83 1536.98 1354.63 1540.55 Q1356.46 1544.09 1360.07 1544.09 Q1363.71 1544.09 1365.51 1540.55 Q1367.34 1536.98 1367.34 1529.87 Q1367.34 1522.75 1365.51 1519.2 Q1363.71 1515.64 1360.07 1515.64 M1360.07 1511.93 Q1365.88 1511.93 1368.94 1516.54 Q1372.02 1521.12 1372.02 1529.87 Q1372.02 1538.6 1368.94 1543.21 Q1365.88 1547.79 1360.07 1547.79 Q1354.26 1547.79 1351.18 1543.21 Q1348.13 1538.6 1348.13 1529.87 Q1348.13 1521.12 1351.18 1516.54 Q1354.26 1511.93 1360.07 1511.93 Z" fill="#000000" fill-rule="evenodd" fill-opacity="1" /><path clip-path="url(#clip450)" d="M1380.28 1512.56 L1398.64 1512.56 L1398.64 1516.5 L1384.56 1516.5 L1384.56 1524.97 Q1385.58 1524.62 1386.6 1524.46 Q1387.62 1524.27 1388.64 1524.27 Q1394.42 1524.27 1397.8 1527.44 Q1401.18 1530.62 1401.18 1536.03 Q1401.18 1541.61 1397.71 1544.71 Q1394.24 1547.79 1387.92 1547.79 Q1385.74 1547.79 1383.48 1547.42 Q1381.23 1547.05 1378.82 1546.31 L1378.82 1541.61 Q1380.91 1542.74 1383.13 1543.3 Q1385.35 1543.86 1387.83 1543.86 Q1391.83 1543.86 1394.17 1541.75 Q1396.51 1539.64 1396.51 1536.03 Q1396.51 1532.42 1394.17 1530.31 Q1391.83 1528.21 1387.83 1528.21 Q1385.95 1528.21 1384.08 1528.62 Q1382.23 1529.04 1380.28 1529.92 L1380.28 1512.56 Z" fill="#000000" fill-rule="evenodd" fill-opacity="1" /><path clip-path="url(#clip450)" d="M1407.64 1532.24 L1420.12 1532.24 L1420.12 1536.03 L1407.64 1536.03 L1407.64 1532.24 Z" fill="#000000" fill-rule="evenodd" fill-opacity="1" /><path clip-path="url(#clip450)" d="M1431.53 1543.18 L1447.85 1543.18 L1447.85 1547.12 L1425.91 1547.12 L1425.91 1543.18 Q1428.57 1540.43 1433.15 1535.8 Q1437.76 1531.15 1438.94 1529.81 Q1441.18 1527.28 1442.06 1525.55 Q1442.97 1523.79 1442.97 1522.1 Q1442.97 1519.34 1441.02 1517.61 Q1439.1 1515.87 1436 1515.87 Q1433.8 1515.87 1431.35 1516.63 Q1428.92 1517.4 1426.14 1518.95 L1426.14 1514.23 Q1428.96 1513.09 1431.42 1512.51 Q1433.87 1511.93 1435.91 1511.93 Q1441.28 1511.93 1444.47 1514.62 Q1447.67 1517.31 1447.67 1521.8 Q1447.67 1523.93 1446.85 1525.85 Q1446.07 1527.74 1443.96 1530.34 Q1443.38 1531.01 1440.28 1534.23 Q1437.18 1537.42 1431.53 1543.18 Z" fill="#000000" fill-rule="evenodd" fill-opacity="1" /><path clip-path="url(#clip450)" d="M1458.48 1543.18 L1466.11 1543.18 L1466.11 1516.82 L1457.8 1518.49 L1457.8 1514.23 L1466.07 1512.56 L1470.74 1512.56 L1470.74 1543.18 L1478.38 1543.18 L1478.38 1547.12 L1458.48 1547.12 L1458.48 1543.18 Z" fill="#000000" fill-rule="evenodd" fill-opacity="1" /><path clip-path="url(#clip450)" d="M1757.14 1543.18 L1773.46 1543.18 L1773.46 1547.12 L1751.52 1547.12 L1751.52 1543.18 Q1754.18 1540.43 1758.76 1535.8 Q1763.37 1531.15 1764.55 1529.81 Q1766.8 1527.28 1767.68 1525.55 Q1768.58 1523.79 1768.58 1522.1 Q1768.58 1519.34 1766.63 1517.61 Q1764.71 1515.87 1761.61 1515.87 Q1759.41 1515.87 1756.96 1516.63 Q1754.53 1517.4 1751.75 1518.95 L1751.75 1514.23 Q1754.57 1513.09 1757.03 1512.51 Q1759.48 1511.93 1761.52 1511.93 Q1766.89 1511.93 1770.08 1514.62 Q1773.28 1517.31 1773.28 1521.8 Q1773.28 1523.93 1772.47 1525.85 Q1771.68 1527.74 1769.57 1530.34 Q1769 1531.01 1765.89 1534.23 Q1762.79 1537.42 1757.14 1543.18 Z" fill="#000000" fill-rule="evenodd" fill-opacity="1" /><path clip-path="url(#clip450)" d="M1793.28 1515.64 Q1789.67 1515.64 1787.84 1519.2 Q1786.03 1522.75 1786.03 1529.87 Q1786.03 1536.98 1787.84 1540.55 Q1789.67 1544.09 1793.28 1544.09 Q1796.91 1544.09 1798.72 1540.55 Q1800.55 1536.98 1800.55 1529.87 Q1800.55 1522.75 1798.72 1519.2 Q1796.91 1515.64 1793.28 1515.64 M1793.28 1511.93 Q1799.09 1511.93 1802.14 1516.54 Q1805.22 1521.12 1805.22 1529.87 Q1805.22 1538.6 1802.14 1543.21 Q1799.09 1547.79 1793.28 1547.79 Q1787.47 1547.79 1784.39 1543.21 Q1781.33 1538.6 1781.33 1529.87 Q1781.33 1521.12 1784.39 1516.54 Q1787.47 1511.93 1793.28 1511.93 Z" fill="#000000" fill-rule="evenodd" fill-opacity="1" /><path clip-path="url(#clip450)" d="M1817.47 1543.18 L1833.79 1543.18 L1833.79 1547.12 L1811.84 1547.12 L1811.84 1543.18 Q1814.5 1540.43 1819.09 1535.8 Q1823.69 1531.15 1824.87 1529.81 Q1827.12 1527.28 1828 1525.55 Q1828.9 1523.79 1828.9 1522.1 Q1828.9 1519.34 1826.96 1517.61 Q1825.04 1515.87 1821.93 1515.87 Q1819.74 1515.87 1817.28 1516.63 Q1814.85 1517.4 1812.07 1518.95 L1812.07 1514.23 Q1814.9 1513.09 1817.35 1512.51 Q1819.81 1511.93 1821.84 1511.93 Q1827.21 1511.93 1830.41 1514.62 Q1833.6 1517.31 1833.6 1521.8 Q1833.6 1523.93 1832.79 1525.85 Q1832 1527.74 1829.9 1530.34 Q1829.32 1531.01 1826.22 1534.23 Q1823.12 1537.42 1817.47 1543.18 Z" fill="#000000" fill-rule="evenodd" fill-opacity="1" /><path clip-path="url(#clip450)" d="M1844.41 1543.18 L1852.05 1543.18 L1852.05 1516.82 L1843.74 1518.49 L1843.74 1514.23 L1852 1512.56 L1856.68 1512.56 L1856.68 1543.18 L1864.32 1543.18 L1864.32 1547.12 L1844.41 1547.12 L1844.41 1543.18 Z" fill="#000000" fill-rule="evenodd" fill-opacity="1" /><path clip-path="url(#clip450)" d="M1871.01 1532.24 L1883.49 1532.24 L1883.49 1536.03 L1871.01 1536.03 L1871.01 1532.24 Z" fill="#000000" fill-rule="evenodd" fill-opacity="1" /><path clip-path="url(#clip450)" d="M1900.87 1515.64 Q1897.26 1515.64 1895.43 1519.2 Q1893.62 1522.75 1893.62 1529.87 Q1893.62 1536.98 1895.43 1540.55 Q1897.26 1544.09 1900.87 1544.09 Q1904.5 1544.09 1906.31 1540.55 Q1908.14 1536.98 1908.14 1529.87 Q1908.14 1522.75 1906.31 1519.2 Q1904.5 1515.64 1900.87 1515.64 M1900.87 1511.93 Q1906.68 1511.93 1909.74 1516.54 Q1912.81 1521.12 1912.81 1529.87 Q1912.81 1538.6 1909.74 1543.21 Q1906.68 1547.79 1900.87 1547.79 Q1895.06 1547.79 1891.98 1543.21 Q1888.93 1538.6 1888.93 1529.87 Q1888.93 1521.12 1891.98 1516.54 Q1895.06 1511.93 1900.87 1511.93 Z" fill="#000000" fill-rule="evenodd" fill-opacity="1" /><path clip-path="url(#clip450)" d="M1921.08 1512.56 L1939.43 1512.56 L1939.43 1516.5 L1925.36 1516.5 L1925.36 1524.97 Q1926.38 1524.62 1927.4 1524.46 Q1928.42 1524.27 1929.43 1524.27 Q1935.22 1524.27 1938.6 1527.44 Q1941.98 1530.62 1941.98 1536.03 Q1941.98 1541.61 1938.51 1544.71 Q1935.04 1547.79 1928.72 1547.79 Q1926.54 1547.79 1924.27 1547.42 Q1922.03 1547.05 1919.62 1546.31 L1919.62 1541.61 Q1921.7 1542.74 1923.93 1543.3 Q1926.15 1543.86 1928.62 1543.86 Q1932.63 1543.86 1934.97 1541.75 Q1937.3 1539.64 1937.3 1536.03 Q1937.3 1532.42 1934.97 1530.31 Q1932.63 1528.21 1928.62 1528.21 Q1926.75 1528.21 1924.87 1528.62 Q1923.02 1529.04 1921.08 1529.92 L1921.08 1512.56 Z" fill="#000000" fill-rule="evenodd" fill-opacity="1" /><path clip-path="url(#clip450)" d="M1948.44 1532.24 L1960.92 1532.24 L1960.92 1536.03 L1948.44 1536.03 L1948.44 1532.24 Z" fill="#000000" fill-rule="evenodd" fill-opacity="1" /><path clip-path="url(#clip450)" d="M1972.33 1543.18 L1988.65 1543.18 L1988.65 1547.12 L1966.7 1547.12 L1966.7 1543.18 Q1969.36 1540.43 1973.95 1535.8 Q1978.55 1531.15 1979.73 1529.81 Q1981.98 1527.28 1982.86 1525.55 Q1983.76 1523.79 1983.76 1522.1 Q1983.76 1519.34 1981.82 1517.61 Q1979.9 1515.87 1976.8 1515.87 Q1974.6 1515.87 1972.14 1516.63 Q1969.71 1517.4 1966.93 1518.95 L1966.93 1514.23 Q1969.76 1513.09 1972.21 1512.51 Q1974.67 1511.93 1976.7 1511.93 Q1982.07 1511.93 1985.27 1514.62 Q1988.46 1517.31 1988.46 1521.8 Q1988.46 1523.93 1987.65 1525.85 Q1986.86 1527.74 1984.76 1530.34 Q1984.18 1531.01 1981.08 1534.23 Q1977.98 1537.42 1972.33 1543.18 Z" fill="#000000" fill-rule="evenodd" fill-opacity="1" /><path clip-path="url(#clip450)" d="M1998.6 1546.4 L1998.6 1542.14 Q2000.36 1542.98 2002.17 1543.42 Q2003.97 1543.86 2005.71 1543.86 Q2010.34 1543.86 2012.77 1540.75 Q2015.22 1537.63 2015.57 1531.29 Q2014.23 1533.28 2012.17 1534.34 Q2010.11 1535.41 2007.61 1535.41 Q2002.42 1535.41 1999.39 1532.28 Q1996.38 1529.13 1996.38 1523.69 Q1996.38 1518.37 1999.53 1515.15 Q2002.67 1511.93 2007.91 1511.93 Q2013.9 1511.93 2017.05 1516.54 Q2020.22 1521.12 2020.22 1529.87 Q2020.22 1538.05 2016.33 1542.93 Q2012.47 1547.79 2005.92 1547.79 Q2004.16 1547.79 2002.35 1547.44 Q2000.54 1547.1 1998.6 1546.4 M2007.91 1531.75 Q2011.05 1531.75 2012.88 1529.6 Q2014.73 1527.44 2014.73 1523.69 Q2014.73 1519.97 2012.88 1517.81 Q2011.05 1515.64 2007.91 1515.64 Q2004.76 1515.64 2002.91 1517.81 Q2001.08 1519.97 2001.08 1523.69 Q2001.08 1527.44 2002.91 1529.6 Q2004.76 1531.75 2007.91 1531.75 Z" fill="#000000" fill-rule="evenodd" fill-opacity="1" /><polyline clip-path="url(#clip452)" style="stroke:#000000; stroke-linecap:butt; stroke-linejoin:round; stroke-width:2; stroke-opacity:0.1; fill:none" points="
  201.019,1324.69 2352.76,1324.69 
  "/>
<polyline clip-path="url(#clip452)" style="stroke:#000000; stroke-linecap:butt; stroke-linejoin:round; stroke-width:2; stroke-opacity:0.1; fill:none" points="
  201.019,1021.36 2352.76,1021.36 
  "/>
<polyline clip-path="url(#clip452)" style="stroke:#000000; stroke-linecap:butt; stroke-linejoin:round; stroke-width:2; stroke-opacity:0.1; fill:none" points="
  201.019,718.038 2352.76,718.038 
  "/>
<polyline clip-path="url(#clip452)" style="stroke:#000000; stroke-linecap:butt; stroke-linejoin:round; stroke-width:2; stroke-opacity:0.1; fill:none" points="
  201.019,414.712 2352.76,414.712 
  "/>
<polyline clip-path="url(#clip452)" style="stroke:#000000; stroke-linecap:butt; stroke-linejoin:round; stroke-width:2; stroke-opacity:0.1; fill:none" points="
  201.019,111.386 2352.76,111.386 
  "/>
<polyline clip-path="url(#clip450)" style="stroke:#000000; stroke-linecap:butt; stroke-linejoin:round; stroke-width:4; stroke-opacity:1; fill:none" points="
  201.019,1486.45 201.019,47.2441 
  "/>
<polyline clip-path="url(#clip450)" style="stroke:#000000; stroke-linecap:butt; stroke-linejoin:round; stroke-width:4; stroke-opacity:1; fill:none" points="
  201.019,1324.69 226.84,1324.69 
  "/>
<polyline clip-path="url(#clip450)" style="stroke:#000000; stroke-linecap:butt; stroke-linejoin:round; stroke-width:4; stroke-opacity:1; fill:none" points="
  201.019,1021.36 226.84,1021.36 
  "/>
<polyline clip-path="url(#clip450)" style="stroke:#000000; stroke-linecap:butt; stroke-linejoin:round; stroke-width:4; stroke-opacity:1; fill:none" points="
  201.019,718.038 226.84,718.038 
  "/>
<polyline clip-path="url(#clip450)" style="stroke:#000000; stroke-linecap:butt; stroke-linejoin:round; stroke-width:4; stroke-opacity:1; fill:none" points="
  201.019,414.712 226.84,414.712 
  "/>
<polyline clip-path="url(#clip450)" style="stroke:#000000; stroke-linecap:butt; stroke-linejoin:round; stroke-width:4; stroke-opacity:1; fill:none" points="
  201.019,111.386 226.84,111.386 
  "/>
<path clip-path="url(#clip450)" d="M56.6171 1338.03 L72.9365 1338.03 L72.9365 1341.97 L50.9921 1341.97 L50.9921 1338.03 Q53.6541 1335.28 58.2375 1330.65 Q62.8439 1326 64.0245 1324.65 Q66.2698 1322.13 67.1494 1320.4 Q68.0522 1318.64 68.0522 1316.95 Q68.0522 1314.19 66.1078 1312.46 Q64.1865 1310.72 61.0847 1310.72 Q58.8856 1310.72 56.4319 1311.48 Q54.0014 1312.25 51.2236 1313.8 L51.2236 1309.08 Q54.0477 1307.94 56.5014 1307.36 Q58.955 1306.78 60.9921 1306.78 Q66.3624 1306.78 69.5568 1309.47 Q72.7513 1312.15 72.7513 1316.65 Q72.7513 1318.77 71.9411 1320.7 Q71.1541 1322.59 69.0476 1325.19 Q68.4689 1325.86 65.367 1329.08 Q62.2652 1332.27 56.6171 1338.03 Z" fill="#000000" fill-rule="evenodd" fill-opacity="1" /><path clip-path="url(#clip450)" d="M86.779 1338.03 L103.098 1338.03 L103.098 1341.97 L81.154 1341.97 L81.154 1338.03 Q83.816 1335.28 88.3993 1330.65 Q93.0058 1326 94.1863 1324.65 Q96.4317 1322.13 97.3113 1320.4 Q98.2141 1318.64 98.2141 1316.95 Q98.2141 1314.19 96.2697 1312.46 Q94.3484 1310.72 91.2465 1310.72 Q89.0475 1310.72 86.5938 1311.48 Q84.1632 1312.25 81.3855 1313.8 L81.3855 1309.08 Q84.2095 1307.94 86.6632 1307.36 Q89.1169 1306.78 91.1539 1306.78 Q96.5243 1306.78 99.7187 1309.47 Q102.913 1312.15 102.913 1316.65 Q102.913 1318.77 102.103 1320.7 Q101.316 1322.59 99.2095 1325.19 Q98.6308 1325.86 95.5289 1329.08 Q92.4271 1332.27 86.779 1338.03 Z" fill="#000000" fill-rule="evenodd" fill-opacity="1" /><path clip-path="url(#clip450)" d="M112.959 1307.41 L131.316 1307.41 L131.316 1311.34 L117.242 1311.34 L117.242 1319.82 Q118.26 1319.47 119.279 1319.31 Q120.297 1319.12 121.316 1319.12 Q127.103 1319.12 130.482 1322.29 Q133.862 1325.46 133.862 1330.88 Q133.862 1336.46 130.39 1339.56 Q126.918 1342.64 120.598 1342.64 Q118.422 1342.64 116.154 1342.27 Q113.908 1341.9 111.501 1341.16 L111.501 1336.46 Q113.584 1337.59 115.807 1338.15 Q118.029 1338.71 120.506 1338.71 Q124.51 1338.71 126.848 1336.6 Q129.186 1334.49 129.186 1330.88 Q129.186 1327.27 126.848 1325.16 Q124.51 1323.06 120.506 1323.06 Q118.631 1323.06 116.756 1323.47 Q114.904 1323.89 112.959 1324.77 L112.959 1307.41 Z" fill="#000000" fill-rule="evenodd" fill-opacity="1" /><path clip-path="url(#clip450)" d="M153.075 1310.49 Q149.464 1310.49 147.635 1314.05 Q145.83 1317.59 145.83 1324.72 Q145.83 1331.83 147.635 1335.39 Q149.464 1338.94 153.075 1338.94 Q156.709 1338.94 158.515 1335.39 Q160.343 1331.83 160.343 1324.72 Q160.343 1317.59 158.515 1314.05 Q156.709 1310.49 153.075 1310.49 M153.075 1306.78 Q158.885 1306.78 161.941 1311.39 Q165.019 1315.97 165.019 1324.72 Q165.019 1333.45 161.941 1338.06 Q158.885 1342.64 153.075 1342.64 Q147.265 1342.64 144.186 1338.06 Q141.131 1333.45 141.131 1324.72 Q141.131 1315.97 144.186 1311.39 Q147.265 1306.78 153.075 1306.78 Z" fill="#000000" fill-rule="evenodd" fill-opacity="1" /><path clip-path="url(#clip450)" d="M56.6171 1034.71 L72.9365 1034.71 L72.9365 1038.64 L50.9921 1038.64 L50.9921 1034.71 Q53.6541 1031.95 58.2375 1027.32 Q62.8439 1022.67 64.0245 1021.33 Q66.2698 1018.81 67.1494 1017.07 Q68.0522 1015.31 68.0522 1013.62 Q68.0522 1010.87 66.1078 1009.13 Q64.1865 1007.39 61.0847 1007.39 Q58.8856 1007.39 56.4319 1008.16 Q54.0014 1008.92 51.2236 1010.47 L51.2236 1005.75 Q54.0477 1004.62 56.5014 1004.04 Q58.955 1003.46 60.9921 1003.46 Q66.3624 1003.46 69.5568 1006.14 Q72.7513 1008.83 72.7513 1013.32 Q72.7513 1015.45 71.9411 1017.37 Q71.1541 1019.27 69.0476 1021.86 Q68.4689 1022.53 65.367 1025.75 Q62.2652 1028.94 56.6171 1034.71 Z" fill="#000000" fill-rule="evenodd" fill-opacity="1" /><path clip-path="url(#clip450)" d="M96.9178 1020.01 Q100.274 1020.73 102.149 1023 Q104.047 1025.26 104.047 1028.6 Q104.047 1033.71 100.529 1036.51 Q97.0104 1039.31 90.529 1039.31 Q88.353 1039.31 86.0382 1038.87 Q83.7466 1038.46 81.2929 1037.6 L81.2929 1033.09 Q83.2373 1034.22 85.5521 1034.8 Q87.8669 1035.38 90.3901 1035.38 Q94.7882 1035.38 97.0798 1033.64 Q99.3946 1031.91 99.3946 1028.6 Q99.3946 1025.54 97.2419 1023.83 Q95.1123 1022.09 91.2928 1022.09 L87.2651 1022.09 L87.2651 1018.25 L91.478 1018.25 Q94.9271 1018.25 96.7558 1016.88 Q98.5845 1015.5 98.5845 1012.9 Q98.5845 1010.24 96.6863 1008.83 Q94.8113 1007.39 91.2928 1007.39 Q89.3715 1007.39 87.1725 1007.81 Q84.9734 1008.23 82.3346 1009.11 L82.3346 1004.94 Q84.9966 1004.2 87.3114 1003.83 Q89.6493 1003.46 91.7095 1003.46 Q97.0335 1003.46 100.135 1005.89 Q103.237 1008.3 103.237 1012.42 Q103.237 1015.29 101.594 1017.28 Q99.9502 1019.25 96.9178 1020.01 Z" fill="#000000" fill-rule="evenodd" fill-opacity="1" /><path clip-path="url(#clip450)" d="M122.913 1007.16 Q119.302 1007.16 117.473 1010.73 Q115.668 1014.27 115.668 1021.4 Q115.668 1028.5 117.473 1032.07 Q119.302 1035.61 122.913 1035.61 Q126.547 1035.61 128.353 1032.07 Q130.182 1028.5 130.182 1021.4 Q130.182 1014.27 128.353 1010.73 Q126.547 1007.16 122.913 1007.16 M122.913 1003.46 Q128.723 1003.46 131.779 1008.06 Q134.857 1012.65 134.857 1021.4 Q134.857 1030.12 131.779 1034.73 Q128.723 1039.31 122.913 1039.31 Q117.103 1039.31 114.024 1034.73 Q110.969 1030.12 110.969 1021.4 Q110.969 1012.65 114.024 1008.06 Q117.103 1003.46 122.913 1003.46 Z" fill="#000000" fill-rule="evenodd" fill-opacity="1" /><path clip-path="url(#clip450)" d="M153.075 1007.16 Q149.464 1007.16 147.635 1010.73 Q145.83 1014.27 145.83 1021.4 Q145.83 1028.5 147.635 1032.07 Q149.464 1035.61 153.075 1035.61 Q156.709 1035.61 158.515 1032.07 Q160.343 1028.5 160.343 1021.4 Q160.343 1014.27 158.515 1010.73 Q156.709 1007.16 153.075 1007.16 M153.075 1003.46 Q158.885 1003.46 161.941 1008.06 Q165.019 1012.65 165.019 1021.4 Q165.019 1030.12 161.941 1034.73 Q158.885 1039.31 153.075 1039.31 Q147.265 1039.31 144.186 1034.73 Q141.131 1030.12 141.131 1021.4 Q141.131 1012.65 144.186 1008.06 Q147.265 1003.46 153.075 1003.46 Z" fill="#000000" fill-rule="evenodd" fill-opacity="1" /><path clip-path="url(#clip450)" d="M56.6171 731.382 L72.9365 731.382 L72.9365 735.318 L50.9921 735.318 L50.9921 731.382 Q53.6541 728.628 58.2375 723.998 Q62.8439 719.346 64.0245 718.003 Q66.2698 715.48 67.1494 713.744 Q68.0522 711.984 68.0522 710.295 Q68.0522 707.54 66.1078 705.804 Q64.1865 704.068 61.0847 704.068 Q58.8856 704.068 56.4319 704.832 Q54.0014 705.596 51.2236 707.147 L51.2236 702.424 Q54.0477 701.29 56.5014 700.711 Q58.955 700.133 60.9921 700.133 Q66.3624 700.133 69.5568 702.818 Q72.7513 705.503 72.7513 709.994 Q72.7513 712.123 71.9411 714.045 Q71.1541 715.943 69.0476 718.535 Q68.4689 719.207 65.367 722.424 Q62.2652 725.619 56.6171 731.382 Z" fill="#000000" fill-rule="evenodd" fill-opacity="1" /><path clip-path="url(#clip450)" d="M96.9178 716.683 Q100.274 717.401 102.149 719.67 Q104.047 721.938 104.047 725.271 Q104.047 730.387 100.529 733.188 Q97.0104 735.989 90.529 735.989 Q88.353 735.989 86.0382 735.549 Q83.7466 735.132 81.2929 734.276 L81.2929 729.762 Q83.2373 730.896 85.5521 731.475 Q87.8669 732.054 90.3901 732.054 Q94.7882 732.054 97.0798 730.318 Q99.3946 728.582 99.3946 725.271 Q99.3946 722.216 97.2419 720.503 Q95.1123 718.767 91.2928 718.767 L87.2651 718.767 L87.2651 714.924 L91.478 714.924 Q94.9271 714.924 96.7558 713.559 Q98.5845 712.17 98.5845 709.577 Q98.5845 706.915 96.6863 705.503 Q94.8113 704.068 91.2928 704.068 Q89.3715 704.068 87.1725 704.484 Q84.9734 704.901 82.3346 705.781 L82.3346 701.614 Q84.9966 700.873 87.3114 700.503 Q89.6493 700.133 91.7095 700.133 Q97.0335 700.133 100.135 702.563 Q103.237 704.971 103.237 709.091 Q103.237 711.961 101.594 713.952 Q99.9502 715.92 96.9178 716.683 Z" fill="#000000" fill-rule="evenodd" fill-opacity="1" /><path clip-path="url(#clip450)" d="M112.959 700.758 L131.316 700.758 L131.316 704.693 L117.242 704.693 L117.242 713.165 Q118.26 712.818 119.279 712.656 Q120.297 712.471 121.316 712.471 Q127.103 712.471 130.482 715.642 Q133.862 718.813 133.862 724.23 Q133.862 729.808 130.39 732.91 Q126.918 735.989 120.598 735.989 Q118.422 735.989 116.154 735.619 Q113.908 735.248 111.501 734.507 L111.501 729.808 Q113.584 730.943 115.807 731.498 Q118.029 732.054 120.506 732.054 Q124.51 732.054 126.848 729.947 Q129.186 727.841 129.186 724.23 Q129.186 720.619 126.848 718.512 Q124.51 716.406 120.506 716.406 Q118.631 716.406 116.756 716.822 Q114.904 717.239 112.959 718.119 L112.959 700.758 Z" fill="#000000" fill-rule="evenodd" fill-opacity="1" /><path clip-path="url(#clip450)" d="M153.075 703.836 Q149.464 703.836 147.635 707.401 Q145.83 710.943 145.83 718.072 Q145.83 725.179 147.635 728.744 Q149.464 732.285 153.075 732.285 Q156.709 732.285 158.515 728.744 Q160.343 725.179 160.343 718.072 Q160.343 710.943 158.515 707.401 Q156.709 703.836 153.075 703.836 M153.075 700.133 Q158.885 700.133 161.941 704.739 Q165.019 709.322 165.019 718.072 Q165.019 726.799 161.941 731.406 Q158.885 735.989 153.075 735.989 Q147.265 735.989 144.186 731.406 Q141.131 726.799 141.131 718.072 Q141.131 709.322 144.186 704.739 Q147.265 700.133 153.075 700.133 Z" fill="#000000" fill-rule="evenodd" fill-opacity="1" /><path clip-path="url(#clip450)" d="M56.6171 428.057 L72.9365 428.057 L72.9365 431.992 L50.9921 431.992 L50.9921 428.057 Q53.6541 425.302 58.2375 420.673 Q62.8439 416.02 64.0245 414.677 Q66.2698 412.154 67.1494 410.418 Q68.0522 408.659 68.0522 406.969 Q68.0522 404.214 66.1078 402.478 Q64.1865 400.742 61.0847 400.742 Q58.8856 400.742 56.4319 401.506 Q54.0014 402.27 51.2236 403.821 L51.2236 399.099 Q54.0477 397.964 56.5014 397.386 Q58.955 396.807 60.9921 396.807 Q66.3624 396.807 69.5568 399.492 Q72.7513 402.177 72.7513 406.668 Q72.7513 408.798 71.9411 410.719 Q71.1541 412.617 69.0476 415.21 Q68.4689 415.881 65.367 419.099 Q62.2652 422.293 56.6171 428.057 Z" fill="#000000" fill-rule="evenodd" fill-opacity="1" /><path clip-path="url(#clip450)" d="M95.5984 401.506 L83.7929 419.955 L95.5984 419.955 L95.5984 401.506 M94.3715 397.432 L100.251 397.432 L100.251 419.955 L105.182 419.955 L105.182 423.844 L100.251 423.844 L100.251 431.992 L95.5984 431.992 L95.5984 423.844 L79.9966 423.844 L79.9966 419.33 L94.3715 397.432 Z" fill="#000000" fill-rule="evenodd" fill-opacity="1" /><path clip-path="url(#clip450)" d="M122.913 400.511 Q119.302 400.511 117.473 404.075 Q115.668 407.617 115.668 414.747 Q115.668 421.853 117.473 425.418 Q119.302 428.96 122.913 428.96 Q126.547 428.96 128.353 425.418 Q130.182 421.853 130.182 414.747 Q130.182 407.617 128.353 404.075 Q126.547 400.511 122.913 400.511 M122.913 396.807 Q128.723 396.807 131.779 401.413 Q134.857 405.997 134.857 414.747 Q134.857 423.473 131.779 428.08 Q128.723 432.663 122.913 432.663 Q117.103 432.663 114.024 428.08 Q110.969 423.473 110.969 414.747 Q110.969 405.997 114.024 401.413 Q117.103 396.807 122.913 396.807 Z" fill="#000000" fill-rule="evenodd" fill-opacity="1" /><path clip-path="url(#clip450)" d="M153.075 400.511 Q149.464 400.511 147.635 404.075 Q145.83 407.617 145.83 414.747 Q145.83 421.853 147.635 425.418 Q149.464 428.96 153.075 428.96 Q156.709 428.96 158.515 425.418 Q160.343 421.853 160.343 414.747 Q160.343 407.617 158.515 404.075 Q156.709 400.511 153.075 400.511 M153.075 396.807 Q158.885 396.807 161.941 401.413 Q165.019 405.997 165.019 414.747 Q165.019 423.473 161.941 428.08 Q158.885 432.663 153.075 432.663 Q147.265 432.663 144.186 428.08 Q141.131 423.473 141.131 414.747 Q141.131 405.997 144.186 401.413 Q147.265 396.807 153.075 396.807 Z" fill="#000000" fill-rule="evenodd" fill-opacity="1" /><path clip-path="url(#clip450)" d="M56.6171 124.731 L72.9365 124.731 L72.9365 128.666 L50.9921 128.666 L50.9921 124.731 Q53.6541 121.976 58.2375 117.347 Q62.8439 112.694 64.0245 111.352 Q66.2698 108.828 67.1494 107.092 Q68.0522 105.333 68.0522 103.643 Q68.0522 100.889 66.1078 99.1525 Q64.1865 97.4164 61.0847 97.4164 Q58.8856 97.4164 56.4319 98.1803 Q54.0014 98.9442 51.2236 100.495 L51.2236 95.7729 Q54.0477 94.6387 56.5014 94.06 Q58.955 93.4813 60.9921 93.4813 Q66.3624 93.4813 69.5568 96.1664 Q72.7513 98.8516 72.7513 103.342 Q72.7513 105.472 71.9411 107.393 Q71.1541 109.291 69.0476 111.884 Q68.4689 112.555 65.367 115.773 Q62.2652 118.967 56.6171 124.731 Z" fill="#000000" fill-rule="evenodd" fill-opacity="1" /><path clip-path="url(#clip450)" d="M95.5984 98.1803 L83.7929 116.629 L95.5984 116.629 L95.5984 98.1803 M94.3715 94.1063 L100.251 94.1063 L100.251 116.629 L105.182 116.629 L105.182 120.518 L100.251 120.518 L100.251 128.666 L95.5984 128.666 L95.5984 120.518 L79.9966 120.518 L79.9966 116.004 L94.3715 94.1063 Z" fill="#000000" fill-rule="evenodd" fill-opacity="1" /><path clip-path="url(#clip450)" d="M112.959 94.1063 L131.316 94.1063 L131.316 98.0414 L117.242 98.0414 L117.242 106.514 Q118.26 106.166 119.279 106.004 Q120.297 105.819 121.316 105.819 Q127.103 105.819 130.482 108.99 Q133.862 112.162 133.862 117.578 Q133.862 123.157 130.39 126.259 Q126.918 129.338 120.598 129.338 Q118.422 129.338 116.154 128.967 Q113.908 128.597 111.501 127.856 L111.501 123.157 Q113.584 124.291 115.807 124.847 Q118.029 125.402 120.506 125.402 Q124.51 125.402 126.848 123.296 Q129.186 121.189 129.186 117.578 Q129.186 113.967 126.848 111.861 Q124.51 109.754 120.506 109.754 Q118.631 109.754 116.756 110.171 Q114.904 110.588 112.959 111.467 L112.959 94.1063 Z" fill="#000000" fill-rule="evenodd" fill-opacity="1" /><path clip-path="url(#clip450)" d="M153.075 97.185 Q149.464 97.185 147.635 100.75 Q145.83 104.291 145.83 111.421 Q145.83 118.527 147.635 122.092 Q149.464 125.634 153.075 125.634 Q156.709 125.634 158.515 122.092 Q160.343 118.527 160.343 111.421 Q160.343 104.291 158.515 100.75 Q156.709 97.185 153.075 97.185 M153.075 93.4813 Q158.885 93.4813 161.941 98.0877 Q165.019 102.671 165.019 111.421 Q165.019 120.148 161.941 124.754 Q158.885 129.338 153.075 129.338 Q147.265 129.338 144.186 124.754 Q141.131 120.148 141.131 111.421 Q141.131 102.671 144.186 98.0877 Q147.265 93.4813 153.075 93.4813 Z" fill="#000000" fill-rule="evenodd" fill-opacity="1" /><polyline clip-path="url(#clip452)" style="stroke:#009af9; stroke-linecap:butt; stroke-linejoin:round; stroke-width:4; stroke-opacity:1; fill:none" points="
  261.917,606.293 329.582,714.156 397.247,414.712 600.241,567.043 667.906,1070.74 735.57,1253.65 803.235,1257.41 870.9,1070.93 1073.89,964.823 1141.56,797.473 
  1209.22,1237.33 1276.89,851.258 1344.55,621.034 1547.55,614.907 1615.21,293.382 1682.88,336.848 1750.54,190.615 1818.2,281.492 2088.86,281.249 2156.53,200.503 
  2224.19,444.923 2291.86,278.094 
  "/>
<polyline clip-path="url(#clip452)" style="stroke:#e26f46; stroke-linecap:butt; stroke-linejoin:round; stroke-width:4; stroke-opacity:1; fill:none" points="
  261.917,522.696 329.582,519.602 397.247,315.161 600.241,548.175 667.906,887.9 735.57,1110.12 803.235,1163.31 870.9,893.118 1073.89,879.77 1141.56,759.594 
  1209.22,919.689 1276.89,655.309 1344.55,602.774 1547.55,302.603 1615.21,215.185 1682.88,154.191 1750.54,172.051 1818.2,244.001 2088.86,184.361 2156.53,159.918 
  2224.19,355.593 2291.86,87.9763 
  "/>
<polyline clip-path="url(#clip452)" style="stroke:#3da44d; stroke-linecap:butt; stroke-linejoin:round; stroke-width:4; stroke-opacity:1; fill:none" points="
  261.917,709.484 329.582,764.52 397.247,475.377 600.241,810.673 667.906,1124.49 735.57,1445.72 803.235,1368.85 870.9,1122.55 1073.89,1051.7 1141.56,1002.19 
  1209.22,1242.67 1276.89,893.42 1344.55,764.324 1547.55,656.705 1615.21,396.573 1682.88,338.79 1750.54,402.579 1818.2,368.061 2088.86,385.108 2156.53,389.233 
  2224.19,518.874 2291.86,306.91 
  "/>
<polyline clip-path="url(#clip452)" style="stroke:#c271d2; stroke-linecap:butt; stroke-linejoin:round; stroke-width:4; stroke-opacity:1; fill:none" points="
  261.917,677.149 329.582,527.852 397.247,422.659 600.241,768.633 667.906,968.221 735.57,1390.93 803.235,1252.07 870.9,923.329 1073.89,891.48 1141.56,1000.56 
  1209.22,968.524 1276.89,681.092 1344.55,747.763 1547.55,374.249 1615.21,359.688 1682.88,211.302 1750.54,399.485 1818.2,344.583 2088.86,233.869 2156.53,285.616 
  2224.19,386.745 2291.86,100.709 
  "/>
<path clip-path="url(#clip450)" d="
M1917.99 397.618 L2281.03 397.618 L2281.03 95.2176 L1917.99 95.2176  Z
  " fill="#ffffff" fill-rule="evenodd" fill-opacity="1"/>
<polyline clip-path="url(#clip450)" style="stroke:#000000; stroke-linecap:butt; stroke-linejoin:round; stroke-width:4; stroke-opacity:1; fill:none" points="
  1917.99,397.618 2281.03,397.618 2281.03,95.2176 1917.99,95.2176 1917.99,397.618 
  "/>
<polyline clip-path="url(#clip450)" style="stroke:#009af9; stroke-linecap:butt; stroke-linejoin:round; stroke-width:4; stroke-opacity:1; fill:none" points="
  1941.9,155.698 2085.35,155.698 
  "/>
<path clip-path="url(#clip450)" d="M2125.28 141.589 Q2120.18 141.589 2117.17 145.385 Q2114.19 149.181 2114.19 155.732 Q2114.19 162.26 2117.17 166.056 Q2120.18 169.853 2125.28 169.853 Q2130.37 169.853 2133.33 166.056 Q2136.32 162.26 2136.32 155.732 Q2136.32 149.181 2133.33 145.385 Q2130.37 141.589 2125.28 141.589 M2125.28 137.793 Q2132.54 137.793 2136.9 142.677 Q2141.25 147.538 2141.25 155.732 Q2141.25 163.904 2136.9 168.788 Q2132.54 173.649 2125.28 173.649 Q2117.98 173.649 2113.61 168.788 Q2109.26 163.927 2109.26 155.732 Q2109.26 147.538 2113.61 142.677 Q2117.98 137.793 2125.28 137.793 Z" fill="#000000" fill-rule="evenodd" fill-opacity="1" /><path clip-path="url(#clip450)" d="M2152.5 169.089 L2152.5 182.839 L2148.22 182.839 L2148.22 147.052 L2152.5 147.052 L2152.5 150.987 Q2153.84 148.672 2155.88 147.561 Q2157.94 146.427 2160.78 146.427 Q2165.51 146.427 2168.45 150.177 Q2171.41 153.927 2171.41 160.038 Q2171.41 166.149 2168.45 169.899 Q2165.51 173.649 2160.78 173.649 Q2157.94 173.649 2155.88 172.538 Q2153.84 171.403 2152.5 169.089 M2166.99 160.038 Q2166.99 155.339 2165.04 152.677 Q2163.12 149.992 2159.74 149.992 Q2156.36 149.992 2154.42 152.677 Q2152.5 155.339 2152.5 160.038 Q2152.5 164.737 2154.42 167.422 Q2156.36 170.084 2159.74 170.084 Q2163.12 170.084 2165.04 167.422 Q2166.99 164.737 2166.99 160.038 Z" fill="#000000" fill-rule="evenodd" fill-opacity="1" /><path clip-path="url(#clip450)" d="M2200.65 158.95 L2200.65 161.033 L2181.06 161.033 Q2181.34 165.431 2183.7 167.746 Q2186.09 170.038 2190.32 170.038 Q2192.78 170.038 2195.07 169.436 Q2197.38 168.834 2199.65 167.63 L2199.65 171.658 Q2197.36 172.63 2194.95 173.14 Q2192.54 173.649 2190.07 173.649 Q2183.86 173.649 2180.23 170.038 Q2176.62 166.427 2176.62 160.269 Q2176.62 153.904 2180.04 150.177 Q2183.49 146.427 2189.33 146.427 Q2194.56 146.427 2197.59 149.806 Q2200.65 153.163 2200.65 158.95 M2196.39 157.7 Q2196.34 154.205 2194.42 152.121 Q2192.52 150.038 2189.37 150.038 Q2185.81 150.038 2183.66 152.052 Q2181.53 154.066 2181.2 157.723 L2196.39 157.7 Z" fill="#000000" fill-rule="evenodd" fill-opacity="1" /><path clip-path="url(#clip450)" d="M2229.19 157.329 L2229.19 172.978 L2224.93 172.978 L2224.93 157.468 Q2224.93 153.788 2223.49 151.959 Q2222.06 150.13 2219.19 150.13 Q2215.74 150.13 2213.75 152.33 Q2211.76 154.529 2211.76 158.325 L2211.76 172.978 L2207.47 172.978 L2207.47 147.052 L2211.76 147.052 L2211.76 151.08 Q2213.28 148.742 2215.34 147.584 Q2217.43 146.427 2220.14 146.427 Q2224.6 146.427 2226.9 149.205 Q2229.19 151.959 2229.19 157.329 Z" fill="#000000" fill-rule="evenodd" fill-opacity="1" /><polyline clip-path="url(#clip450)" style="stroke:#e26f46; stroke-linecap:butt; stroke-linejoin:round; stroke-width:4; stroke-opacity:1; fill:none" points="
  1941.9,216.178 2085.35,216.178 
  "/>
<path clip-path="url(#clip450)" d="M2109.26 198.898 L2113.93 198.898 L2113.93 213.064 L2130.92 213.064 L2130.92 198.898 L2135.6 198.898 L2135.6 233.458 L2130.92 233.458 L2130.92 216.999 L2113.93 216.999 L2113.93 233.458 L2109.26 233.458 L2109.26 198.898 Z" fill="#000000" fill-rule="evenodd" fill-opacity="1" /><path clip-path="url(#clip450)" d="M2144.72 207.532 L2148.98 207.532 L2148.98 233.458 L2144.72 233.458 L2144.72 207.532 M2144.72 197.439 L2148.98 197.439 L2148.98 202.833 L2144.72 202.833 L2144.72 197.439 Z" fill="#000000" fill-rule="evenodd" fill-opacity="1" /><path clip-path="url(#clip450)" d="M2174.95 220.194 Q2174.95 215.564 2173.03 213.018 Q2171.13 210.472 2167.68 210.472 Q2164.26 210.472 2162.34 213.018 Q2160.44 215.564 2160.44 220.194 Q2160.44 224.8 2162.34 227.346 Q2164.26 229.893 2167.68 229.893 Q2171.13 229.893 2173.03 227.346 Q2174.95 224.8 2174.95 220.194 M2179.21 230.24 Q2179.21 236.86 2176.27 240.078 Q2173.33 243.319 2167.27 243.319 Q2165.02 243.319 2163.03 242.971 Q2161.04 242.647 2159.16 241.953 L2159.16 237.809 Q2161.04 238.828 2162.87 239.314 Q2164.7 239.8 2166.59 239.8 Q2170.78 239.8 2172.87 237.601 Q2174.95 235.425 2174.95 231.004 L2174.95 228.897 Q2173.63 231.189 2171.57 232.323 Q2169.51 233.458 2166.64 233.458 Q2161.87 233.458 2158.96 229.823 Q2156.04 226.189 2156.04 220.194 Q2156.04 214.175 2158.96 210.541 Q2161.87 206.907 2166.64 206.907 Q2169.51 206.907 2171.57 208.041 Q2173.63 209.175 2174.95 211.467 L2174.95 207.532 L2179.21 207.532 L2179.21 230.24 Z" fill="#000000" fill-rule="evenodd" fill-opacity="1" /><path clip-path="url(#clip450)" d="M2209.53 217.809 L2209.53 233.458 L2205.28 233.458 L2205.28 217.948 Q2205.28 214.268 2203.84 212.439 Q2202.4 210.61 2199.53 210.61 Q2196.09 210.61 2194.09 212.81 Q2192.1 215.009 2192.1 218.805 L2192.1 233.458 L2187.82 233.458 L2187.82 197.439 L2192.1 197.439 L2192.1 211.56 Q2193.63 209.222 2195.69 208.064 Q2197.78 206.907 2200.48 206.907 Q2204.95 206.907 2207.24 209.685 Q2209.53 212.439 2209.53 217.809 Z" fill="#000000" fill-rule="evenodd" fill-opacity="1" /><polyline clip-path="url(#clip450)" style="stroke:#3da44d; stroke-linecap:butt; stroke-linejoin:round; stroke-width:4; stroke-opacity:1; fill:none" points="
  1941.9,276.658 2085.35,276.658 
  "/>
<path clip-path="url(#clip450)" d="M2109.26 259.378 L2113.93 259.378 L2113.93 290.002 L2130.76 290.002 L2130.76 293.938 L2109.26 293.938 L2109.26 259.378 Z" fill="#000000" fill-rule="evenodd" fill-opacity="1" /><path clip-path="url(#clip450)" d="M2144.7 270.998 Q2141.27 270.998 2139.28 273.683 Q2137.29 276.345 2137.29 280.998 Q2137.29 285.651 2139.26 288.336 Q2141.25 290.998 2144.7 290.998 Q2148.1 290.998 2150.09 288.313 Q2152.08 285.627 2152.08 280.998 Q2152.08 276.391 2150.09 273.706 Q2148.1 270.998 2144.7 270.998 M2144.7 267.387 Q2150.25 267.387 2153.42 270.998 Q2156.6 274.609 2156.6 280.998 Q2156.6 287.364 2153.42 290.998 Q2150.25 294.609 2144.7 294.609 Q2139.12 294.609 2135.95 290.998 Q2132.8 287.364 2132.8 280.998 Q2132.8 274.609 2135.95 270.998 Q2139.12 267.387 2144.7 267.387 Z" fill="#000000" fill-rule="evenodd" fill-opacity="1" /><path clip-path="url(#clip450)" d="M2161.18 268.012 L2165.44 268.012 L2170.76 288.243 L2176.06 268.012 L2181.09 268.012 L2186.41 288.243 L2191.71 268.012 L2195.97 268.012 L2189.19 293.938 L2184.16 293.938 L2178.59 272.688 L2172.98 293.938 L2167.96 293.938 L2161.18 268.012 Z" fill="#000000" fill-rule="evenodd" fill-opacity="1" /><polyline clip-path="url(#clip450)" style="stroke:#c271d2; stroke-linecap:butt; stroke-linejoin:round; stroke-width:4; stroke-opacity:1; fill:none" points="
  1941.9,337.138 2085.35,337.138 
  "/>
<path clip-path="url(#clip450)" d="M2137.13 322.52 L2137.13 327.45 Q2134.77 325.251 2132.08 324.163 Q2129.42 323.075 2126.41 323.075 Q2120.48 323.075 2117.34 326.709 Q2114.19 330.32 2114.19 337.172 Q2114.19 344.001 2117.34 347.635 Q2120.48 351.246 2126.41 351.246 Q2129.42 351.246 2132.08 350.158 Q2134.77 349.07 2137.13 346.871 L2137.13 351.756 Q2134.67 353.422 2131.92 354.256 Q2129.19 355.089 2126.13 355.089 Q2118.29 355.089 2113.77 350.297 Q2109.26 345.482 2109.26 337.172 Q2109.26 328.839 2113.77 324.047 Q2118.29 319.233 2126.13 319.233 Q2129.23 319.233 2131.97 320.066 Q2134.72 320.876 2137.13 322.52 Z" fill="#000000" fill-rule="evenodd" fill-opacity="1" /><path clip-path="url(#clip450)" d="M2144.16 318.399 L2148.42 318.399 L2148.42 354.418 L2144.16 354.418 L2144.16 318.399 Z" fill="#000000" fill-rule="evenodd" fill-opacity="1" /><path clip-path="url(#clip450)" d="M2167.38 331.478 Q2163.96 331.478 2161.97 334.163 Q2159.97 336.825 2159.97 341.478 Q2159.97 346.131 2161.94 348.816 Q2163.93 351.478 2167.38 351.478 Q2170.78 351.478 2172.78 348.793 Q2174.77 346.107 2174.77 341.478 Q2174.77 336.871 2172.78 334.186 Q2170.78 331.478 2167.38 331.478 M2167.38 327.867 Q2172.94 327.867 2176.11 331.478 Q2179.28 335.089 2179.28 341.478 Q2179.28 347.844 2176.11 351.478 Q2172.94 355.089 2167.38 355.089 Q2161.8 355.089 2158.63 351.478 Q2155.48 347.844 2155.48 341.478 Q2155.48 335.089 2158.63 331.478 Q2161.8 327.867 2167.38 327.867 Z" fill="#000000" fill-rule="evenodd" fill-opacity="1" /><path clip-path="url(#clip450)" d="M2202.87 329.256 L2202.87 333.283 Q2201.06 332.357 2199.12 331.895 Q2197.17 331.432 2195.09 331.432 Q2191.92 331.432 2190.32 332.404 Q2188.75 333.376 2188.75 335.32 Q2188.75 336.802 2189.88 337.658 Q2191.02 338.492 2194.44 339.256 L2195.9 339.58 Q2200.44 340.552 2202.34 342.334 Q2204.26 344.094 2204.26 347.265 Q2204.26 350.876 2201.39 352.982 Q2198.54 355.089 2193.54 355.089 Q2191.46 355.089 2189.19 354.672 Q2186.94 354.279 2184.44 353.468 L2184.44 349.07 Q2186.8 350.297 2189.09 350.922 Q2191.39 351.524 2193.63 351.524 Q2196.64 351.524 2198.26 350.506 Q2199.88 349.464 2199.88 347.589 Q2199.88 345.853 2198.7 344.927 Q2197.54 344.001 2193.59 343.144 L2192.1 342.797 Q2188.15 341.964 2186.39 340.251 Q2184.63 338.515 2184.63 335.506 Q2184.63 331.848 2187.22 329.858 Q2189.81 327.867 2194.58 327.867 Q2196.94 327.867 2199.03 328.214 Q2201.11 328.561 2202.87 329.256 Z" fill="#000000" fill-rule="evenodd" fill-opacity="1" /><path clip-path="url(#clip450)" d="M2233.21 340.39 L2233.21 342.473 L2213.63 342.473 Q2213.91 346.871 2216.27 349.186 Q2218.65 351.478 2222.89 351.478 Q2225.34 351.478 2227.64 350.876 Q2229.95 350.274 2232.22 349.07 L2232.22 353.098 Q2229.93 354.07 2227.52 354.58 Q2225.11 355.089 2222.64 355.089 Q2216.43 355.089 2212.8 351.478 Q2209.19 347.867 2209.19 341.709 Q2209.19 335.344 2212.61 331.617 Q2216.06 327.867 2221.9 327.867 Q2227.13 327.867 2230.16 331.246 Q2233.21 334.603 2233.21 340.39 M2228.96 339.14 Q2228.91 335.645 2226.99 333.561 Q2225.09 331.478 2221.94 331.478 Q2218.38 331.478 2216.22 333.492 Q2214.09 335.506 2213.77 339.163 L2228.96 339.14 Z" fill="#000000" fill-rule="evenodd" fill-opacity="1" /></svg>
