<?xml version="1.0" encoding="utf-8"?>
<svg xmlns="http://www.w3.org/2000/svg" xmlns:xlink="http://www.w3.org/1999/xlink" width="600" height="400" viewBox="0 0 2400 1600">
<defs>
  <clipPath id="clip880">
    <rect x="0" y="0" width="2400" height="1600"/>
  </clipPath>
</defs>
<path clip-path="url(#clip880)" d="
M0 1600 L2400 1600 L2400 0 L0 0  Z
  " fill="#ffffff" fill-rule="evenodd" fill-opacity="1"/>
<defs>
  <clipPath id="clip881">
    <rect x="480" y="0" width="1681" height="1600"/>
  </clipPath>
</defs>
<path clip-path="url(#clip880)" d="
M201.019 1330.92 L2352.76 1330.92 L2352.76 47.2441 L201.019 47.2441  Z
  " fill="#ffffff" fill-rule="evenodd" fill-opacity="1"/>
<defs>
  <clipPath id="clip882">
    <rect x="201" y="47" width="2153" height="1285"/>
  </clipPath>
</defs>
<polyline clip-path="url(#clip882)" style="stroke:#000000; stroke-linecap:butt; stroke-linejoin:round; stroke-width:2; stroke-opacity:0.1; fill:none" points="
  301.807,1330.92 301.807,47.2441 
  "/>
<polyline clip-path="url(#clip882)" style="stroke:#000000; stroke-linecap:butt; stroke-linejoin:round; stroke-width:2; stroke-opacity:0.1; fill:none" points="
  390.451,1330.92 390.451,47.2441 
  "/>
<polyline clip-path="url(#clip882)" style="stroke:#000000; stroke-linecap:butt; stroke-linejoin:round; stroke-width:2; stroke-opacity:0.1; fill:none" points="
  479.095,1330.92 479.095,47.2441 
  "/>
<polyline clip-path="url(#clip882)" style="stroke:#000000; stroke-linecap:butt; stroke-linejoin:round; stroke-width:2; stroke-opacity:0.1; fill:none" points="
  567.738,1330.92 567.738,47.2441 
  "/>
<polyline clip-path="url(#clip882)" style="stroke:#000000; stroke-linecap:butt; stroke-linejoin:round; stroke-width:2; stroke-opacity:0.1; fill:none" points="
  656.382,1330.92 656.382,47.2441 
  "/>
<polyline clip-path="url(#clip882)" style="stroke:#000000; stroke-linecap:butt; stroke-linejoin:round; stroke-width:2; stroke-opacity:0.1; fill:none" points="
  745.026,1330.92 745.026,47.2441 
  "/>
<polyline clip-path="url(#clip882)" style="stroke:#000000; stroke-linecap:butt; stroke-linejoin:round; stroke-width:2; stroke-opacity:0.1; fill:none" points="
  833.669,1330.92 833.669,47.2441 
  "/>
<polyline clip-path="url(#clip882)" style="stroke:#000000; stroke-linecap:butt; stroke-linejoin:round; stroke-width:2; stroke-opacity:0.1; fill:none" points="
  922.313,1330.92 922.313,47.2441 
  "/>
<polyline clip-path="url(#clip882)" style="stroke:#000000; stroke-linecap:butt; stroke-linejoin:round; stroke-width:2; stroke-opacity:0.1; fill:none" points="
  1010.96,1330.92 1010.96,47.2441 
  "/>
<polyline clip-path="url(#clip882)" style="stroke:#000000; stroke-linecap:butt; stroke-linejoin:round; stroke-width:2; stroke-opacity:0.1; fill:none" points="
  1099.6,1330.92 1099.6,47.2441 
  "/>
<polyline clip-path="url(#clip882)" style="stroke:#000000; stroke-linecap:butt; stroke-linejoin:round; stroke-width:2; stroke-opacity:0.1; fill:none" points="
  1188.24,1330.92 1188.24,47.2441 
  "/>
<polyline clip-path="url(#clip882)" style="stroke:#000000; stroke-linecap:butt; stroke-linejoin:round; stroke-width:2; stroke-opacity:0.1; fill:none" points="
  1276.89,1330.92 1276.89,47.2441 
  "/>
<polyline clip-path="url(#clip882)" style="stroke:#000000; stroke-linecap:butt; stroke-linejoin:round; stroke-width:2; stroke-opacity:0.1; fill:none" points="
  1365.53,1330.92 1365.53,47.2441 
  "/>
<polyline clip-path="url(#clip882)" style="stroke:#000000; stroke-linecap:butt; stroke-linejoin:round; stroke-width:2; stroke-opacity:0.1; fill:none" points="
  1454.17,1330.92 1454.17,47.2441 
  "/>
<polyline clip-path="url(#clip882)" style="stroke:#000000; stroke-linecap:butt; stroke-linejoin:round; stroke-width:2; stroke-opacity:0.1; fill:none" points="
  1542.82,1330.92 1542.82,47.2441 
  "/>
<polyline clip-path="url(#clip882)" style="stroke:#000000; stroke-linecap:butt; stroke-linejoin:round; stroke-width:2; stroke-opacity:0.1; fill:none" points="
  1631.46,1330.92 1631.46,47.2441 
  "/>
<polyline clip-path="url(#clip882)" style="stroke:#000000; stroke-linecap:butt; stroke-linejoin:round; stroke-width:2; stroke-opacity:0.1; fill:none" points="
  1720.11,1330.92 1720.11,47.2441 
  "/>
<polyline clip-path="url(#clip882)" style="stroke:#000000; stroke-linecap:butt; stroke-linejoin:round; stroke-width:2; stroke-opacity:0.1; fill:none" points="
  1808.75,1330.92 1808.75,47.2441 
  "/>
<polyline clip-path="url(#clip882)" style="stroke:#000000; stroke-linecap:butt; stroke-linejoin:round; stroke-width:2; stroke-opacity:0.1; fill:none" points="
  1897.39,1330.92 1897.39,47.2441 
  "/>
<polyline clip-path="url(#clip882)" style="stroke:#000000; stroke-linecap:butt; stroke-linejoin:round; stroke-width:2; stroke-opacity:0.1; fill:none" points="
  1986.04,1330.92 1986.04,47.2441 
  "/>
<polyline clip-path="url(#clip882)" style="stroke:#000000; stroke-linecap:butt; stroke-linejoin:round; stroke-width:2; stroke-opacity:0.1; fill:none" points="
  2074.68,1330.92 2074.68,47.2441 
  "/>
<polyline clip-path="url(#clip882)" style="stroke:#000000; stroke-linecap:butt; stroke-linejoin:round; stroke-width:2; stroke-opacity:0.1; fill:none" points="
  2163.32,1330.92 2163.32,47.2441 
  "/>
<polyline clip-path="url(#clip882)" style="stroke:#000000; stroke-linecap:butt; stroke-linejoin:round; stroke-width:2; stroke-opacity:0.1; fill:none" points="
  2251.97,1330.92 2251.97,47.2441 
  "/>
<polyline clip-path="url(#clip880)" style="stroke:#000000; stroke-linecap:butt; stroke-linejoin:round; stroke-width:4; stroke-opacity:1; fill:none" points="
  201.019,1330.92 2352.76,1330.92 
  "/>
<polyline clip-path="url(#clip880)" style="stroke:#000000; stroke-linecap:butt; stroke-linejoin:round; stroke-width:4; stroke-opacity:1; fill:none" points="
  301.807,1330.92 301.807,1315.52 
  "/>
<polyline clip-path="url(#clip880)" style="stroke:#000000; stroke-linecap:butt; stroke-linejoin:round; stroke-width:4; stroke-opacity:1; fill:none" points="
  390.451,1330.92 390.451,1315.52 
  "/>
<polyline clip-path="url(#clip880)" style="stroke:#000000; stroke-linecap:butt; stroke-linejoin:round; stroke-width:4; stroke-opacity:1; fill:none" points="
  479.095,1330.92 479.095,1315.52 
  "/>
<polyline clip-path="url(#clip880)" style="stroke:#000000; stroke-linecap:butt; stroke-linejoin:round; stroke-width:4; stroke-opacity:1; fill:none" points="
  567.738,1330.92 567.738,1315.52 
  "/>
<polyline clip-path="url(#clip880)" style="stroke:#000000; stroke-linecap:butt; stroke-linejoin:round; stroke-width:4; stroke-opacity:1; fill:none" points="
  656.382,1330.92 656.382,1315.52 
  "/>
<polyline clip-path="url(#clip880)" style="stroke:#000000; stroke-linecap:butt; stroke-linejoin:round; stroke-width:4; stroke-opacity:1; fill:none" points="
  745.026,1330.92 745.026,1315.52 
  "/>
<polyline clip-path="url(#clip880)" style="stroke:#000000; stroke-linecap:butt; stroke-linejoin:round; stroke-width:4; stroke-opacity:1; fill:none" points="
  833.669,1330.92 833.669,1315.52 
  "/>
<polyline clip-path="url(#clip880)" style="stroke:#000000; stroke-linecap:butt; stroke-linejoin:round; stroke-width:4; stroke-opacity:1; fill:none" points="
  922.313,1330.92 922.313,1315.52 
  "/>
<polyline clip-path="url(#clip880)" style="stroke:#000000; stroke-linecap:butt; stroke-linejoin:round; stroke-width:4; stroke-opacity:1; fill:none" points="
  1010.96,1330.92 1010.96,1315.52 
  "/>
<polyline clip-path="url(#clip880)" style="stroke:#000000; stroke-linecap:butt; stroke-linejoin:round; stroke-width:4; stroke-opacity:1; fill:none" points="
  1099.6,1330.92 1099.6,1315.52 
  "/>
<polyline clip-path="url(#clip880)" style="stroke:#000000; stroke-linecap:butt; stroke-linejoin:round; stroke-width:4; stroke-opacity:1; fill:none" points="
  1188.24,1330.92 1188.24,1315.52 
  "/>
<polyline clip-path="url(#clip880)" style="stroke:#000000; stroke-linecap:butt; stroke-linejoin:round; stroke-width:4; stroke-opacity:1; fill:none" points="
  1276.89,1330.92 1276.89,1315.52 
  "/>
<polyline clip-path="url(#clip880)" style="stroke:#000000; stroke-linecap:butt; stroke-linejoin:round; stroke-width:4; stroke-opacity:1; fill:none" points="
  1365.53,1330.92 1365.53,1315.52 
  "/>
<polyline clip-path="url(#clip880)" style="stroke:#000000; stroke-linecap:butt; stroke-linejoin:round; stroke-width:4; stroke-opacity:1; fill:none" points="
  1454.17,1330.92 1454.17,1315.52 
  "/>
<polyline clip-path="url(#clip880)" style="stroke:#000000; stroke-linecap:butt; stroke-linejoin:round; stroke-width:4; stroke-opacity:1; fill:none" points="
  1542.82,1330.92 1542.82,1315.52 
  "/>
<polyline clip-path="url(#clip880)" style="stroke:#000000; stroke-linecap:butt; stroke-linejoin:round; stroke-width:4; stroke-opacity:1; fill:none" points="
  1631.46,1330.92 1631.46,1315.52 
  "/>
<polyline clip-path="url(#clip880)" style="stroke:#000000; stroke-linecap:butt; stroke-linejoin:round; stroke-width:4; stroke-opacity:1; fill:none" points="
  1720.11,1330.92 1720.11,1315.52 
  "/>
<polyline clip-path="url(#clip880)" style="stroke:#000000; stroke-linecap:butt; stroke-linejoin:round; stroke-width:4; stroke-opacity:1; fill:none" points="
  1808.75,1330.92 1808.75,1315.52 
  "/>
<polyline clip-path="url(#clip880)" style="stroke:#000000; stroke-linecap:butt; stroke-linejoin:round; stroke-width:4; stroke-opacity:1; fill:none" points="
  1897.39,1330.92 1897.39,1315.52 
  "/>
<polyline clip-path="url(#clip880)" style="stroke:#000000; stroke-linecap:butt; stroke-linejoin:round; stroke-width:4; stroke-opacity:1; fill:none" points="
  1986.04,1330.92 1986.04,1315.52 
  "/>
<polyline clip-path="url(#clip880)" style="stroke:#000000; stroke-linecap:butt; stroke-linejoin:round; stroke-width:4; stroke-opacity:1; fill:none" points="
  2074.68,1330.92 2074.68,1315.52 
  "/>
<polyline clip-path="url(#clip880)" style="stroke:#000000; stroke-linecap:butt; stroke-linejoin:round; stroke-width:4; stroke-opacity:1; fill:none" points="
  2163.32,1330.92 2163.32,1315.52 
  "/>
<polyline clip-path="url(#clip880)" style="stroke:#000000; stroke-linecap:butt; stroke-linejoin:round; stroke-width:4; stroke-opacity:1; fill:none" points="
  2251.97,1330.92 2251.97,1315.52 
  "/>
<path clip-path="url(#clip880)" d="M202.441 1597.31 L210.6 1583.17 L214.008 1585.14 L203.036 1604.15 L199.628 1602.18 Q198.574 1598.5 196.856 1592.21 Q195.13 1585.9 194.557 1584.2 Q193.495 1581 192.431 1579.37 Q191.359 1577.7 189.896 1576.86 Q187.51 1575.48 185.034 1576.3 Q182.57 1577.09 181.019 1579.78 Q179.92 1581.68 179.354 1584.19 Q178.801 1586.68 178.755 1589.86 L174.665 1587.5 Q175.095 1584.49 175.821 1582.07 Q176.547 1579.66 177.565 1577.89 Q180.25 1573.24 184.173 1571.82 Q188.096 1570.39 191.985 1572.64 Q193.829 1573.7 195.088 1575.37 Q196.338 1577 197.53 1580.12 Q197.822 1580.95 199.058 1585.25 Q200.273 1589.53 202.441 1597.31 Z" fill="#000000" fill-rule="evenodd" fill-opacity="1" /><path clip-path="url(#clip880)" d="M196.652 1552.24 Q194.847 1555.37 197.019 1558.73 Q199.184 1562.07 205.358 1565.63 Q211.513 1569.19 215.503 1569.4 Q219.484 1569.59 221.29 1566.46 Q223.107 1563.32 220.942 1559.98 Q218.769 1556.62 212.615 1553.06 Q206.441 1549.5 202.459 1549.31 Q198.469 1549.09 196.652 1552.24 M193.445 1550.39 Q196.35 1545.36 201.867 1545.01 Q207.375 1544.64 214.953 1549.01 Q222.511 1553.38 224.961 1558.35 Q227.402 1563.28 224.497 1568.32 Q221.592 1573.35 216.083 1573.72 Q210.566 1574.07 203.009 1569.7 Q195.431 1565.33 192.989 1560.39 Q190.54 1555.42 193.445 1550.39 Z" fill="#000000" fill-rule="evenodd" fill-opacity="1" /><path clip-path="url(#clip880)" d="M232.603 1545.06 L240.762 1530.93 L244.17 1532.9 L233.198 1551.9 L229.79 1549.94 Q228.736 1546.25 227.018 1539.97 Q225.292 1533.65 224.719 1531.96 Q223.657 1528.75 222.593 1527.12 Q221.521 1525.46 220.058 1524.62 Q217.672 1523.24 215.196 1524.06 Q212.732 1524.85 211.181 1527.54 Q210.082 1529.44 209.516 1531.95 Q208.963 1534.44 208.917 1537.62 L204.827 1535.26 Q205.257 1532.24 205.983 1529.83 Q206.708 1527.41 207.727 1525.65 Q210.412 1521 214.335 1519.58 Q218.257 1518.15 222.146 1520.4 Q223.991 1521.46 225.25 1523.12 Q226.5 1524.76 227.692 1527.88 Q227.984 1528.71 229.219 1533.01 Q230.435 1537.29 232.603 1545.06 Z" fill="#000000" fill-rule="evenodd" fill-opacity="1" /><path clip-path="url(#clip880)" d="M246.075 1521.73 L249.894 1515.11 L227.061 1501.93 L224.349 1509.96 L220.661 1507.83 L223.349 1499.84 L225.687 1495.79 L252.209 1511.11 L256.028 1504.49 L259.436 1506.46 L249.483 1523.7 L246.075 1521.73 Z" fill="#000000" fill-rule="evenodd" fill-opacity="1" /><path clip-path="url(#clip880)" d="M249.891 1493.22 L256.13 1482.42 L259.417 1484.31 L253.179 1495.12 L249.891 1493.22 Z" fill="#000000" fill-rule="evenodd" fill-opacity="1" /><path clip-path="url(#clip880)" d="M250.448 1459.06 Q248.643 1462.19 250.815 1465.56 Q252.98 1468.89 259.154 1472.46 Q265.309 1476.01 269.299 1476.23 Q273.28 1476.41 275.086 1473.29 Q276.903 1470.14 274.738 1466.81 Q272.565 1463.44 266.411 1459.89 Q260.237 1456.32 256.255 1456.13 Q252.265 1455.92 250.448 1459.06 M247.241 1457.21 Q250.146 1452.18 255.663 1451.84 Q261.171 1451.46 268.749 1455.84 Q276.307 1460.2 278.757 1465.17 Q281.198 1470.11 278.293 1475.14 Q275.388 1480.17 269.879 1480.55 Q264.362 1480.89 256.805 1476.53 Q249.227 1472.15 246.785 1467.21 Q244.336 1462.24 247.241 1457.21 Z" fill="#000000" fill-rule="evenodd" fill-opacity="1" /><path clip-path="url(#clip880)" d="M257.886 1440.02 L267.064 1424.13 L270.472 1426.09 L263.435 1438.28 L270.772 1442.52 Q270.981 1441.46 271.35 1440.5 Q271.699 1439.52 272.208 1438.64 Q275.101 1433.63 279.538 1432.29 Q283.974 1430.95 288.665 1433.66 Q293.496 1436.45 294.446 1441 Q295.376 1445.55 292.217 1451.02 Q291.129 1452.91 289.674 1454.69 Q288.23 1456.45 286.385 1458.16 L282.316 1455.81 Q284.339 1454.57 285.932 1452.93 Q287.524 1451.28 288.762 1449.14 Q290.765 1445.67 290.109 1442.59 Q289.454 1439.51 286.327 1437.71 Q283.199 1435.9 280.206 1436.87 Q277.213 1437.84 275.211 1441.31 Q274.273 1442.94 273.697 1444.77 Q273.132 1446.58 272.921 1448.7 L257.886 1440.02 Z" fill="#000000" fill-rule="evenodd" fill-opacity="1" /><path clip-path="url(#clip880)" d="M288.606 1426.17 L294.845 1415.36 L298.132 1417.26 L291.894 1428.06 L288.606 1426.17 Z" fill="#000000" fill-rule="evenodd" fill-opacity="1" /><path clip-path="url(#clip880)" d="M289.163 1392.01 Q287.358 1395.13 289.53 1398.5 Q291.695 1401.83 297.869 1405.4 Q304.024 1408.95 308.014 1409.17 Q311.995 1409.36 313.801 1406.23 Q315.618 1403.08 313.453 1399.75 Q311.281 1396.38 305.126 1392.83 Q298.952 1389.26 294.97 1389.08 Q290.98 1388.86 289.163 1392.01 M285.956 1390.15 Q288.861 1385.12 294.378 1384.78 Q299.886 1384.41 307.464 1388.78 Q315.022 1393.14 317.472 1398.11 Q319.913 1403.05 317.008 1408.08 Q314.103 1413.11 308.594 1413.49 Q303.077 1413.83 295.52 1409.47 Q287.942 1405.09 285.501 1400.16 Q283.051 1395.19 285.956 1390.15 Z" fill="#000000" fill-rule="evenodd" fill-opacity="1" /><path clip-path="url(#clip880)" d="M306.53 1363.92 L316.604 1383.37 L322.507 1373.14 L306.53 1363.92 M302.388 1362.94 L305.328 1357.85 L324.833 1369.11 L327.299 1364.84 L330.666 1366.79 L328.201 1371.06 L335.258 1375.13 L332.931 1379.16 L325.875 1375.09 L318.074 1388.6 L314.165 1386.34 L302.388 1362.94 Z" fill="#000000" fill-rule="evenodd" fill-opacity="1" /><path clip-path="url(#clip880)" d="M469.066 1596.1 L477.226 1581.97 L480.634 1583.94 L469.662 1602.94 L466.254 1600.97 Q465.199 1597.29 463.481 1591.01 Q461.755 1584.69 461.183 1583 Q460.12 1579.79 459.057 1578.16 Q457.985 1576.5 456.521 1575.66 Q454.136 1574.28 451.66 1575.1 Q449.196 1575.89 447.645 1578.58 Q446.545 1580.48 445.98 1582.99 Q445.426 1585.48 445.38 1588.66 L441.291 1586.3 Q441.721 1583.28 442.446 1580.87 Q443.172 1578.45 444.191 1576.69 Q446.876 1572.04 450.798 1570.62 Q454.721 1569.19 458.61 1571.44 Q460.454 1572.5 461.713 1574.16 Q462.963 1575.79 464.155 1578.91 Q464.447 1579.75 465.683 1584.05 Q466.899 1588.33 469.066 1596.1 Z" fill="#000000" fill-rule="evenodd" fill-opacity="1" /><path clip-path="url(#clip880)" d="M463.278 1551.04 Q461.472 1554.16 463.645 1557.53 Q465.809 1560.87 471.984 1564.43 Q478.138 1567.98 482.128 1568.2 Q486.109 1568.39 487.915 1565.26 Q489.732 1562.11 487.568 1558.78 Q485.395 1555.41 479.241 1551.86 Q473.066 1548.3 469.085 1548.11 Q465.095 1547.89 463.278 1551.04 M460.07 1549.19 Q462.975 1544.15 468.492 1543.81 Q474.001 1543.44 481.579 1547.81 Q489.136 1552.17 491.586 1557.14 Q494.028 1562.08 491.123 1567.11 Q488.217 1572.15 482.709 1572.52 Q477.192 1572.86 469.634 1568.5 Q462.056 1564.12 459.615 1559.19 Q457.165 1554.22 460.07 1549.19 Z" fill="#000000" fill-rule="evenodd" fill-opacity="1" /><path clip-path="url(#clip880)" d="M499.228 1543.86 L507.388 1529.73 L510.796 1531.7 L499.824 1550.7 L496.416 1548.73 Q495.361 1545.05 493.643 1538.77 Q491.917 1532.45 491.345 1530.76 Q490.282 1527.55 489.219 1525.92 Q488.146 1524.26 486.683 1523.41 Q484.297 1522.04 481.822 1522.85 Q479.358 1523.65 477.807 1526.34 Q476.707 1528.24 476.142 1530.75 Q475.588 1533.23 475.542 1536.41 L471.453 1534.05 Q471.883 1531.04 472.608 1528.63 Q473.334 1526.21 474.352 1524.45 Q477.038 1519.8 480.96 1518.37 Q484.883 1516.95 488.772 1519.19 Q490.616 1520.26 491.875 1521.92 Q493.125 1523.55 494.317 1526.67 Q494.609 1527.51 495.845 1531.8 Q497.06 1536.09 499.228 1543.86 Z" fill="#000000" fill-rule="evenodd" fill-opacity="1" /><path clip-path="url(#clip880)" d="M512.7 1520.53 L516.52 1513.91 L493.686 1500.73 L490.975 1508.76 L487.286 1506.63 L489.975 1498.64 L492.313 1494.59 L518.834 1509.9 L522.654 1503.29 L526.062 1505.25 L516.108 1522.49 L512.7 1520.53 Z" fill="#000000" fill-rule="evenodd" fill-opacity="1" /><path clip-path="url(#clip880)" d="M516.517 1492.02 L522.755 1481.21 L526.043 1483.11 L519.804 1493.92 L516.517 1492.02 Z" fill="#000000" fill-rule="evenodd" fill-opacity="1" /><path clip-path="url(#clip880)" d="M517.074 1457.86 Q515.268 1460.99 517.441 1464.35 Q519.605 1467.69 525.78 1471.25 Q531.934 1474.81 535.924 1475.02 Q539.906 1475.21 541.711 1472.08 Q543.528 1468.94 541.364 1465.6 Q539.191 1462.24 533.037 1458.68 Q526.862 1455.12 522.881 1454.93 Q518.891 1454.71 517.074 1457.86 M513.866 1456.01 Q516.771 1450.98 522.288 1450.63 Q527.797 1450.26 535.375 1454.63 Q542.932 1459 545.382 1463.97 Q547.824 1468.9 544.919 1473.94 Q542.013 1478.97 536.505 1479.34 Q530.988 1479.69 523.43 1475.32 Q515.852 1470.95 513.411 1466.01 Q510.961 1461.04 513.866 1456.01 Z" fill="#000000" fill-rule="evenodd" fill-opacity="1" /><path clip-path="url(#clip880)" d="M524.511 1438.82 L533.69 1422.92 L537.098 1424.89 L530.061 1437.08 L537.398 1441.31 Q537.606 1440.26 537.975 1439.3 Q538.324 1438.32 538.833 1437.44 Q541.727 1432.43 546.163 1431.09 Q550.599 1429.75 555.29 1432.45 Q560.121 1435.24 561.072 1439.8 Q562.002 1444.35 558.842 1449.82 Q557.754 1451.7 556.299 1453.48 Q554.856 1455.24 553.01 1456.96 L548.941 1454.61 Q550.965 1453.37 552.557 1451.72 Q554.149 1450.08 555.388 1447.93 Q557.39 1444.46 556.735 1441.39 Q556.08 1438.31 552.952 1436.5 Q549.825 1434.7 546.832 1435.67 Q543.839 1436.64 541.836 1440.11 Q540.899 1441.73 540.322 1443.56 Q539.757 1445.38 539.547 1447.5 L524.511 1438.82 Z" fill="#000000" fill-rule="evenodd" fill-opacity="1" /><path clip-path="url(#clip880)" d="M555.232 1424.96 L561.47 1414.16 L564.758 1416.06 L558.519 1426.86 L555.232 1424.96 Z" fill="#000000" fill-rule="evenodd" fill-opacity="1" /><path clip-path="url(#clip880)" d="M555.789 1390.8 Q553.983 1393.93 556.156 1397.3 Q558.32 1400.63 564.495 1404.2 Q570.649 1407.75 574.639 1407.97 Q578.621 1408.16 580.426 1405.03 Q582.243 1401.88 580.079 1398.55 Q577.906 1395.18 571.752 1391.63 Q565.577 1388.06 561.596 1387.87 Q557.606 1387.66 555.789 1390.8 M552.581 1388.95 Q555.486 1383.92 561.003 1383.58 Q566.512 1383.2 574.09 1387.58 Q581.647 1391.94 584.097 1396.91 Q586.539 1401.85 583.634 1406.88 Q580.729 1411.91 575.22 1412.29 Q569.703 1412.63 562.145 1408.27 Q554.568 1403.89 552.126 1398.95 Q549.676 1393.98 552.581 1388.95 Z" fill="#000000" fill-rule="evenodd" fill-opacity="1" /><path clip-path="url(#clip880)" d="M562.613 1372.83 L573.724 1353.58 L575.448 1354.58 L597.381 1381.73 L594.939 1385.96 L574.32 1360.42 L566.021 1374.79 L562.613 1372.83 Z" fill="#000000" fill-rule="evenodd" fill-opacity="1" /><path clip-path="url(#clip880)" d="M735.344 1595.5 L743.504 1581.37 L746.912 1583.34 L735.94 1602.34 L732.532 1600.37 Q731.477 1596.69 729.76 1590.41 Q728.034 1584.09 727.461 1582.4 Q726.399 1579.19 725.335 1577.56 Q724.263 1575.9 722.799 1575.06 Q720.414 1573.68 717.938 1574.49 Q715.474 1575.29 713.923 1577.98 Q712.823 1579.88 712.258 1582.39 Q711.704 1584.87 711.659 1588.06 L707.569 1585.69 Q707.999 1582.68 708.725 1580.27 Q709.45 1577.85 710.469 1576.09 Q713.154 1571.44 717.077 1570.01 Q720.999 1568.59 724.888 1570.84 Q726.733 1571.9 727.991 1573.56 Q729.242 1575.19 730.434 1578.31 Q730.726 1579.15 731.961 1583.45 Q733.177 1587.73 735.344 1595.5 Z" fill="#000000" fill-rule="evenodd" fill-opacity="1" /><path clip-path="url(#clip880)" d="M729.556 1550.44 Q727.75 1553.56 729.923 1556.93 Q732.087 1560.26 738.262 1563.83 Q744.416 1567.38 748.406 1567.6 Q752.388 1567.79 754.193 1564.66 Q756.01 1561.51 753.846 1558.18 Q751.673 1554.81 745.519 1551.26 Q739.344 1547.69 735.363 1547.51 Q731.373 1547.29 729.556 1550.44 M726.348 1548.58 Q729.253 1543.55 734.77 1543.21 Q740.279 1542.83 747.857 1547.21 Q755.414 1551.57 757.864 1556.54 Q760.306 1561.48 757.401 1566.51 Q754.496 1571.54 748.987 1571.92 Q743.47 1572.26 735.912 1567.9 Q728.335 1563.52 725.893 1558.59 Q723.443 1553.62 726.348 1548.58 Z" fill="#000000" fill-rule="evenodd" fill-opacity="1" /><path clip-path="url(#clip880)" d="M765.506 1543.26 L773.666 1529.13 L777.074 1531.09 L766.102 1550.1 L762.694 1548.13 Q761.639 1544.45 759.922 1538.16 Q758.195 1531.85 757.623 1530.16 Q756.561 1526.95 755.497 1525.32 Q754.425 1523.66 752.961 1522.81 Q750.576 1521.44 748.1 1522.25 Q745.636 1523.05 744.085 1525.73 Q742.985 1527.64 742.42 1530.15 Q741.866 1532.63 741.821 1535.81 L737.731 1533.45 Q738.161 1530.44 738.886 1528.02 Q739.612 1525.61 740.631 1523.85 Q743.316 1519.2 747.238 1517.77 Q751.161 1516.35 755.05 1518.59 Q756.894 1519.66 758.153 1521.32 Q759.404 1522.95 760.596 1526.07 Q760.888 1526.91 762.123 1531.2 Q763.339 1535.49 765.506 1543.26 Z" fill="#000000" fill-rule="evenodd" fill-opacity="1" /><path clip-path="url(#clip880)" d="M778.978 1519.93 L782.798 1513.31 L759.965 1500.13 L757.253 1508.16 L753.564 1506.03 L756.253 1498.04 L758.591 1493.99 L785.113 1509.3 L788.932 1502.69 L792.34 1504.65 L782.386 1521.89 L778.978 1519.93 Z" fill="#000000" fill-rule="evenodd" fill-opacity="1" /><path clip-path="url(#clip880)" d="M782.795 1491.42 L789.033 1480.61 L792.321 1482.51 L786.083 1493.32 L782.795 1491.42 Z" fill="#000000" fill-rule="evenodd" fill-opacity="1" /><path clip-path="url(#clip880)" d="M783.352 1457.26 Q781.546 1460.39 783.719 1463.75 Q785.884 1467.09 792.058 1470.65 Q798.212 1474.2 802.202 1474.42 Q806.184 1474.61 807.989 1471.48 Q809.806 1468.34 807.642 1465 Q805.469 1461.64 799.315 1458.08 Q793.14 1454.52 789.159 1454.33 Q785.169 1454.11 783.352 1457.26 M780.144 1455.41 Q783.049 1450.38 788.566 1450.03 Q794.075 1449.66 801.653 1454.03 Q809.21 1458.4 811.66 1463.37 Q814.102 1468.3 811.197 1473.33 Q808.292 1478.37 802.783 1478.74 Q797.266 1479.08 789.708 1474.72 Q782.131 1470.35 779.689 1465.41 Q777.239 1460.44 780.144 1455.41 Z" fill="#000000" fill-rule="evenodd" fill-opacity="1" /><path clip-path="url(#clip880)" d="M790.79 1438.22 L799.968 1422.32 L803.376 1424.29 L796.339 1436.48 L803.676 1440.71 Q803.885 1439.66 804.253 1438.69 Q804.602 1437.72 805.112 1436.84 Q808.005 1431.83 812.441 1430.49 Q816.878 1429.14 821.568 1431.85 Q826.4 1434.64 827.35 1439.2 Q828.28 1443.75 825.12 1449.22 Q824.032 1451.1 822.577 1452.88 Q821.134 1454.64 819.289 1456.36 L815.219 1454.01 Q817.243 1452.77 818.835 1451.12 Q820.428 1449.48 821.666 1447.33 Q823.668 1443.86 823.013 1440.79 Q822.358 1437.71 819.231 1435.9 Q816.103 1434.1 813.11 1435.07 Q810.117 1436.04 808.114 1439.51 Q807.177 1441.13 806.6 1442.96 Q806.035 1444.78 805.825 1446.9 L790.79 1438.22 Z" fill="#000000" fill-rule="evenodd" fill-opacity="1" /><path clip-path="url(#clip880)" d="M821.51 1424.36 L827.748 1413.56 L831.036 1415.45 L824.798 1426.26 L821.51 1424.36 Z" fill="#000000" fill-rule="evenodd" fill-opacity="1" /><path clip-path="url(#clip880)" d="M841.328 1411.93 L845.147 1405.32 L822.314 1392.14 L819.602 1400.17 L815.913 1398.04 L818.602 1390.05 L820.94 1386 L847.462 1401.31 L851.281 1394.69 L854.689 1396.66 L844.736 1413.9 L841.328 1411.93 Z" fill="#000000" fill-rule="evenodd" fill-opacity="1" /><path clip-path="url(#clip880)" d="M858.017 1383.03 L866.177 1368.89 L869.585 1370.86 L858.613 1389.87 L855.205 1387.9 Q854.15 1384.22 852.433 1377.93 Q850.706 1371.62 850.134 1369.92 Q849.072 1366.72 848.008 1365.09 Q846.936 1363.42 845.472 1362.58 Q843.087 1361.2 840.611 1362.02 Q838.147 1362.81 836.596 1365.5 Q835.496 1367.4 834.931 1369.91 Q834.377 1372.4 834.332 1375.58 L830.242 1373.22 Q830.672 1370.21 831.398 1367.79 Q832.123 1365.38 833.142 1363.61 Q835.827 1358.96 839.75 1357.54 Q843.672 1356.11 847.561 1358.36 Q849.406 1359.42 850.664 1361.09 Q851.915 1362.72 853.107 1365.84 Q853.399 1366.67 854.634 1370.97 Q855.85 1375.25 858.017 1383.03 Z" fill="#000000" fill-rule="evenodd" fill-opacity="1" /><path clip-path="url(#clip880)" d="M1000.93 1596.1 L1009.09 1581.97 L1012.5 1583.94 L1001.52 1602.94 L998.116 1600.97 Q997.061 1597.29 995.344 1591.01 Q993.617 1584.69 993.045 1583 Q991.982 1579.79 990.919 1578.16 Q989.847 1576.5 988.383 1575.66 Q985.998 1574.28 983.522 1575.1 Q981.058 1575.89 979.507 1578.58 Q978.407 1580.48 977.842 1582.99 Q977.288 1585.48 977.243 1588.66 L973.153 1586.3 Q973.583 1583.28 974.308 1580.87 Q975.034 1578.45 976.053 1576.69 Q978.738 1572.04 982.66 1570.62 Q986.583 1569.19 990.472 1571.44 Q992.316 1572.5 993.575 1574.16 Q994.826 1575.79 996.018 1578.91 Q996.31 1579.75 997.545 1584.05 Q998.761 1588.33 1000.93 1596.1 Z" fill="#000000" fill-rule="evenodd" fill-opacity="1" /><path clip-path="url(#clip880)" d="M995.14 1551.04 Q993.334 1554.16 995.507 1557.53 Q997.671 1560.87 1003.85 1564.43 Q1010 1567.98 1013.99 1568.2 Q1017.97 1568.39 1019.78 1565.26 Q1021.59 1562.11 1019.43 1558.78 Q1017.26 1555.41 1011.1 1551.86 Q1004.93 1548.3 1000.95 1548.11 Q996.957 1547.89 995.14 1551.04 M991.932 1549.19 Q994.837 1544.15 1000.35 1543.81 Q1005.86 1543.44 1013.44 1547.81 Q1021 1552.17 1023.45 1557.14 Q1025.89 1562.08 1022.98 1567.11 Q1020.08 1572.15 1014.57 1572.52 Q1009.05 1572.86 1001.5 1568.5 Q993.919 1564.12 991.477 1559.19 Q989.027 1554.22 991.932 1549.19 Z" fill="#000000" fill-rule="evenodd" fill-opacity="1" /><path clip-path="url(#clip880)" d="M1031.09 1543.86 L1039.25 1529.73 L1042.66 1531.7 L1031.69 1550.7 L1028.28 1548.73 Q1027.22 1545.05 1025.51 1538.77 Q1023.78 1532.45 1023.21 1530.76 Q1022.14 1527.55 1021.08 1525.92 Q1020.01 1524.26 1018.55 1523.41 Q1016.16 1522.04 1013.68 1522.85 Q1011.22 1523.65 1009.67 1526.34 Q1008.57 1528.24 1008 1530.75 Q1007.45 1533.23 1007.4 1536.41 L1003.31 1534.05 Q1003.74 1531.04 1004.47 1528.63 Q1005.2 1526.21 1006.21 1524.45 Q1008.9 1519.8 1012.82 1518.37 Q1016.74 1516.95 1020.63 1519.19 Q1022.48 1520.26 1023.74 1521.92 Q1024.99 1523.55 1026.18 1526.67 Q1026.47 1527.51 1027.71 1531.8 Q1028.92 1536.09 1031.09 1543.86 Z" fill="#000000" fill-rule="evenodd" fill-opacity="1" /><path clip-path="url(#clip880)" d="M1044.56 1520.53 L1048.38 1513.91 L1025.55 1500.73 L1022.84 1508.76 L1019.15 1506.63 L1021.84 1498.64 L1024.17 1494.59 L1050.7 1509.9 L1054.52 1503.29 L1057.92 1505.25 L1047.97 1522.49 L1044.56 1520.53 Z" fill="#000000" fill-rule="evenodd" fill-opacity="1" /><path clip-path="url(#clip880)" d="M1048.38 1492.02 L1054.62 1481.21 L1057.9 1483.11 L1051.67 1493.92 L1048.38 1492.02 Z" fill="#000000" fill-rule="evenodd" fill-opacity="1" /><path clip-path="url(#clip880)" d="M1048.94 1457.86 Q1047.13 1460.99 1049.3 1464.35 Q1051.47 1467.69 1057.64 1471.25 Q1063.8 1474.81 1067.79 1475.02 Q1071.77 1475.21 1073.57 1472.08 Q1075.39 1468.94 1073.23 1465.6 Q1071.05 1462.24 1064.9 1458.68 Q1058.72 1455.12 1054.74 1454.93 Q1050.75 1454.71 1048.94 1457.86 M1045.73 1456.01 Q1048.63 1450.98 1054.15 1450.63 Q1059.66 1450.26 1067.24 1454.63 Q1074.79 1459 1077.24 1463.97 Q1079.69 1468.9 1076.78 1473.94 Q1073.88 1478.97 1068.37 1479.34 Q1062.85 1479.69 1055.29 1475.32 Q1047.71 1470.95 1045.27 1466.01 Q1042.82 1461.04 1045.73 1456.01 Z" fill="#000000" fill-rule="evenodd" fill-opacity="1" /><path clip-path="url(#clip880)" d="M1056.37 1438.82 L1065.55 1422.92 L1068.96 1424.89 L1061.92 1437.08 L1069.26 1441.31 Q1069.47 1440.26 1069.84 1439.3 Q1070.19 1438.32 1070.7 1437.44 Q1073.59 1432.43 1078.03 1431.09 Q1082.46 1429.75 1087.15 1432.45 Q1091.98 1435.24 1092.93 1439.8 Q1093.86 1444.35 1090.7 1449.82 Q1089.62 1451.7 1088.16 1453.48 Q1086.72 1455.24 1084.87 1456.96 L1080.8 1454.61 Q1082.83 1453.37 1084.42 1451.72 Q1086.01 1450.08 1087.25 1447.93 Q1089.25 1444.46 1088.6 1441.39 Q1087.94 1438.31 1084.81 1436.5 Q1081.69 1434.7 1078.69 1435.67 Q1075.7 1436.64 1073.7 1440.11 Q1072.76 1441.73 1072.18 1443.56 Q1071.62 1445.38 1071.41 1447.5 L1056.37 1438.82 Z" fill="#000000" fill-rule="evenodd" fill-opacity="1" /><path clip-path="url(#clip880)" d="M1087.09 1424.96 L1093.33 1414.16 L1096.62 1416.06 L1090.38 1426.86 L1087.09 1424.96 Z" fill="#000000" fill-rule="evenodd" fill-opacity="1" /><path clip-path="url(#clip880)" d="M1106.91 1412.54 L1110.73 1405.92 L1087.9 1392.74 L1085.19 1400.77 L1081.5 1398.64 L1084.19 1390.65 L1086.52 1386.6 L1113.05 1401.91 L1116.87 1395.3 L1120.27 1397.26 L1110.32 1414.5 L1106.91 1412.54 Z" fill="#000000" fill-rule="evenodd" fill-opacity="1" /><path clip-path="url(#clip880)" d="M1094.48 1372.83 L1105.59 1353.58 L1107.31 1354.58 L1129.24 1381.73 L1126.8 1385.96 L1106.18 1360.42 L1097.88 1374.79 L1094.48 1372.83 Z" fill="#000000" fill-rule="evenodd" fill-opacity="1" /><path clip-path="url(#clip880)" d="M1266.41 1596.89 L1274.57 1582.75 L1277.98 1584.72 L1267 1603.72 L1263.6 1601.76 Q1262.54 1598.07 1260.82 1591.79 Q1259.1 1585.47 1258.52 1583.78 Q1257.46 1580.57 1256.4 1578.94 Q1255.33 1577.28 1253.86 1576.44 Q1251.48 1575.06 1249 1575.88 Q1246.54 1576.67 1244.99 1579.36 Q1243.89 1581.26 1243.32 1583.77 Q1242.77 1586.26 1242.72 1589.44 L1238.63 1587.08 Q1239.06 1584.06 1239.79 1581.65 Q1240.51 1579.24 1241.53 1577.47 Q1244.22 1572.82 1248.14 1571.4 Q1252.06 1569.97 1255.95 1572.22 Q1257.8 1573.28 1259.05 1574.95 Q1260.31 1576.58 1261.5 1579.7 Q1261.79 1580.53 1263.02 1584.83 Q1264.24 1589.11 1266.41 1596.89 Z" fill="#000000" fill-rule="evenodd" fill-opacity="1" /><path clip-path="url(#clip880)" d="M1260.62 1551.82 Q1258.81 1554.95 1260.99 1558.31 Q1263.15 1561.65 1269.33 1565.21 Q1275.48 1568.77 1279.47 1568.98 Q1283.45 1569.17 1285.26 1566.04 Q1287.07 1562.9 1284.91 1559.56 Q1282.74 1556.2 1276.58 1552.64 Q1270.41 1549.08 1266.43 1548.89 Q1262.44 1548.67 1260.62 1551.82 M1257.41 1549.97 Q1260.32 1544.94 1265.83 1544.59 Q1271.34 1544.22 1278.92 1548.59 Q1286.48 1552.96 1288.93 1557.93 Q1291.37 1562.86 1288.46 1567.9 Q1285.56 1572.93 1280.05 1573.3 Q1274.53 1573.64 1266.98 1569.28 Q1259.4 1564.91 1256.96 1559.97 Q1254.51 1555 1257.41 1549.97 Z" fill="#000000" fill-rule="evenodd" fill-opacity="1" /><path clip-path="url(#clip880)" d="M1296.57 1544.64 L1304.73 1530.51 L1308.14 1532.48 L1297.17 1551.48 L1293.76 1549.51 Q1292.7 1545.83 1290.99 1539.55 Q1289.26 1533.23 1288.69 1531.54 Q1287.62 1528.33 1286.56 1526.7 Q1285.49 1525.04 1284.02 1524.2 Q1281.64 1522.82 1279.16 1523.64 Q1276.7 1524.43 1275.15 1527.12 Q1274.05 1529.02 1273.48 1531.53 Q1272.93 1534.02 1272.88 1537.2 L1268.79 1534.84 Q1269.22 1531.82 1269.95 1529.41 Q1270.68 1526.99 1271.69 1525.23 Q1274.38 1520.58 1278.3 1519.16 Q1282.22 1517.73 1286.11 1519.98 Q1287.96 1521.04 1289.22 1522.7 Q1290.47 1524.33 1291.66 1527.45 Q1291.95 1528.29 1293.19 1532.59 Q1294.4 1536.87 1296.57 1544.64 Z" fill="#000000" fill-rule="evenodd" fill-opacity="1" /><path clip-path="url(#clip880)" d="M1310.04 1521.31 L1313.86 1514.69 L1291.03 1501.51 L1288.32 1509.54 L1284.63 1507.41 L1287.32 1499.42 L1289.65 1495.37 L1316.18 1510.68 L1320 1504.07 L1323.4 1506.04 L1313.45 1523.28 L1310.04 1521.31 Z" fill="#000000" fill-rule="evenodd" fill-opacity="1" /><path clip-path="url(#clip880)" d="M1313.86 1492.8 L1320.1 1482 L1323.38 1483.89 L1317.15 1494.7 L1313.86 1492.8 Z" fill="#000000" fill-rule="evenodd" fill-opacity="1" /><path clip-path="url(#clip880)" d="M1314.42 1458.64 Q1312.61 1461.77 1314.78 1465.14 Q1316.95 1468.47 1323.12 1472.03 Q1329.28 1475.59 1333.27 1475.81 Q1337.25 1475.99 1339.05 1472.87 Q1340.87 1469.72 1338.71 1466.38 Q1336.53 1463.02 1330.38 1459.47 Q1324.2 1455.9 1320.22 1455.71 Q1316.23 1455.49 1314.42 1458.64 M1311.21 1456.79 Q1314.11 1451.76 1319.63 1451.42 Q1325.14 1451.04 1332.72 1455.42 Q1340.27 1459.78 1342.72 1464.75 Q1345.17 1469.69 1342.26 1474.72 Q1339.36 1479.75 1333.85 1480.12 Q1328.33 1480.47 1320.77 1476.1 Q1313.19 1471.73 1310.75 1466.79 Q1308.3 1461.82 1311.21 1456.79 Z" fill="#000000" fill-rule="evenodd" fill-opacity="1" /><path clip-path="url(#clip880)" d="M1321.85 1439.6 L1331.03 1423.7 L1334.44 1425.67 L1327.4 1437.86 L1334.74 1442.1 Q1334.95 1441.04 1335.32 1440.08 Q1335.67 1439.1 1336.18 1438.22 Q1339.07 1433.21 1343.5 1431.87 Q1347.94 1430.53 1352.63 1433.24 Q1357.46 1436.02 1358.41 1440.58 Q1359.34 1445.13 1356.18 1450.6 Q1355.1 1452.49 1353.64 1454.27 Q1352.2 1456.03 1350.35 1457.74 L1346.28 1455.39 Q1348.31 1454.15 1349.9 1452.51 Q1351.49 1450.86 1352.73 1448.71 Q1354.73 1445.25 1354.08 1442.17 Q1353.42 1439.09 1350.29 1437.28 Q1347.17 1435.48 1344.17 1436.45 Q1341.18 1437.42 1339.18 1440.89 Q1338.24 1442.51 1337.66 1444.35 Q1337.1 1446.16 1336.89 1448.28 L1321.85 1439.6 Z" fill="#000000" fill-rule="evenodd" fill-opacity="1" /><path clip-path="url(#clip880)" d="M1352.57 1425.74 L1358.81 1414.94 L1362.1 1416.84 L1355.86 1427.64 L1352.57 1425.74 Z" fill="#000000" fill-rule="evenodd" fill-opacity="1" /><path clip-path="url(#clip880)" d="M1374 1410.53 L1382.16 1396.4 L1385.57 1398.37 L1374.6 1417.37 L1371.19 1415.4 Q1370.13 1411.72 1368.42 1405.44 Q1366.69 1399.12 1366.12 1397.43 Q1365.05 1394.22 1363.99 1392.59 Q1362.92 1390.93 1361.45 1390.08 Q1359.07 1388.71 1356.59 1389.52 Q1354.13 1390.32 1352.58 1393 Q1351.48 1394.91 1350.91 1397.42 Q1350.36 1399.9 1350.31 1403.08 L1346.22 1400.72 Q1346.65 1397.71 1347.38 1395.3 Q1348.11 1392.88 1349.12 1391.12 Q1351.81 1386.47 1355.73 1385.04 Q1359.65 1383.62 1363.54 1385.86 Q1365.39 1386.93 1366.65 1388.59 Q1367.9 1390.22 1369.09 1393.34 Q1369.38 1394.18 1370.62 1398.47 Q1371.83 1402.76 1374 1410.53 Z" fill="#000000" fill-rule="evenodd" fill-opacity="1" /><path clip-path="url(#clip880)" d="M1368.21 1365.46 Q1366.41 1368.59 1368.58 1371.96 Q1370.74 1375.29 1376.92 1378.86 Q1383.07 1382.41 1387.06 1382.63 Q1391.04 1382.82 1392.85 1379.69 Q1394.67 1376.54 1392.5 1373.21 Q1390.33 1369.84 1384.17 1366.29 Q1378 1362.72 1374.02 1362.54 Q1370.03 1362.32 1368.21 1365.46 M1365 1363.61 Q1367.91 1358.58 1373.43 1358.24 Q1378.93 1357.86 1386.51 1362.24 Q1394.07 1366.6 1396.52 1371.57 Q1398.96 1376.51 1396.06 1381.54 Q1393.15 1386.57 1387.64 1386.95 Q1382.13 1387.29 1374.57 1382.93 Q1366.99 1378.55 1364.55 1373.61 Q1362.1 1368.64 1365 1363.61 Z" fill="#000000" fill-rule="evenodd" fill-opacity="1" /><path clip-path="url(#clip880)" d="M1532.84 1596.02 L1541 1581.89 L1544.4 1583.86 L1533.43 1602.86 L1530.02 1600.89 Q1528.97 1597.21 1527.25 1590.93 Q1525.53 1584.61 1524.95 1582.92 Q1523.89 1579.71 1522.83 1578.08 Q1521.75 1576.42 1520.29 1575.58 Q1517.91 1574.2 1515.43 1575.01 Q1512.97 1575.81 1511.42 1578.5 Q1510.32 1580.4 1509.75 1582.91 Q1509.2 1585.4 1509.15 1588.58 L1505.06 1586.22 Q1505.49 1583.2 1506.22 1580.79 Q1506.94 1578.37 1507.96 1576.61 Q1510.65 1571.96 1514.57 1570.53 Q1518.49 1569.11 1522.38 1571.36 Q1524.22 1572.42 1525.48 1574.08 Q1526.73 1575.71 1527.93 1578.83 Q1528.22 1579.67 1529.45 1583.97 Q1530.67 1588.25 1532.84 1596.02 Z" fill="#000000" fill-rule="evenodd" fill-opacity="1" /><path clip-path="url(#clip880)" d="M1527.05 1550.96 Q1525.24 1554.08 1527.42 1557.45 Q1529.58 1560.79 1535.75 1564.35 Q1541.91 1567.9 1545.9 1568.12 Q1549.88 1568.31 1551.69 1565.18 Q1553.5 1562.03 1551.34 1558.7 Q1549.17 1555.33 1543.01 1551.78 Q1536.84 1548.22 1532.86 1548.03 Q1528.87 1547.81 1527.05 1550.96 M1523.84 1549.11 Q1526.75 1544.07 1532.26 1543.73 Q1537.77 1543.36 1545.35 1547.73 Q1552.91 1552.09 1555.36 1557.06 Q1557.8 1562 1554.89 1567.03 Q1551.99 1572.07 1546.48 1572.44 Q1540.96 1572.78 1533.4 1568.42 Q1525.83 1564.04 1523.39 1559.11 Q1520.94 1554.14 1523.84 1549.11 Z" fill="#000000" fill-rule="evenodd" fill-opacity="1" /><path clip-path="url(#clip880)" d="M1563 1543.78 L1571.16 1529.65 L1574.57 1531.62 L1563.59 1550.62 L1560.19 1548.65 Q1559.13 1544.97 1557.41 1538.69 Q1555.69 1532.37 1555.12 1530.68 Q1554.05 1527.47 1552.99 1525.84 Q1551.92 1524.18 1550.45 1523.33 Q1548.07 1521.96 1545.59 1522.77 Q1543.13 1523.57 1541.58 1526.26 Q1540.48 1528.16 1539.91 1530.67 Q1539.36 1533.15 1539.31 1536.33 L1535.22 1533.97 Q1535.65 1530.96 1536.38 1528.55 Q1537.1 1526.13 1538.12 1524.37 Q1540.81 1519.72 1544.73 1518.29 Q1548.65 1516.87 1552.54 1519.11 Q1554.39 1520.18 1555.65 1521.84 Q1556.9 1523.47 1558.09 1526.59 Q1558.38 1527.43 1559.62 1531.72 Q1560.83 1536.01 1563 1543.78 Z" fill="#000000" fill-rule="evenodd" fill-opacity="1" /><path clip-path="url(#clip880)" d="M1576.47 1520.45 L1580.29 1513.83 L1557.46 1500.65 L1554.75 1508.68 L1551.06 1506.55 L1553.75 1498.56 L1556.08 1494.51 L1582.6 1509.82 L1586.42 1503.21 L1589.83 1505.17 L1579.88 1522.41 L1576.47 1520.45 Z" fill="#000000" fill-rule="evenodd" fill-opacity="1" /><path clip-path="url(#clip880)" d="M1580.29 1491.94 L1586.53 1481.13 L1589.81 1483.03 L1583.57 1493.84 L1580.29 1491.94 Z" fill="#000000" fill-rule="evenodd" fill-opacity="1" /><path clip-path="url(#clip880)" d="M1580.84 1457.78 Q1579.04 1460.91 1581.21 1464.27 Q1583.38 1467.61 1589.55 1471.17 Q1595.7 1474.73 1599.69 1474.94 Q1603.68 1475.13 1605.48 1472 Q1607.3 1468.86 1605.13 1465.52 Q1602.96 1462.16 1596.81 1458.6 Q1590.63 1455.04 1586.65 1454.85 Q1582.66 1454.63 1580.84 1457.78 M1577.64 1455.93 Q1580.54 1450.9 1586.06 1450.55 Q1591.57 1450.18 1599.14 1454.55 Q1606.7 1458.92 1609.15 1463.89 Q1611.59 1468.82 1608.69 1473.86 Q1605.78 1478.89 1600.28 1479.26 Q1594.76 1479.61 1587.2 1475.24 Q1579.62 1470.87 1577.18 1465.93 Q1574.73 1460.96 1577.64 1455.93 Z" fill="#000000" fill-rule="evenodd" fill-opacity="1" /><path clip-path="url(#clip880)" d="M1588.28 1438.74 L1597.46 1422.84 L1600.87 1424.81 L1593.83 1437 L1601.17 1441.23 Q1601.38 1440.18 1601.75 1439.22 Q1602.09 1438.24 1602.6 1437.36 Q1605.5 1432.35 1609.93 1431.01 Q1614.37 1429.67 1619.06 1432.37 Q1623.89 1435.16 1624.84 1439.72 Q1625.77 1444.27 1622.61 1449.74 Q1621.52 1451.62 1620.07 1453.4 Q1618.63 1455.16 1616.78 1456.88 L1612.71 1454.53 Q1614.74 1453.29 1616.33 1451.64 Q1617.92 1450 1619.16 1447.85 Q1621.16 1444.38 1620.51 1441.31 Q1619.85 1438.23 1616.72 1436.42 Q1613.6 1434.62 1610.6 1435.59 Q1607.61 1436.56 1605.61 1440.03 Q1604.67 1441.65 1604.09 1443.48 Q1603.53 1445.3 1603.32 1447.42 L1588.28 1438.74 Z" fill="#000000" fill-rule="evenodd" fill-opacity="1" /><path clip-path="url(#clip880)" d="M1619 1424.88 L1625.24 1414.08 L1628.53 1415.98 L1622.29 1426.78 L1619 1424.88 Z" fill="#000000" fill-rule="evenodd" fill-opacity="1" /><path clip-path="url(#clip880)" d="M1640.43 1409.67 L1648.59 1395.54 L1652 1397.5 L1641.02 1416.51 L1637.62 1414.54 Q1636.56 1410.86 1634.84 1404.57 Q1633.12 1398.26 1632.55 1396.56 Q1631.48 1393.36 1630.42 1391.73 Q1629.35 1390.07 1627.88 1389.22 Q1625.5 1387.84 1623.02 1388.66 Q1620.56 1389.46 1619.01 1392.14 Q1617.91 1394.05 1617.34 1396.55 Q1616.79 1399.04 1616.74 1402.22 L1612.65 1399.86 Q1613.08 1396.85 1613.81 1394.43 Q1614.53 1392.02 1615.55 1390.25 Q1618.24 1385.6 1622.16 1384.18 Q1626.08 1382.76 1629.97 1385 Q1631.82 1386.07 1633.08 1387.73 Q1634.33 1389.36 1635.52 1392.48 Q1635.81 1393.32 1637.05 1397.61 Q1638.26 1401.9 1640.43 1409.67 Z" fill="#000000" fill-rule="evenodd" fill-opacity="1" /><path clip-path="url(#clip880)" d="M1627 1371.68 L1636.18 1355.79 L1639.58 1357.75 L1632.55 1369.94 L1639.88 1374.18 Q1640.09 1373.12 1640.46 1372.16 Q1640.81 1371.18 1641.32 1370.3 Q1644.21 1365.29 1648.65 1363.95 Q1653.08 1362.61 1657.78 1365.32 Q1662.61 1368.11 1663.56 1372.66 Q1664.49 1377.21 1661.33 1382.68 Q1660.24 1384.57 1658.78 1386.35 Q1657.34 1388.11 1655.5 1389.82 L1651.43 1387.47 Q1653.45 1386.23 1655.04 1384.59 Q1656.63 1382.94 1657.87 1380.8 Q1659.88 1377.33 1659.22 1374.25 Q1658.57 1371.17 1655.44 1369.37 Q1652.31 1367.56 1649.32 1368.53 Q1646.32 1369.5 1644.32 1372.97 Q1643.38 1374.6 1642.81 1376.43 Q1642.24 1378.24 1642.03 1380.36 L1627 1371.68 Z" fill="#000000" fill-rule="evenodd" fill-opacity="1" /><path clip-path="url(#clip880)" d="M1798.32 1596.81 L1806.48 1582.67 L1809.88 1584.64 L1798.91 1603.64 L1795.5 1601.68 Q1794.45 1597.99 1792.73 1591.71 Q1791.01 1585.39 1790.43 1583.7 Q1789.37 1580.49 1788.31 1578.86 Q1787.23 1577.2 1785.77 1576.36 Q1783.39 1574.98 1780.91 1575.8 Q1778.45 1576.59 1776.89 1579.28 Q1775.8 1581.18 1775.23 1583.69 Q1774.68 1586.18 1774.63 1589.36 L1770.54 1587 Q1770.97 1583.98 1771.7 1581.57 Q1772.42 1579.16 1773.44 1577.39 Q1776.13 1572.74 1780.05 1571.32 Q1783.97 1569.89 1787.86 1572.14 Q1789.7 1573.2 1790.96 1574.87 Q1792.21 1576.5 1793.41 1579.62 Q1793.7 1580.45 1794.93 1584.75 Q1796.15 1589.03 1798.32 1596.81 Z" fill="#000000" fill-rule="evenodd" fill-opacity="1" /><path clip-path="url(#clip880)" d="M1792.53 1551.74 Q1790.72 1554.87 1792.89 1558.23 Q1795.06 1561.57 1801.23 1565.13 Q1807.39 1568.68 1811.38 1568.9 Q1815.36 1569.09 1817.17 1565.96 Q1818.98 1562.82 1816.82 1559.48 Q1814.64 1556.12 1808.49 1552.56 Q1802.32 1549 1798.33 1548.81 Q1794.34 1548.59 1792.53 1551.74 M1789.32 1549.89 Q1792.23 1544.86 1797.74 1544.51 Q1803.25 1544.14 1810.83 1548.51 Q1818.39 1552.88 1820.84 1557.85 Q1823.28 1562.78 1820.37 1567.82 Q1817.47 1572.85 1811.96 1573.22 Q1806.44 1573.56 1798.88 1569.2 Q1791.31 1564.83 1788.87 1559.89 Q1786.42 1554.92 1789.32 1549.89 Z" fill="#000000" fill-rule="evenodd" fill-opacity="1" /><path clip-path="url(#clip880)" d="M1828.48 1544.56 L1836.64 1530.43 L1840.05 1532.4 L1829.07 1551.4 L1825.67 1549.43 Q1824.61 1545.75 1822.89 1539.47 Q1821.17 1533.15 1820.59 1531.46 Q1819.53 1528.25 1818.47 1526.62 Q1817.4 1524.96 1815.93 1524.12 Q1813.55 1522.74 1811.07 1523.55 Q1808.61 1524.35 1807.06 1527.04 Q1805.96 1528.94 1805.39 1531.45 Q1804.84 1533.94 1804.79 1537.12 L1800.7 1534.76 Q1801.13 1531.74 1801.86 1529.33 Q1802.58 1526.91 1803.6 1525.15 Q1806.29 1520.5 1810.21 1519.07 Q1814.13 1517.65 1818.02 1519.9 Q1819.87 1520.96 1821.13 1522.62 Q1822.38 1524.25 1823.57 1527.37 Q1823.86 1528.21 1825.09 1532.51 Q1826.31 1536.79 1828.48 1544.56 Z" fill="#000000" fill-rule="evenodd" fill-opacity="1" /><path clip-path="url(#clip880)" d="M1841.95 1521.23 L1845.77 1514.61 L1822.94 1501.43 L1820.22 1509.46 L1816.54 1507.33 L1819.22 1499.34 L1821.56 1495.29 L1848.08 1510.6 L1851.9 1503.99 L1855.31 1505.96 L1845.36 1523.2 L1841.95 1521.23 Z" fill="#000000" fill-rule="evenodd" fill-opacity="1" /><path clip-path="url(#clip880)" d="M1845.77 1492.72 L1852.01 1481.92 L1855.29 1483.81 L1849.05 1494.62 L1845.77 1492.72 Z" fill="#000000" fill-rule="evenodd" fill-opacity="1" /><path clip-path="url(#clip880)" d="M1846.32 1458.56 Q1844.52 1461.69 1846.69 1465.06 Q1848.86 1468.39 1855.03 1471.95 Q1861.18 1475.51 1865.17 1475.73 Q1869.16 1475.91 1870.96 1472.79 Q1872.78 1469.64 1870.61 1466.3 Q1868.44 1462.94 1862.29 1459.39 Q1856.11 1455.82 1852.13 1455.63 Q1848.14 1455.41 1846.32 1458.56 M1843.12 1456.71 Q1846.02 1451.68 1851.54 1451.34 Q1857.05 1450.96 1864.62 1455.34 Q1872.18 1459.7 1874.63 1464.67 Q1877.07 1469.61 1874.17 1474.64 Q1871.26 1479.67 1865.75 1480.04 Q1860.24 1480.39 1852.68 1476.02 Q1845.1 1471.65 1842.66 1466.71 Q1840.21 1461.74 1843.12 1456.71 Z" fill="#000000" fill-rule="evenodd" fill-opacity="1" /><path clip-path="url(#clip880)" d="M1853.76 1439.52 L1862.94 1423.62 L1866.35 1425.59 L1859.31 1437.78 L1866.65 1442.02 Q1866.86 1440.96 1867.23 1440 Q1867.57 1439.02 1868.08 1438.14 Q1870.98 1433.13 1875.41 1431.79 Q1879.85 1430.45 1884.54 1433.16 Q1889.37 1435.94 1890.32 1440.5 Q1891.25 1445.05 1888.09 1450.52 Q1887 1452.41 1885.55 1454.19 Q1884.11 1455.94 1882.26 1457.66 L1878.19 1455.31 Q1880.22 1454.07 1881.81 1452.43 Q1883.4 1450.78 1884.64 1448.63 Q1886.64 1445.17 1885.98 1442.09 Q1885.33 1439.01 1882.2 1437.2 Q1879.08 1435.4 1876.08 1436.37 Q1873.09 1437.34 1871.09 1440.81 Q1870.15 1442.43 1869.57 1444.27 Q1869.01 1446.08 1868.8 1448.2 L1853.76 1439.52 Z" fill="#000000" fill-rule="evenodd" fill-opacity="1" /><path clip-path="url(#clip880)" d="M1884.48 1425.66 L1890.72 1414.86 L1894.01 1416.76 L1887.77 1427.56 L1884.48 1425.66 Z" fill="#000000" fill-rule="evenodd" fill-opacity="1" /><path clip-path="url(#clip880)" d="M1905.91 1410.45 L1914.07 1396.32 L1917.48 1398.28 L1906.5 1417.29 L1903.1 1415.32 Q1902.04 1411.64 1900.32 1405.35 Q1898.6 1399.04 1898.02 1397.35 Q1896.96 1394.14 1895.9 1392.51 Q1894.83 1390.85 1893.36 1390 Q1890.98 1388.63 1888.5 1389.44 Q1886.04 1390.24 1884.49 1392.92 Q1883.39 1394.83 1882.82 1397.34 Q1882.27 1399.82 1882.22 1403 L1878.13 1400.64 Q1878.56 1397.63 1879.29 1395.22 Q1880.01 1392.8 1881.03 1391.04 Q1883.72 1386.39 1887.64 1384.96 Q1891.56 1383.54 1895.45 1385.78 Q1897.3 1386.85 1898.56 1388.51 Q1899.81 1390.14 1901 1393.26 Q1901.29 1394.1 1902.53 1398.39 Q1903.74 1402.68 1905.91 1410.45 Z" fill="#000000" fill-rule="evenodd" fill-opacity="1" /><path clip-path="url(#clip880)" d="M1913.17 1372.92 Q1911.5 1375.81 1912.09 1378.36 Q1912.68 1380.9 1915.39 1382.46 Q1918.09 1384.02 1920.59 1383.27 Q1923.09 1382.5 1924.76 1379.61 Q1926.42 1376.72 1925.84 1374.17 Q1925.24 1371.6 1922.55 1370.05 Q1919.85 1368.49 1917.34 1369.26 Q1914.85 1370.01 1913.17 1372.92 M1909.11 1375.97 Q1906.96 1378.21 1904.33 1378.64 Q1901.72 1379.06 1899.15 1377.57 Q1895.56 1375.5 1894.95 1371.75 Q1894.34 1367.98 1896.91 1363.53 Q1899.49 1359.06 1903.05 1357.72 Q1906.6 1356.38 1910.19 1358.45 Q1912.76 1359.93 1913.7 1362.42 Q1914.65 1364.9 1913.8 1367.85 Q1916.17 1365.32 1919.09 1364.84 Q1922.02 1364.34 1924.89 1366 Q1929.24 1368.51 1930.03 1372.52 Q1930.82 1376.51 1927.96 1381.46 Q1925.11 1386.41 1921.24 1387.74 Q1917.39 1389.04 1913.04 1386.53 Q1910.17 1384.87 1909.14 1382.08 Q1908.1 1379.29 1909.11 1375.97 M1901.86 1373.76 Q1904.18 1375.11 1906.32 1374.42 Q1908.47 1373.7 1909.98 1371.08 Q1911.49 1368.47 1911.03 1366.26 Q1910.58 1364.02 1908.26 1362.68 Q1905.93 1361.34 1903.77 1362.07 Q1901.62 1362.78 1900.12 1365.38 Q1898.6 1368.01 1899.06 1370.23 Q1899.53 1372.42 1901.86 1373.76 Z" fill="#000000" fill-rule="evenodd" fill-opacity="1" /><path clip-path="url(#clip880)" d="M2064.53 1596.32 L2072.68 1582.19 L2076.09 1584.16 L2065.12 1603.16 L2061.71 1601.2 Q2060.66 1597.51 2058.94 1591.23 Q2057.21 1584.91 2056.64 1583.22 Q2055.58 1580.01 2054.52 1578.38 Q2053.44 1576.72 2051.98 1575.88 Q2049.59 1574.5 2047.12 1575.32 Q2044.65 1576.11 2043.1 1578.8 Q2042 1580.7 2041.44 1583.21 Q2040.89 1585.7 2040.84 1588.88 L2036.75 1586.52 Q2037.18 1583.5 2037.91 1581.09 Q2038.63 1578.67 2039.65 1576.91 Q2042.33 1572.26 2046.26 1570.84 Q2050.18 1569.41 2054.07 1571.66 Q2055.91 1572.72 2057.17 1574.38 Q2058.42 1576.01 2059.61 1579.14 Q2059.91 1579.97 2061.14 1584.27 Q2062.36 1588.55 2064.53 1596.32 Z" fill="#000000" fill-rule="evenodd" fill-opacity="1" /><path clip-path="url(#clip880)" d="M2058.74 1551.26 Q2056.93 1554.39 2059.1 1557.75 Q2061.27 1561.09 2067.44 1564.65 Q2073.6 1568.2 2077.59 1568.42 Q2081.57 1568.61 2083.37 1565.48 Q2085.19 1562.34 2083.03 1559 Q2080.85 1555.63 2074.7 1552.08 Q2068.53 1548.52 2064.54 1548.33 Q2060.55 1548.11 2058.74 1551.26 M2055.53 1549.41 Q2058.43 1544.37 2063.95 1544.03 Q2069.46 1543.66 2077.04 1548.03 Q2084.6 1552.4 2087.04 1557.36 Q2089.49 1562.3 2086.58 1567.33 Q2083.68 1572.37 2078.17 1572.74 Q2072.65 1573.08 2065.09 1568.72 Q2057.52 1564.35 2055.07 1559.41 Q2052.62 1554.44 2055.53 1549.41 Z" fill="#000000" fill-rule="evenodd" fill-opacity="1" /><path clip-path="url(#clip880)" d="M2094.69 1544.08 L2102.85 1529.95 L2106.25 1531.92 L2095.28 1550.92 L2091.87 1548.95 Q2090.82 1545.27 2089.1 1538.99 Q2087.38 1532.67 2086.8 1530.98 Q2085.74 1527.77 2084.68 1526.14 Q2083.61 1524.48 2082.14 1523.64 Q2079.76 1522.26 2077.28 1523.07 Q2074.82 1523.87 2073.27 1526.56 Q2072.17 1528.46 2071.6 1530.97 Q2071.05 1533.45 2071 1536.64 L2066.91 1534.27 Q2067.34 1531.26 2068.07 1528.85 Q2068.79 1526.43 2069.81 1524.67 Q2072.5 1520.02 2076.42 1518.59 Q2080.34 1517.17 2084.23 1519.42 Q2086.08 1520.48 2087.33 1522.14 Q2088.58 1523.77 2089.78 1526.89 Q2090.07 1527.73 2091.3 1532.03 Q2092.52 1536.31 2094.69 1544.08 Z" fill="#000000" fill-rule="evenodd" fill-opacity="1" /><path clip-path="url(#clip880)" d="M2108.16 1520.75 L2111.98 1514.13 L2089.15 1500.95 L2086.43 1508.98 L2082.74 1506.85 L2085.43 1498.86 L2087.77 1494.81 L2114.29 1510.12 L2118.11 1503.51 L2121.52 1505.48 L2111.57 1522.72 L2108.16 1520.75 Z" fill="#000000" fill-rule="evenodd" fill-opacity="1" /><path clip-path="url(#clip880)" d="M2111.98 1492.24 L2118.21 1481.43 L2121.5 1483.33 L2115.26 1494.14 L2111.98 1492.24 Z" fill="#000000" fill-rule="evenodd" fill-opacity="1" /><path clip-path="url(#clip880)" d="M2112.53 1458.08 Q2110.73 1461.21 2112.9 1464.57 Q2115.06 1467.91 2121.24 1471.47 Q2127.39 1475.03 2131.38 1475.25 Q2135.36 1475.43 2137.17 1472.31 Q2138.99 1469.16 2136.82 1465.82 Q2134.65 1462.46 2128.5 1458.9 Q2122.32 1455.34 2118.34 1455.15 Q2114.35 1454.93 2112.53 1458.08 M2109.32 1456.23 Q2112.23 1451.2 2117.75 1450.85 Q2123.26 1450.48 2130.83 1454.85 Q2138.39 1459.22 2140.84 1464.19 Q2143.28 1469.13 2140.38 1474.16 Q2137.47 1479.19 2131.96 1479.56 Q2126.45 1479.91 2118.89 1475.54 Q2111.31 1471.17 2108.87 1466.23 Q2106.42 1461.26 2109.32 1456.23 Z" fill="#000000" fill-rule="evenodd" fill-opacity="1" /><path clip-path="url(#clip880)" d="M2138.59 1437.63 Q2137.01 1440.35 2137.95 1443.03 Q2138.9 1445.69 2142.15 1447.57 Q2145.38 1449.43 2148.18 1448.94 Q2150.97 1448.41 2152.54 1445.68 Q2154.11 1442.96 2153.16 1440.3 Q2152.21 1437.6 2148.98 1435.74 Q2145.73 1433.87 2142.94 1434.39 Q2140.16 1434.9 2138.59 1437.63 M2130.54 1422.26 L2134.23 1424.39 Q2132.63 1425.5 2131.34 1426.84 Q2130.07 1428.17 2129.19 1429.69 Q2126.88 1433.7 2128.36 1437.39 Q2129.85 1441.05 2135.15 1444.51 Q2134.08 1442.32 2134.19 1440.01 Q2134.28 1437.68 2135.52 1435.53 Q2138.12 1431.02 2142.37 1430 Q2146.62 1428.95 2151.33 1431.67 Q2155.94 1434.33 2157.15 1438.67 Q2158.36 1443 2155.75 1447.53 Q2152.75 1452.73 2147.2 1453.18 Q2141.62 1453.62 2134.06 1449.26 Q2126.97 1445.16 2124.7 1439.37 Q2122.42 1433.56 2125.69 1427.88 Q2126.57 1426.36 2127.76 1424.99 Q2128.97 1423.6 2130.54 1422.26 Z" fill="#000000" fill-rule="evenodd" fill-opacity="1" /><path clip-path="url(#clip880)" d="M2150.69 1425.18 L2156.93 1414.38 L2160.22 1416.28 L2153.98 1427.08 L2150.69 1425.18 Z" fill="#000000" fill-rule="evenodd" fill-opacity="1" /><path clip-path="url(#clip880)" d="M2151.25 1391.02 Q2149.44 1394.15 2151.61 1397.52 Q2153.78 1400.85 2159.95 1404.42 Q2166.11 1407.97 2170.1 1408.19 Q2174.08 1408.38 2175.88 1405.25 Q2177.7 1402.1 2175.54 1398.77 Q2173.36 1395.4 2167.21 1391.85 Q2161.04 1388.28 2157.05 1388.1 Q2153.06 1387.88 2151.25 1391.02 M2148.04 1389.17 Q2150.95 1384.14 2156.46 1383.8 Q2161.97 1383.42 2169.55 1387.8 Q2177.11 1392.16 2179.56 1397.13 Q2182 1402.07 2179.09 1407.1 Q2176.19 1412.13 2170.68 1412.51 Q2165.16 1412.85 2157.6 1408.49 Q2150.03 1404.11 2147.58 1399.17 Q2145.13 1394.2 2148.04 1389.17 Z" fill="#000000" fill-rule="evenodd" fill-opacity="1" /><path clip-path="url(#clip880)" d="M2179.54 1367.72 Q2181.84 1365.17 2184.74 1364.68 Q2187.65 1364.17 2190.54 1365.84 Q2194.97 1368.4 2195.64 1372.84 Q2196.3 1377.29 2193.06 1382.9 Q2191.97 1384.79 2190.44 1386.57 Q2188.93 1388.35 2186.96 1390.05 L2183.05 1387.79 Q2185.01 1386.67 2186.66 1384.96 Q2188.32 1383.24 2189.58 1381.06 Q2191.78 1377.25 2191.43 1374.4 Q2191.08 1371.52 2188.21 1369.87 Q2185.57 1368.34 2183.01 1369.35 Q2180.44 1370.32 2178.53 1373.63 L2176.52 1377.12 L2173.19 1375.2 L2175.29 1371.55 Q2177.02 1368.56 2176.75 1366.3 Q2176.46 1364.02 2174.22 1362.72 Q2171.91 1361.39 2169.74 1362.33 Q2167.56 1363.23 2165.8 1366.28 Q2164.84 1367.95 2164.1 1370.06 Q2163.36 1372.17 2162.8 1374.9 L2159.2 1372.81 Q2159.89 1370.14 2160.72 1367.95 Q2161.57 1365.74 2162.6 1363.95 Q2165.26 1359.34 2168.92 1357.87 Q2172.55 1356.39 2176.12 1358.45 Q2178.61 1359.88 2179.51 1362.3 Q2180.39 1364.71 2179.54 1367.72 Z" fill="#000000" fill-rule="evenodd" fill-opacity="1" /><polyline clip-path="url(#clip882)" style="stroke:#000000; stroke-linecap:butt; stroke-linejoin:round; stroke-width:2; stroke-opacity:0.1; fill:none" points="
  201.019,1181.11 2352.76,1181.11 
  "/>
<polyline clip-path="url(#clip882)" style="stroke:#000000; stroke-linecap:butt; stroke-linejoin:round; stroke-width:2; stroke-opacity:0.1; fill:none" points="
  201.019,896.693 2352.76,896.693 
  "/>
<polyline clip-path="url(#clip882)" style="stroke:#000000; stroke-linecap:butt; stroke-linejoin:round; stroke-width:2; stroke-opacity:0.1; fill:none" points="
  201.019,612.275 2352.76,612.275 
  "/>
<polyline clip-path="url(#clip882)" style="stroke:#000000; stroke-linecap:butt; stroke-linejoin:round; stroke-width:2; stroke-opacity:0.1; fill:none" points="
  201.019,327.856 2352.76,327.856 
  "/>
<polyline clip-path="url(#clip880)" style="stroke:#000000; stroke-linecap:butt; stroke-linejoin:round; stroke-width:4; stroke-opacity:1; fill:none" points="
  201.019,1330.92 201.019,47.2441 
  "/>
<polyline clip-path="url(#clip880)" style="stroke:#000000; stroke-linecap:butt; stroke-linejoin:round; stroke-width:4; stroke-opacity:1; fill:none" points="
  201.019,1181.11 226.84,1181.11 
  "/>
<polyline clip-path="url(#clip880)" style="stroke:#000000; stroke-linecap:butt; stroke-linejoin:round; stroke-width:4; stroke-opacity:1; fill:none" points="
  201.019,896.693 226.84,896.693 
  "/>
<polyline clip-path="url(#clip880)" style="stroke:#000000; stroke-linecap:butt; stroke-linejoin:round; stroke-width:4; stroke-opacity:1; fill:none" points="
  201.019,612.275 226.84,612.275 
  "/>
<polyline clip-path="url(#clip880)" style="stroke:#000000; stroke-linecap:butt; stroke-linejoin:round; stroke-width:4; stroke-opacity:1; fill:none" points="
  201.019,327.856 226.84,327.856 
  "/>
<path clip-path="url(#clip880)" d="M56.6171 1194.46 L72.9365 1194.46 L72.9365 1198.39 L50.9921 1198.39 L50.9921 1194.46 Q53.6541 1191.7 58.2375 1187.07 Q62.8439 1182.42 64.0245 1181.08 Q66.2698 1178.55 67.1494 1176.82 Q68.0522 1175.06 68.0522 1173.37 Q68.0522 1170.61 66.1078 1168.88 Q64.1865 1167.14 61.0847 1167.14 Q58.8856 1167.14 56.4319 1167.91 Q54.0014 1168.67 51.2236 1170.22 L51.2236 1165.5 Q54.0477 1164.36 56.5014 1163.79 Q58.955 1163.21 60.9921 1163.21 Q66.3624 1163.21 69.5568 1165.89 Q72.7513 1168.58 72.7513 1173.07 Q72.7513 1175.2 71.9411 1177.12 Q71.1541 1179.02 69.0476 1181.61 Q68.4689 1182.28 65.367 1185.5 Q62.2652 1188.69 56.6171 1194.46 Z" fill="#000000" fill-rule="evenodd" fill-opacity="1" /><path clip-path="url(#clip880)" d="M86.779 1194.46 L103.098 1194.46 L103.098 1198.39 L81.154 1198.39 L81.154 1194.46 Q83.816 1191.7 88.3993 1187.07 Q93.0058 1182.42 94.1863 1181.08 Q96.4317 1178.55 97.3113 1176.82 Q98.2141 1175.06 98.2141 1173.37 Q98.2141 1170.61 96.2697 1168.88 Q94.3484 1167.14 91.2465 1167.14 Q89.0475 1167.14 86.5938 1167.91 Q84.1632 1168.67 81.3855 1170.22 L81.3855 1165.5 Q84.2095 1164.36 86.6632 1163.79 Q89.1169 1163.21 91.1539 1163.21 Q96.5243 1163.21 99.7187 1165.89 Q102.913 1168.58 102.913 1173.07 Q102.913 1175.2 102.103 1177.12 Q101.316 1179.02 99.2095 1181.61 Q98.6308 1182.28 95.5289 1185.5 Q92.4271 1188.69 86.779 1194.46 Z" fill="#000000" fill-rule="evenodd" fill-opacity="1" /><path clip-path="url(#clip880)" d="M112.959 1163.83 L131.316 1163.83 L131.316 1167.77 L117.242 1167.77 L117.242 1176.24 Q118.26 1175.89 119.279 1175.73 Q120.297 1175.54 121.316 1175.54 Q127.103 1175.54 130.482 1178.72 Q133.862 1181.89 133.862 1187.3 Q133.862 1192.88 130.39 1195.98 Q126.918 1199.06 120.598 1199.06 Q118.422 1199.06 116.154 1198.69 Q113.908 1198.32 111.501 1197.58 L111.501 1192.88 Q113.584 1194.02 115.807 1194.57 Q118.029 1195.13 120.506 1195.13 Q124.51 1195.13 126.848 1193.02 Q129.186 1190.91 129.186 1187.3 Q129.186 1183.69 126.848 1181.59 Q124.51 1179.48 120.506 1179.48 Q118.631 1179.48 116.756 1179.9 Q114.904 1180.31 112.959 1181.19 L112.959 1163.83 Z" fill="#000000" fill-rule="evenodd" fill-opacity="1" /><path clip-path="url(#clip880)" d="M153.075 1166.91 Q149.464 1166.91 147.635 1170.48 Q145.83 1174.02 145.83 1181.15 Q145.83 1188.25 147.635 1191.82 Q149.464 1195.36 153.075 1195.36 Q156.709 1195.36 158.515 1191.82 Q160.343 1188.25 160.343 1181.15 Q160.343 1174.02 158.515 1170.48 Q156.709 1166.91 153.075 1166.91 M153.075 1163.21 Q158.885 1163.21 161.941 1167.81 Q165.019 1172.4 165.019 1181.15 Q165.019 1189.87 161.941 1194.48 Q158.885 1199.06 153.075 1199.06 Q147.265 1199.06 144.186 1194.48 Q141.131 1189.87 141.131 1181.15 Q141.131 1172.4 144.186 1167.81 Q147.265 1163.21 153.075 1163.21 Z" fill="#000000" fill-rule="evenodd" fill-opacity="1" /><path clip-path="url(#clip880)" d="M56.6171 910.038 L72.9365 910.038 L72.9365 913.973 L50.9921 913.973 L50.9921 910.038 Q53.6541 907.284 58.2375 902.654 Q62.8439 898.001 64.0245 896.659 Q66.2698 894.135 67.1494 892.399 Q68.0522 890.64 68.0522 888.95 Q68.0522 886.196 66.1078 884.46 Q64.1865 882.723 61.0847 882.723 Q58.8856 882.723 56.4319 883.487 Q54.0014 884.251 51.2236 885.802 L51.2236 881.08 Q54.0477 879.946 56.5014 879.367 Q58.955 878.788 60.9921 878.788 Q66.3624 878.788 69.5568 881.473 Q72.7513 884.159 72.7513 888.649 Q72.7513 890.779 71.9411 892.7 Q71.1541 894.598 69.0476 897.191 Q68.4689 897.862 65.367 901.08 Q62.2652 904.274 56.6171 910.038 Z" fill="#000000" fill-rule="evenodd" fill-opacity="1" /><path clip-path="url(#clip880)" d="M96.9178 895.339 Q100.274 896.057 102.149 898.325 Q104.047 900.594 104.047 903.927 Q104.047 909.043 100.529 911.844 Q97.0104 914.645 90.529 914.645 Q88.353 914.645 86.0382 914.205 Q83.7466 913.788 81.2929 912.932 L81.2929 908.418 Q83.2373 909.552 85.5521 910.131 Q87.8669 910.709 90.3901 910.709 Q94.7882 910.709 97.0798 908.973 Q99.3946 907.237 99.3946 903.927 Q99.3946 900.872 97.2419 899.159 Q95.1123 897.422 91.2928 897.422 L87.2651 897.422 L87.2651 893.58 L91.478 893.58 Q94.9271 893.58 96.7558 892.214 Q98.5845 890.825 98.5845 888.233 Q98.5845 885.571 96.6863 884.159 Q94.8113 882.723 91.2928 882.723 Q89.3715 882.723 87.1725 883.14 Q84.9734 883.557 82.3346 884.436 L82.3346 880.27 Q84.9966 879.529 87.3114 879.159 Q89.6493 878.788 91.7095 878.788 Q97.0335 878.788 100.135 881.219 Q103.237 883.626 103.237 887.747 Q103.237 890.617 101.594 892.608 Q99.9502 894.575 96.9178 895.339 Z" fill="#000000" fill-rule="evenodd" fill-opacity="1" /><path clip-path="url(#clip880)" d="M122.913 882.492 Q119.302 882.492 117.473 886.057 Q115.668 889.598 115.668 896.728 Q115.668 903.834 117.473 907.399 Q119.302 910.941 122.913 910.941 Q126.547 910.941 128.353 907.399 Q130.182 903.834 130.182 896.728 Q130.182 889.598 128.353 886.057 Q126.547 882.492 122.913 882.492 M122.913 878.788 Q128.723 878.788 131.779 883.395 Q134.857 887.978 134.857 896.728 Q134.857 905.455 131.779 910.061 Q128.723 914.645 122.913 914.645 Q117.103 914.645 114.024 910.061 Q110.969 905.455 110.969 896.728 Q110.969 887.978 114.024 883.395 Q117.103 878.788 122.913 878.788 Z" fill="#000000" fill-rule="evenodd" fill-opacity="1" /><path clip-path="url(#clip880)" d="M153.075 882.492 Q149.464 882.492 147.635 886.057 Q145.83 889.598 145.83 896.728 Q145.83 903.834 147.635 907.399 Q149.464 910.941 153.075 910.941 Q156.709 910.941 158.515 907.399 Q160.343 903.834 160.343 896.728 Q160.343 889.598 158.515 886.057 Q156.709 882.492 153.075 882.492 M153.075 878.788 Q158.885 878.788 161.941 883.395 Q165.019 887.978 165.019 896.728 Q165.019 905.455 161.941 910.061 Q158.885 914.645 153.075 914.645 Q147.265 914.645 144.186 910.061 Q141.131 905.455 141.131 896.728 Q141.131 887.978 144.186 883.395 Q147.265 878.788 153.075 878.788 Z" fill="#000000" fill-rule="evenodd" fill-opacity="1" /><path clip-path="url(#clip880)" d="M56.6171 625.62 L72.9365 625.62 L72.9365 629.555 L50.9921 629.555 L50.9921 625.62 Q53.6541 622.865 58.2375 618.236 Q62.8439 613.583 64.0245 612.24 Q66.2698 609.717 67.1494 607.981 Q68.0522 606.222 68.0522 604.532 Q68.0522 601.777 66.1078 600.041 Q64.1865 598.305 61.0847 598.305 Q58.8856 598.305 56.4319 599.069 Q54.0014 599.833 51.2236 601.384 L51.2236 596.662 Q54.0477 595.527 56.5014 594.949 Q58.955 594.37 60.9921 594.37 Q66.3624 594.37 69.5568 597.055 Q72.7513 599.74 72.7513 604.231 Q72.7513 606.361 71.9411 608.282 Q71.1541 610.18 69.0476 612.773 Q68.4689 613.444 65.367 616.661 Q62.2652 619.856 56.6171 625.62 Z" fill="#000000" fill-rule="evenodd" fill-opacity="1" /><path clip-path="url(#clip880)" d="M96.9178 610.921 Q100.274 611.638 102.149 613.907 Q104.047 616.175 104.047 619.509 Q104.047 624.624 100.529 627.425 Q97.0104 630.226 90.529 630.226 Q88.353 630.226 86.0382 629.786 Q83.7466 629.37 81.2929 628.513 L81.2929 623.999 Q83.2373 625.134 85.5521 625.712 Q87.8669 626.291 90.3901 626.291 Q94.7882 626.291 97.0798 624.555 Q99.3946 622.819 99.3946 619.509 Q99.3946 616.453 97.2419 614.74 Q95.1123 613.004 91.2928 613.004 L87.2651 613.004 L87.2651 609.161 L91.478 609.161 Q94.9271 609.161 96.7558 607.796 Q98.5845 606.407 98.5845 603.814 Q98.5845 601.152 96.6863 599.74 Q94.8113 598.305 91.2928 598.305 Q89.3715 598.305 87.1725 598.722 Q84.9734 599.138 82.3346 600.018 L82.3346 595.851 Q84.9966 595.111 87.3114 594.74 Q89.6493 594.37 91.7095 594.37 Q97.0335 594.37 100.135 596.8 Q103.237 599.208 103.237 603.328 Q103.237 606.199 101.594 608.189 Q99.9502 610.157 96.9178 610.921 Z" fill="#000000" fill-rule="evenodd" fill-opacity="1" /><path clip-path="url(#clip880)" d="M112.959 594.995 L131.316 594.995 L131.316 598.93 L117.242 598.93 L117.242 607.402 Q118.26 607.055 119.279 606.893 Q120.297 606.708 121.316 606.708 Q127.103 606.708 130.482 609.879 Q133.862 613.05 133.862 618.467 Q133.862 624.046 130.39 627.148 Q126.918 630.226 120.598 630.226 Q118.422 630.226 116.154 629.856 Q113.908 629.485 111.501 628.745 L111.501 624.046 Q113.584 625.18 115.807 625.735 Q118.029 626.291 120.506 626.291 Q124.51 626.291 126.848 624.185 Q129.186 622.078 129.186 618.467 Q129.186 614.856 126.848 612.749 Q124.51 610.643 120.506 610.643 Q118.631 610.643 116.756 611.06 Q114.904 611.476 112.959 612.356 L112.959 594.995 Z" fill="#000000" fill-rule="evenodd" fill-opacity="1" /><path clip-path="url(#clip880)" d="M153.075 598.074 Q149.464 598.074 147.635 601.638 Q145.83 605.18 145.83 612.31 Q145.83 619.416 147.635 622.981 Q149.464 626.523 153.075 626.523 Q156.709 626.523 158.515 622.981 Q160.343 619.416 160.343 612.31 Q160.343 605.18 158.515 601.638 Q156.709 598.074 153.075 598.074 M153.075 594.37 Q158.885 594.37 161.941 598.976 Q165.019 603.56 165.019 612.31 Q165.019 621.036 161.941 625.643 Q158.885 630.226 153.075 630.226 Q147.265 630.226 144.186 625.643 Q141.131 621.036 141.131 612.31 Q141.131 603.56 144.186 598.976 Q147.265 594.37 153.075 594.37 Z" fill="#000000" fill-rule="evenodd" fill-opacity="1" /><path clip-path="url(#clip880)" d="M56.6171 341.201 L72.9365 341.201 L72.9365 345.136 L50.9921 345.136 L50.9921 341.201 Q53.6541 338.447 58.2375 333.817 Q62.8439 329.164 64.0245 327.822 Q66.2698 325.299 67.1494 323.563 Q68.0522 321.803 68.0522 320.113 Q68.0522 317.359 66.1078 315.623 Q64.1865 313.887 61.0847 313.887 Q58.8856 313.887 56.4319 314.651 Q54.0014 315.414 51.2236 316.965 L51.2236 312.243 Q54.0477 311.109 56.5014 310.53 Q58.955 309.951 60.9921 309.951 Q66.3624 309.951 69.5568 312.637 Q72.7513 315.322 72.7513 319.813 Q72.7513 321.942 71.9411 323.863 Q71.1541 325.762 69.0476 328.354 Q68.4689 329.025 65.367 332.243 Q62.2652 335.437 56.6171 341.201 Z" fill="#000000" fill-rule="evenodd" fill-opacity="1" /><path clip-path="url(#clip880)" d="M95.5984 314.651 L83.7929 333.1 L95.5984 333.1 L95.5984 314.651 M94.3715 310.576 L100.251 310.576 L100.251 333.1 L105.182 333.1 L105.182 336.988 L100.251 336.988 L100.251 345.136 L95.5984 345.136 L95.5984 336.988 L79.9966 336.988 L79.9966 332.475 L94.3715 310.576 Z" fill="#000000" fill-rule="evenodd" fill-opacity="1" /><path clip-path="url(#clip880)" d="M122.913 313.655 Q119.302 313.655 117.473 317.22 Q115.668 320.762 115.668 327.891 Q115.668 334.998 117.473 338.562 Q119.302 342.104 122.913 342.104 Q126.547 342.104 128.353 338.562 Q130.182 334.998 130.182 327.891 Q130.182 320.762 128.353 317.22 Q126.547 313.655 122.913 313.655 M122.913 309.951 Q128.723 309.951 131.779 314.558 Q134.857 319.141 134.857 327.891 Q134.857 336.618 131.779 341.224 Q128.723 345.808 122.913 345.808 Q117.103 345.808 114.024 341.224 Q110.969 336.618 110.969 327.891 Q110.969 319.141 114.024 314.558 Q117.103 309.951 122.913 309.951 Z" fill="#000000" fill-rule="evenodd" fill-opacity="1" /><path clip-path="url(#clip880)" d="M153.075 313.655 Q149.464 313.655 147.635 317.22 Q145.83 320.762 145.83 327.891 Q145.83 334.998 147.635 338.562 Q149.464 342.104 153.075 342.104 Q156.709 342.104 158.515 338.562 Q160.343 334.998 160.343 327.891 Q160.343 320.762 158.515 317.22 Q156.709 313.655 153.075 313.655 M153.075 309.951 Q158.885 309.951 161.941 314.558 Q165.019 319.141 165.019 327.891 Q165.019 336.618 161.941 341.224 Q158.885 345.808 153.075 345.808 Q147.265 345.808 144.186 341.224 Q141.131 336.618 141.131 327.891 Q141.131 319.141 144.186 314.558 Q147.265 309.951 153.075 309.951 Z" fill="#000000" fill-rule="evenodd" fill-opacity="1" /><path clip-path="url(#clip882)" d="
M301.807 830.14 L301.807 588.099 L261.917 588.099 L261.917 499.987 L301.807 499.987 L301.807 445.833 L301.807 499.987 L341.697 499.987 L341.697 588.099 L301.807 588.099 
  L301.807 830.14  Z
  " fill="#ff0000" fill-rule="evenodd" fill-opacity="1"/>
<polyline clip-path="url(#clip882)" style="stroke:#ff0000; stroke-linecap:butt; stroke-linejoin:round; stroke-width:2; stroke-opacity:1; fill:none" points="
  301.807,830.14 301.807,588.099 261.917,588.099 261.917,499.987 301.807,499.987 301.807,445.833 301.807,499.987 341.697,499.987 341.697,588.099 301.807,588.099 
  301.807,830.14 
  "/>
<path clip-path="url(#clip882)" d="
M390.451 604.255 L390.451 573.935 L350.561 573.935 L350.561 507.496 L390.451 507.496 L390.451 429.11 L390.451 507.496 L430.34 507.496 L430.34 573.935 L390.451 573.935 
  L390.451 604.255  Z
  " fill="#ff0000" fill-rule="evenodd" fill-opacity="1"/>
<polyline clip-path="url(#clip882)" style="stroke:#ff0000; stroke-linecap:butt; stroke-linejoin:round; stroke-width:2; stroke-opacity:1; fill:none" points="
  390.451,604.255 390.451,573.935 350.561,573.935 350.561,507.496 390.451,507.496 390.451,429.11 390.451,507.496 430.34,507.496 430.34,573.935 390.451,573.935 
  390.451,604.255 
  "/>
<path clip-path="url(#clip882)" d="
M479.095 655.86 L479.095 608.635 L439.205 608.635 L439.205 433.944 L479.095 433.944 L479.095 426.209 L479.095 433.944 L518.984 433.944 L518.984 608.635 L479.095 608.635 
  L479.095 655.86  Z
  " fill="#ff0000" fill-rule="evenodd" fill-opacity="1"/>
<polyline clip-path="url(#clip882)" style="stroke:#ff0000; stroke-linecap:butt; stroke-linejoin:round; stroke-width:2; stroke-opacity:1; fill:none" points="
  479.095,655.86 479.095,608.635 439.205,608.635 439.205,433.944 479.095,433.944 479.095,426.209 479.095,433.944 518.984,433.944 518.984,608.635 479.095,608.635 
  479.095,655.86 
  "/>
<path clip-path="url(#clip882)" d="
M567.738 384.74 L567.738 335.309 L527.849 335.309 L527.849 327.856 L567.738 327.856 L567.738 234.511 L567.738 327.856 L607.628 327.856 L607.628 335.309 L567.738 335.309 
  L567.738 384.74  Z
  " fill="#ff0000" fill-rule="evenodd" fill-opacity="1"/>
<polyline clip-path="url(#clip882)" style="stroke:#ff0000; stroke-linecap:butt; stroke-linejoin:round; stroke-width:2; stroke-opacity:1; fill:none" points="
  567.738,384.74 567.738,335.309 527.849,335.309 527.849,327.856 567.738,327.856 567.738,234.511 567.738,327.856 607.628,327.856 607.628,335.309 567.738,335.309 
  567.738,384.74 
  "/>
<path clip-path="url(#clip882)" d="
M656.382 699.136 L656.382 659.716 L616.492 659.716 L616.492 470.692 L656.382 470.692 L656.382 453.001 L656.382 470.692 L696.272 470.692 L696.272 659.716 L656.382 659.716 
  L656.382 699.136  Z
  " fill="#ff0000" fill-rule="evenodd" fill-opacity="1"/>
<polyline clip-path="url(#clip882)" style="stroke:#ff0000; stroke-linecap:butt; stroke-linejoin:round; stroke-width:2; stroke-opacity:1; fill:none" points="
  656.382,699.136 656.382,659.716 616.492,659.716 616.492,470.692 656.382,470.692 656.382,453.001 656.382,470.692 696.272,470.692 696.272,659.716 656.382,659.716 
  656.382,699.136 
  "/>
<path clip-path="url(#clip882)" d="
M745.026 993.396 L745.026 942.996 L705.136 942.996 L705.136 846.863 L745.026 846.863 L745.026 771.549 L745.026 846.863 L784.915 846.863 L784.915 942.996 L745.026 942.996 
  L745.026 993.396  Z
  " fill="#ff0000" fill-rule="evenodd" fill-opacity="1"/>
<polyline clip-path="url(#clip882)" style="stroke:#ff0000; stroke-linecap:butt; stroke-linejoin:round; stroke-width:2; stroke-opacity:1; fill:none" points="
  745.026,993.396 745.026,942.996 705.136,942.996 705.136,846.863 745.026,846.863 745.026,771.549 745.026,846.863 784.915,846.863 784.915,942.996 745.026,942.996 
  745.026,993.396 
  "/>
<path clip-path="url(#clip882)" d="
M833.669 1294.59 L833.669 1243.23 L793.78 1243.23 L793.78 1114.5 L833.669 1114.5 L833.669 979.913 L833.669 1114.5 L873.559 1114.5 L873.559 1243.23 L833.669 1243.23 
  L833.669 1294.59  Z
  " fill="#ff0000" fill-rule="evenodd" fill-opacity="1"/>
<polyline clip-path="url(#clip882)" style="stroke:#ff0000; stroke-linecap:butt; stroke-linejoin:round; stroke-width:2; stroke-opacity:1; fill:none" points="
  833.669,1294.59 833.669,1243.23 793.78,1243.23 793.78,1114.5 833.669,1114.5 833.669,979.913 833.669,1114.5 873.559,1114.5 873.559,1243.23 833.669,1243.23 
  833.669,1294.59 
  "/>
<path clip-path="url(#clip882)" d="
M922.313 1222.52 L922.313 1118.03 L882.423 1118.03 L882.423 1113.02 L922.313 1113.02 L922.313 1029.8 L922.313 1113.02 L962.203 1113.02 L962.203 1118.03 L922.313 1118.03 
  L922.313 1222.52  Z
  " fill="#ff0000" fill-rule="evenodd" fill-opacity="1"/>
<polyline clip-path="url(#clip882)" style="stroke:#ff0000; stroke-linecap:butt; stroke-linejoin:round; stroke-width:2; stroke-opacity:1; fill:none" points="
  922.313,1222.52 922.313,1118.03 882.423,1118.03 882.423,1113.02 922.313,1113.02 922.313,1029.8 922.313,1113.02 962.203,1113.02 962.203,1118.03 922.313,1118.03 
  922.313,1222.52 
  "/>
<path clip-path="url(#clip882)" d="
M1010.96 991.575 L1010.96 943.167 L971.067 943.167 L971.067 804.77 L1010.96 804.77 L1010.96 776.442 L1010.96 804.77 L1050.85 804.77 L1050.85 943.167 L1010.96 943.167 
  L1010.96 991.575  Z
  " fill="#ff0000" fill-rule="evenodd" fill-opacity="1"/>
<polyline clip-path="url(#clip882)" style="stroke:#ff0000; stroke-linecap:butt; stroke-linejoin:round; stroke-width:2; stroke-opacity:1; fill:none" points="
  1010.96,991.575 1010.96,943.167 971.067,943.167 971.067,804.77 1010.96,804.77 1010.96,776.442 1010.96,804.77 1050.85,804.77 1050.85,943.167 1010.96,943.167 
  1010.96,991.575 
  "/>
<path clip-path="url(#clip882)" d="
M1099.6 925.135 L1099.6 843.677 L1059.71 843.677 L1059.71 774.906 L1099.6 774.906 L1099.6 763.926 L1099.6 774.906 L1139.49 774.906 L1139.49 843.677 L1099.6 843.677 
  L1099.6 925.135  Z
  " fill="#ff0000" fill-rule="evenodd" fill-opacity="1"/>
<polyline clip-path="url(#clip882)" style="stroke:#ff0000; stroke-linecap:butt; stroke-linejoin:round; stroke-width:2; stroke-opacity:1; fill:none" points="
  1099.6,925.135 1099.6,843.677 1059.71,843.677 1059.71,774.906 1099.6,774.906 1099.6,763.926 1099.6,774.906 1139.49,774.906 1139.49,843.677 1099.6,843.677 
  1099.6,925.135 
  "/>
<path clip-path="url(#clip882)" d="
M1188.24 878.719 L1188.24 877.183 L1148.35 877.183 L1148.35 686.758 L1188.24 686.758 L1188.24 651.241 L1188.24 686.758 L1228.13 686.758 L1228.13 877.183 L1188.24 877.183 
  L1188.24 878.719  Z
  " fill="#ff0000" fill-rule="evenodd" fill-opacity="1"/>
<polyline clip-path="url(#clip882)" style="stroke:#ff0000; stroke-linecap:butt; stroke-linejoin:round; stroke-width:2; stroke-opacity:1; fill:none" points="
  1188.24,878.719 1188.24,877.183 1148.35,877.183 1148.35,686.758 1188.24,686.758 1188.24,651.241 1188.24,686.758 1228.13,686.758 1228.13,877.183 1188.24,877.183 
  1188.24,878.719 
  "/>
<path clip-path="url(#clip882)" d="
M1276.89 1104.2 L1276.89 1099.2 L1237 1099.2 L1237 847.148 L1276.89 847.148 L1276.89 801.356 L1276.89 847.148 L1316.78 847.148 L1316.78 1099.2 L1276.89 1099.2 
  L1276.89 1104.2  Z
  " fill="#ff0000" fill-rule="evenodd" fill-opacity="1"/>
<polyline clip-path="url(#clip882)" style="stroke:#ff0000; stroke-linecap:butt; stroke-linejoin:round; stroke-width:2; stroke-opacity:1; fill:none" points="
  1276.89,1104.2 1276.89,1099.2 1237,1099.2 1237,847.148 1276.89,847.148 1276.89,801.356 1276.89,847.148 1316.78,847.148 1316.78,1099.2 1276.89,1099.2 
  1276.89,1104.2 
  "/>
<path clip-path="url(#clip882)" d="
M1365.53 776.725 L1365.53 737.191 L1325.64 737.191 L1325.64 577.632 L1365.53 577.632 L1365.53 553.457 L1365.53 577.632 L1405.42 577.632 L1405.42 737.191 L1365.53 737.191 
  L1365.53 776.725  Z
  " fill="#ff0000" fill-rule="evenodd" fill-opacity="1"/>
<polyline clip-path="url(#clip882)" style="stroke:#ff0000; stroke-linecap:butt; stroke-linejoin:round; stroke-width:2; stroke-opacity:1; fill:none" points="
  1365.53,776.725 1365.53,737.191 1325.64,737.191 1325.64,577.632 1365.53,577.632 1365.53,553.457 1365.53,577.632 1405.42,577.632 1405.42,737.191 1365.53,737.191 
  1365.53,776.725 
  "/>
<path clip-path="url(#clip882)" d="
M1454.17 655.676 L1454.17 640.147 L1414.29 640.147 L1414.29 521.318 L1454.17 521.318 L1454.17 504.196 L1454.17 521.318 L1494.06 521.318 L1494.06 640.147 L1454.17 640.147 
  L1454.17 655.676  Z
  " fill="#ff0000" fill-rule="evenodd" fill-opacity="1"/>
<polyline clip-path="url(#clip882)" style="stroke:#ff0000; stroke-linecap:butt; stroke-linejoin:round; stroke-width:2; stroke-opacity:1; fill:none" points="
  1454.17,655.676 1454.17,640.147 1414.29,640.147 1414.29,521.318 1454.17,521.318 1454.17,504.196 1454.17,521.318 1494.06,521.318 1494.06,640.147 1454.17,640.147 
  1454.17,655.676 
  "/>
<path clip-path="url(#clip882)" d="
M1542.82 554.765 L1542.82 515.573 L1502.93 515.573 L1502.93 289.916 L1542.82 289.916 L1542.82 222.736 L1542.82 289.916 L1582.71 289.916 L1582.71 515.573 L1542.82 515.573 
  L1542.82 554.765  Z
  " fill="#ff0000" fill-rule="evenodd" fill-opacity="1"/>
<polyline clip-path="url(#clip882)" style="stroke:#ff0000; stroke-linecap:butt; stroke-linejoin:round; stroke-width:2; stroke-opacity:1; fill:none" points="
  1542.82,554.765 1542.82,515.573 1502.93,515.573 1502.93,289.916 1542.82,289.916 1542.82,222.736 1542.82,289.916 1582.71,289.916 1582.71,515.573 1542.82,515.573 
  1542.82,554.765 
  "/>
<path clip-path="url(#clip882)" d="
M1631.46 310.848 L1631.46 276.263 L1591.57 276.263 L1591.57 214.089 L1631.46 214.089 L1631.46 140.767 L1631.46 214.089 L1671.35 214.089 L1671.35 276.263 L1631.46 276.263 
  L1631.46 310.848  Z
  " fill="#ff0000" fill-rule="evenodd" fill-opacity="1"/>
<polyline clip-path="url(#clip882)" style="stroke:#ff0000; stroke-linecap:butt; stroke-linejoin:round; stroke-width:2; stroke-opacity:1; fill:none" points="
  1631.46,310.848 1631.46,276.263 1591.57,276.263 1591.57,214.089 1631.46,214.089 1631.46,140.767 1631.46,214.089 1671.35,214.089 1671.35,276.263 1631.46,276.263 
  1631.46,310.848 
  "/>
<path clip-path="url(#clip882)" d="
M1720.11 256.667 L1720.11 254.847 L1680.22 254.847 L1680.22 137.125 L1720.11 137.125 L1720.11 83.5747 L1720.11 137.125 L1760 137.125 L1760 254.847 L1720.11 254.847 
  L1720.11 256.667  Z
  " fill="#ff0000" fill-rule="evenodd" fill-opacity="1"/>
<polyline clip-path="url(#clip882)" style="stroke:#ff0000; stroke-linecap:butt; stroke-linejoin:round; stroke-width:2; stroke-opacity:1; fill:none" points="
  1720.11,256.667 1720.11,254.847 1680.22,254.847 1680.22,137.125 1720.11,137.125 1720.11,83.5747 1720.11,137.125 1760,137.125 1760,254.847 1720.11,254.847 
  1720.11,256.667 
  "/>
<path clip-path="url(#clip882)" d="
M1808.75 316.48 L1808.75 313.579 L1768.86 313.579 L1768.86 117.729 L1808.75 117.729 L1808.75 100.322 L1808.75 117.729 L1848.64 117.729 L1848.64 313.579 L1808.75 313.579 
  L1808.75 316.48  Z
  " fill="#ff0000" fill-rule="evenodd" fill-opacity="1"/>
<polyline clip-path="url(#clip882)" style="stroke:#ff0000; stroke-linecap:butt; stroke-linejoin:round; stroke-width:2; stroke-opacity:1; fill:none" points="
  1808.75,316.48 1808.75,313.579 1768.86,313.579 1768.86,117.729 1808.75,117.729 1808.75,100.322 1808.75,117.729 1848.64,117.729 1848.64,313.579 1808.75,313.579 
  1808.75,316.48 
  "/>
<path clip-path="url(#clip882)" d="
M1897.39 284.113 L1897.39 262.099 L1857.5 262.099 L1857.5 202.94 L1897.39 202.94 L1897.39 167.786 L1897.39 202.94 L1937.28 202.94 L1937.28 262.099 L1897.39 262.099 
  L1897.39 284.113  Z
  " fill="#ff0000" fill-rule="evenodd" fill-opacity="1"/>
<polyline clip-path="url(#clip882)" style="stroke:#ff0000; stroke-linecap:butt; stroke-linejoin:round; stroke-width:2; stroke-opacity:1; fill:none" points="
  1897.39,284.113 1897.39,262.099 1857.5,262.099 1857.5,202.94 1897.39,202.94 1897.39,167.786 1897.39,202.94 1937.28,202.94 1937.28,262.099 1897.39,262.099 
  1897.39,284.113 
  "/>
<path clip-path="url(#clip882)" d="
M1986.04 300.098 L1986.04 202.712 L1946.15 202.712 L1946.15 158.286 L1986.04 158.286 L1986.04 111.864 L1986.04 158.286 L2025.93 158.286 L2025.93 202.712 L1986.04 202.712 
  L1986.04 300.098  Z
  " fill="#ff0000" fill-rule="evenodd" fill-opacity="1"/>
<polyline clip-path="url(#clip882)" style="stroke:#ff0000; stroke-linecap:butt; stroke-linejoin:round; stroke-width:2; stroke-opacity:1; fill:none" points="
  1986.04,300.098 1986.04,202.712 1946.15,202.712 1946.15,158.286 1986.04,158.286 1986.04,111.864 1986.04,158.286 2025.93,158.286 2025.93,202.712 1986.04,202.712 
  1986.04,300.098 
  "/>
<path clip-path="url(#clip882)" d="
M2074.68 303.966 L2074.68 206.808 L2034.79 206.808 L2034.79 127 L2074.68 127 L2074.68 88.945 L2074.68 127 L2114.57 127 L2114.57 206.808 L2074.68 206.808 
  L2074.68 303.966  Z
  " fill="#ff0000" fill-rule="evenodd" fill-opacity="1"/>
<polyline clip-path="url(#clip882)" style="stroke:#ff0000; stroke-linecap:butt; stroke-linejoin:round; stroke-width:2; stroke-opacity:1; fill:none" points="
  2074.68,303.966 2074.68,206.808 2034.79,206.808 2034.79,127 2074.68,127 2074.68,88.945 2074.68,127 2114.57,127 2114.57,206.808 2074.68,206.808 
  2074.68,303.966 
  "/>
<path clip-path="url(#clip882)" d="
M2163.32 425.525 L2163.32 356.184 L2123.43 356.184 L2123.43 301.633 L2163.32 301.633 L2163.32 272.423 L2163.32 301.633 L2203.21 301.633 L2203.21 356.184 L2163.32 356.184 
  L2163.32 425.525  Z
  " fill="#ff0000" fill-rule="evenodd" fill-opacity="1"/>
<polyline clip-path="url(#clip882)" style="stroke:#ff0000; stroke-linecap:butt; stroke-linejoin:round; stroke-width:2; stroke-opacity:1; fill:none" points="
  2163.32,425.525 2163.32,356.184 2123.43,356.184 2123.43,301.633 2163.32,301.633 2163.32,272.423 2163.32,301.633 2203.21,301.633 2203.21,356.184 2163.32,356.184 
  2163.32,425.525 
  "/>
<path clip-path="url(#clip882)" d="
M2251.97 226.774 L2251.97 356.184 L2212.08 356.184 L2212.08 179.002 L2251.97 179.002 L2251.97 163.577 L2251.97 179.002 L2291.86 179.002 L2291.86 356.184 L2251.97 356.184 
  L2251.97 226.774  Z
  " fill="#ff0000" fill-rule="evenodd" fill-opacity="1"/>
<polyline clip-path="url(#clip882)" style="stroke:#ff0000; stroke-linecap:butt; stroke-linejoin:round; stroke-width:2; stroke-opacity:1; fill:none" points="
  2251.97,226.774 2251.97,356.184 2212.08,356.184 2212.08,179.002 2251.97,179.002 2251.97,163.577 2251.97,179.002 2291.86,179.002 2291.86,356.184 2251.97,356.184 
  2251.97,226.774 
  "/>
<circle clip-path="url(#clip882)" cx="301.807" cy="544.043" r="3" fill="#ff0000" fill-rule="evenodd" fill-opacity="1" stroke="#000000" stroke-opacity="1" stroke-width="0"/>
<circle clip-path="url(#clip882)" cx="390.451" cy="540.715" r="3" fill="#ff0000" fill-rule="evenodd" fill-opacity="1" stroke="#000000" stroke-opacity="1" stroke-width="0"/>
<circle clip-path="url(#clip882)" cx="479.095" cy="521.289" r="3" fill="#008000" fill-rule="evenodd" fill-opacity="1" stroke="#000000" stroke-opacity="1" stroke-width="0"/>
<circle clip-path="url(#clip882)" cx="567.738" cy="331.583" r="3" fill="#ff0000" fill-rule="evenodd" fill-opacity="1" stroke="#000000" stroke-opacity="1" stroke-width="0"/>
<circle clip-path="url(#clip882)" cx="656.382" cy="565.204" r="3" fill="#ff0000" fill-rule="evenodd" fill-opacity="1" stroke="#000000" stroke-opacity="1" stroke-width="0"/>
<circle clip-path="url(#clip882)" cx="745.026" cy="894.93" r="3" fill="#008000" fill-rule="evenodd" fill-opacity="1" stroke="#000000" stroke-opacity="1" stroke-width="0"/>
<circle clip-path="url(#clip882)" cx="833.669" cy="1178.86" r="3" fill="#ff0000" fill-rule="evenodd" fill-opacity="1" stroke="#000000" stroke-opacity="1" stroke-width="0"/>
<circle clip-path="url(#clip882)" cx="922.313" cy="1115.52" r="3" fill="#008000" fill-rule="evenodd" fill-opacity="1" stroke="#000000" stroke-opacity="1" stroke-width="0"/>
<circle clip-path="url(#clip882)" cx="1010.96" cy="873.968" r="3" fill="#008000" fill-rule="evenodd" fill-opacity="1" stroke="#000000" stroke-opacity="1" stroke-width="0"/>
<circle clip-path="url(#clip882)" cx="1099.6" cy="809.292" r="3" fill="#008000" fill-rule="evenodd" fill-opacity="1" stroke="#000000" stroke-opacity="1" stroke-width="0"/>
<circle clip-path="url(#clip882)" cx="1188.24" cy="781.97" r="3" fill="#ff0000" fill-rule="evenodd" fill-opacity="1" stroke="#000000" stroke-opacity="1" stroke-width="0"/>
<circle clip-path="url(#clip882)" cx="1276.89" cy="973.174" r="3" fill="#008000" fill-rule="evenodd" fill-opacity="1" stroke="#000000" stroke-opacity="1" stroke-width="0"/>
<circle clip-path="url(#clip882)" cx="1365.53" cy="657.412" r="3" fill="#008000" fill-rule="evenodd" fill-opacity="1" stroke="#000000" stroke-opacity="1" stroke-width="0"/>
<circle clip-path="url(#clip882)" cx="1454.17" cy="580.733" r="3" fill="#ff0000" fill-rule="evenodd" fill-opacity="1" stroke="#000000" stroke-opacity="1" stroke-width="0"/>
<circle clip-path="url(#clip882)" cx="1542.82" cy="402.744" r="3" fill="#008000" fill-rule="evenodd" fill-opacity="1" stroke="#000000" stroke-opacity="1" stroke-width="0"/>
<circle clip-path="url(#clip882)" cx="1631.46" cy="245.176" r="3" fill="#ff0000" fill-rule="evenodd" fill-opacity="1" stroke="#000000" stroke-opacity="1" stroke-width="0"/>
<circle clip-path="url(#clip882)" cx="1720.11" cy="195.986" r="3" fill="#008000" fill-rule="evenodd" fill-opacity="1" stroke="#000000" stroke-opacity="1" stroke-width="0"/>
<circle clip-path="url(#clip882)" cx="1808.75" cy="215.654" r="3" fill="#ff0000" fill-rule="evenodd" fill-opacity="1" stroke="#000000" stroke-opacity="1" stroke-width="0"/>
<circle clip-path="url(#clip882)" cx="1897.39" cy="232.519" r="3" fill="#ff0000" fill-rule="evenodd" fill-opacity="1" stroke="#000000" stroke-opacity="1" stroke-width="0"/>
<circle clip-path="url(#clip882)" cx="1986.04" cy="180.499" r="3" fill="#008000" fill-rule="evenodd" fill-opacity="1" stroke="#000000" stroke-opacity="1" stroke-width="0"/>
<circle clip-path="url(#clip882)" cx="2074.68" cy="166.904" r="3" fill="#ff0000" fill-rule="evenodd" fill-opacity="1" stroke="#000000" stroke-opacity="1" stroke-width="0"/>
<circle clip-path="url(#clip882)" cx="2163.32" cy="328.908" r="3" fill="#008000" fill-rule="evenodd" fill-opacity="1" stroke="#000000" stroke-opacity="1" stroke-width="0"/>
<circle clip-path="url(#clip882)" cx="2251.97" cy="267.593" r="3" fill="#008000" fill-rule="evenodd" fill-opacity="1" stroke="#000000" stroke-opacity="1" stroke-width="0"/>
</svg>
