<?xml version="1.0" encoding="utf-8"?>
<svg xmlns="http://www.w3.org/2000/svg" xmlns:xlink="http://www.w3.org/1999/xlink" width="600" height="400" viewBox="0 0 2400 1600">
<defs>
  <clipPath id="clip310">
    <rect x="0" y="0" width="2400" height="1600"/>
  </clipPath>
</defs>
<path clip-path="url(#clip310)" d="
M0 1600 L2400 1600 L2400 0 L0 0  Z
  " fill="#ffffff" fill-rule="evenodd" fill-opacity="1"/>
<defs>
  <clipPath id="clip311">
    <rect x="480" y="0" width="1681" height="1600"/>
  </clipPath>
</defs>
<path clip-path="url(#clip310)" d="
M201.019 1330.92 L2352.76 1330.92 L2352.76 47.2441 L201.019 47.2441  Z
  " fill="#ffffff" fill-rule="evenodd" fill-opacity="1"/>
<defs>
  <clipPath id="clip312">
    <rect x="201" y="47" width="2153" height="1285"/>
  </clipPath>
</defs>
<polyline clip-path="url(#clip312)" style="stroke:#000000; stroke-linecap:butt; stroke-linejoin:round; stroke-width:2; stroke-opacity:0.1; fill:none" points="
  303.629,1330.92 303.629,47.2441 
  "/>
<polyline clip-path="url(#clip312)" style="stroke:#000000; stroke-linecap:butt; stroke-linejoin:round; stroke-width:2; stroke-opacity:0.1; fill:none" points="
  396.32,1330.92 396.32,47.2441 
  "/>
<polyline clip-path="url(#clip312)" style="stroke:#000000; stroke-linecap:butt; stroke-linejoin:round; stroke-width:2; stroke-opacity:0.1; fill:none" points="
  489.011,1330.92 489.011,47.2441 
  "/>
<polyline clip-path="url(#clip312)" style="stroke:#000000; stroke-linecap:butt; stroke-linejoin:round; stroke-width:2; stroke-opacity:0.1; fill:none" points="
  581.703,1330.92 581.703,47.2441 
  "/>
<polyline clip-path="url(#clip312)" style="stroke:#000000; stroke-linecap:butt; stroke-linejoin:round; stroke-width:2; stroke-opacity:0.1; fill:none" points="
  674.394,1330.92 674.394,47.2441 
  "/>
<polyline clip-path="url(#clip312)" style="stroke:#000000; stroke-linecap:butt; stroke-linejoin:round; stroke-width:2; stroke-opacity:0.1; fill:none" points="
  767.085,1330.92 767.085,47.2441 
  "/>
<polyline clip-path="url(#clip312)" style="stroke:#000000; stroke-linecap:butt; stroke-linejoin:round; stroke-width:2; stroke-opacity:0.1; fill:none" points="
  859.777,1330.92 859.777,47.2441 
  "/>
<polyline clip-path="url(#clip312)" style="stroke:#000000; stroke-linecap:butt; stroke-linejoin:round; stroke-width:2; stroke-opacity:0.1; fill:none" points="
  952.468,1330.92 952.468,47.2441 
  "/>
<polyline clip-path="url(#clip312)" style="stroke:#000000; stroke-linecap:butt; stroke-linejoin:round; stroke-width:2; stroke-opacity:0.1; fill:none" points="
  1045.16,1330.92 1045.16,47.2441 
  "/>
<polyline clip-path="url(#clip312)" style="stroke:#000000; stroke-linecap:butt; stroke-linejoin:round; stroke-width:2; stroke-opacity:0.1; fill:none" points="
  1137.85,1330.92 1137.85,47.2441 
  "/>
<polyline clip-path="url(#clip312)" style="stroke:#000000; stroke-linecap:butt; stroke-linejoin:round; stroke-width:2; stroke-opacity:0.1; fill:none" points="
  1230.54,1330.92 1230.54,47.2441 
  "/>
<polyline clip-path="url(#clip312)" style="stroke:#000000; stroke-linecap:butt; stroke-linejoin:round; stroke-width:2; stroke-opacity:0.1; fill:none" points="
  1323.23,1330.92 1323.23,47.2441 
  "/>
<polyline clip-path="url(#clip312)" style="stroke:#000000; stroke-linecap:butt; stroke-linejoin:round; stroke-width:2; stroke-opacity:0.1; fill:none" points="
  1415.92,1330.92 1415.92,47.2441 
  "/>
<polyline clip-path="url(#clip312)" style="stroke:#000000; stroke-linecap:butt; stroke-linejoin:round; stroke-width:2; stroke-opacity:0.1; fill:none" points="
  1508.62,1330.92 1508.62,47.2441 
  "/>
<polyline clip-path="url(#clip312)" style="stroke:#000000; stroke-linecap:butt; stroke-linejoin:round; stroke-width:2; stroke-opacity:0.1; fill:none" points="
  1601.31,1330.92 1601.31,47.2441 
  "/>
<polyline clip-path="url(#clip312)" style="stroke:#000000; stroke-linecap:butt; stroke-linejoin:round; stroke-width:2; stroke-opacity:0.1; fill:none" points="
  1694,1330.92 1694,47.2441 
  "/>
<polyline clip-path="url(#clip312)" style="stroke:#000000; stroke-linecap:butt; stroke-linejoin:round; stroke-width:2; stroke-opacity:0.1; fill:none" points="
  1786.69,1330.92 1786.69,47.2441 
  "/>
<polyline clip-path="url(#clip312)" style="stroke:#000000; stroke-linecap:butt; stroke-linejoin:round; stroke-width:2; stroke-opacity:0.1; fill:none" points="
  1879.38,1330.92 1879.38,47.2441 
  "/>
<polyline clip-path="url(#clip312)" style="stroke:#000000; stroke-linecap:butt; stroke-linejoin:round; stroke-width:2; stroke-opacity:0.1; fill:none" points="
  1972.07,1330.92 1972.07,47.2441 
  "/>
<polyline clip-path="url(#clip312)" style="stroke:#000000; stroke-linecap:butt; stroke-linejoin:round; stroke-width:2; stroke-opacity:0.1; fill:none" points="
  2064.76,1330.92 2064.76,47.2441 
  "/>
<polyline clip-path="url(#clip312)" style="stroke:#000000; stroke-linecap:butt; stroke-linejoin:round; stroke-width:2; stroke-opacity:0.1; fill:none" points="
  2157.46,1330.92 2157.46,47.2441 
  "/>
<polyline clip-path="url(#clip312)" style="stroke:#000000; stroke-linecap:butt; stroke-linejoin:round; stroke-width:2; stroke-opacity:0.1; fill:none" points="
  2250.15,1330.92 2250.15,47.2441 
  "/>
<polyline clip-path="url(#clip310)" style="stroke:#000000; stroke-linecap:butt; stroke-linejoin:round; stroke-width:4; stroke-opacity:1; fill:none" points="
  201.019,1330.92 2352.76,1330.92 
  "/>
<polyline clip-path="url(#clip310)" style="stroke:#000000; stroke-linecap:butt; stroke-linejoin:round; stroke-width:4; stroke-opacity:1; fill:none" points="
  303.629,1330.92 303.629,1315.52 
  "/>
<polyline clip-path="url(#clip310)" style="stroke:#000000; stroke-linecap:butt; stroke-linejoin:round; stroke-width:4; stroke-opacity:1; fill:none" points="
  396.32,1330.92 396.32,1315.52 
  "/>
<polyline clip-path="url(#clip310)" style="stroke:#000000; stroke-linecap:butt; stroke-linejoin:round; stroke-width:4; stroke-opacity:1; fill:none" points="
  489.011,1330.92 489.011,1315.52 
  "/>
<polyline clip-path="url(#clip310)" style="stroke:#000000; stroke-linecap:butt; stroke-linejoin:round; stroke-width:4; stroke-opacity:1; fill:none" points="
  581.703,1330.92 581.703,1315.52 
  "/>
<polyline clip-path="url(#clip310)" style="stroke:#000000; stroke-linecap:butt; stroke-linejoin:round; stroke-width:4; stroke-opacity:1; fill:none" points="
  674.394,1330.92 674.394,1315.52 
  "/>
<polyline clip-path="url(#clip310)" style="stroke:#000000; stroke-linecap:butt; stroke-linejoin:round; stroke-width:4; stroke-opacity:1; fill:none" points="
  767.085,1330.92 767.085,1315.52 
  "/>
<polyline clip-path="url(#clip310)" style="stroke:#000000; stroke-linecap:butt; stroke-linejoin:round; stroke-width:4; stroke-opacity:1; fill:none" points="
  859.777,1330.92 859.777,1315.52 
  "/>
<polyline clip-path="url(#clip310)" style="stroke:#000000; stroke-linecap:butt; stroke-linejoin:round; stroke-width:4; stroke-opacity:1; fill:none" points="
  952.468,1330.92 952.468,1315.52 
  "/>
<polyline clip-path="url(#clip310)" style="stroke:#000000; stroke-linecap:butt; stroke-linejoin:round; stroke-width:4; stroke-opacity:1; fill:none" points="
  1045.16,1330.92 1045.16,1315.52 
  "/>
<polyline clip-path="url(#clip310)" style="stroke:#000000; stroke-linecap:butt; stroke-linejoin:round; stroke-width:4; stroke-opacity:1; fill:none" points="
  1137.85,1330.92 1137.85,1315.52 
  "/>
<polyline clip-path="url(#clip310)" style="stroke:#000000; stroke-linecap:butt; stroke-linejoin:round; stroke-width:4; stroke-opacity:1; fill:none" points="
  1230.54,1330.92 1230.54,1315.52 
  "/>
<polyline clip-path="url(#clip310)" style="stroke:#000000; stroke-linecap:butt; stroke-linejoin:round; stroke-width:4; stroke-opacity:1; fill:none" points="
  1323.23,1330.92 1323.23,1315.52 
  "/>
<polyline clip-path="url(#clip310)" style="stroke:#000000; stroke-linecap:butt; stroke-linejoin:round; stroke-width:4; stroke-opacity:1; fill:none" points="
  1415.92,1330.92 1415.92,1315.52 
  "/>
<polyline clip-path="url(#clip310)" style="stroke:#000000; stroke-linecap:butt; stroke-linejoin:round; stroke-width:4; stroke-opacity:1; fill:none" points="
  1508.62,1330.92 1508.62,1315.52 
  "/>
<polyline clip-path="url(#clip310)" style="stroke:#000000; stroke-linecap:butt; stroke-linejoin:round; stroke-width:4; stroke-opacity:1; fill:none" points="
  1601.31,1330.92 1601.31,1315.52 
  "/>
<polyline clip-path="url(#clip310)" style="stroke:#000000; stroke-linecap:butt; stroke-linejoin:round; stroke-width:4; stroke-opacity:1; fill:none" points="
  1694,1330.92 1694,1315.52 
  "/>
<polyline clip-path="url(#clip310)" style="stroke:#000000; stroke-linecap:butt; stroke-linejoin:round; stroke-width:4; stroke-opacity:1; fill:none" points="
  1786.69,1330.92 1786.69,1315.52 
  "/>
<polyline clip-path="url(#clip310)" style="stroke:#000000; stroke-linecap:butt; stroke-linejoin:round; stroke-width:4; stroke-opacity:1; fill:none" points="
  1879.38,1330.92 1879.38,1315.52 
  "/>
<polyline clip-path="url(#clip310)" style="stroke:#000000; stroke-linecap:butt; stroke-linejoin:round; stroke-width:4; stroke-opacity:1; fill:none" points="
  1972.07,1330.92 1972.07,1315.52 
  "/>
<polyline clip-path="url(#clip310)" style="stroke:#000000; stroke-linecap:butt; stroke-linejoin:round; stroke-width:4; stroke-opacity:1; fill:none" points="
  2064.76,1330.92 2064.76,1315.52 
  "/>
<polyline clip-path="url(#clip310)" style="stroke:#000000; stroke-linecap:butt; stroke-linejoin:round; stroke-width:4; stroke-opacity:1; fill:none" points="
  2157.46,1330.92 2157.46,1315.52 
  "/>
<polyline clip-path="url(#clip310)" style="stroke:#000000; stroke-linecap:butt; stroke-linejoin:round; stroke-width:4; stroke-opacity:1; fill:none" points="
  2250.15,1330.92 2250.15,1315.52 
  "/>
<path clip-path="url(#clip310)" d="M204.262 1597.31 L212.422 1583.17 L215.83 1585.14 L204.858 1604.15 L201.45 1602.18 Q200.395 1598.5 198.677 1592.21 Q196.951 1585.9 196.379 1584.2 Q195.316 1581 194.253 1579.37 Q193.181 1577.7 191.717 1576.86 Q189.332 1575.48 186.856 1576.3 Q184.392 1577.09 182.841 1579.78 Q181.741 1581.68 181.176 1584.19 Q180.622 1586.68 180.576 1589.86 L176.487 1587.5 Q176.917 1584.49 177.642 1582.07 Q178.368 1579.66 179.386 1577.89 Q182.072 1573.24 185.994 1571.82 Q189.917 1570.39 193.806 1572.64 Q195.65 1573.7 196.909 1575.37 Q198.159 1577 199.351 1580.12 Q199.643 1580.95 200.879 1585.25 Q202.095 1589.53 204.262 1597.31 Z" fill="#000000" fill-rule="evenodd" fill-opacity="1" /><path clip-path="url(#clip310)" d="M198.474 1552.24 Q196.668 1555.37 198.841 1558.73 Q201.005 1562.07 207.18 1565.63 Q213.334 1569.19 217.324 1569.4 Q221.305 1569.59 223.111 1566.46 Q224.928 1563.32 222.764 1559.98 Q220.591 1556.62 214.437 1553.06 Q208.262 1549.5 204.281 1549.31 Q200.291 1549.09 198.474 1552.24 M195.266 1550.39 Q198.171 1545.36 203.688 1545.01 Q209.197 1544.64 216.774 1549.01 Q224.332 1553.38 226.782 1558.35 Q229.224 1563.28 226.319 1568.32 Q223.413 1573.35 217.905 1573.72 Q212.388 1574.07 204.83 1569.7 Q197.252 1565.33 194.811 1560.39 Q192.361 1555.42 195.266 1550.39 Z" fill="#000000" fill-rule="evenodd" fill-opacity="1" /><path clip-path="url(#clip310)" d="M234.424 1545.06 L242.584 1530.93 L245.992 1532.9 L235.02 1551.9 L231.612 1549.94 Q230.557 1546.25 228.839 1539.97 Q227.113 1533.65 226.541 1531.96 Q225.478 1528.75 224.415 1527.12 Q223.342 1525.46 221.879 1524.62 Q219.493 1523.24 217.018 1524.06 Q214.554 1524.85 213.003 1527.54 Q211.903 1529.44 211.338 1531.95 Q210.784 1534.44 210.738 1537.62 L206.649 1535.26 Q207.079 1532.24 207.804 1529.83 Q208.53 1527.41 209.548 1525.65 Q212.234 1521 216.156 1519.58 Q220.079 1518.15 223.968 1520.4 Q225.812 1521.46 227.071 1523.12 Q228.321 1524.76 229.513 1527.88 Q229.805 1528.71 231.041 1533.01 Q232.256 1537.29 234.424 1545.06 Z" fill="#000000" fill-rule="evenodd" fill-opacity="1" /><path clip-path="url(#clip310)" d="M247.896 1521.73 L251.716 1515.11 L228.882 1501.93 L226.171 1509.96 L222.482 1507.83 L225.171 1499.84 L227.509 1495.79 L254.03 1511.11 L257.85 1504.49 L261.258 1506.46 L251.304 1523.7 L247.896 1521.73 Z" fill="#000000" fill-rule="evenodd" fill-opacity="1" /><path clip-path="url(#clip310)" d="M251.713 1493.22 L257.951 1482.42 L261.239 1484.31 L255 1495.12 L251.713 1493.22 Z" fill="#000000" fill-rule="evenodd" fill-opacity="1" /><path clip-path="url(#clip310)" d="M252.27 1459.06 Q250.464 1462.19 252.637 1465.56 Q254.801 1468.89 260.976 1472.46 Q267.13 1476.01 271.12 1476.23 Q275.101 1476.41 276.907 1473.29 Q278.724 1470.14 276.56 1466.81 Q274.387 1463.44 268.233 1459.89 Q262.058 1456.32 258.077 1456.13 Q254.087 1455.92 252.27 1459.06 M249.062 1457.21 Q251.967 1452.18 257.484 1451.84 Q262.993 1451.46 270.57 1455.84 Q278.128 1460.2 280.578 1465.17 Q283.02 1470.11 280.115 1475.14 Q277.209 1480.17 271.701 1480.55 Q266.184 1480.89 258.626 1476.53 Q251.048 1472.15 248.607 1467.21 Q246.157 1462.24 249.062 1457.21 Z" fill="#000000" fill-rule="evenodd" fill-opacity="1" /><path clip-path="url(#clip310)" d="M259.707 1440.02 L268.886 1424.13 L272.294 1426.09 L265.257 1438.28 L272.594 1442.52 Q272.802 1441.46 273.171 1440.5 Q273.52 1439.52 274.029 1438.64 Q276.923 1433.63 281.359 1432.29 Q285.795 1430.95 290.486 1433.66 Q295.317 1436.45 296.268 1441 Q297.198 1445.55 294.038 1451.02 Q292.95 1452.91 291.495 1454.69 Q290.052 1456.45 288.206 1458.16 L284.137 1455.81 Q286.161 1454.57 287.753 1452.93 Q289.345 1451.28 290.584 1449.14 Q292.586 1445.67 291.931 1442.59 Q291.276 1439.51 288.148 1437.71 Q285.021 1435.9 282.028 1436.87 Q279.034 1437.84 277.032 1441.31 Q276.095 1442.94 275.518 1444.77 Q274.953 1446.58 274.743 1448.7 L259.707 1440.02 Z" fill="#000000" fill-rule="evenodd" fill-opacity="1" /><path clip-path="url(#clip310)" d="M290.428 1426.17 L296.666 1415.36 L299.954 1417.26 L293.715 1428.06 L290.428 1426.17 Z" fill="#000000" fill-rule="evenodd" fill-opacity="1" /><path clip-path="url(#clip310)" d="M290.985 1392.01 Q289.179 1395.13 291.352 1398.5 Q293.516 1401.83 299.691 1405.4 Q305.845 1408.95 309.835 1409.17 Q313.817 1409.36 315.622 1406.23 Q317.439 1403.08 315.275 1399.75 Q313.102 1396.38 306.948 1392.83 Q300.773 1389.26 296.792 1389.08 Q292.802 1388.86 290.985 1392.01 M287.777 1390.15 Q290.682 1385.12 296.199 1384.78 Q301.708 1384.41 309.286 1388.78 Q316.843 1393.14 319.293 1398.11 Q321.735 1403.05 318.83 1408.08 Q315.925 1413.11 310.416 1413.49 Q304.899 1413.83 297.341 1409.47 Q289.764 1405.09 287.322 1400.16 Q284.872 1395.19 287.777 1390.15 Z" fill="#000000" fill-rule="evenodd" fill-opacity="1" /><path clip-path="url(#clip310)" d="M308.351 1363.92 L318.426 1383.37 L324.328 1373.14 L308.351 1363.92 M304.21 1362.94 L307.149 1357.85 L326.655 1369.11 L329.12 1364.84 L332.488 1366.79 L330.023 1371.06 L337.079 1375.13 L334.753 1379.16 L327.696 1375.09 L319.895 1388.6 L315.986 1386.34 L304.21 1362.94 Z" fill="#000000" fill-rule="evenodd" fill-opacity="1" /><path clip-path="url(#clip310)" d="M483.031 1596.1 L491.19 1581.97 L494.598 1583.94 L483.626 1602.94 L480.218 1600.97 Q479.164 1597.29 477.446 1591.01 Q475.72 1584.69 475.147 1583 Q474.085 1579.79 473.021 1578.16 Q471.949 1576.5 470.486 1575.66 Q468.1 1574.28 465.624 1575.1 Q463.16 1575.89 461.609 1578.58 Q460.51 1580.48 459.944 1582.99 Q459.391 1585.48 459.345 1588.66 L455.255 1586.3 Q455.685 1583.28 456.411 1580.87 Q457.136 1578.45 458.155 1576.69 Q460.84 1572.04 464.763 1570.62 Q468.685 1569.19 472.574 1571.44 Q474.419 1572.5 475.678 1574.16 Q476.928 1575.79 478.12 1578.91 Q478.412 1579.75 479.647 1584.05 Q480.863 1588.33 483.031 1596.1 Z" fill="#000000" fill-rule="evenodd" fill-opacity="1" /><path clip-path="url(#clip310)" d="M477.242 1551.04 Q475.436 1554.16 477.609 1557.53 Q479.774 1560.87 485.948 1564.43 Q492.102 1567.98 496.092 1568.2 Q500.074 1568.39 501.879 1565.26 Q503.697 1562.11 501.532 1558.78 Q499.359 1555.41 493.205 1551.86 Q487.031 1548.3 483.049 1548.11 Q479.059 1547.89 477.242 1551.04 M474.034 1549.19 Q476.94 1544.15 482.457 1543.81 Q487.965 1543.44 495.543 1547.81 Q503.101 1552.17 505.551 1557.14 Q507.992 1562.08 505.087 1567.11 Q502.182 1572.15 496.673 1572.52 Q491.156 1572.86 483.599 1568.5 Q476.021 1564.12 473.579 1559.19 Q471.129 1554.22 474.034 1549.19 Z" fill="#000000" fill-rule="evenodd" fill-opacity="1" /><path clip-path="url(#clip310)" d="M513.192 1543.86 L521.352 1529.73 L524.76 1531.7 L513.788 1550.7 L510.38 1548.73 Q509.325 1545.05 507.608 1538.77 Q505.882 1532.45 505.309 1530.76 Q504.247 1527.55 503.183 1525.92 Q502.111 1524.26 500.647 1523.41 Q498.262 1522.04 495.786 1522.85 Q493.322 1523.65 491.771 1526.34 Q490.672 1528.24 490.106 1530.75 Q489.553 1533.23 489.507 1536.41 L485.417 1534.05 Q485.847 1531.04 486.573 1528.63 Q487.298 1526.21 488.317 1524.45 Q491.002 1519.8 494.925 1518.37 Q498.847 1516.95 502.736 1519.19 Q504.581 1520.26 505.839 1521.92 Q507.09 1523.55 508.282 1526.67 Q508.574 1527.51 509.809 1531.8 Q511.025 1536.09 513.192 1543.86 Z" fill="#000000" fill-rule="evenodd" fill-opacity="1" /><path clip-path="url(#clip310)" d="M526.665 1520.53 L530.484 1513.91 L507.651 1500.73 L504.939 1508.76 L501.25 1506.63 L503.939 1498.64 L506.277 1494.59 L532.799 1509.9 L536.618 1503.29 L540.026 1505.25 L530.073 1522.49 L526.665 1520.53 Z" fill="#000000" fill-rule="evenodd" fill-opacity="1" /><path clip-path="url(#clip310)" d="M530.481 1492.02 L536.719 1481.21 L540.007 1483.11 L533.769 1493.92 L530.481 1492.02 Z" fill="#000000" fill-rule="evenodd" fill-opacity="1" /><path clip-path="url(#clip310)" d="M531.038 1457.86 Q529.232 1460.99 531.405 1464.35 Q533.57 1467.69 539.744 1471.25 Q545.898 1474.81 549.888 1475.02 Q553.87 1475.21 555.675 1472.08 Q557.493 1468.94 555.328 1465.6 Q553.155 1462.24 547.001 1458.68 Q540.827 1455.12 536.845 1454.93 Q532.855 1454.71 531.038 1457.86 M527.83 1456.01 Q530.736 1450.98 536.253 1450.63 Q541.761 1450.26 549.339 1454.63 Q556.897 1459 559.347 1463.97 Q561.788 1468.9 558.883 1473.94 Q555.978 1478.97 550.469 1479.34 Q544.952 1479.69 537.395 1475.32 Q529.817 1470.95 527.375 1466.01 Q524.925 1461.04 527.83 1456.01 Z" fill="#000000" fill-rule="evenodd" fill-opacity="1" /><path clip-path="url(#clip310)" d="M538.476 1438.82 L547.654 1422.92 L551.062 1424.89 L544.025 1437.08 L551.362 1441.31 Q551.571 1440.26 551.94 1439.3 Q552.288 1438.32 552.798 1437.44 Q555.691 1432.43 560.127 1431.09 Q564.564 1429.75 569.255 1432.45 Q574.086 1435.24 575.036 1439.8 Q575.966 1444.35 572.806 1449.82 Q571.719 1451.7 570.264 1453.48 Q568.82 1455.24 566.975 1456.96 L562.905 1454.61 Q564.929 1453.37 566.522 1451.72 Q568.114 1450.08 569.352 1447.93 Q571.355 1444.46 570.699 1441.39 Q570.044 1438.31 566.917 1436.5 Q563.789 1434.7 560.796 1435.67 Q557.803 1436.64 555.801 1440.11 Q554.863 1441.73 554.286 1443.56 Q553.721 1445.38 553.511 1447.5 L538.476 1438.82 Z" fill="#000000" fill-rule="evenodd" fill-opacity="1" /><path clip-path="url(#clip310)" d="M569.196 1424.96 L575.435 1414.16 L578.722 1416.06 L572.484 1426.86 L569.196 1424.96 Z" fill="#000000" fill-rule="evenodd" fill-opacity="1" /><path clip-path="url(#clip310)" d="M569.753 1390.8 Q567.948 1393.93 570.12 1397.3 Q572.285 1400.63 578.459 1404.2 Q584.614 1407.75 588.603 1407.97 Q592.585 1408.16 594.391 1405.03 Q596.208 1401.88 594.043 1398.55 Q591.87 1395.18 585.716 1391.63 Q579.542 1388.06 575.56 1387.87 Q571.57 1387.66 569.753 1390.8 M566.546 1388.95 Q569.451 1383.92 574.968 1383.58 Q580.476 1383.2 588.054 1387.58 Q595.612 1391.94 598.062 1396.91 Q600.503 1401.85 597.598 1406.88 Q594.693 1411.91 589.184 1412.29 Q583.667 1412.63 576.11 1408.27 Q568.532 1403.89 566.09 1398.95 Q563.64 1393.98 566.546 1388.95 Z" fill="#000000" fill-rule="evenodd" fill-opacity="1" /><path clip-path="url(#clip310)" d="M576.578 1372.83 L587.689 1353.58 L589.413 1354.58 L611.345 1381.73 L608.903 1385.96 L588.284 1360.42 L579.985 1374.79 L576.578 1372.83 Z" fill="#000000" fill-rule="evenodd" fill-opacity="1" /><path clip-path="url(#clip310)" d="M761.452 1595.5 L769.611 1581.37 L773.019 1583.34 L762.047 1602.34 L758.639 1600.37 Q757.585 1596.69 755.867 1590.41 Q754.141 1584.09 753.568 1582.4 Q752.506 1579.19 751.442 1577.56 Q750.37 1575.9 748.907 1575.06 Q746.521 1573.68 744.045 1574.49 Q741.581 1575.29 740.03 1577.98 Q738.931 1579.88 738.366 1582.39 Q737.812 1584.87 737.766 1588.06 L733.677 1585.69 Q734.106 1582.68 734.832 1580.27 Q735.558 1577.85 736.576 1576.09 Q739.261 1571.44 743.184 1570.01 Q747.107 1568.59 750.996 1570.84 Q752.84 1571.9 754.099 1573.56 Q755.349 1575.19 756.541 1578.31 Q756.833 1579.15 758.069 1583.45 Q759.284 1587.73 761.452 1595.5 Z" fill="#000000" fill-rule="evenodd" fill-opacity="1" /><path clip-path="url(#clip310)" d="M755.663 1550.44 Q753.858 1553.56 756.03 1556.93 Q758.195 1560.26 764.369 1563.83 Q770.524 1567.38 774.514 1567.6 Q778.495 1567.79 780.301 1564.66 Q782.118 1561.51 779.953 1558.18 Q777.781 1554.81 771.626 1551.26 Q765.452 1547.69 761.47 1547.51 Q757.48 1547.29 755.663 1550.44 M752.456 1548.58 Q755.361 1543.55 760.878 1543.21 Q766.386 1542.83 773.964 1547.21 Q781.522 1551.57 783.972 1556.54 Q786.413 1561.48 783.508 1566.51 Q780.603 1571.54 775.094 1571.92 Q769.577 1572.26 762.02 1567.9 Q754.442 1563.52 752.001 1558.59 Q749.551 1553.62 752.456 1548.58 Z" fill="#000000" fill-rule="evenodd" fill-opacity="1" /><path clip-path="url(#clip310)" d="M791.614 1543.26 L799.773 1529.13 L803.181 1531.09 L792.209 1550.1 L788.801 1548.13 Q787.747 1544.45 786.029 1538.16 Q784.303 1531.85 783.73 1530.16 Q782.668 1526.95 781.604 1525.32 Q780.532 1523.66 779.069 1522.81 Q776.683 1521.44 774.207 1522.25 Q771.743 1523.05 770.192 1525.73 Q769.093 1527.64 768.527 1530.15 Q767.974 1532.63 767.928 1535.81 L763.838 1533.45 Q764.268 1530.44 764.994 1528.02 Q765.72 1525.61 766.738 1523.85 Q769.423 1519.2 773.346 1517.77 Q777.268 1516.35 781.158 1518.59 Q783.002 1519.66 784.261 1521.32 Q785.511 1522.95 786.703 1526.07 Q786.995 1526.91 788.231 1531.2 Q789.446 1535.49 791.614 1543.26 Z" fill="#000000" fill-rule="evenodd" fill-opacity="1" /><path clip-path="url(#clip310)" d="M805.086 1519.93 L808.905 1513.31 L786.072 1500.13 L783.36 1508.16 L779.672 1506.03 L782.36 1498.04 L784.698 1493.99 L811.22 1509.3 L815.039 1502.69 L818.447 1504.65 L808.494 1521.89 L805.086 1519.93 Z" fill="#000000" fill-rule="evenodd" fill-opacity="1" /><path clip-path="url(#clip310)" d="M808.902 1491.42 L815.141 1480.61 L818.428 1482.51 L812.19 1493.32 L808.902 1491.42 Z" fill="#000000" fill-rule="evenodd" fill-opacity="1" /><path clip-path="url(#clip310)" d="M809.459 1457.26 Q807.654 1460.39 809.827 1463.75 Q811.991 1467.09 818.165 1470.65 Q824.32 1474.2 828.31 1474.42 Q832.291 1474.61 834.097 1471.48 Q835.914 1468.34 833.749 1465 Q831.577 1461.64 825.422 1458.08 Q819.248 1454.52 815.266 1454.33 Q811.276 1454.11 809.459 1457.26 M806.252 1455.41 Q809.157 1450.38 814.674 1450.03 Q820.182 1449.66 827.76 1454.03 Q835.318 1458.4 837.768 1463.37 Q840.209 1468.3 837.304 1473.33 Q834.399 1478.37 828.89 1478.74 Q823.373 1479.08 815.816 1474.72 Q808.238 1470.35 805.797 1465.41 Q803.347 1460.44 806.252 1455.41 Z" fill="#000000" fill-rule="evenodd" fill-opacity="1" /><path clip-path="url(#clip310)" d="M816.897 1438.22 L826.075 1422.32 L829.483 1424.29 L822.446 1436.48 L829.783 1440.71 Q829.992 1439.66 830.361 1438.69 Q830.71 1437.72 831.219 1436.84 Q834.112 1431.83 838.549 1430.49 Q842.985 1429.14 847.676 1431.85 Q852.507 1434.64 853.457 1439.2 Q854.387 1443.75 851.228 1449.22 Q850.14 1451.1 848.685 1452.88 Q847.241 1454.64 845.396 1456.36 L841.327 1454.01 Q843.351 1452.77 844.943 1451.12 Q846.535 1449.48 847.773 1447.33 Q849.776 1443.86 849.12 1440.79 Q848.465 1437.71 845.338 1435.9 Q842.211 1434.1 839.217 1435.07 Q836.224 1436.04 834.222 1439.51 Q833.284 1441.13 832.708 1442.96 Q832.143 1444.78 831.932 1446.9 L816.897 1438.22 Z" fill="#000000" fill-rule="evenodd" fill-opacity="1" /><path clip-path="url(#clip310)" d="M847.617 1424.36 L853.856 1413.56 L857.143 1415.45 L850.905 1426.26 L847.617 1424.36 Z" fill="#000000" fill-rule="evenodd" fill-opacity="1" /><path clip-path="url(#clip310)" d="M867.435 1411.93 L871.254 1405.32 L848.421 1392.14 L845.709 1400.17 L842.021 1398.04 L844.709 1390.05 L847.047 1386 L873.569 1401.31 L877.389 1394.69 L880.797 1396.66 L870.843 1413.9 L867.435 1411.93 Z" fill="#000000" fill-rule="evenodd" fill-opacity="1" /><path clip-path="url(#clip310)" d="M884.125 1383.03 L892.284 1368.89 L895.692 1370.86 L884.72 1389.87 L881.312 1387.9 Q880.258 1384.22 878.54 1377.93 Q876.814 1371.62 876.241 1369.92 Q875.179 1366.72 874.115 1365.09 Q873.043 1363.42 871.58 1362.58 Q869.194 1361.2 866.718 1362.02 Q864.254 1362.81 862.703 1365.5 Q861.604 1367.4 861.039 1369.91 Q860.485 1372.4 860.439 1375.58 L856.35 1373.22 Q856.779 1370.21 857.505 1367.79 Q858.231 1365.38 859.249 1363.61 Q861.934 1358.96 865.857 1357.54 Q869.78 1356.11 873.669 1358.36 Q875.513 1359.42 876.772 1361.09 Q878.022 1362.72 879.214 1365.84 Q879.506 1366.67 880.742 1370.97 Q881.957 1375.25 884.125 1383.03 Z" fill="#000000" fill-rule="evenodd" fill-opacity="1" /><path clip-path="url(#clip310)" d="M1039.18 1596.1 L1047.34 1581.97 L1050.75 1583.94 L1039.77 1602.94 L1036.37 1600.97 Q1035.31 1597.29 1033.59 1591.01 Q1031.87 1584.69 1031.3 1583 Q1030.23 1579.79 1029.17 1578.16 Q1028.1 1576.5 1026.63 1575.66 Q1024.25 1574.28 1021.77 1575.1 Q1019.31 1575.89 1017.76 1578.58 Q1016.66 1580.48 1016.09 1582.99 Q1015.54 1585.48 1015.49 1588.66 L1011.4 1586.3 Q1011.83 1583.28 1012.56 1580.87 Q1013.28 1578.45 1014.3 1576.69 Q1016.99 1572.04 1020.91 1570.62 Q1024.83 1569.19 1028.72 1571.44 Q1030.57 1572.5 1031.83 1574.16 Q1033.08 1575.79 1034.27 1578.91 Q1034.56 1579.75 1035.8 1584.05 Q1037.01 1588.33 1039.18 1596.1 Z" fill="#000000" fill-rule="evenodd" fill-opacity="1" /><path clip-path="url(#clip310)" d="M1033.39 1551.04 Q1031.58 1554.16 1033.76 1557.53 Q1035.92 1560.87 1042.1 1564.43 Q1048.25 1567.98 1052.24 1568.2 Q1056.22 1568.39 1058.03 1565.26 Q1059.84 1562.11 1057.68 1558.78 Q1055.51 1555.41 1049.35 1551.86 Q1043.18 1548.3 1039.2 1548.11 Q1035.21 1547.89 1033.39 1551.04 M1030.18 1549.19 Q1033.09 1544.15 1038.6 1543.81 Q1044.11 1543.44 1051.69 1547.81 Q1059.25 1552.17 1061.7 1557.14 Q1064.14 1562.08 1061.23 1567.11 Q1058.33 1572.15 1052.82 1572.52 Q1047.3 1572.86 1039.75 1568.5 Q1032.17 1564.12 1029.73 1559.19 Q1027.28 1554.22 1030.18 1549.19 Z" fill="#000000" fill-rule="evenodd" fill-opacity="1" /><path clip-path="url(#clip310)" d="M1069.34 1543.86 L1077.5 1529.73 L1080.91 1531.7 L1069.94 1550.7 L1066.53 1548.73 Q1065.47 1545.05 1063.76 1538.77 Q1062.03 1532.45 1061.46 1530.76 Q1060.39 1527.55 1059.33 1525.92 Q1058.26 1524.26 1056.8 1523.41 Q1054.41 1522.04 1051.93 1522.85 Q1049.47 1523.65 1047.92 1526.34 Q1046.82 1528.24 1046.25 1530.75 Q1045.7 1533.23 1045.65 1536.41 L1041.57 1534.05 Q1041.99 1531.04 1042.72 1528.63 Q1043.45 1526.21 1044.46 1524.45 Q1047.15 1519.8 1051.07 1518.37 Q1055 1516.95 1058.88 1519.19 Q1060.73 1520.26 1061.99 1521.92 Q1063.24 1523.55 1064.43 1526.67 Q1064.72 1527.51 1065.96 1531.8 Q1067.17 1536.09 1069.34 1543.86 Z" fill="#000000" fill-rule="evenodd" fill-opacity="1" /><path clip-path="url(#clip310)" d="M1082.81 1520.53 L1086.63 1513.91 L1063.8 1500.73 L1061.09 1508.76 L1057.4 1506.63 L1060.09 1498.64 L1062.42 1494.59 L1088.95 1509.9 L1092.77 1503.29 L1096.17 1505.25 L1086.22 1522.49 L1082.81 1520.53 Z" fill="#000000" fill-rule="evenodd" fill-opacity="1" /><path clip-path="url(#clip310)" d="M1086.63 1492.02 L1092.87 1481.21 L1096.16 1483.11 L1089.92 1493.92 L1086.63 1492.02 Z" fill="#000000" fill-rule="evenodd" fill-opacity="1" /><path clip-path="url(#clip310)" d="M1087.19 1457.86 Q1085.38 1460.99 1087.55 1464.35 Q1089.72 1467.69 1095.89 1471.25 Q1102.05 1474.81 1106.04 1475.02 Q1110.02 1475.21 1111.82 1472.08 Q1113.64 1468.94 1111.48 1465.6 Q1109.3 1462.24 1103.15 1458.68 Q1096.97 1455.12 1092.99 1454.93 Q1089 1454.71 1087.19 1457.86 M1083.98 1456.01 Q1086.88 1450.98 1092.4 1450.63 Q1097.91 1450.26 1105.49 1454.63 Q1113.04 1459 1115.49 1463.97 Q1117.94 1468.9 1115.03 1473.94 Q1112.13 1478.97 1106.62 1479.34 Q1101.1 1479.69 1093.54 1475.32 Q1085.96 1470.95 1083.52 1466.01 Q1081.07 1461.04 1083.98 1456.01 Z" fill="#000000" fill-rule="evenodd" fill-opacity="1" /><path clip-path="url(#clip310)" d="M1094.62 1438.82 L1103.8 1422.92 L1107.21 1424.89 L1100.17 1437.08 L1107.51 1441.31 Q1107.72 1440.26 1108.09 1439.3 Q1108.44 1438.32 1108.95 1437.44 Q1111.84 1432.43 1116.28 1431.09 Q1120.71 1429.75 1125.4 1432.45 Q1130.23 1435.24 1131.18 1439.8 Q1132.11 1444.35 1128.95 1449.82 Q1127.87 1451.7 1126.41 1453.48 Q1124.97 1455.24 1123.12 1456.96 L1119.05 1454.61 Q1121.08 1453.37 1122.67 1451.72 Q1124.26 1450.08 1125.5 1447.93 Q1127.5 1444.46 1126.85 1441.39 Q1126.19 1438.31 1123.06 1436.5 Q1119.94 1434.7 1116.94 1435.67 Q1113.95 1436.64 1111.95 1440.11 Q1111.01 1441.73 1110.43 1443.56 Q1109.87 1445.38 1109.66 1447.5 L1094.62 1438.82 Z" fill="#000000" fill-rule="evenodd" fill-opacity="1" /><path clip-path="url(#clip310)" d="M1125.34 1424.96 L1131.58 1414.16 L1134.87 1416.06 L1128.63 1426.86 L1125.34 1424.96 Z" fill="#000000" fill-rule="evenodd" fill-opacity="1" /><path clip-path="url(#clip310)" d="M1145.16 1412.54 L1148.98 1405.92 L1126.15 1392.74 L1123.44 1400.77 L1119.75 1398.64 L1122.44 1390.65 L1124.77 1386.6 L1151.3 1401.91 L1155.12 1395.3 L1158.52 1397.26 L1148.57 1414.5 L1145.16 1412.54 Z" fill="#000000" fill-rule="evenodd" fill-opacity="1" /><path clip-path="url(#clip310)" d="M1132.73 1372.83 L1143.84 1353.58 L1145.56 1354.58 L1167.49 1381.73 L1165.05 1385.96 L1144.43 1360.42 L1136.13 1374.79 L1132.73 1372.83 Z" fill="#000000" fill-rule="evenodd" fill-opacity="1" /><path clip-path="url(#clip310)" d="M1316.8 1596.89 L1324.96 1582.75 L1328.37 1584.72 L1317.4 1603.72 L1313.99 1601.76 Q1312.93 1598.07 1311.22 1591.79 Q1309.49 1585.47 1308.92 1583.78 Q1307.86 1580.57 1306.79 1578.94 Q1305.72 1577.28 1304.26 1576.44 Q1301.87 1575.06 1299.39 1575.88 Q1296.93 1576.67 1295.38 1579.36 Q1294.28 1581.26 1293.71 1583.77 Q1293.16 1586.26 1293.12 1589.44 L1289.03 1587.08 Q1289.46 1584.06 1290.18 1581.65 Q1290.91 1579.24 1291.93 1577.47 Q1294.61 1572.82 1298.53 1571.4 Q1302.46 1569.97 1306.35 1572.22 Q1308.19 1573.28 1309.45 1574.95 Q1310.7 1576.58 1311.89 1579.7 Q1312.18 1580.53 1313.42 1584.83 Q1314.63 1589.11 1316.8 1596.89 Z" fill="#000000" fill-rule="evenodd" fill-opacity="1" /><path clip-path="url(#clip310)" d="M1311.01 1551.82 Q1309.21 1554.95 1311.38 1558.31 Q1313.54 1561.65 1319.72 1565.21 Q1325.87 1568.77 1329.86 1568.98 Q1333.84 1569.17 1335.65 1566.04 Q1337.47 1562.9 1335.3 1559.56 Q1333.13 1556.2 1326.98 1552.64 Q1320.8 1549.08 1316.82 1548.89 Q1312.83 1548.67 1311.01 1551.82 M1307.81 1549.97 Q1310.71 1544.94 1316.23 1544.59 Q1321.74 1544.22 1329.31 1548.59 Q1336.87 1552.96 1339.32 1557.93 Q1341.76 1562.86 1338.86 1567.9 Q1335.95 1572.93 1330.44 1573.3 Q1324.93 1573.64 1317.37 1569.28 Q1309.79 1564.91 1307.35 1559.97 Q1304.9 1555 1307.81 1549.97 Z" fill="#000000" fill-rule="evenodd" fill-opacity="1" /><path clip-path="url(#clip310)" d="M1346.96 1544.64 L1355.12 1530.51 L1358.53 1532.48 L1347.56 1551.48 L1344.15 1549.51 Q1343.1 1545.83 1341.38 1539.55 Q1339.65 1533.23 1339.08 1531.54 Q1338.02 1528.33 1336.95 1526.7 Q1335.88 1525.04 1334.42 1524.2 Q1332.03 1522.82 1329.56 1523.64 Q1327.09 1524.43 1325.54 1527.12 Q1324.44 1529.02 1323.88 1531.53 Q1323.32 1534.02 1323.28 1537.2 L1319.19 1534.84 Q1319.62 1531.82 1320.34 1529.41 Q1321.07 1526.99 1322.09 1525.23 Q1324.77 1520.58 1328.7 1519.16 Q1332.62 1517.73 1336.51 1519.98 Q1338.35 1521.04 1339.61 1522.7 Q1340.86 1524.33 1342.05 1527.45 Q1342.34 1528.29 1343.58 1532.59 Q1344.8 1536.87 1346.96 1544.64 Z" fill="#000000" fill-rule="evenodd" fill-opacity="1" /><path clip-path="url(#clip310)" d="M1360.44 1521.31 L1364.25 1514.69 L1341.42 1501.51 L1338.71 1509.54 L1335.02 1507.41 L1337.71 1499.42 L1340.05 1495.37 L1366.57 1510.68 L1370.39 1504.07 L1373.8 1506.04 L1363.84 1523.28 L1360.44 1521.31 Z" fill="#000000" fill-rule="evenodd" fill-opacity="1" /><path clip-path="url(#clip310)" d="M1364.25 1492.8 L1370.49 1482 L1373.78 1483.89 L1367.54 1494.7 L1364.25 1492.8 Z" fill="#000000" fill-rule="evenodd" fill-opacity="1" /><path clip-path="url(#clip310)" d="M1364.81 1458.64 Q1363 1461.77 1365.18 1465.14 Q1367.34 1468.47 1373.51 1472.03 Q1379.67 1475.59 1383.66 1475.81 Q1387.64 1475.99 1389.45 1472.87 Q1391.26 1469.72 1389.1 1466.38 Q1386.93 1463.02 1380.77 1459.47 Q1374.6 1455.9 1370.62 1455.71 Q1366.63 1455.49 1364.81 1458.64 M1361.6 1456.79 Q1364.51 1451.76 1370.02 1451.42 Q1375.53 1451.04 1383.11 1455.42 Q1390.67 1459.78 1393.12 1464.75 Q1395.56 1469.69 1392.65 1474.72 Q1389.75 1479.75 1384.24 1480.12 Q1378.72 1480.47 1371.17 1476.1 Q1363.59 1471.73 1361.15 1466.79 Q1358.7 1461.82 1361.6 1456.79 Z" fill="#000000" fill-rule="evenodd" fill-opacity="1" /><path clip-path="url(#clip310)" d="M1372.25 1439.6 L1381.42 1423.7 L1384.83 1425.67 L1377.8 1437.86 L1385.13 1442.1 Q1385.34 1441.04 1385.71 1440.08 Q1386.06 1439.1 1386.57 1438.22 Q1389.46 1433.21 1393.9 1431.87 Q1398.33 1430.53 1403.03 1433.24 Q1407.86 1436.02 1408.81 1440.58 Q1409.74 1445.13 1406.58 1450.6 Q1405.49 1452.49 1404.03 1454.27 Q1402.59 1456.03 1400.75 1457.74 L1396.68 1455.39 Q1398.7 1454.15 1400.29 1452.51 Q1401.88 1450.86 1403.12 1448.71 Q1405.13 1445.25 1404.47 1442.17 Q1403.81 1439.09 1400.69 1437.28 Q1397.56 1435.48 1394.57 1436.45 Q1391.57 1437.42 1389.57 1440.89 Q1388.63 1442.51 1388.06 1444.35 Q1387.49 1446.16 1387.28 1448.28 L1372.25 1439.6 Z" fill="#000000" fill-rule="evenodd" fill-opacity="1" /><path clip-path="url(#clip310)" d="M1402.97 1425.74 L1409.21 1414.94 L1412.49 1416.84 L1406.25 1427.64 L1402.97 1425.74 Z" fill="#000000" fill-rule="evenodd" fill-opacity="1" /><path clip-path="url(#clip310)" d="M1424.39 1410.53 L1432.55 1396.4 L1435.96 1398.37 L1424.99 1417.37 L1421.58 1415.4 Q1420.53 1411.72 1418.81 1405.44 Q1417.08 1399.12 1416.51 1397.43 Q1415.45 1394.22 1414.38 1392.59 Q1413.31 1390.93 1411.85 1390.08 Q1409.46 1388.71 1406.99 1389.52 Q1404.52 1390.32 1402.97 1393 Q1401.87 1394.91 1401.31 1397.42 Q1400.75 1399.9 1400.71 1403.08 L1396.62 1400.72 Q1397.05 1397.71 1397.77 1395.3 Q1398.5 1392.88 1399.52 1391.12 Q1402.2 1386.47 1406.13 1385.04 Q1410.05 1383.62 1413.94 1385.86 Q1415.78 1386.93 1417.04 1388.59 Q1418.29 1390.22 1419.48 1393.34 Q1419.77 1394.18 1421.01 1398.47 Q1422.23 1402.76 1424.39 1410.53 Z" fill="#000000" fill-rule="evenodd" fill-opacity="1" /><path clip-path="url(#clip310)" d="M1418.6 1365.46 Q1416.8 1368.59 1418.97 1371.96 Q1421.14 1375.29 1427.31 1378.86 Q1433.47 1382.41 1437.46 1382.63 Q1441.44 1382.82 1443.24 1379.69 Q1445.06 1376.54 1442.89 1373.21 Q1440.72 1369.84 1434.57 1366.29 Q1428.39 1362.72 1424.41 1362.54 Q1420.42 1362.32 1418.6 1365.46 M1415.4 1363.61 Q1418.3 1358.58 1423.82 1358.24 Q1429.33 1357.86 1436.91 1362.24 Q1444.46 1366.6 1446.91 1371.57 Q1449.35 1376.51 1446.45 1381.54 Q1443.54 1386.57 1438.04 1386.95 Q1432.52 1387.29 1424.96 1382.93 Q1417.38 1378.55 1414.94 1373.61 Q1412.49 1368.64 1415.4 1363.61 Z" fill="#000000" fill-rule="evenodd" fill-opacity="1" /><path clip-path="url(#clip310)" d="M1595.37 1596.02 L1603.53 1581.89 L1606.94 1583.86 L1595.97 1602.86 L1592.56 1600.89 Q1591.51 1597.21 1589.79 1590.93 Q1588.06 1584.61 1587.49 1582.92 Q1586.43 1579.71 1585.36 1578.08 Q1584.29 1576.42 1582.83 1575.58 Q1580.44 1574.2 1577.97 1575.01 Q1575.5 1575.81 1573.95 1578.5 Q1572.85 1580.4 1572.29 1582.91 Q1571.73 1585.4 1571.69 1588.58 L1567.6 1586.22 Q1568.03 1583.2 1568.75 1580.79 Q1569.48 1578.37 1570.5 1576.61 Q1573.18 1571.96 1577.11 1570.53 Q1581.03 1569.11 1584.92 1571.36 Q1586.76 1572.42 1588.02 1574.08 Q1589.27 1575.71 1590.46 1578.83 Q1590.75 1579.67 1591.99 1583.97 Q1593.21 1588.25 1595.37 1596.02 Z" fill="#000000" fill-rule="evenodd" fill-opacity="1" /><path clip-path="url(#clip310)" d="M1589.58 1550.96 Q1587.78 1554.08 1589.95 1557.45 Q1592.12 1560.79 1598.29 1564.35 Q1604.44 1567.9 1608.43 1568.12 Q1612.42 1568.31 1614.22 1565.18 Q1616.04 1562.03 1613.87 1558.7 Q1611.7 1555.33 1605.55 1551.78 Q1599.37 1548.22 1595.39 1548.03 Q1591.4 1547.81 1589.58 1550.96 M1586.38 1549.11 Q1589.28 1544.07 1594.8 1543.73 Q1600.31 1543.36 1607.89 1547.73 Q1615.44 1552.09 1617.89 1557.06 Q1620.33 1562 1617.43 1567.03 Q1614.52 1572.07 1609.02 1572.44 Q1603.5 1572.78 1595.94 1568.42 Q1588.36 1564.04 1585.92 1559.11 Q1583.47 1554.14 1586.38 1549.11 Z" fill="#000000" fill-rule="evenodd" fill-opacity="1" /><path clip-path="url(#clip310)" d="M1625.53 1543.78 L1633.69 1529.65 L1637.1 1531.62 L1626.13 1550.62 L1622.72 1548.65 Q1621.67 1544.97 1619.95 1538.69 Q1618.22 1532.37 1617.65 1530.68 Q1616.59 1527.47 1615.53 1525.84 Q1614.45 1524.18 1612.99 1523.33 Q1610.6 1521.96 1608.13 1522.77 Q1605.66 1523.57 1604.11 1526.26 Q1603.01 1528.16 1602.45 1530.67 Q1601.89 1533.15 1601.85 1536.33 L1597.76 1533.97 Q1598.19 1530.96 1598.91 1528.55 Q1599.64 1526.13 1600.66 1524.37 Q1603.34 1519.72 1607.27 1518.29 Q1611.19 1516.87 1615.08 1519.11 Q1616.92 1520.18 1618.18 1521.84 Q1619.43 1523.47 1620.62 1526.59 Q1620.92 1527.43 1622.15 1531.72 Q1623.37 1536.01 1625.53 1543.78 Z" fill="#000000" fill-rule="evenodd" fill-opacity="1" /><path clip-path="url(#clip310)" d="M1639.01 1520.45 L1642.83 1513.83 L1619.99 1500.65 L1617.28 1508.68 L1613.59 1506.55 L1616.28 1498.56 L1618.62 1494.51 L1645.14 1509.82 L1648.96 1503.21 L1652.37 1505.17 L1642.41 1522.41 L1639.01 1520.45 Z" fill="#000000" fill-rule="evenodd" fill-opacity="1" /><path clip-path="url(#clip310)" d="M1642.82 1491.94 L1649.06 1481.13 L1652.35 1483.03 L1646.11 1493.84 L1642.82 1491.94 Z" fill="#000000" fill-rule="evenodd" fill-opacity="1" /><path clip-path="url(#clip310)" d="M1643.38 1457.78 Q1641.57 1460.91 1643.75 1464.27 Q1645.91 1467.61 1652.09 1471.17 Q1658.24 1474.73 1662.23 1474.94 Q1666.21 1475.13 1668.02 1472 Q1669.83 1468.86 1667.67 1465.52 Q1665.5 1462.16 1659.34 1458.6 Q1653.17 1455.04 1649.19 1454.85 Q1645.2 1454.63 1643.38 1457.78 M1640.17 1455.93 Q1643.08 1450.9 1648.59 1450.55 Q1654.1 1450.18 1661.68 1454.55 Q1669.24 1458.92 1671.69 1463.89 Q1674.13 1468.82 1671.23 1473.86 Q1668.32 1478.89 1662.81 1479.26 Q1657.29 1479.61 1649.74 1475.24 Q1642.16 1470.87 1639.72 1465.93 Q1637.27 1460.96 1640.17 1455.93 Z" fill="#000000" fill-rule="evenodd" fill-opacity="1" /><path clip-path="url(#clip310)" d="M1650.82 1438.74 L1660 1422.84 L1663.4 1424.81 L1656.37 1437 L1663.7 1441.23 Q1663.91 1440.18 1664.28 1439.22 Q1664.63 1438.24 1665.14 1437.36 Q1668.03 1432.35 1672.47 1431.01 Q1676.91 1429.67 1681.6 1432.37 Q1686.43 1435.16 1687.38 1439.72 Q1688.31 1444.27 1685.15 1449.74 Q1684.06 1451.62 1682.61 1453.4 Q1681.16 1455.16 1679.32 1456.88 L1675.25 1454.53 Q1677.27 1453.29 1678.86 1451.64 Q1680.46 1450 1681.69 1447.85 Q1683.7 1444.38 1683.04 1441.31 Q1682.39 1438.23 1679.26 1436.42 Q1676.13 1434.62 1673.14 1435.59 Q1670.15 1436.56 1668.14 1440.03 Q1667.21 1441.65 1666.63 1443.48 Q1666.06 1445.3 1665.85 1447.42 L1650.82 1438.74 Z" fill="#000000" fill-rule="evenodd" fill-opacity="1" /><path clip-path="url(#clip310)" d="M1681.54 1424.88 L1687.78 1414.08 L1691.06 1415.98 L1684.83 1426.78 L1681.54 1424.88 Z" fill="#000000" fill-rule="evenodd" fill-opacity="1" /><path clip-path="url(#clip310)" d="M1702.96 1409.67 L1711.12 1395.54 L1714.53 1397.5 L1703.56 1416.51 L1700.15 1414.54 Q1699.1 1410.86 1697.38 1404.57 Q1695.65 1398.26 1695.08 1396.56 Q1694.02 1393.36 1692.96 1391.73 Q1691.88 1390.07 1690.42 1389.22 Q1688.03 1387.84 1685.56 1388.66 Q1683.09 1389.46 1681.54 1392.14 Q1680.44 1394.05 1679.88 1396.55 Q1679.32 1399.04 1679.28 1402.22 L1675.19 1399.86 Q1675.62 1396.85 1676.35 1394.43 Q1677.07 1392.02 1678.09 1390.25 Q1680.77 1385.6 1684.7 1384.18 Q1688.62 1382.76 1692.51 1385 Q1694.35 1386.07 1695.61 1387.73 Q1696.86 1389.36 1698.05 1392.48 Q1698.35 1393.32 1699.58 1397.61 Q1700.8 1401.9 1702.96 1409.67 Z" fill="#000000" fill-rule="evenodd" fill-opacity="1" /><path clip-path="url(#clip310)" d="M1689.53 1371.68 L1698.71 1355.79 L1702.12 1357.75 L1695.08 1369.94 L1702.42 1374.18 Q1702.63 1373.12 1703 1372.16 Q1703.35 1371.18 1703.86 1370.3 Q1706.75 1365.29 1711.18 1363.95 Q1715.62 1362.61 1720.31 1365.32 Q1725.14 1368.11 1726.09 1372.66 Q1727.02 1377.21 1723.86 1382.68 Q1722.78 1384.57 1721.32 1386.35 Q1719.88 1388.11 1718.03 1389.82 L1713.96 1387.47 Q1715.99 1386.23 1717.58 1384.59 Q1719.17 1382.94 1720.41 1380.8 Q1722.41 1377.33 1721.76 1374.25 Q1721.1 1371.17 1717.97 1369.37 Q1714.85 1367.56 1711.85 1368.53 Q1708.86 1369.5 1706.86 1372.97 Q1705.92 1374.6 1705.34 1376.43 Q1704.78 1378.24 1704.57 1380.36 L1689.53 1371.68 Z" fill="#000000" fill-rule="evenodd" fill-opacity="1" /><path clip-path="url(#clip310)" d="M1873 1596.81 L1881.16 1582.67 L1884.56 1584.64 L1873.59 1603.64 L1870.18 1601.68 Q1869.13 1597.99 1867.41 1591.71 Q1865.68 1585.39 1865.11 1583.7 Q1864.05 1580.49 1862.99 1578.86 Q1861.91 1577.2 1860.45 1576.36 Q1858.06 1574.98 1855.59 1575.8 Q1853.13 1576.59 1851.57 1579.28 Q1850.47 1581.18 1849.91 1583.69 Q1849.36 1586.18 1849.31 1589.36 L1845.22 1587 Q1845.65 1583.98 1846.38 1581.57 Q1847.1 1579.16 1848.12 1577.39 Q1850.81 1572.74 1854.73 1571.32 Q1858.65 1569.89 1862.54 1572.14 Q1864.38 1573.2 1865.64 1574.87 Q1866.89 1576.5 1868.08 1579.62 Q1868.38 1580.45 1869.61 1584.75 Q1870.83 1589.03 1873 1596.81 Z" fill="#000000" fill-rule="evenodd" fill-opacity="1" /><path clip-path="url(#clip310)" d="M1867.21 1551.74 Q1865.4 1554.87 1867.57 1558.23 Q1869.74 1561.57 1875.91 1565.13 Q1882.07 1568.68 1886.06 1568.9 Q1890.04 1569.09 1891.84 1565.96 Q1893.66 1562.82 1891.5 1559.48 Q1889.32 1556.12 1883.17 1552.56 Q1877 1549 1873.01 1548.81 Q1869.02 1548.59 1867.21 1551.74 M1864 1549.89 Q1866.9 1544.86 1872.42 1544.51 Q1877.93 1544.14 1885.51 1548.51 Q1893.07 1552.88 1895.52 1557.85 Q1897.96 1562.78 1895.05 1567.82 Q1892.15 1572.85 1886.64 1573.22 Q1881.12 1573.56 1873.56 1569.2 Q1865.99 1564.83 1863.54 1559.89 Q1861.09 1554.92 1864 1549.89 Z" fill="#000000" fill-rule="evenodd" fill-opacity="1" /><path clip-path="url(#clip310)" d="M1903.16 1544.56 L1911.32 1530.43 L1914.73 1532.4 L1903.75 1551.4 L1900.34 1549.43 Q1899.29 1545.75 1897.57 1539.47 Q1895.85 1533.15 1895.27 1531.46 Q1894.21 1528.25 1893.15 1526.62 Q1892.08 1524.96 1890.61 1524.12 Q1888.23 1522.74 1885.75 1523.55 Q1883.29 1524.35 1881.74 1527.04 Q1880.64 1528.94 1880.07 1531.45 Q1879.52 1533.94 1879.47 1537.12 L1875.38 1534.76 Q1875.81 1531.74 1876.54 1529.33 Q1877.26 1526.91 1878.28 1525.15 Q1880.97 1520.5 1884.89 1519.07 Q1888.81 1517.65 1892.7 1519.9 Q1894.55 1520.96 1895.8 1522.62 Q1897.05 1524.25 1898.25 1527.37 Q1898.54 1528.21 1899.77 1532.51 Q1900.99 1536.79 1903.16 1544.56 Z" fill="#000000" fill-rule="evenodd" fill-opacity="1" /><path clip-path="url(#clip310)" d="M1916.63 1521.23 L1920.45 1514.61 L1897.62 1501.43 L1894.9 1509.46 L1891.22 1507.33 L1893.9 1499.34 L1896.24 1495.29 L1922.76 1510.6 L1926.58 1503.99 L1929.99 1505.96 L1920.04 1523.2 L1916.63 1521.23 Z" fill="#000000" fill-rule="evenodd" fill-opacity="1" /><path clip-path="url(#clip310)" d="M1920.45 1492.72 L1926.68 1481.92 L1929.97 1483.81 L1923.73 1494.62 L1920.45 1492.72 Z" fill="#000000" fill-rule="evenodd" fill-opacity="1" /><path clip-path="url(#clip310)" d="M1921 1458.56 Q1919.2 1461.69 1921.37 1465.06 Q1923.53 1468.39 1929.71 1471.95 Q1935.86 1475.51 1939.85 1475.73 Q1943.83 1475.91 1945.64 1472.79 Q1947.46 1469.64 1945.29 1466.3 Q1943.12 1462.94 1936.97 1459.39 Q1930.79 1455.82 1926.81 1455.63 Q1922.82 1455.41 1921 1458.56 M1917.8 1456.71 Q1920.7 1451.68 1926.22 1451.34 Q1931.73 1450.96 1939.3 1455.34 Q1946.86 1459.7 1949.31 1464.67 Q1951.75 1469.61 1948.85 1474.64 Q1945.94 1479.67 1940.43 1480.04 Q1934.92 1480.39 1927.36 1476.02 Q1919.78 1471.65 1917.34 1466.71 Q1914.89 1461.74 1917.8 1456.71 Z" fill="#000000" fill-rule="evenodd" fill-opacity="1" /><path clip-path="url(#clip310)" d="M1928.44 1439.52 L1937.62 1423.62 L1941.03 1425.59 L1933.99 1437.78 L1941.33 1442.02 Q1941.54 1440.96 1941.9 1440 Q1942.25 1439.02 1942.76 1438.14 Q1945.66 1433.13 1950.09 1431.79 Q1954.53 1430.45 1959.22 1433.16 Q1964.05 1435.94 1965 1440.5 Q1965.93 1445.05 1962.77 1450.52 Q1961.68 1452.41 1960.23 1454.19 Q1958.79 1455.94 1956.94 1457.66 L1952.87 1455.31 Q1954.89 1454.07 1956.49 1452.43 Q1958.08 1450.78 1959.32 1448.63 Q1961.32 1445.17 1960.66 1442.09 Q1960.01 1439.01 1956.88 1437.2 Q1953.75 1435.4 1950.76 1436.37 Q1947.77 1437.34 1945.77 1440.81 Q1944.83 1442.43 1944.25 1444.27 Q1943.69 1446.08 1943.48 1448.2 L1928.44 1439.52 Z" fill="#000000" fill-rule="evenodd" fill-opacity="1" /><path clip-path="url(#clip310)" d="M1959.16 1425.66 L1965.4 1414.86 L1968.69 1416.76 L1962.45 1427.56 L1959.16 1425.66 Z" fill="#000000" fill-rule="evenodd" fill-opacity="1" /><path clip-path="url(#clip310)" d="M1980.59 1410.45 L1988.75 1396.32 L1992.16 1398.28 L1981.18 1417.29 L1977.78 1415.32 Q1976.72 1411.64 1975 1405.35 Q1973.28 1399.04 1972.7 1397.35 Q1971.64 1394.14 1970.58 1392.51 Q1969.51 1390.85 1968.04 1390 Q1965.66 1388.63 1963.18 1389.44 Q1960.72 1390.24 1959.17 1392.92 Q1958.07 1394.83 1957.5 1397.34 Q1956.95 1399.82 1956.9 1403 L1952.81 1400.64 Q1953.24 1397.63 1953.97 1395.22 Q1954.69 1392.8 1955.71 1391.04 Q1958.4 1386.39 1962.32 1384.96 Q1966.24 1383.54 1970.13 1385.78 Q1971.98 1386.85 1973.23 1388.51 Q1974.48 1390.14 1975.68 1393.26 Q1975.97 1394.1 1977.2 1398.39 Q1978.42 1402.68 1980.59 1410.45 Z" fill="#000000" fill-rule="evenodd" fill-opacity="1" /><path clip-path="url(#clip310)" d="M1987.85 1372.92 Q1986.18 1375.81 1986.77 1378.36 Q1987.36 1380.9 1990.07 1382.46 Q1992.77 1384.02 1995.27 1383.27 Q1997.77 1382.5 1999.44 1379.61 Q2001.1 1376.72 2000.52 1374.17 Q1999.92 1371.6 1997.23 1370.05 Q1994.52 1368.49 1992.02 1369.26 Q1989.53 1370.01 1987.85 1372.92 M1983.79 1375.97 Q1981.64 1378.21 1979.01 1378.64 Q1976.39 1379.06 1973.83 1377.57 Q1970.24 1375.5 1969.63 1371.75 Q1969.02 1367.98 1971.59 1363.53 Q1974.17 1359.06 1977.73 1357.72 Q1981.28 1356.38 1984.87 1358.45 Q1987.44 1359.93 1988.38 1362.42 Q1989.33 1364.9 1988.47 1367.85 Q1990.85 1365.32 1993.77 1364.84 Q1996.7 1364.34 1999.57 1366 Q2003.92 1368.51 2004.7 1372.52 Q2005.5 1376.51 2002.64 1381.46 Q1999.79 1386.41 1995.92 1387.74 Q1992.07 1389.04 1987.72 1386.53 Q1984.85 1384.87 1983.81 1382.08 Q1982.78 1379.29 1983.79 1375.97 M1976.54 1373.76 Q1978.86 1375.11 1981 1374.42 Q1983.15 1373.7 1984.66 1371.08 Q1986.17 1368.47 1985.71 1366.26 Q1985.26 1364.02 1982.94 1362.68 Q1980.61 1361.34 1978.45 1362.07 Q1976.3 1362.78 1974.8 1365.38 Q1973.28 1368.01 1973.74 1370.23 Q1974.21 1372.42 1976.54 1373.76 Z" fill="#000000" fill-rule="evenodd" fill-opacity="1" /><path clip-path="url(#clip310)" d="M2151.35 1596.32 L2159.51 1582.19 L2162.91 1584.16 L2151.94 1603.16 L2148.53 1601.2 Q2147.48 1597.51 2145.76 1591.23 Q2144.04 1584.91 2143.46 1583.22 Q2142.4 1580.01 2141.34 1578.38 Q2140.27 1576.72 2138.8 1575.88 Q2136.42 1574.5 2133.94 1575.32 Q2131.48 1576.11 2129.93 1578.8 Q2128.83 1580.7 2128.26 1583.21 Q2127.71 1585.7 2127.66 1588.88 L2123.57 1586.52 Q2124 1583.5 2124.73 1581.09 Q2125.45 1578.67 2126.47 1576.91 Q2129.16 1572.26 2133.08 1570.84 Q2137 1569.41 2140.89 1571.66 Q2142.74 1572.72 2143.99 1574.38 Q2145.24 1576.01 2146.44 1579.14 Q2146.73 1579.97 2147.96 1584.27 Q2149.18 1588.55 2151.35 1596.32 Z" fill="#000000" fill-rule="evenodd" fill-opacity="1" /><path clip-path="url(#clip310)" d="M2145.56 1551.26 Q2143.75 1554.39 2145.93 1557.75 Q2148.09 1561.09 2154.26 1564.65 Q2160.42 1568.2 2164.41 1568.42 Q2168.39 1568.61 2170.2 1565.48 Q2172.01 1562.34 2169.85 1559 Q2167.68 1555.63 2161.52 1552.08 Q2155.35 1548.52 2151.37 1548.33 Q2147.38 1548.11 2145.56 1551.26 M2142.35 1549.41 Q2145.26 1544.37 2150.77 1544.03 Q2156.28 1543.66 2163.86 1548.03 Q2171.42 1552.4 2173.87 1557.36 Q2176.31 1562.3 2173.4 1567.33 Q2170.5 1572.37 2164.99 1572.74 Q2159.47 1573.08 2151.92 1568.72 Q2144.34 1564.35 2141.9 1559.41 Q2139.45 1554.44 2142.35 1549.41 Z" fill="#000000" fill-rule="evenodd" fill-opacity="1" /><path clip-path="url(#clip310)" d="M2181.51 1544.08 L2189.67 1529.95 L2193.08 1531.92 L2182.1 1550.92 L2178.7 1548.95 Q2177.64 1545.27 2175.92 1538.99 Q2174.2 1532.67 2173.63 1530.98 Q2172.56 1527.77 2171.5 1526.14 Q2170.43 1524.48 2168.96 1523.64 Q2166.58 1522.26 2164.1 1523.07 Q2161.64 1523.87 2160.09 1526.56 Q2158.99 1528.46 2158.42 1530.97 Q2157.87 1533.45 2157.82 1536.64 L2153.73 1534.27 Q2154.16 1531.26 2154.89 1528.85 Q2155.61 1526.43 2156.63 1524.67 Q2159.32 1520.02 2163.24 1518.59 Q2167.16 1517.17 2171.05 1519.42 Q2172.9 1520.48 2174.16 1522.14 Q2175.41 1523.77 2176.6 1526.89 Q2176.89 1527.73 2178.13 1532.03 Q2179.34 1536.31 2181.51 1544.08 Z" fill="#000000" fill-rule="evenodd" fill-opacity="1" /><path clip-path="url(#clip310)" d="M2194.98 1520.75 L2198.8 1514.13 L2175.97 1500.95 L2173.26 1508.98 L2169.57 1506.85 L2172.26 1498.86 L2174.59 1494.81 L2201.12 1510.12 L2204.93 1503.51 L2208.34 1505.48 L2198.39 1522.72 L2194.98 1520.75 Z" fill="#000000" fill-rule="evenodd" fill-opacity="1" /><path clip-path="url(#clip310)" d="M2198.8 1492.24 L2205.04 1481.43 L2208.32 1483.33 L2202.09 1494.14 L2198.8 1492.24 Z" fill="#000000" fill-rule="evenodd" fill-opacity="1" /><path clip-path="url(#clip310)" d="M2199.35 1458.08 Q2197.55 1461.21 2199.72 1464.57 Q2201.89 1467.91 2208.06 1471.47 Q2214.22 1475.03 2218.21 1475.25 Q2222.19 1475.43 2223.99 1472.31 Q2225.81 1469.16 2223.64 1465.82 Q2221.47 1462.46 2215.32 1458.9 Q2209.14 1455.34 2205.16 1455.15 Q2201.17 1454.93 2199.35 1458.08 M2196.15 1456.23 Q2199.05 1451.2 2204.57 1450.85 Q2210.08 1450.48 2217.66 1454.85 Q2225.21 1459.22 2227.66 1464.19 Q2230.1 1469.13 2227.2 1474.16 Q2224.29 1479.19 2218.79 1479.56 Q2213.27 1479.91 2205.71 1475.54 Q2198.13 1471.17 2195.69 1466.23 Q2193.24 1461.26 2196.15 1456.23 Z" fill="#000000" fill-rule="evenodd" fill-opacity="1" /><path clip-path="url(#clip310)" d="M2225.41 1437.63 Q2223.84 1440.35 2224.77 1443.03 Q2225.72 1445.69 2228.97 1447.57 Q2232.2 1449.43 2235 1448.94 Q2237.79 1448.41 2239.36 1445.68 Q2240.94 1442.96 2239.99 1440.3 Q2239.03 1437.6 2235.8 1435.74 Q2232.55 1433.87 2229.76 1434.39 Q2226.98 1434.9 2225.41 1437.63 M2217.36 1422.26 L2221.05 1424.39 Q2219.45 1425.5 2218.17 1426.84 Q2216.89 1428.17 2216.01 1429.69 Q2213.7 1433.7 2215.18 1437.39 Q2216.67 1441.05 2221.97 1444.51 Q2220.91 1442.32 2221.01 1440.01 Q2221.1 1437.68 2222.34 1435.53 Q2224.95 1431.02 2229.2 1430 Q2233.44 1428.95 2238.15 1431.67 Q2242.76 1434.33 2243.97 1438.67 Q2245.19 1443 2242.57 1447.53 Q2239.57 1452.73 2234.02 1453.18 Q2228.44 1453.62 2220.88 1449.26 Q2213.79 1445.16 2211.52 1439.37 Q2209.24 1433.56 2212.51 1427.88 Q2213.39 1426.36 2214.58 1424.99 Q2215.79 1423.6 2217.36 1422.26 Z" fill="#000000" fill-rule="evenodd" fill-opacity="1" /><path clip-path="url(#clip310)" d="M2237.51 1425.18 L2243.75 1414.38 L2247.04 1416.28 L2240.8 1427.08 L2237.51 1425.18 Z" fill="#000000" fill-rule="evenodd" fill-opacity="1" /><path clip-path="url(#clip310)" d="M2238.07 1391.02 Q2236.26 1394.15 2238.44 1397.52 Q2240.6 1400.85 2246.78 1404.42 Q2252.93 1407.97 2256.92 1408.19 Q2260.9 1408.38 2262.71 1405.25 Q2264.52 1402.1 2262.36 1398.77 Q2260.19 1395.4 2254.03 1391.85 Q2247.86 1388.28 2243.88 1388.1 Q2239.89 1387.88 2238.07 1391.02 M2234.86 1389.17 Q2237.77 1384.14 2243.28 1383.8 Q2248.79 1383.42 2256.37 1387.8 Q2263.93 1392.16 2266.38 1397.13 Q2268.82 1402.07 2265.91 1407.1 Q2263.01 1412.13 2257.5 1412.51 Q2251.98 1412.85 2244.43 1408.49 Q2236.85 1404.11 2234.41 1399.17 Q2231.96 1394.2 2234.86 1389.17 Z" fill="#000000" fill-rule="evenodd" fill-opacity="1" /><path clip-path="url(#clip310)" d="M2266.36 1367.72 Q2268.66 1365.17 2271.56 1364.68 Q2274.48 1364.17 2277.36 1365.84 Q2281.79 1368.4 2282.46 1372.84 Q2283.13 1377.29 2279.88 1382.9 Q2278.8 1384.79 2277.26 1386.57 Q2275.75 1388.35 2273.78 1390.05 L2269.87 1387.79 Q2271.83 1386.67 2273.49 1384.96 Q2275.15 1383.24 2276.41 1381.06 Q2278.61 1377.25 2278.25 1374.4 Q2277.9 1371.52 2275.04 1369.87 Q2272.39 1368.34 2269.83 1369.35 Q2267.26 1370.32 2265.35 1373.63 L2263.34 1377.12 L2260.01 1375.2 L2262.12 1371.55 Q2263.84 1368.56 2263.57 1366.3 Q2263.28 1364.02 2261.04 1362.72 Q2258.73 1361.39 2256.56 1362.33 Q2254.38 1363.23 2252.62 1366.28 Q2251.66 1367.95 2250.92 1370.06 Q2250.18 1372.17 2249.63 1374.9 L2246.02 1372.81 Q2246.71 1370.14 2247.54 1367.95 Q2248.39 1365.74 2249.42 1363.95 Q2252.08 1359.34 2255.74 1357.87 Q2259.38 1356.39 2262.94 1358.45 Q2265.43 1359.88 2266.33 1362.3 Q2267.21 1364.71 2266.36 1367.72 Z" fill="#000000" fill-rule="evenodd" fill-opacity="1" /><polyline clip-path="url(#clip312)" style="stroke:#000000; stroke-linecap:butt; stroke-linejoin:round; stroke-width:2; stroke-opacity:0.1; fill:none" points="
  201.019,1181.11 2352.76,1181.11 
  "/>
<polyline clip-path="url(#clip312)" style="stroke:#000000; stroke-linecap:butt; stroke-linejoin:round; stroke-width:2; stroke-opacity:0.1; fill:none" points="
  201.019,896.693 2352.76,896.693 
  "/>
<polyline clip-path="url(#clip312)" style="stroke:#000000; stroke-linecap:butt; stroke-linejoin:round; stroke-width:2; stroke-opacity:0.1; fill:none" points="
  201.019,612.275 2352.76,612.275 
  "/>
<polyline clip-path="url(#clip312)" style="stroke:#000000; stroke-linecap:butt; stroke-linejoin:round; stroke-width:2; stroke-opacity:0.1; fill:none" points="
  201.019,327.856 2352.76,327.856 
  "/>
<polyline clip-path="url(#clip310)" style="stroke:#000000; stroke-linecap:butt; stroke-linejoin:round; stroke-width:4; stroke-opacity:1; fill:none" points="
  201.019,1330.92 201.019,47.2441 
  "/>
<polyline clip-path="url(#clip310)" style="stroke:#000000; stroke-linecap:butt; stroke-linejoin:round; stroke-width:4; stroke-opacity:1; fill:none" points="
  201.019,1181.11 226.84,1181.11 
  "/>
<polyline clip-path="url(#clip310)" style="stroke:#000000; stroke-linecap:butt; stroke-linejoin:round; stroke-width:4; stroke-opacity:1; fill:none" points="
  201.019,896.693 226.84,896.693 
  "/>
<polyline clip-path="url(#clip310)" style="stroke:#000000; stroke-linecap:butt; stroke-linejoin:round; stroke-width:4; stroke-opacity:1; fill:none" points="
  201.019,612.275 226.84,612.275 
  "/>
<polyline clip-path="url(#clip310)" style="stroke:#000000; stroke-linecap:butt; stroke-linejoin:round; stroke-width:4; stroke-opacity:1; fill:none" points="
  201.019,327.856 226.84,327.856 
  "/>
<path clip-path="url(#clip310)" d="M56.6171 1194.46 L72.9365 1194.46 L72.9365 1198.39 L50.9921 1198.39 L50.9921 1194.46 Q53.6541 1191.7 58.2375 1187.07 Q62.8439 1182.42 64.0245 1181.08 Q66.2698 1178.55 67.1494 1176.82 Q68.0522 1175.06 68.0522 1173.37 Q68.0522 1170.61 66.1078 1168.88 Q64.1865 1167.14 61.0847 1167.14 Q58.8856 1167.14 56.4319 1167.91 Q54.0014 1168.67 51.2236 1170.22 L51.2236 1165.5 Q54.0477 1164.36 56.5014 1163.79 Q58.955 1163.21 60.9921 1163.21 Q66.3624 1163.21 69.5568 1165.89 Q72.7513 1168.58 72.7513 1173.07 Q72.7513 1175.2 71.9411 1177.12 Q71.1541 1179.02 69.0476 1181.61 Q68.4689 1182.28 65.367 1185.5 Q62.2652 1188.69 56.6171 1194.46 Z" fill="#000000" fill-rule="evenodd" fill-opacity="1" /><path clip-path="url(#clip310)" d="M86.779 1194.46 L103.098 1194.46 L103.098 1198.39 L81.154 1198.39 L81.154 1194.46 Q83.816 1191.7 88.3993 1187.07 Q93.0058 1182.42 94.1863 1181.08 Q96.4317 1178.55 97.3113 1176.82 Q98.2141 1175.06 98.2141 1173.37 Q98.2141 1170.61 96.2697 1168.88 Q94.3484 1167.14 91.2465 1167.14 Q89.0475 1167.14 86.5938 1167.91 Q84.1632 1168.67 81.3855 1170.22 L81.3855 1165.5 Q84.2095 1164.36 86.6632 1163.79 Q89.1169 1163.21 91.1539 1163.21 Q96.5243 1163.21 99.7187 1165.89 Q102.913 1168.58 102.913 1173.07 Q102.913 1175.2 102.103 1177.12 Q101.316 1179.02 99.2095 1181.61 Q98.6308 1182.28 95.5289 1185.5 Q92.4271 1188.69 86.779 1194.46 Z" fill="#000000" fill-rule="evenodd" fill-opacity="1" /><path clip-path="url(#clip310)" d="M112.959 1163.83 L131.316 1163.83 L131.316 1167.77 L117.242 1167.77 L117.242 1176.24 Q118.26 1175.89 119.279 1175.73 Q120.297 1175.54 121.316 1175.54 Q127.103 1175.54 130.482 1178.72 Q133.862 1181.89 133.862 1187.3 Q133.862 1192.88 130.39 1195.98 Q126.918 1199.06 120.598 1199.06 Q118.422 1199.06 116.154 1198.69 Q113.908 1198.32 111.501 1197.58 L111.501 1192.88 Q113.584 1194.02 115.807 1194.57 Q118.029 1195.13 120.506 1195.13 Q124.51 1195.13 126.848 1193.02 Q129.186 1190.91 129.186 1187.3 Q129.186 1183.69 126.848 1181.59 Q124.51 1179.48 120.506 1179.48 Q118.631 1179.48 116.756 1179.9 Q114.904 1180.31 112.959 1181.19 L112.959 1163.83 Z" fill="#000000" fill-rule="evenodd" fill-opacity="1" /><path clip-path="url(#clip310)" d="M153.075 1166.91 Q149.464 1166.91 147.635 1170.48 Q145.83 1174.02 145.83 1181.15 Q145.83 1188.25 147.635 1191.82 Q149.464 1195.36 153.075 1195.36 Q156.709 1195.36 158.515 1191.82 Q160.343 1188.25 160.343 1181.15 Q160.343 1174.02 158.515 1170.48 Q156.709 1166.91 153.075 1166.91 M153.075 1163.21 Q158.885 1163.21 161.941 1167.81 Q165.019 1172.4 165.019 1181.15 Q165.019 1189.87 161.941 1194.48 Q158.885 1199.06 153.075 1199.06 Q147.265 1199.06 144.186 1194.48 Q141.131 1189.87 141.131 1181.15 Q141.131 1172.4 144.186 1167.81 Q147.265 1163.21 153.075 1163.21 Z" fill="#000000" fill-rule="evenodd" fill-opacity="1" /><path clip-path="url(#clip310)" d="M56.6171 910.038 L72.9365 910.038 L72.9365 913.973 L50.9921 913.973 L50.9921 910.038 Q53.6541 907.284 58.2375 902.654 Q62.8439 898.001 64.0245 896.659 Q66.2698 894.135 67.1494 892.399 Q68.0522 890.64 68.0522 888.95 Q68.0522 886.196 66.1078 884.46 Q64.1865 882.723 61.0847 882.723 Q58.8856 882.723 56.4319 883.487 Q54.0014 884.251 51.2236 885.802 L51.2236 881.08 Q54.0477 879.946 56.5014 879.367 Q58.955 878.788 60.9921 878.788 Q66.3624 878.788 69.5568 881.473 Q72.7513 884.159 72.7513 888.649 Q72.7513 890.779 71.9411 892.7 Q71.1541 894.598 69.0476 897.191 Q68.4689 897.862 65.367 901.08 Q62.2652 904.274 56.6171 910.038 Z" fill="#000000" fill-rule="evenodd" fill-opacity="1" /><path clip-path="url(#clip310)" d="M96.9178 895.339 Q100.274 896.057 102.149 898.325 Q104.047 900.594 104.047 903.927 Q104.047 909.043 100.529 911.844 Q97.0104 914.645 90.529 914.645 Q88.353 914.645 86.0382 914.205 Q83.7466 913.788 81.2929 912.932 L81.2929 908.418 Q83.2373 909.552 85.5521 910.131 Q87.8669 910.709 90.3901 910.709 Q94.7882 910.709 97.0798 908.973 Q99.3946 907.237 99.3946 903.927 Q99.3946 900.872 97.2419 899.159 Q95.1123 897.422 91.2928 897.422 L87.2651 897.422 L87.2651 893.58 L91.478 893.58 Q94.9271 893.58 96.7558 892.214 Q98.5845 890.825 98.5845 888.233 Q98.5845 885.571 96.6863 884.159 Q94.8113 882.723 91.2928 882.723 Q89.3715 882.723 87.1725 883.14 Q84.9734 883.557 82.3346 884.436 L82.3346 880.27 Q84.9966 879.529 87.3114 879.159 Q89.6493 878.788 91.7095 878.788 Q97.0335 878.788 100.135 881.219 Q103.237 883.626 103.237 887.747 Q103.237 890.617 101.594 892.608 Q99.9502 894.575 96.9178 895.339 Z" fill="#000000" fill-rule="evenodd" fill-opacity="1" /><path clip-path="url(#clip310)" d="M122.913 882.492 Q119.302 882.492 117.473 886.057 Q115.668 889.598 115.668 896.728 Q115.668 903.834 117.473 907.399 Q119.302 910.941 122.913 910.941 Q126.547 910.941 128.353 907.399 Q130.182 903.834 130.182 896.728 Q130.182 889.598 128.353 886.057 Q126.547 882.492 122.913 882.492 M122.913 878.788 Q128.723 878.788 131.779 883.395 Q134.857 887.978 134.857 896.728 Q134.857 905.455 131.779 910.061 Q128.723 914.645 122.913 914.645 Q117.103 914.645 114.024 910.061 Q110.969 905.455 110.969 896.728 Q110.969 887.978 114.024 883.395 Q117.103 878.788 122.913 878.788 Z" fill="#000000" fill-rule="evenodd" fill-opacity="1" /><path clip-path="url(#clip310)" d="M153.075 882.492 Q149.464 882.492 147.635 886.057 Q145.83 889.598 145.83 896.728 Q145.83 903.834 147.635 907.399 Q149.464 910.941 153.075 910.941 Q156.709 910.941 158.515 907.399 Q160.343 903.834 160.343 896.728 Q160.343 889.598 158.515 886.057 Q156.709 882.492 153.075 882.492 M153.075 878.788 Q158.885 878.788 161.941 883.395 Q165.019 887.978 165.019 896.728 Q165.019 905.455 161.941 910.061 Q158.885 914.645 153.075 914.645 Q147.265 914.645 144.186 910.061 Q141.131 905.455 141.131 896.728 Q141.131 887.978 144.186 883.395 Q147.265 878.788 153.075 878.788 Z" fill="#000000" fill-rule="evenodd" fill-opacity="1" /><path clip-path="url(#clip310)" d="M56.6171 625.62 L72.9365 625.62 L72.9365 629.555 L50.9921 629.555 L50.9921 625.62 Q53.6541 622.865 58.2375 618.236 Q62.8439 613.583 64.0245 612.24 Q66.2698 609.717 67.1494 607.981 Q68.0522 606.222 68.0522 604.532 Q68.0522 601.777 66.1078 600.041 Q64.1865 598.305 61.0847 598.305 Q58.8856 598.305 56.4319 599.069 Q54.0014 599.833 51.2236 601.384 L51.2236 596.662 Q54.0477 595.527 56.5014 594.949 Q58.955 594.37 60.9921 594.37 Q66.3624 594.37 69.5568 597.055 Q72.7513 599.74 72.7513 604.231 Q72.7513 606.361 71.9411 608.282 Q71.1541 610.18 69.0476 612.773 Q68.4689 613.444 65.367 616.661 Q62.2652 619.856 56.6171 625.62 Z" fill="#000000" fill-rule="evenodd" fill-opacity="1" /><path clip-path="url(#clip310)" d="M96.9178 610.921 Q100.274 611.638 102.149 613.907 Q104.047 616.175 104.047 619.509 Q104.047 624.624 100.529 627.425 Q97.0104 630.226 90.529 630.226 Q88.353 630.226 86.0382 629.786 Q83.7466 629.37 81.2929 628.513 L81.2929 623.999 Q83.2373 625.134 85.5521 625.712 Q87.8669 626.291 90.3901 626.291 Q94.7882 626.291 97.0798 624.555 Q99.3946 622.819 99.3946 619.509 Q99.3946 616.453 97.2419 614.74 Q95.1123 613.004 91.2928 613.004 L87.2651 613.004 L87.2651 609.161 L91.478 609.161 Q94.9271 609.161 96.7558 607.796 Q98.5845 606.407 98.5845 603.814 Q98.5845 601.152 96.6863 599.74 Q94.8113 598.305 91.2928 598.305 Q89.3715 598.305 87.1725 598.722 Q84.9734 599.138 82.3346 600.018 L82.3346 595.851 Q84.9966 595.111 87.3114 594.74 Q89.6493 594.37 91.7095 594.37 Q97.0335 594.37 100.135 596.8 Q103.237 599.208 103.237 603.328 Q103.237 606.199 101.594 608.189 Q99.9502 610.157 96.9178 610.921 Z" fill="#000000" fill-rule="evenodd" fill-opacity="1" /><path clip-path="url(#clip310)" d="M112.959 594.995 L131.316 594.995 L131.316 598.93 L117.242 598.93 L117.242 607.402 Q118.26 607.055 119.279 606.893 Q120.297 606.708 121.316 606.708 Q127.103 606.708 130.482 609.879 Q133.862 613.05 133.862 618.467 Q133.862 624.046 130.39 627.148 Q126.918 630.226 120.598 630.226 Q118.422 630.226 116.154 629.856 Q113.908 629.485 111.501 628.745 L111.501 624.046 Q113.584 625.18 115.807 625.735 Q118.029 626.291 120.506 626.291 Q124.51 626.291 126.848 624.185 Q129.186 622.078 129.186 618.467 Q129.186 614.856 126.848 612.749 Q124.51 610.643 120.506 610.643 Q118.631 610.643 116.756 611.06 Q114.904 611.476 112.959 612.356 L112.959 594.995 Z" fill="#000000" fill-rule="evenodd" fill-opacity="1" /><path clip-path="url(#clip310)" d="M153.075 598.074 Q149.464 598.074 147.635 601.638 Q145.83 605.18 145.83 612.31 Q145.83 619.416 147.635 622.981 Q149.464 626.523 153.075 626.523 Q156.709 626.523 158.515 622.981 Q160.343 619.416 160.343 612.31 Q160.343 605.18 158.515 601.638 Q156.709 598.074 153.075 598.074 M153.075 594.37 Q158.885 594.37 161.941 598.976 Q165.019 603.56 165.019 612.31 Q165.019 621.036 161.941 625.643 Q158.885 630.226 153.075 630.226 Q147.265 630.226 144.186 625.643 Q141.131 621.036 141.131 612.31 Q141.131 603.56 144.186 598.976 Q147.265 594.37 153.075 594.37 Z" fill="#000000" fill-rule="evenodd" fill-opacity="1" /><path clip-path="url(#clip310)" d="M56.6171 341.201 L72.9365 341.201 L72.9365 345.136 L50.9921 345.136 L50.9921 341.201 Q53.6541 338.447 58.2375 333.817 Q62.8439 329.164 64.0245 327.822 Q66.2698 325.299 67.1494 323.563 Q68.0522 321.803 68.0522 320.113 Q68.0522 317.359 66.1078 315.623 Q64.1865 313.887 61.0847 313.887 Q58.8856 313.887 56.4319 314.651 Q54.0014 315.414 51.2236 316.965 L51.2236 312.243 Q54.0477 311.109 56.5014 310.53 Q58.955 309.951 60.9921 309.951 Q66.3624 309.951 69.5568 312.637 Q72.7513 315.322 72.7513 319.813 Q72.7513 321.942 71.9411 323.863 Q71.1541 325.762 69.0476 328.354 Q68.4689 329.025 65.367 332.243 Q62.2652 335.437 56.6171 341.201 Z" fill="#000000" fill-rule="evenodd" fill-opacity="1" /><path clip-path="url(#clip310)" d="M95.5984 314.651 L83.7929 333.1 L95.5984 333.1 L95.5984 314.651 M94.3715 310.576 L100.251 310.576 L100.251 333.1 L105.182 333.1 L105.182 336.988 L100.251 336.988 L100.251 345.136 L95.5984 345.136 L95.5984 336.988 L79.9966 336.988 L79.9966 332.475 L94.3715 310.576 Z" fill="#000000" fill-rule="evenodd" fill-opacity="1" /><path clip-path="url(#clip310)" d="M122.913 313.655 Q119.302 313.655 117.473 317.22 Q115.668 320.762 115.668 327.891 Q115.668 334.998 117.473 338.562 Q119.302 342.104 122.913 342.104 Q126.547 342.104 128.353 338.562 Q130.182 334.998 130.182 327.891 Q130.182 320.762 128.353 317.22 Q126.547 313.655 122.913 313.655 M122.913 309.951 Q128.723 309.951 131.779 314.558 Q134.857 319.141 134.857 327.891 Q134.857 336.618 131.779 341.224 Q128.723 345.808 122.913 345.808 Q117.103 345.808 114.024 341.224 Q110.969 336.618 110.969 327.891 Q110.969 319.141 114.024 314.558 Q117.103 309.951 122.913 309.951 Z" fill="#000000" fill-rule="evenodd" fill-opacity="1" /><path clip-path="url(#clip310)" d="M153.075 313.655 Q149.464 313.655 147.635 317.22 Q145.83 320.762 145.83 327.891 Q145.83 334.998 147.635 338.562 Q149.464 342.104 153.075 342.104 Q156.709 342.104 158.515 338.562 Q160.343 334.998 160.343 327.891 Q160.343 320.762 158.515 317.22 Q156.709 313.655 153.075 313.655 M153.075 309.951 Q158.885 309.951 161.941 314.558 Q165.019 319.141 165.019 327.891 Q165.019 336.618 161.941 341.224 Q158.885 345.808 153.075 345.808 Q147.265 345.808 144.186 341.224 Q141.131 336.618 141.131 327.891 Q141.131 319.141 144.186 314.558 Q147.265 309.951 153.075 309.951 Z" fill="#000000" fill-rule="evenodd" fill-opacity="1" /><path clip-path="url(#clip312)" d="
M303.629 830.14 L303.629 588.099 L261.917 588.099 L261.917 499.987 L303.629 499.987 L303.629 445.833 L303.629 499.987 L345.34 499.987 L345.34 588.099 L303.629 588.099 
  L303.629 830.14  Z
  " fill="#ff0000" fill-rule="evenodd" fill-opacity="1"/>
<polyline clip-path="url(#clip312)" style="stroke:#ff0000; stroke-linecap:butt; stroke-linejoin:round; stroke-width:2; stroke-opacity:1; fill:none" points="
  303.629,830.14 303.629,588.099 261.917,588.099 261.917,499.987 303.629,499.987 303.629,445.833 303.629,499.987 345.34,499.987 345.34,588.099 303.629,588.099 
  303.629,830.14 
  "/>
<path clip-path="url(#clip312)" d="
M396.32 604.255 L396.32 573.935 L354.609 573.935 L354.609 507.496 L396.32 507.496 L396.32 429.11 L396.32 507.496 L438.031 507.496 L438.031 573.935 L396.32 573.935 
  L396.32 604.255  Z
  " fill="#ff0000" fill-rule="evenodd" fill-opacity="1"/>
<polyline clip-path="url(#clip312)" style="stroke:#ff0000; stroke-linecap:butt; stroke-linejoin:round; stroke-width:2; stroke-opacity:1; fill:none" points="
  396.32,604.255 396.32,573.935 354.609,573.935 354.609,507.496 396.32,507.496 396.32,429.11 396.32,507.496 438.031,507.496 438.031,573.935 396.32,573.935 
  396.32,604.255 
  "/>
<path clip-path="url(#clip312)" d="
M489.011 655.86 L489.011 608.635 L447.3 608.635 L447.3 433.944 L489.011 433.944 L489.011 426.209 L489.011 433.944 L530.722 433.944 L530.722 608.635 L489.011 608.635 
  L489.011 655.86  Z
  " fill="#ff0000" fill-rule="evenodd" fill-opacity="1"/>
<polyline clip-path="url(#clip312)" style="stroke:#ff0000; stroke-linecap:butt; stroke-linejoin:round; stroke-width:2; stroke-opacity:1; fill:none" points="
  489.011,655.86 489.011,608.635 447.3,608.635 447.3,433.944 489.011,433.944 489.011,426.209 489.011,433.944 530.722,433.944 530.722,608.635 489.011,608.635 
  489.011,655.86 
  "/>
<path clip-path="url(#clip312)" d="
M581.703 384.74 L581.703 335.309 L539.991 335.309 L539.991 327.856 L581.703 327.856 L581.703 234.511 L581.703 327.856 L623.414 327.856 L623.414 335.309 L581.703 335.309 
  L581.703 384.74  Z
  " fill="#ff0000" fill-rule="evenodd" fill-opacity="1"/>
<polyline clip-path="url(#clip312)" style="stroke:#ff0000; stroke-linecap:butt; stroke-linejoin:round; stroke-width:2; stroke-opacity:1; fill:none" points="
  581.703,384.74 581.703,335.309 539.991,335.309 539.991,327.856 581.703,327.856 581.703,234.511 581.703,327.856 623.414,327.856 623.414,335.309 581.703,335.309 
  581.703,384.74 
  "/>
<path clip-path="url(#clip312)" d="
M674.394 699.136 L674.394 659.716 L632.683 659.716 L632.683 470.692 L674.394 470.692 L674.394 453.001 L674.394 470.692 L716.105 470.692 L716.105 659.716 L674.394 659.716 
  L674.394 699.136  Z
  " fill="#ff0000" fill-rule="evenodd" fill-opacity="1"/>
<polyline clip-path="url(#clip312)" style="stroke:#ff0000; stroke-linecap:butt; stroke-linejoin:round; stroke-width:2; stroke-opacity:1; fill:none" points="
  674.394,699.136 674.394,659.716 632.683,659.716 632.683,470.692 674.394,470.692 674.394,453.001 674.394,470.692 716.105,470.692 716.105,659.716 674.394,659.716 
  674.394,699.136 
  "/>
<path clip-path="url(#clip312)" d="
M767.085 993.396 L767.085 942.996 L725.374 942.996 L725.374 846.863 L767.085 846.863 L767.085 771.549 L767.085 846.863 L808.796 846.863 L808.796 942.996 L767.085 942.996 
  L767.085 993.396  Z
  " fill="#ff0000" fill-rule="evenodd" fill-opacity="1"/>
<polyline clip-path="url(#clip312)" style="stroke:#ff0000; stroke-linecap:butt; stroke-linejoin:round; stroke-width:2; stroke-opacity:1; fill:none" points="
  767.085,993.396 767.085,942.996 725.374,942.996 725.374,846.863 767.085,846.863 767.085,771.549 767.085,846.863 808.796,846.863 808.796,942.996 767.085,942.996 
  767.085,993.396 
  "/>
<path clip-path="url(#clip312)" d="
M859.777 1294.59 L859.777 1243.23 L818.065 1243.23 L818.065 1114.5 L859.777 1114.5 L859.777 979.913 L859.777 1114.5 L901.488 1114.5 L901.488 1243.23 L859.777 1243.23 
  L859.777 1294.59  Z
  " fill="#ff0000" fill-rule="evenodd" fill-opacity="1"/>
<polyline clip-path="url(#clip312)" style="stroke:#ff0000; stroke-linecap:butt; stroke-linejoin:round; stroke-width:2; stroke-opacity:1; fill:none" points="
  859.777,1294.59 859.777,1243.23 818.065,1243.23 818.065,1114.5 859.777,1114.5 859.777,979.913 859.777,1114.5 901.488,1114.5 901.488,1243.23 859.777,1243.23 
  859.777,1294.59 
  "/>
<path clip-path="url(#clip312)" d="
M952.468 1222.52 L952.468 1118.03 L910.757 1118.03 L910.757 1113.02 L952.468 1113.02 L952.468 1029.8 L952.468 1113.02 L994.179 1113.02 L994.179 1118.03 L952.468 1118.03 
  L952.468 1222.52  Z
  " fill="#ff0000" fill-rule="evenodd" fill-opacity="1"/>
<polyline clip-path="url(#clip312)" style="stroke:#ff0000; stroke-linecap:butt; stroke-linejoin:round; stroke-width:2; stroke-opacity:1; fill:none" points="
  952.468,1222.52 952.468,1118.03 910.757,1118.03 910.757,1113.02 952.468,1113.02 952.468,1029.8 952.468,1113.02 994.179,1113.02 994.179,1118.03 952.468,1118.03 
  952.468,1222.52 
  "/>
<path clip-path="url(#clip312)" d="
M1045.16 991.575 L1045.16 943.167 L1003.45 943.167 L1003.45 804.77 L1045.16 804.77 L1045.16 776.442 L1045.16 804.77 L1086.87 804.77 L1086.87 943.167 L1045.16 943.167 
  L1045.16 991.575  Z
  " fill="#ff0000" fill-rule="evenodd" fill-opacity="1"/>
<polyline clip-path="url(#clip312)" style="stroke:#ff0000; stroke-linecap:butt; stroke-linejoin:round; stroke-width:2; stroke-opacity:1; fill:none" points="
  1045.16,991.575 1045.16,943.167 1003.45,943.167 1003.45,804.77 1045.16,804.77 1045.16,776.442 1045.16,804.77 1086.87,804.77 1086.87,943.167 1045.16,943.167 
  1045.16,991.575 
  "/>
<path clip-path="url(#clip312)" d="
M1137.85 925.135 L1137.85 843.677 L1096.14 843.677 L1096.14 774.906 L1137.85 774.906 L1137.85 763.926 L1137.85 774.906 L1179.56 774.906 L1179.56 843.677 L1137.85 843.677 
  L1137.85 925.135  Z
  " fill="#ff0000" fill-rule="evenodd" fill-opacity="1"/>
<polyline clip-path="url(#clip312)" style="stroke:#ff0000; stroke-linecap:butt; stroke-linejoin:round; stroke-width:2; stroke-opacity:1; fill:none" points="
  1137.85,925.135 1137.85,843.677 1096.14,843.677 1096.14,774.906 1137.85,774.906 1137.85,763.926 1137.85,774.906 1179.56,774.906 1179.56,843.677 1137.85,843.677 
  1137.85,925.135 
  "/>
<path clip-path="url(#clip312)" d="
M1230.54 878.719 L1230.54 877.183 L1188.83 877.183 L1188.83 686.758 L1230.54 686.758 L1230.54 651.241 L1230.54 686.758 L1272.25 686.758 L1272.25 877.183 L1230.54 877.183 
  L1230.54 878.719  Z
  " fill="#ff0000" fill-rule="evenodd" fill-opacity="1"/>
<polyline clip-path="url(#clip312)" style="stroke:#ff0000; stroke-linecap:butt; stroke-linejoin:round; stroke-width:2; stroke-opacity:1; fill:none" points="
  1230.54,878.719 1230.54,877.183 1188.83,877.183 1188.83,686.758 1230.54,686.758 1230.54,651.241 1230.54,686.758 1272.25,686.758 1272.25,877.183 1230.54,877.183 
  1230.54,878.719 
  "/>
<path clip-path="url(#clip312)" d="
M1323.23 1104.2 L1323.23 1099.2 L1281.52 1099.2 L1281.52 847.148 L1323.23 847.148 L1323.23 801.356 L1323.23 847.148 L1364.94 847.148 L1364.94 1099.2 L1323.23 1099.2 
  L1323.23 1104.2  Z
  " fill="#ff0000" fill-rule="evenodd" fill-opacity="1"/>
<polyline clip-path="url(#clip312)" style="stroke:#ff0000; stroke-linecap:butt; stroke-linejoin:round; stroke-width:2; stroke-opacity:1; fill:none" points="
  1323.23,1104.2 1323.23,1099.2 1281.52,1099.2 1281.52,847.148 1323.23,847.148 1323.23,801.356 1323.23,847.148 1364.94,847.148 1364.94,1099.2 1323.23,1099.2 
  1323.23,1104.2 
  "/>
<path clip-path="url(#clip312)" d="
M1415.92 776.725 L1415.92 737.191 L1374.21 737.191 L1374.21 577.632 L1415.92 577.632 L1415.92 553.457 L1415.92 577.632 L1457.64 577.632 L1457.64 737.191 L1415.92 737.191 
  L1415.92 776.725  Z
  " fill="#ff0000" fill-rule="evenodd" fill-opacity="1"/>
<polyline clip-path="url(#clip312)" style="stroke:#ff0000; stroke-linecap:butt; stroke-linejoin:round; stroke-width:2; stroke-opacity:1; fill:none" points="
  1415.92,776.725 1415.92,737.191 1374.21,737.191 1374.21,577.632 1415.92,577.632 1415.92,553.457 1415.92,577.632 1457.64,577.632 1457.64,737.191 1415.92,737.191 
  1415.92,776.725 
  "/>
<path clip-path="url(#clip312)" d="
M1508.62 655.676 L1508.62 640.147 L1466.9 640.147 L1466.9 521.318 L1508.62 521.318 L1508.62 504.196 L1508.62 521.318 L1550.33 521.318 L1550.33 640.147 L1508.62 640.147 
  L1508.62 655.676  Z
  " fill="#ff0000" fill-rule="evenodd" fill-opacity="1"/>
<polyline clip-path="url(#clip312)" style="stroke:#ff0000; stroke-linecap:butt; stroke-linejoin:round; stroke-width:2; stroke-opacity:1; fill:none" points="
  1508.62,655.676 1508.62,640.147 1466.9,640.147 1466.9,521.318 1508.62,521.318 1508.62,504.196 1508.62,521.318 1550.33,521.318 1550.33,640.147 1508.62,640.147 
  1508.62,655.676 
  "/>
<path clip-path="url(#clip312)" d="
M1601.31 554.765 L1601.31 515.573 L1559.6 515.573 L1559.6 289.916 L1601.31 289.916 L1601.31 222.736 L1601.31 289.916 L1643.02 289.916 L1643.02 515.573 L1601.31 515.573 
  L1601.31 554.765  Z
  " fill="#ff0000" fill-rule="evenodd" fill-opacity="1"/>
<polyline clip-path="url(#clip312)" style="stroke:#ff0000; stroke-linecap:butt; stroke-linejoin:round; stroke-width:2; stroke-opacity:1; fill:none" points="
  1601.31,554.765 1601.31,515.573 1559.6,515.573 1559.6,289.916 1601.31,289.916 1601.31,222.736 1601.31,289.916 1643.02,289.916 1643.02,515.573 1601.31,515.573 
  1601.31,554.765 
  "/>
<path clip-path="url(#clip312)" d="
M1694 310.848 L1694 276.263 L1652.29 276.263 L1652.29 214.089 L1694 214.089 L1694 140.767 L1694 214.089 L1735.71 214.089 L1735.71 276.263 L1694 276.263 
  L1694 310.848  Z
  " fill="#ff0000" fill-rule="evenodd" fill-opacity="1"/>
<polyline clip-path="url(#clip312)" style="stroke:#ff0000; stroke-linecap:butt; stroke-linejoin:round; stroke-width:2; stroke-opacity:1; fill:none" points="
  1694,310.848 1694,276.263 1652.29,276.263 1652.29,214.089 1694,214.089 1694,140.767 1694,214.089 1735.71,214.089 1735.71,276.263 1694,276.263 
  1694,310.848 
  "/>
<path clip-path="url(#clip312)" d="
M1786.69 256.667 L1786.69 254.847 L1744.98 254.847 L1744.98 137.125 L1786.69 137.125 L1786.69 83.5747 L1786.69 137.125 L1828.4 137.125 L1828.4 254.847 L1786.69 254.847 
  L1786.69 256.667  Z
  " fill="#ff0000" fill-rule="evenodd" fill-opacity="1"/>
<polyline clip-path="url(#clip312)" style="stroke:#ff0000; stroke-linecap:butt; stroke-linejoin:round; stroke-width:2; stroke-opacity:1; fill:none" points="
  1786.69,256.667 1786.69,254.847 1744.98,254.847 1744.98,137.125 1786.69,137.125 1786.69,83.5747 1786.69,137.125 1828.4,137.125 1828.4,254.847 1786.69,254.847 
  1786.69,256.667 
  "/>
<path clip-path="url(#clip312)" d="
M1879.38 316.48 L1879.38 313.579 L1837.67 313.579 L1837.67 117.729 L1879.38 117.729 L1879.38 100.322 L1879.38 117.729 L1921.09 117.729 L1921.09 313.579 L1879.38 313.579 
  L1879.38 316.48  Z
  " fill="#ff0000" fill-rule="evenodd" fill-opacity="1"/>
<polyline clip-path="url(#clip312)" style="stroke:#ff0000; stroke-linecap:butt; stroke-linejoin:round; stroke-width:2; stroke-opacity:1; fill:none" points="
  1879.38,316.48 1879.38,313.579 1837.67,313.579 1837.67,117.729 1879.38,117.729 1879.38,100.322 1879.38,117.729 1921.09,117.729 1921.09,313.579 1879.38,313.579 
  1879.38,316.48 
  "/>
<path clip-path="url(#clip312)" d="
M1972.07 284.113 L1972.07 262.099 L1930.36 262.099 L1930.36 202.94 L1972.07 202.94 L1972.07 167.786 L1972.07 202.94 L2013.78 202.94 L2013.78 262.099 L1972.07 262.099 
  L1972.07 284.113  Z
  " fill="#ff0000" fill-rule="evenodd" fill-opacity="1"/>
<polyline clip-path="url(#clip312)" style="stroke:#ff0000; stroke-linecap:butt; stroke-linejoin:round; stroke-width:2; stroke-opacity:1; fill:none" points="
  1972.07,284.113 1972.07,262.099 1930.36,262.099 1930.36,202.94 1972.07,202.94 1972.07,167.786 1972.07,202.94 2013.78,202.94 2013.78,262.099 1972.07,262.099 
  1972.07,284.113 
  "/>
<path clip-path="url(#clip312)" d="
M2064.76 300.098 L2064.76 202.712 L2023.05 202.712 L2023.05 158.286 L2064.76 158.286 L2064.76 111.864 L2064.76 158.286 L2106.48 158.286 L2106.48 202.712 L2064.76 202.712 
  L2064.76 300.098  Z
  " fill="#ff0000" fill-rule="evenodd" fill-opacity="1"/>
<polyline clip-path="url(#clip312)" style="stroke:#ff0000; stroke-linecap:butt; stroke-linejoin:round; stroke-width:2; stroke-opacity:1; fill:none" points="
  2064.76,300.098 2064.76,202.712 2023.05,202.712 2023.05,158.286 2064.76,158.286 2064.76,111.864 2064.76,158.286 2106.48,158.286 2106.48,202.712 2064.76,202.712 
  2064.76,300.098 
  "/>
<path clip-path="url(#clip312)" d="
M2157.46 303.966 L2157.46 206.808 L2115.74 206.808 L2115.74 127 L2157.46 127 L2157.46 88.945 L2157.46 127 L2199.17 127 L2199.17 206.808 L2157.46 206.808 
  L2157.46 303.966  Z
  " fill="#ff0000" fill-rule="evenodd" fill-opacity="1"/>
<polyline clip-path="url(#clip312)" style="stroke:#ff0000; stroke-linecap:butt; stroke-linejoin:round; stroke-width:2; stroke-opacity:1; fill:none" points="
  2157.46,303.966 2157.46,206.808 2115.74,206.808 2115.74,127 2157.46,127 2157.46,88.945 2157.46,127 2199.17,127 2199.17,206.808 2157.46,206.808 
  2157.46,303.966 
  "/>
<path clip-path="url(#clip312)" d="
M2250.15 425.525 L2250.15 356.184 L2208.44 356.184 L2208.44 301.633 L2250.15 301.633 L2250.15 272.423 L2250.15 301.633 L2291.86 301.633 L2291.86 356.184 L2250.15 356.184 
  L2250.15 425.525  Z
  " fill="#ff0000" fill-rule="evenodd" fill-opacity="1"/>
<polyline clip-path="url(#clip312)" style="stroke:#ff0000; stroke-linecap:butt; stroke-linejoin:round; stroke-width:2; stroke-opacity:1; fill:none" points="
  2250.15,425.525 2250.15,356.184 2208.44,356.184 2208.44,301.633 2250.15,301.633 2250.15,272.423 2250.15,301.633 2291.86,301.633 2291.86,356.184 2250.15,356.184 
  2250.15,425.525 
  "/>
<circle clip-path="url(#clip312)" cx="303.629" cy="544.043" r="3" fill="#ff0000" fill-rule="evenodd" fill-opacity="1" stroke="#000000" stroke-opacity="1" stroke-width="0"/>
<circle clip-path="url(#clip312)" cx="396.32" cy="540.715" r="3" fill="#ff0000" fill-rule="evenodd" fill-opacity="1" stroke="#000000" stroke-opacity="1" stroke-width="0"/>
<circle clip-path="url(#clip312)" cx="489.011" cy="521.289" r="3" fill="#008000" fill-rule="evenodd" fill-opacity="1" stroke="#000000" stroke-opacity="1" stroke-width="0"/>
<circle clip-path="url(#clip312)" cx="581.703" cy="331.583" r="3" fill="#ff0000" fill-rule="evenodd" fill-opacity="1" stroke="#000000" stroke-opacity="1" stroke-width="0"/>
<circle clip-path="url(#clip312)" cx="674.394" cy="565.204" r="3" fill="#ff0000" fill-rule="evenodd" fill-opacity="1" stroke="#000000" stroke-opacity="1" stroke-width="0"/>
<circle clip-path="url(#clip312)" cx="767.085" cy="894.93" r="3" fill="#008000" fill-rule="evenodd" fill-opacity="1" stroke="#000000" stroke-opacity="1" stroke-width="0"/>
<circle clip-path="url(#clip312)" cx="859.777" cy="1178.86" r="3" fill="#ff0000" fill-rule="evenodd" fill-opacity="1" stroke="#000000" stroke-opacity="1" stroke-width="0"/>
<circle clip-path="url(#clip312)" cx="952.468" cy="1115.52" r="3" fill="#008000" fill-rule="evenodd" fill-opacity="1" stroke="#000000" stroke-opacity="1" stroke-width="0"/>
<circle clip-path="url(#clip312)" cx="1045.16" cy="873.968" r="3" fill="#008000" fill-rule="evenodd" fill-opacity="1" stroke="#000000" stroke-opacity="1" stroke-width="0"/>
<circle clip-path="url(#clip312)" cx="1137.85" cy="809.292" r="3" fill="#008000" fill-rule="evenodd" fill-opacity="1" stroke="#000000" stroke-opacity="1" stroke-width="0"/>
<circle clip-path="url(#clip312)" cx="1230.54" cy="781.97" r="3" fill="#ff0000" fill-rule="evenodd" fill-opacity="1" stroke="#000000" stroke-opacity="1" stroke-width="0"/>
<circle clip-path="url(#clip312)" cx="1323.23" cy="973.174" r="3" fill="#008000" fill-rule="evenodd" fill-opacity="1" stroke="#000000" stroke-opacity="1" stroke-width="0"/>
<circle clip-path="url(#clip312)" cx="1415.92" cy="657.412" r="3" fill="#008000" fill-rule="evenodd" fill-opacity="1" stroke="#000000" stroke-opacity="1" stroke-width="0"/>
<circle clip-path="url(#clip312)" cx="1508.62" cy="580.733" r="3" fill="#ff0000" fill-rule="evenodd" fill-opacity="1" stroke="#000000" stroke-opacity="1" stroke-width="0"/>
<circle clip-path="url(#clip312)" cx="1601.31" cy="402.744" r="3" fill="#008000" fill-rule="evenodd" fill-opacity="1" stroke="#000000" stroke-opacity="1" stroke-width="0"/>
<circle clip-path="url(#clip312)" cx="1694" cy="245.176" r="3" fill="#ff0000" fill-rule="evenodd" fill-opacity="1" stroke="#000000" stroke-opacity="1" stroke-width="0"/>
<circle clip-path="url(#clip312)" cx="1786.69" cy="195.986" r="3" fill="#008000" fill-rule="evenodd" fill-opacity="1" stroke="#000000" stroke-opacity="1" stroke-width="0"/>
<circle clip-path="url(#clip312)" cx="1879.38" cy="215.654" r="3" fill="#ff0000" fill-rule="evenodd" fill-opacity="1" stroke="#000000" stroke-opacity="1" stroke-width="0"/>
<circle clip-path="url(#clip312)" cx="1972.07" cy="232.519" r="3" fill="#ff0000" fill-rule="evenodd" fill-opacity="1" stroke="#000000" stroke-opacity="1" stroke-width="0"/>
<circle clip-path="url(#clip312)" cx="2064.76" cy="180.499" r="3" fill="#008000" fill-rule="evenodd" fill-opacity="1" stroke="#000000" stroke-opacity="1" stroke-width="0"/>
<circle clip-path="url(#clip312)" cx="2157.46" cy="166.904" r="3" fill="#ff0000" fill-rule="evenodd" fill-opacity="1" stroke="#000000" stroke-opacity="1" stroke-width="0"/>
<circle clip-path="url(#clip312)" cx="2250.15" cy="328.908" r="3" fill="#008000" fill-rule="evenodd" fill-opacity="1" stroke="#000000" stroke-opacity="1" stroke-width="0"/>
</svg>
