<?xml version="1.0" encoding="utf-8"?>
<svg xmlns="http://www.w3.org/2000/svg" xmlns:xlink="http://www.w3.org/1999/xlink" width="600" height="400" viewBox="0 0 2400 1600">
<defs>
  <clipPath id="clip720">
    <rect x="0" y="0" width="2400" height="1600"/>
  </clipPath>
</defs>
<path clip-path="url(#clip720)" d="
M0 1600 L2400 1600 L2400 0 L0 0  Z
  " fill="#ffffff" fill-rule="evenodd" fill-opacity="1"/>
<defs>
  <clipPath id="clip721">
    <rect x="480" y="0" width="1681" height="1600"/>
  </clipPath>
</defs>
<path clip-path="url(#clip720)" d="
M201.019 1330.92 L2352.76 1330.92 L2352.76 47.2441 L201.019 47.2441  Z
  " fill="#ffffff" fill-rule="evenodd" fill-opacity="1"/>
<defs>
  <clipPath id="clip722">
    <rect x="201" y="47" width="2153" height="1285"/>
  </clipPath>
</defs>
<polyline clip-path="url(#clip722)" style="stroke:#000000; stroke-linecap:butt; stroke-linejoin:round; stroke-width:2; stroke-opacity:0.1; fill:none" points="
  303.629,1330.92 303.629,47.2441 
  "/>
<polyline clip-path="url(#clip722)" style="stroke:#000000; stroke-linecap:butt; stroke-linejoin:round; stroke-width:2; stroke-opacity:0.1; fill:none" points="
  396.32,1330.92 396.32,47.2441 
  "/>
<polyline clip-path="url(#clip722)" style="stroke:#000000; stroke-linecap:butt; stroke-linejoin:round; stroke-width:2; stroke-opacity:0.1; fill:none" points="
  489.011,1330.92 489.011,47.2441 
  "/>
<polyline clip-path="url(#clip722)" style="stroke:#000000; stroke-linecap:butt; stroke-linejoin:round; stroke-width:2; stroke-opacity:0.1; fill:none" points="
  581.703,1330.92 581.703,47.2441 
  "/>
<polyline clip-path="url(#clip722)" style="stroke:#000000; stroke-linecap:butt; stroke-linejoin:round; stroke-width:2; stroke-opacity:0.1; fill:none" points="
  674.394,1330.92 674.394,47.2441 
  "/>
<polyline clip-path="url(#clip722)" style="stroke:#000000; stroke-linecap:butt; stroke-linejoin:round; stroke-width:2; stroke-opacity:0.1; fill:none" points="
  767.085,1330.92 767.085,47.2441 
  "/>
<polyline clip-path="url(#clip722)" style="stroke:#000000; stroke-linecap:butt; stroke-linejoin:round; stroke-width:2; stroke-opacity:0.1; fill:none" points="
  859.777,1330.92 859.777,47.2441 
  "/>
<polyline clip-path="url(#clip722)" style="stroke:#000000; stroke-linecap:butt; stroke-linejoin:round; stroke-width:2; stroke-opacity:0.1; fill:none" points="
  952.468,1330.92 952.468,47.2441 
  "/>
<polyline clip-path="url(#clip722)" style="stroke:#000000; stroke-linecap:butt; stroke-linejoin:round; stroke-width:2; stroke-opacity:0.1; fill:none" points="
  1045.16,1330.92 1045.16,47.2441 
  "/>
<polyline clip-path="url(#clip722)" style="stroke:#000000; stroke-linecap:butt; stroke-linejoin:round; stroke-width:2; stroke-opacity:0.1; fill:none" points="
  1137.85,1330.92 1137.85,47.2441 
  "/>
<polyline clip-path="url(#clip722)" style="stroke:#000000; stroke-linecap:butt; stroke-linejoin:round; stroke-width:2; stroke-opacity:0.1; fill:none" points="
  1230.54,1330.92 1230.54,47.2441 
  "/>
<polyline clip-path="url(#clip722)" style="stroke:#000000; stroke-linecap:butt; stroke-linejoin:round; stroke-width:2; stroke-opacity:0.1; fill:none" points="
  1323.23,1330.92 1323.23,47.2441 
  "/>
<polyline clip-path="url(#clip722)" style="stroke:#000000; stroke-linecap:butt; stroke-linejoin:round; stroke-width:2; stroke-opacity:0.1; fill:none" points="
  1415.92,1330.92 1415.92,47.2441 
  "/>
<polyline clip-path="url(#clip722)" style="stroke:#000000; stroke-linecap:butt; stroke-linejoin:round; stroke-width:2; stroke-opacity:0.1; fill:none" points="
  1508.62,1330.92 1508.62,47.2441 
  "/>
<polyline clip-path="url(#clip722)" style="stroke:#000000; stroke-linecap:butt; stroke-linejoin:round; stroke-width:2; stroke-opacity:0.1; fill:none" points="
  1601.31,1330.92 1601.31,47.2441 
  "/>
<polyline clip-path="url(#clip722)" style="stroke:#000000; stroke-linecap:butt; stroke-linejoin:round; stroke-width:2; stroke-opacity:0.1; fill:none" points="
  1694,1330.92 1694,47.2441 
  "/>
<polyline clip-path="url(#clip722)" style="stroke:#000000; stroke-linecap:butt; stroke-linejoin:round; stroke-width:2; stroke-opacity:0.1; fill:none" points="
  1786.69,1330.92 1786.69,47.2441 
  "/>
<polyline clip-path="url(#clip722)" style="stroke:#000000; stroke-linecap:butt; stroke-linejoin:round; stroke-width:2; stroke-opacity:0.1; fill:none" points="
  1879.38,1330.92 1879.38,47.2441 
  "/>
<polyline clip-path="url(#clip722)" style="stroke:#000000; stroke-linecap:butt; stroke-linejoin:round; stroke-width:2; stroke-opacity:0.1; fill:none" points="
  1972.07,1330.92 1972.07,47.2441 
  "/>
<polyline clip-path="url(#clip722)" style="stroke:#000000; stroke-linecap:butt; stroke-linejoin:round; stroke-width:2; stroke-opacity:0.1; fill:none" points="
  2064.76,1330.92 2064.76,47.2441 
  "/>
<polyline clip-path="url(#clip722)" style="stroke:#000000; stroke-linecap:butt; stroke-linejoin:round; stroke-width:2; stroke-opacity:0.1; fill:none" points="
  2157.46,1330.92 2157.46,47.2441 
  "/>
<polyline clip-path="url(#clip722)" style="stroke:#000000; stroke-linecap:butt; stroke-linejoin:round; stroke-width:2; stroke-opacity:0.1; fill:none" points="
  2250.15,1330.92 2250.15,47.2441 
  "/>
<polyline clip-path="url(#clip720)" style="stroke:#000000; stroke-linecap:butt; stroke-linejoin:round; stroke-width:4; stroke-opacity:1; fill:none" points="
  201.019,1330.92 2352.76,1330.92 
  "/>
<polyline clip-path="url(#clip720)" style="stroke:#000000; stroke-linecap:butt; stroke-linejoin:round; stroke-width:4; stroke-opacity:1; fill:none" points="
  303.629,1330.92 303.629,1315.52 
  "/>
<polyline clip-path="url(#clip720)" style="stroke:#000000; stroke-linecap:butt; stroke-linejoin:round; stroke-width:4; stroke-opacity:1; fill:none" points="
  396.32,1330.92 396.32,1315.52 
  "/>
<polyline clip-path="url(#clip720)" style="stroke:#000000; stroke-linecap:butt; stroke-linejoin:round; stroke-width:4; stroke-opacity:1; fill:none" points="
  489.011,1330.92 489.011,1315.52 
  "/>
<polyline clip-path="url(#clip720)" style="stroke:#000000; stroke-linecap:butt; stroke-linejoin:round; stroke-width:4; stroke-opacity:1; fill:none" points="
  581.703,1330.92 581.703,1315.52 
  "/>
<polyline clip-path="url(#clip720)" style="stroke:#000000; stroke-linecap:butt; stroke-linejoin:round; stroke-width:4; stroke-opacity:1; fill:none" points="
  674.394,1330.92 674.394,1315.52 
  "/>
<polyline clip-path="url(#clip720)" style="stroke:#000000; stroke-linecap:butt; stroke-linejoin:round; stroke-width:4; stroke-opacity:1; fill:none" points="
  767.085,1330.92 767.085,1315.52 
  "/>
<polyline clip-path="url(#clip720)" style="stroke:#000000; stroke-linecap:butt; stroke-linejoin:round; stroke-width:4; stroke-opacity:1; fill:none" points="
  859.777,1330.92 859.777,1315.52 
  "/>
<polyline clip-path="url(#clip720)" style="stroke:#000000; stroke-linecap:butt; stroke-linejoin:round; stroke-width:4; stroke-opacity:1; fill:none" points="
  952.468,1330.92 952.468,1315.52 
  "/>
<polyline clip-path="url(#clip720)" style="stroke:#000000; stroke-linecap:butt; stroke-linejoin:round; stroke-width:4; stroke-opacity:1; fill:none" points="
  1045.16,1330.92 1045.16,1315.52 
  "/>
<polyline clip-path="url(#clip720)" style="stroke:#000000; stroke-linecap:butt; stroke-linejoin:round; stroke-width:4; stroke-opacity:1; fill:none" points="
  1137.85,1330.92 1137.85,1315.52 
  "/>
<polyline clip-path="url(#clip720)" style="stroke:#000000; stroke-linecap:butt; stroke-linejoin:round; stroke-width:4; stroke-opacity:1; fill:none" points="
  1230.54,1330.92 1230.54,1315.52 
  "/>
<polyline clip-path="url(#clip720)" style="stroke:#000000; stroke-linecap:butt; stroke-linejoin:round; stroke-width:4; stroke-opacity:1; fill:none" points="
  1323.23,1330.92 1323.23,1315.52 
  "/>
<polyline clip-path="url(#clip720)" style="stroke:#000000; stroke-linecap:butt; stroke-linejoin:round; stroke-width:4; stroke-opacity:1; fill:none" points="
  1415.92,1330.92 1415.92,1315.52 
  "/>
<polyline clip-path="url(#clip720)" style="stroke:#000000; stroke-linecap:butt; stroke-linejoin:round; stroke-width:4; stroke-opacity:1; fill:none" points="
  1508.62,1330.92 1508.62,1315.52 
  "/>
<polyline clip-path="url(#clip720)" style="stroke:#000000; stroke-linecap:butt; stroke-linejoin:round; stroke-width:4; stroke-opacity:1; fill:none" points="
  1601.31,1330.92 1601.31,1315.52 
  "/>
<polyline clip-path="url(#clip720)" style="stroke:#000000; stroke-linecap:butt; stroke-linejoin:round; stroke-width:4; stroke-opacity:1; fill:none" points="
  1694,1330.92 1694,1315.52 
  "/>
<polyline clip-path="url(#clip720)" style="stroke:#000000; stroke-linecap:butt; stroke-linejoin:round; stroke-width:4; stroke-opacity:1; fill:none" points="
  1786.69,1330.92 1786.69,1315.52 
  "/>
<polyline clip-path="url(#clip720)" style="stroke:#000000; stroke-linecap:butt; stroke-linejoin:round; stroke-width:4; stroke-opacity:1; fill:none" points="
  1879.38,1330.92 1879.38,1315.52 
  "/>
<polyline clip-path="url(#clip720)" style="stroke:#000000; stroke-linecap:butt; stroke-linejoin:round; stroke-width:4; stroke-opacity:1; fill:none" points="
  1972.07,1330.92 1972.07,1315.52 
  "/>
<polyline clip-path="url(#clip720)" style="stroke:#000000; stroke-linecap:butt; stroke-linejoin:round; stroke-width:4; stroke-opacity:1; fill:none" points="
  2064.76,1330.92 2064.76,1315.52 
  "/>
<polyline clip-path="url(#clip720)" style="stroke:#000000; stroke-linecap:butt; stroke-linejoin:round; stroke-width:4; stroke-opacity:1; fill:none" points="
  2157.46,1330.92 2157.46,1315.52 
  "/>
<polyline clip-path="url(#clip720)" style="stroke:#000000; stroke-linecap:butt; stroke-linejoin:round; stroke-width:4; stroke-opacity:1; fill:none" points="
  2250.15,1330.92 2250.15,1315.52 
  "/>
<path clip-path="url(#clip720)" d="M205.003 1596.02 L213.163 1581.89 L216.571 1583.86 L205.598 1602.86 L202.19 1600.89 Q201.136 1597.21 199.418 1590.93 Q197.692 1584.61 197.12 1582.92 Q196.057 1579.71 194.993 1578.08 Q193.921 1576.42 192.458 1575.58 Q190.072 1574.2 187.597 1575.01 Q185.132 1575.81 183.581 1578.5 Q182.482 1580.4 181.917 1582.91 Q181.363 1585.4 181.317 1588.58 L177.228 1586.22 Q177.657 1583.2 178.383 1580.79 Q179.109 1578.37 180.127 1576.61 Q182.812 1571.96 186.735 1570.53 Q190.658 1569.11 194.547 1571.36 Q196.391 1572.42 197.65 1574.08 Q198.9 1575.71 200.092 1578.83 Q200.384 1579.67 201.62 1583.97 Q202.835 1588.25 205.003 1596.02 Z" fill="#000000" fill-rule="evenodd" fill-opacity="1" /><path clip-path="url(#clip720)" d="M199.214 1550.96 Q197.409 1554.08 199.582 1557.45 Q201.746 1560.79 207.92 1564.35 Q214.075 1567.9 218.065 1568.12 Q222.046 1568.31 223.852 1565.18 Q225.669 1562.03 223.504 1558.7 Q221.332 1555.33 215.177 1551.78 Q209.003 1548.22 205.021 1548.03 Q201.031 1547.81 199.214 1550.96 M196.007 1549.11 Q198.912 1544.07 204.429 1543.73 Q209.938 1543.36 217.515 1547.73 Q225.073 1552.09 227.523 1557.06 Q229.964 1562 227.059 1567.03 Q224.154 1572.07 218.646 1572.44 Q213.128 1572.78 205.571 1568.42 Q197.993 1564.04 195.552 1559.11 Q193.102 1554.14 196.007 1549.11 Z" fill="#000000" fill-rule="evenodd" fill-opacity="1" /><path clip-path="url(#clip720)" d="M235.165 1543.78 L243.324 1529.65 L246.732 1531.62 L235.76 1550.62 L232.352 1548.65 Q231.298 1544.97 229.58 1538.69 Q227.854 1532.37 227.281 1530.68 Q226.219 1527.47 225.155 1525.84 Q224.083 1524.18 222.62 1523.33 Q220.234 1521.96 217.758 1522.77 Q215.294 1523.57 213.743 1526.26 Q212.644 1528.16 212.079 1530.67 Q211.525 1533.15 211.479 1536.33 L207.39 1533.97 Q207.819 1530.96 208.545 1528.55 Q209.271 1526.13 210.289 1524.37 Q212.974 1519.72 216.897 1518.29 Q220.82 1516.87 224.709 1519.11 Q226.553 1520.18 227.812 1521.84 Q229.062 1523.47 230.254 1526.59 Q230.546 1527.43 231.782 1531.72 Q232.997 1536.01 235.165 1543.78 Z" fill="#000000" fill-rule="evenodd" fill-opacity="1" /><path clip-path="url(#clip720)" d="M248.637 1520.45 L252.456 1513.83 L229.623 1500.65 L226.911 1508.68 L223.223 1506.55 L225.911 1498.56 L228.249 1494.51 L254.771 1509.82 L258.591 1503.21 L261.999 1505.17 L252.045 1522.41 L248.637 1520.45 Z" fill="#000000" fill-rule="evenodd" fill-opacity="1" /><path clip-path="url(#clip720)" d="M252.453 1491.94 L258.692 1481.13 L261.979 1483.03 L255.741 1493.84 L252.453 1491.94 Z" fill="#000000" fill-rule="evenodd" fill-opacity="1" /><path clip-path="url(#clip720)" d="M253.01 1457.78 Q251.205 1460.91 253.378 1464.27 Q255.542 1467.61 261.716 1471.17 Q267.871 1474.73 271.861 1474.94 Q275.842 1475.13 277.648 1472 Q279.465 1468.86 277.3 1465.52 Q275.128 1462.16 268.973 1458.6 Q262.799 1455.04 258.817 1454.85 Q254.827 1454.63 253.01 1457.78 M249.803 1455.93 Q252.708 1450.9 258.225 1450.55 Q263.734 1450.18 271.311 1454.55 Q278.869 1458.92 281.319 1463.89 Q283.76 1468.82 280.855 1473.86 Q277.95 1478.89 272.442 1479.26 Q266.924 1479.61 259.367 1475.24 Q251.789 1470.87 249.348 1465.93 Q246.898 1460.96 249.803 1455.93 Z" fill="#000000" fill-rule="evenodd" fill-opacity="1" /><path clip-path="url(#clip720)" d="M260.448 1438.74 L269.626 1422.84 L273.034 1424.81 L265.997 1437 L273.334 1441.23 Q273.543 1440.18 273.912 1439.22 Q274.261 1438.24 274.77 1437.36 Q277.664 1432.35 282.1 1431.01 Q286.536 1429.67 291.227 1432.37 Q296.058 1435.16 297.008 1439.72 Q297.938 1444.27 294.779 1449.74 Q293.691 1451.62 292.236 1453.4 Q290.792 1455.16 288.947 1456.88 L284.878 1454.53 Q286.902 1453.29 288.494 1451.64 Q290.086 1450 291.325 1447.85 Q293.327 1444.38 292.672 1441.31 Q292.016 1438.23 288.889 1436.42 Q285.762 1434.62 282.768 1435.59 Q279.775 1436.56 277.773 1440.03 Q276.835 1441.65 276.259 1443.48 Q275.694 1445.3 275.483 1447.42 L260.448 1438.74 Z" fill="#000000" fill-rule="evenodd" fill-opacity="1" /><path clip-path="url(#clip720)" d="M291.168 1424.88 L297.407 1414.08 L300.694 1415.98 L294.456 1426.78 L291.168 1424.88 Z" fill="#000000" fill-rule="evenodd" fill-opacity="1" /><path clip-path="url(#clip720)" d="M291.725 1390.72 Q289.92 1393.85 292.093 1397.22 Q294.257 1400.55 300.431 1404.12 Q306.586 1407.67 310.576 1407.89 Q314.557 1408.08 316.363 1404.95 Q318.18 1401.8 316.016 1398.47 Q313.843 1395.1 307.688 1391.55 Q301.514 1387.98 297.532 1387.79 Q293.542 1387.58 291.725 1390.72 M288.518 1388.87 Q291.423 1383.84 296.94 1383.5 Q302.449 1383.12 310.026 1387.5 Q317.584 1391.86 320.034 1396.83 Q322.475 1401.77 319.57 1406.8 Q316.665 1411.83 311.157 1412.21 Q305.64 1412.55 298.082 1408.19 Q290.504 1403.81 288.063 1398.87 Q285.613 1393.9 288.518 1388.87 Z" fill="#000000" fill-rule="evenodd" fill-opacity="1" /><path clip-path="url(#clip720)" d="M299.163 1371.68 L308.341 1355.79 L311.749 1357.75 L304.712 1369.94 L312.049 1374.18 Q312.258 1373.12 312.627 1372.16 Q312.976 1371.18 313.485 1370.3 Q316.379 1365.29 320.815 1363.95 Q325.251 1362.61 329.942 1365.32 Q334.773 1368.11 335.723 1372.66 Q336.654 1377.21 333.494 1382.68 Q332.406 1384.57 330.951 1386.35 Q329.507 1388.11 327.662 1389.82 L323.593 1387.47 Q325.617 1386.23 327.209 1384.59 Q328.801 1382.94 330.04 1380.8 Q332.042 1377.33 331.387 1374.25 Q330.731 1371.17 327.604 1369.37 Q324.477 1367.56 321.484 1368.53 Q318.49 1369.5 316.488 1372.97 Q315.55 1374.6 314.974 1376.43 Q314.409 1378.24 314.198 1380.36 L299.163 1371.68 Z" fill="#000000" fill-rule="evenodd" fill-opacity="1" /><path clip-path="url(#clip720)" d="M482.579 1596.89 L490.739 1582.75 L494.147 1584.72 L483.175 1603.72 L479.767 1601.76 Q478.712 1598.07 476.994 1591.79 Q475.268 1585.47 474.696 1583.78 Q473.633 1580.57 472.57 1578.94 Q471.498 1577.28 470.034 1576.44 Q467.649 1575.06 465.173 1575.88 Q462.709 1576.67 461.158 1579.36 Q460.058 1581.26 459.493 1583.77 Q458.939 1586.26 458.893 1589.44 L454.804 1587.08 Q455.234 1584.06 455.959 1581.65 Q456.685 1579.24 457.704 1577.47 Q460.389 1572.82 464.311 1571.4 Q468.234 1569.97 472.123 1572.22 Q473.967 1573.28 475.226 1574.95 Q476.476 1576.58 477.668 1579.7 Q477.961 1580.53 479.196 1584.83 Q480.412 1589.11 482.579 1596.89 Z" fill="#000000" fill-rule="evenodd" fill-opacity="1" /><path clip-path="url(#clip720)" d="M476.791 1551.82 Q474.985 1554.95 477.158 1558.31 Q479.322 1561.65 485.497 1565.21 Q491.651 1568.77 495.641 1568.98 Q499.623 1569.17 501.428 1566.04 Q503.245 1562.9 501.081 1559.56 Q498.908 1556.2 492.754 1552.64 Q486.579 1549.08 482.598 1548.89 Q478.608 1548.67 476.791 1551.82 M473.583 1549.97 Q476.488 1544.94 482.005 1544.59 Q487.514 1544.22 495.092 1548.59 Q502.649 1552.96 505.099 1557.93 Q507.541 1562.86 504.636 1567.9 Q501.73 1572.93 496.222 1573.3 Q490.705 1573.64 483.147 1569.28 Q475.569 1564.91 473.128 1559.97 Q470.678 1555 473.583 1549.97 Z" fill="#000000" fill-rule="evenodd" fill-opacity="1" /><path clip-path="url(#clip720)" d="M512.741 1544.64 L520.901 1530.51 L524.309 1532.48 L513.337 1551.48 L509.929 1549.51 Q508.874 1545.83 507.156 1539.55 Q505.43 1533.23 504.858 1531.54 Q503.795 1528.33 502.732 1526.7 Q501.659 1525.04 500.196 1524.2 Q497.81 1522.82 495.335 1523.64 Q492.871 1524.43 491.32 1527.12 Q490.22 1529.02 489.655 1531.53 Q489.101 1534.02 489.055 1537.2 L484.966 1534.84 Q485.396 1531.82 486.121 1529.41 Q486.847 1526.99 487.865 1525.23 Q490.551 1520.58 494.473 1519.16 Q498.396 1517.73 502.285 1519.98 Q504.129 1521.04 505.388 1522.7 Q506.638 1524.33 507.83 1527.45 Q508.122 1528.29 509.358 1532.59 Q510.574 1536.87 512.741 1544.64 Z" fill="#000000" fill-rule="evenodd" fill-opacity="1" /><path clip-path="url(#clip720)" d="M526.213 1521.31 L530.033 1514.69 L507.199 1501.51 L504.488 1509.54 L500.799 1507.41 L503.488 1499.42 L505.826 1495.37 L532.347 1510.68 L536.167 1504.07 L539.575 1506.04 L529.621 1523.28 L526.213 1521.31 Z" fill="#000000" fill-rule="evenodd" fill-opacity="1" /><path clip-path="url(#clip720)" d="M530.03 1492.8 L536.268 1482 L539.556 1483.89 L533.317 1494.7 L530.03 1492.8 Z" fill="#000000" fill-rule="evenodd" fill-opacity="1" /><path clip-path="url(#clip720)" d="M530.587 1458.64 Q528.781 1461.77 530.954 1465.14 Q533.118 1468.47 539.293 1472.03 Q545.447 1475.59 549.437 1475.81 Q553.419 1475.99 555.224 1472.87 Q557.041 1469.72 554.877 1466.38 Q552.704 1463.02 546.55 1459.47 Q540.375 1455.9 536.394 1455.71 Q532.404 1455.49 530.587 1458.64 M527.379 1456.79 Q530.284 1451.76 535.801 1451.42 Q541.31 1451.04 548.888 1455.42 Q556.445 1459.78 558.895 1464.75 Q561.337 1469.69 558.432 1474.72 Q555.526 1479.75 550.018 1480.12 Q544.501 1480.47 536.943 1476.1 Q529.365 1471.73 526.924 1466.79 Q524.474 1461.82 527.379 1456.79 Z" fill="#000000" fill-rule="evenodd" fill-opacity="1" /><path clip-path="url(#clip720)" d="M538.024 1439.6 L547.203 1423.7 L550.611 1425.67 L543.574 1437.86 L550.911 1442.1 Q551.119 1441.04 551.488 1440.08 Q551.837 1439.1 552.346 1438.22 Q555.24 1433.21 559.676 1431.87 Q564.112 1430.53 568.803 1433.24 Q573.635 1436.02 574.585 1440.58 Q575.515 1445.13 572.355 1450.6 Q571.267 1452.49 569.812 1454.27 Q568.369 1456.03 566.524 1457.74 L562.454 1455.39 Q564.478 1454.15 566.07 1452.51 Q567.662 1450.86 568.901 1448.71 Q570.903 1445.25 570.248 1442.17 Q569.593 1439.09 566.465 1437.28 Q563.338 1435.48 560.345 1436.45 Q557.352 1437.42 555.349 1440.89 Q554.412 1442.51 553.835 1444.35 Q553.27 1446.16 553.06 1448.28 L538.024 1439.6 Z" fill="#000000" fill-rule="evenodd" fill-opacity="1" /><path clip-path="url(#clip720)" d="M568.745 1425.74 L574.983 1414.94 L578.271 1416.84 L572.032 1427.64 L568.745 1425.74 Z" fill="#000000" fill-rule="evenodd" fill-opacity="1" /><path clip-path="url(#clip720)" d="M588.562 1413.32 L592.382 1406.7 L569.549 1393.52 L566.837 1401.55 L563.148 1399.42 L565.837 1391.43 L568.175 1387.38 L594.697 1402.69 L598.516 1396.08 L601.924 1398.04 L591.97 1415.28 L588.562 1413.32 Z" fill="#000000" fill-rule="evenodd" fill-opacity="1" /><path clip-path="url(#clip720)" d="M584.383 1365.46 Q582.577 1368.59 584.75 1371.96 Q586.914 1375.29 593.089 1378.86 Q599.243 1382.41 603.233 1382.63 Q607.215 1382.82 609.02 1379.69 Q610.837 1376.54 608.673 1373.21 Q606.5 1369.84 600.346 1366.29 Q594.171 1362.72 590.19 1362.54 Q586.2 1362.32 584.383 1365.46 M581.175 1363.61 Q584.08 1358.58 589.597 1358.24 Q595.106 1357.86 602.684 1362.24 Q610.241 1366.6 612.691 1371.57 Q615.133 1376.51 612.228 1381.54 Q609.322 1386.57 603.814 1386.95 Q598.297 1387.29 590.739 1382.93 Q583.161 1378.55 580.72 1373.61 Q578.27 1368.64 581.175 1363.61 Z" fill="#000000" fill-rule="evenodd" fill-opacity="1" /><path clip-path="url(#clip720)" d="M760.977 1596.32 L769.137 1582.19 L772.545 1584.16 L761.573 1603.16 L758.165 1601.2 Q757.11 1597.51 755.393 1591.23 Q753.666 1584.91 753.094 1583.22 Q752.032 1580.01 750.968 1578.38 Q749.896 1576.72 748.432 1575.88 Q746.047 1574.5 743.571 1575.32 Q741.107 1576.11 739.556 1578.8 Q738.456 1580.7 737.891 1583.21 Q737.337 1585.7 737.292 1588.88 L733.202 1586.52 Q733.632 1583.5 734.357 1581.09 Q735.083 1578.67 736.102 1576.91 Q738.787 1572.26 742.709 1570.84 Q746.632 1569.41 750.521 1571.66 Q752.365 1572.72 753.624 1574.38 Q754.875 1576.01 756.067 1579.14 Q756.359 1579.97 757.594 1584.27 Q758.81 1588.55 760.977 1596.32 Z" fill="#000000" fill-rule="evenodd" fill-opacity="1" /><path clip-path="url(#clip720)" d="M755.189 1551.26 Q753.383 1554.39 755.556 1557.75 Q757.72 1561.09 763.895 1564.65 Q770.049 1568.2 774.039 1568.42 Q778.021 1568.61 779.826 1565.48 Q781.643 1562.34 779.479 1559 Q777.306 1555.63 771.152 1552.08 Q764.977 1548.52 760.996 1548.33 Q757.006 1548.11 755.189 1551.26 M751.981 1549.41 Q754.886 1544.37 760.403 1544.03 Q765.912 1543.66 773.49 1548.03 Q781.047 1552.4 783.497 1557.36 Q785.939 1562.3 783.034 1567.33 Q780.129 1572.37 774.62 1572.74 Q769.103 1573.08 761.545 1568.72 Q753.968 1564.35 751.526 1559.41 Q749.076 1554.44 751.981 1549.41 Z" fill="#000000" fill-rule="evenodd" fill-opacity="1" /><path clip-path="url(#clip720)" d="M791.139 1544.08 L799.299 1529.95 L802.707 1531.92 L791.735 1550.92 L788.327 1548.95 Q787.272 1545.27 785.554 1538.99 Q783.828 1532.67 783.256 1530.98 Q782.193 1527.77 781.13 1526.14 Q780.058 1524.48 778.594 1523.64 Q776.209 1522.26 773.733 1523.07 Q771.269 1523.87 769.718 1526.56 Q768.618 1528.46 768.053 1530.97 Q767.499 1533.45 767.453 1536.64 L763.364 1534.27 Q763.794 1531.26 764.519 1528.85 Q765.245 1526.43 766.264 1524.67 Q768.949 1520.02 772.871 1518.59 Q776.794 1517.17 780.683 1519.42 Q782.527 1520.48 783.786 1522.14 Q785.036 1523.77 786.228 1526.89 Q786.52 1527.73 787.756 1532.03 Q788.972 1536.31 791.139 1544.08 Z" fill="#000000" fill-rule="evenodd" fill-opacity="1" /><path clip-path="url(#clip720)" d="M804.611 1520.75 L808.431 1514.13 L785.597 1500.95 L782.886 1508.98 L779.197 1506.85 L781.886 1498.86 L784.224 1494.81 L810.746 1510.12 L814.565 1503.51 L817.973 1505.48 L808.019 1522.72 L804.611 1520.75 Z" fill="#000000" fill-rule="evenodd" fill-opacity="1" /><path clip-path="url(#clip720)" d="M808.428 1492.24 L814.666 1481.43 L817.954 1483.33 L811.715 1494.14 L808.428 1492.24 Z" fill="#000000" fill-rule="evenodd" fill-opacity="1" /><path clip-path="url(#clip720)" d="M808.985 1458.08 Q807.179 1461.21 809.352 1464.57 Q811.516 1467.91 817.691 1471.47 Q823.845 1475.03 827.835 1475.25 Q831.817 1475.43 833.622 1472.31 Q835.439 1469.16 833.275 1465.82 Q831.102 1462.46 824.948 1458.9 Q818.773 1455.34 814.792 1455.15 Q810.802 1454.93 808.985 1458.08 M805.777 1456.23 Q808.682 1451.2 814.199 1450.85 Q819.708 1450.48 827.286 1454.85 Q834.843 1459.22 837.293 1464.19 Q839.735 1469.13 836.83 1474.16 Q833.925 1479.19 828.416 1479.56 Q822.899 1479.91 815.341 1475.54 Q807.764 1471.17 805.322 1466.23 Q802.872 1461.26 805.777 1456.23 Z" fill="#000000" fill-rule="evenodd" fill-opacity="1" /><path clip-path="url(#clip720)" d="M816.423 1439.04 L825.601 1423.14 L829.009 1425.11 L821.972 1437.3 L829.309 1441.54 Q829.517 1440.48 829.886 1439.52 Q830.235 1438.54 830.744 1437.66 Q833.638 1432.65 838.074 1431.31 Q842.51 1429.97 847.201 1432.67 Q852.033 1435.46 852.983 1440.02 Q853.913 1444.57 850.753 1450.04 Q849.665 1451.92 848.21 1453.7 Q846.767 1455.46 844.922 1457.18 L840.852 1454.83 Q842.876 1453.59 844.468 1451.94 Q846.061 1450.3 847.299 1448.15 Q849.301 1444.69 848.646 1441.61 Q847.991 1438.53 844.863 1436.72 Q841.736 1434.92 838.743 1435.89 Q835.75 1436.86 833.747 1440.33 Q832.81 1441.95 832.233 1443.79 Q831.668 1445.6 831.458 1447.72 L816.423 1439.04 Z" fill="#000000" fill-rule="evenodd" fill-opacity="1" /><path clip-path="url(#clip720)" d="M847.143 1425.18 L853.381 1414.38 L856.669 1416.28 L850.43 1427.08 L847.143 1425.18 Z" fill="#000000" fill-rule="evenodd" fill-opacity="1" /><path clip-path="url(#clip720)" d="M866.961 1412.76 L870.78 1406.14 L847.947 1392.96 L845.235 1400.99 L841.546 1398.86 L844.235 1390.87 L846.573 1386.82 L873.095 1402.13 L876.914 1395.52 L880.322 1397.48 L870.368 1414.72 L866.961 1412.76 Z" fill="#000000" fill-rule="evenodd" fill-opacity="1" /><path clip-path="url(#clip720)" d="M875.99 1367.72 Q878.29 1365.17 881.192 1364.68 Q884.105 1364.17 886.992 1365.84 Q891.422 1368.4 892.089 1372.84 Q892.755 1377.29 889.515 1382.9 Q888.427 1384.79 886.888 1386.57 Q885.382 1388.35 883.413 1390.05 L879.504 1387.79 Q881.458 1386.67 883.117 1384.96 Q884.776 1383.24 886.037 1381.06 Q888.236 1377.25 887.879 1374.4 Q887.532 1371.52 884.666 1369.87 Q882.02 1368.34 879.46 1369.35 Q876.891 1370.32 874.982 1373.63 L872.968 1377.12 L869.64 1375.2 L871.747 1371.55 Q873.471 1368.56 873.203 1366.3 Q872.914 1364.02 870.669 1362.72 Q868.364 1361.39 866.192 1362.33 Q864.011 1363.23 862.252 1366.28 Q861.291 1367.95 860.553 1370.06 Q859.814 1372.17 859.256 1374.9 L855.648 1372.81 Q856.337 1370.14 857.174 1367.95 Q858.022 1365.74 859.052 1363.95 Q861.714 1359.34 865.37 1357.87 Q869.006 1356.39 872.574 1358.45 Q875.06 1359.88 875.962 1362.3 Q876.845 1364.71 875.99 1367.72 Z" fill="#000000" fill-rule="evenodd" fill-opacity="1" /><path clip-path="url(#clip720)" d="M1038.77 1596.81 L1046.93 1582.67 L1050.34 1584.64 L1039.37 1603.64 L1035.96 1601.68 Q1034.91 1597.99 1033.19 1591.71 Q1031.46 1585.39 1030.89 1583.7 Q1029.83 1580.49 1028.76 1578.86 Q1027.69 1577.2 1026.23 1576.36 Q1023.84 1574.98 1021.37 1575.8 Q1018.9 1576.59 1017.35 1579.28 Q1016.25 1581.18 1015.69 1583.69 Q1015.13 1586.18 1015.09 1589.36 L1011 1587 Q1011.43 1583.98 1012.15 1581.57 Q1012.88 1579.16 1013.9 1577.39 Q1016.58 1572.74 1020.51 1571.32 Q1024.43 1569.89 1028.32 1572.14 Q1030.16 1573.2 1031.42 1574.87 Q1032.67 1576.5 1033.86 1579.62 Q1034.15 1580.45 1035.39 1584.75 Q1036.61 1589.03 1038.77 1596.81 Z" fill="#000000" fill-rule="evenodd" fill-opacity="1" /><path clip-path="url(#clip720)" d="M1032.98 1551.74 Q1031.18 1554.87 1033.35 1558.23 Q1035.52 1561.57 1041.69 1565.13 Q1047.85 1568.68 1051.84 1568.9 Q1055.82 1569.09 1057.62 1565.96 Q1059.44 1562.82 1057.28 1559.48 Q1055.1 1556.12 1048.95 1552.56 Q1042.77 1549 1038.79 1548.81 Q1034.8 1548.59 1032.98 1551.74 M1029.78 1549.89 Q1032.68 1544.86 1038.2 1544.51 Q1043.71 1544.14 1051.29 1548.51 Q1058.84 1552.88 1061.29 1557.85 Q1063.73 1562.78 1060.83 1567.82 Q1057.92 1572.85 1052.42 1573.22 Q1046.9 1573.56 1039.34 1569.2 Q1031.76 1564.83 1029.32 1559.89 Q1026.87 1554.92 1029.78 1549.89 Z" fill="#000000" fill-rule="evenodd" fill-opacity="1" /><path clip-path="url(#clip720)" d="M1068.94 1544.56 L1077.1 1530.43 L1080.5 1532.4 L1069.53 1551.4 L1066.12 1549.43 Q1065.07 1545.75 1063.35 1539.47 Q1061.62 1533.15 1061.05 1531.46 Q1059.99 1528.25 1058.93 1526.62 Q1057.85 1524.96 1056.39 1524.12 Q1054 1522.74 1051.53 1523.55 Q1049.06 1524.35 1047.51 1527.04 Q1046.41 1528.94 1045.85 1531.45 Q1045.3 1533.94 1045.25 1537.12 L1041.16 1534.76 Q1041.59 1531.74 1042.32 1529.33 Q1043.04 1526.91 1044.06 1525.15 Q1046.74 1520.5 1050.67 1519.07 Q1054.59 1517.65 1058.48 1519.9 Q1060.32 1520.96 1061.58 1522.62 Q1062.83 1524.25 1064.02 1527.37 Q1064.32 1528.21 1065.55 1532.51 Q1066.77 1536.79 1068.94 1544.56 Z" fill="#000000" fill-rule="evenodd" fill-opacity="1" /><path clip-path="url(#clip720)" d="M1082.41 1521.23 L1086.23 1514.61 L1063.39 1501.43 L1060.68 1509.46 L1056.99 1507.33 L1059.68 1499.34 L1062.02 1495.29 L1088.54 1510.6 L1092.36 1503.99 L1095.77 1505.96 L1085.82 1523.2 L1082.41 1521.23 Z" fill="#000000" fill-rule="evenodd" fill-opacity="1" /><path clip-path="url(#clip720)" d="M1086.22 1492.72 L1092.46 1481.92 L1095.75 1483.81 L1089.51 1494.62 L1086.22 1492.72 Z" fill="#000000" fill-rule="evenodd" fill-opacity="1" /><path clip-path="url(#clip720)" d="M1086.78 1458.56 Q1084.98 1461.69 1087.15 1465.06 Q1089.31 1468.39 1095.49 1471.95 Q1101.64 1475.51 1105.63 1475.73 Q1109.61 1475.91 1111.42 1472.79 Q1113.24 1469.64 1111.07 1466.3 Q1108.9 1462.94 1102.74 1459.39 Q1096.57 1455.82 1092.59 1455.63 Q1088.6 1455.41 1086.78 1458.56 M1083.57 1456.71 Q1086.48 1451.68 1092 1451.34 Q1097.5 1450.96 1105.08 1455.34 Q1112.64 1459.7 1115.09 1464.67 Q1117.53 1469.61 1114.63 1474.64 Q1111.72 1479.67 1106.21 1480.04 Q1100.7 1480.39 1093.14 1476.02 Q1085.56 1471.65 1083.12 1466.71 Q1080.67 1461.74 1083.57 1456.71 Z" fill="#000000" fill-rule="evenodd" fill-opacity="1" /><path clip-path="url(#clip720)" d="M1094.22 1439.52 L1103.4 1423.62 L1106.8 1425.59 L1099.77 1437.78 L1107.11 1442.02 Q1107.31 1440.96 1107.68 1440 Q1108.03 1439.02 1108.54 1438.14 Q1111.43 1433.13 1115.87 1431.79 Q1120.31 1430.45 1125 1433.16 Q1129.83 1435.94 1130.78 1440.5 Q1131.71 1445.05 1128.55 1450.52 Q1127.46 1452.41 1126.01 1454.19 Q1124.56 1455.94 1122.72 1457.66 L1118.65 1455.31 Q1120.67 1454.07 1122.26 1452.43 Q1123.86 1450.78 1125.1 1448.63 Q1127.1 1445.17 1126.44 1442.09 Q1125.79 1439.01 1122.66 1437.2 Q1119.53 1435.4 1116.54 1436.37 Q1113.55 1437.34 1111.54 1440.81 Q1110.61 1442.43 1110.03 1444.27 Q1109.46 1446.08 1109.25 1448.2 L1094.22 1439.52 Z" fill="#000000" fill-rule="evenodd" fill-opacity="1" /><path clip-path="url(#clip720)" d="M1124.94 1425.66 L1131.18 1414.86 L1134.47 1416.76 L1128.23 1427.56 L1124.94 1425.66 Z" fill="#000000" fill-rule="evenodd" fill-opacity="1" /><path clip-path="url(#clip720)" d="M1144.76 1413.24 L1148.58 1406.62 L1125.74 1393.44 L1123.03 1401.47 L1119.34 1399.34 L1122.03 1391.35 L1124.37 1387.3 L1150.89 1402.61 L1154.71 1396 L1158.12 1397.96 L1148.16 1415.2 L1144.76 1413.24 Z" fill="#000000" fill-rule="evenodd" fill-opacity="1" /><path clip-path="url(#clip720)" d="M1153.63 1372.92 Q1151.96 1375.81 1152.54 1378.36 Q1153.14 1380.9 1155.84 1382.46 Q1158.55 1384.02 1161.04 1383.27 Q1163.55 1382.5 1165.21 1379.61 Q1166.88 1376.72 1166.3 1374.17 Q1165.7 1371.6 1163.01 1370.05 Q1160.3 1368.49 1157.8 1369.26 Q1155.31 1370.01 1153.63 1372.92 M1149.57 1375.97 Q1147.42 1378.21 1144.79 1378.64 Q1142.17 1379.06 1139.61 1377.57 Q1136.02 1375.5 1135.4 1371.75 Q1134.8 1367.98 1137.37 1363.53 Q1139.95 1359.06 1143.51 1357.72 Q1147.06 1356.38 1150.65 1358.45 Q1153.21 1359.93 1154.15 1362.42 Q1155.1 1364.9 1154.25 1367.85 Q1156.62 1365.32 1159.55 1364.84 Q1162.48 1364.34 1165.35 1366 Q1169.7 1368.51 1170.48 1372.52 Q1171.28 1376.51 1168.42 1381.46 Q1165.56 1386.41 1161.7 1387.74 Q1157.85 1389.04 1153.49 1386.53 Q1150.63 1384.87 1149.59 1382.08 Q1148.56 1379.29 1149.57 1375.97 M1142.31 1373.76 Q1144.64 1375.11 1146.78 1374.42 Q1148.92 1373.7 1150.44 1371.08 Q1151.94 1368.47 1151.49 1366.26 Q1151.04 1364.02 1148.71 1362.68 Q1146.39 1361.34 1144.23 1362.07 Q1142.08 1362.78 1140.58 1365.38 Q1139.06 1368.01 1139.52 1370.23 Q1139.99 1372.42 1142.31 1373.76 Z" fill="#000000" fill-rule="evenodd" fill-opacity="1" /><path clip-path="url(#clip720)" d="M1317.41 1595.82 L1325.57 1581.69 L1328.98 1583.66 L1318.01 1602.66 L1314.6 1600.69 Q1313.55 1597.01 1311.83 1590.73 Q1310.1 1584.41 1309.53 1582.72 Q1308.47 1579.51 1307.41 1577.88 Q1306.33 1576.22 1304.87 1575.38 Q1302.48 1574 1300.01 1574.81 Q1297.54 1575.61 1295.99 1578.3 Q1294.89 1580.2 1294.33 1582.71 Q1293.77 1585.19 1293.73 1588.38 L1289.64 1586.01 Q1290.07 1583 1290.79 1580.59 Q1291.52 1578.17 1292.54 1576.41 Q1295.22 1571.76 1299.15 1570.33 Q1303.07 1568.91 1306.96 1571.16 Q1308.8 1572.22 1310.06 1573.88 Q1311.31 1575.51 1312.5 1578.63 Q1312.8 1579.47 1314.03 1583.77 Q1315.25 1588.05 1317.41 1595.82 Z" fill="#000000" fill-rule="evenodd" fill-opacity="1" /><path clip-path="url(#clip720)" d="M1311.63 1550.76 Q1309.82 1553.88 1311.99 1557.25 Q1314.16 1560.58 1320.33 1564.15 Q1326.49 1567.7 1330.48 1567.92 Q1334.46 1568.11 1336.26 1564.98 Q1338.08 1561.83 1335.92 1558.5 Q1333.74 1555.13 1327.59 1551.58 Q1321.41 1548.02 1317.43 1547.83 Q1313.44 1547.61 1311.63 1550.76 M1308.42 1548.9 Q1311.32 1543.87 1316.84 1543.53 Q1322.35 1543.16 1329.93 1547.53 Q1337.48 1551.89 1339.93 1556.86 Q1342.38 1561.8 1339.47 1566.83 Q1336.57 1571.86 1331.06 1572.24 Q1325.54 1572.58 1317.98 1568.22 Q1310.4 1563.84 1307.96 1558.91 Q1305.51 1553.94 1308.42 1548.9 Z" fill="#000000" fill-rule="evenodd" fill-opacity="1" /><path clip-path="url(#clip720)" d="M1347.58 1543.58 L1355.74 1529.45 L1359.14 1531.42 L1348.17 1550.42 L1344.76 1548.45 Q1343.71 1544.77 1341.99 1538.49 Q1340.27 1532.17 1339.69 1530.48 Q1338.63 1527.27 1337.57 1525.64 Q1336.49 1523.98 1335.03 1523.13 Q1332.65 1521.76 1330.17 1522.57 Q1327.71 1523.37 1326.16 1526.05 Q1325.06 1527.96 1324.49 1530.47 Q1323.94 1532.95 1323.89 1536.13 L1319.8 1533.77 Q1320.23 1530.76 1320.96 1528.35 Q1321.68 1525.93 1322.7 1524.17 Q1325.39 1519.52 1329.31 1518.09 Q1333.23 1516.67 1337.12 1518.91 Q1338.96 1519.98 1340.22 1521.64 Q1341.47 1523.27 1342.67 1526.39 Q1342.96 1527.23 1344.19 1531.52 Q1345.41 1535.81 1347.58 1543.58 Z" fill="#000000" fill-rule="evenodd" fill-opacity="1" /><path clip-path="url(#clip720)" d="M1361.05 1520.25 L1364.87 1513.63 L1342.03 1500.45 L1339.32 1508.48 L1335.63 1506.35 L1338.32 1498.36 L1340.66 1494.31 L1367.18 1509.62 L1371 1503.01 L1374.41 1504.97 L1364.46 1522.21 L1361.05 1520.25 Z" fill="#000000" fill-rule="evenodd" fill-opacity="1" /><path clip-path="url(#clip720)" d="M1364.87 1491.74 L1371.1 1480.93 L1374.39 1482.83 L1368.15 1493.64 L1364.87 1491.74 Z" fill="#000000" fill-rule="evenodd" fill-opacity="1" /><path clip-path="url(#clip720)" d="M1365.42 1457.58 Q1363.62 1460.71 1365.79 1464.07 Q1367.95 1467.41 1374.13 1470.97 Q1380.28 1474.53 1384.27 1474.74 Q1388.25 1474.93 1390.06 1471.8 Q1391.88 1468.66 1389.71 1465.32 Q1387.54 1461.96 1381.39 1458.4 Q1375.21 1454.84 1371.23 1454.65 Q1367.24 1454.43 1365.42 1457.58 M1362.21 1455.73 Q1365.12 1450.7 1370.64 1450.35 Q1376.15 1449.98 1383.72 1454.35 Q1391.28 1458.72 1393.73 1463.69 Q1396.17 1468.62 1393.27 1473.66 Q1390.36 1478.69 1384.85 1479.06 Q1379.34 1479.4 1371.78 1475.04 Q1364.2 1470.67 1361.76 1465.73 Q1359.31 1460.76 1362.21 1455.73 Z" fill="#000000" fill-rule="evenodd" fill-opacity="1" /><path clip-path="url(#clip720)" d="M1372.86 1438.54 L1382.04 1422.64 L1385.45 1424.61 L1378.41 1436.8 L1385.75 1441.03 Q1385.95 1439.98 1386.32 1439.02 Q1386.67 1438.04 1387.18 1437.16 Q1390.08 1432.15 1394.51 1430.81 Q1398.95 1429.46 1403.64 1432.17 Q1408.47 1434.96 1409.42 1439.52 Q1410.35 1444.07 1407.19 1449.54 Q1406.1 1451.42 1404.65 1453.2 Q1403.2 1454.96 1401.36 1456.68 L1397.29 1454.33 Q1399.31 1453.09 1400.91 1451.44 Q1402.5 1449.8 1403.74 1447.65 Q1405.74 1444.18 1405.08 1441.11 Q1404.43 1438.03 1401.3 1436.22 Q1398.17 1434.42 1395.18 1435.39 Q1392.19 1436.36 1390.18 1439.83 Q1389.25 1441.45 1388.67 1443.28 Q1388.11 1445.1 1387.89 1447.22 L1372.86 1438.54 Z" fill="#000000" fill-rule="evenodd" fill-opacity="1" /><path clip-path="url(#clip720)" d="M1403.58 1424.68 L1409.82 1413.88 L1413.11 1415.77 L1406.87 1426.58 L1403.58 1424.68 Z" fill="#000000" fill-rule="evenodd" fill-opacity="1" /><path clip-path="url(#clip720)" d="M1425.01 1409.47 L1433.17 1395.34 L1436.57 1397.3 L1425.6 1416.31 L1422.19 1414.34 Q1421.14 1410.66 1419.42 1404.37 Q1417.7 1398.06 1417.12 1396.36 Q1416.06 1393.16 1415 1391.53 Q1413.93 1389.87 1412.46 1389.02 Q1410.08 1387.64 1407.6 1388.46 Q1405.14 1389.26 1403.59 1391.94 Q1402.49 1393.85 1401.92 1396.35 Q1401.37 1398.84 1401.32 1402.02 L1397.23 1399.66 Q1397.66 1396.65 1398.39 1394.23 Q1399.11 1391.82 1400.13 1390.05 Q1402.82 1385.4 1406.74 1383.98 Q1410.66 1382.56 1414.55 1384.8 Q1416.39 1385.87 1417.65 1387.53 Q1418.9 1389.16 1420.1 1392.28 Q1420.39 1393.12 1421.62 1397.41 Q1422.84 1401.69 1425.01 1409.47 Z" fill="#000000" fill-rule="evenodd" fill-opacity="1" /><path clip-path="url(#clip720)" d="M1438.48 1386.13 L1442.3 1379.52 L1419.46 1366.34 L1416.75 1374.37 L1413.06 1372.24 L1415.75 1364.25 L1418.09 1360.2 L1444.61 1375.51 L1448.43 1368.89 L1451.84 1370.86 L1441.89 1388.1 L1438.48 1386.13 Z" fill="#000000" fill-rule="evenodd" fill-opacity="1" /><path clip-path="url(#clip720)" d="M1594.79 1597.03 L1602.95 1582.89 L1606.36 1584.86 L1595.39 1603.86 L1591.98 1601.9 Q1590.93 1598.21 1589.21 1591.93 Q1587.48 1585.61 1586.91 1583.92 Q1585.85 1580.71 1584.78 1579.09 Q1583.71 1577.42 1582.25 1576.58 Q1579.86 1575.2 1577.39 1576.02 Q1574.92 1576.81 1573.37 1579.5 Q1572.27 1581.4 1571.71 1583.91 Q1571.15 1586.4 1571.11 1589.58 L1567.02 1587.22 Q1567.45 1584.2 1568.17 1581.79 Q1568.9 1579.38 1569.92 1577.61 Q1572.6 1572.96 1576.53 1571.54 Q1580.45 1570.11 1584.34 1572.36 Q1586.18 1573.42 1587.44 1575.09 Q1588.69 1576.72 1589.88 1579.84 Q1590.18 1580.67 1591.41 1584.97 Q1592.63 1589.25 1594.79 1597.03 Z" fill="#000000" fill-rule="evenodd" fill-opacity="1" /><path clip-path="url(#clip720)" d="M1589.01 1551.96 Q1587.2 1555.09 1589.37 1558.45 Q1591.54 1561.79 1597.71 1565.35 Q1603.87 1568.91 1607.86 1569.12 Q1611.84 1569.31 1613.64 1566.18 Q1615.46 1563.04 1613.3 1559.7 Q1611.12 1556.34 1604.97 1552.78 Q1598.79 1549.22 1594.81 1549.03 Q1590.82 1548.81 1589.01 1551.96 M1585.8 1550.11 Q1588.7 1545.08 1594.22 1544.73 Q1599.73 1544.36 1607.31 1548.73 Q1614.86 1553.1 1617.31 1558.07 Q1619.76 1563 1616.85 1568.04 Q1613.95 1573.07 1608.44 1573.44 Q1602.92 1573.79 1595.36 1569.42 Q1587.78 1565.05 1585.34 1560.11 Q1582.89 1555.14 1585.8 1550.11 Z" fill="#000000" fill-rule="evenodd" fill-opacity="1" /><path clip-path="url(#clip720)" d="M1624.96 1544.78 L1633.12 1530.65 L1636.52 1532.62 L1625.55 1551.62 L1622.14 1549.66 Q1621.09 1545.97 1619.37 1539.69 Q1617.65 1533.37 1617.07 1531.68 Q1616.01 1528.47 1614.95 1526.84 Q1613.87 1525.18 1612.41 1524.34 Q1610.03 1522.96 1607.55 1523.78 Q1605.09 1524.57 1603.53 1527.26 Q1602.44 1529.16 1601.87 1531.67 Q1601.32 1534.16 1601.27 1537.34 L1597.18 1534.98 Q1597.61 1531.96 1598.34 1529.55 Q1599.06 1527.13 1600.08 1525.37 Q1602.77 1520.72 1606.69 1519.3 Q1610.61 1517.87 1614.5 1520.12 Q1616.34 1521.18 1617.6 1522.84 Q1618.85 1524.47 1620.05 1527.6 Q1620.34 1528.43 1621.57 1532.73 Q1622.79 1537.01 1624.96 1544.78 Z" fill="#000000" fill-rule="evenodd" fill-opacity="1" /><path clip-path="url(#clip720)" d="M1638.43 1521.45 L1642.25 1514.83 L1619.41 1501.65 L1616.7 1509.68 L1613.01 1507.55 L1615.7 1499.56 L1618.04 1495.51 L1644.56 1510.82 L1648.38 1504.21 L1651.79 1506.18 L1641.84 1523.42 L1638.43 1521.45 Z" fill="#000000" fill-rule="evenodd" fill-opacity="1" /><path clip-path="url(#clip720)" d="M1642.24 1492.94 L1648.48 1482.14 L1651.77 1484.03 L1645.53 1494.84 L1642.24 1492.94 Z" fill="#000000" fill-rule="evenodd" fill-opacity="1" /><path clip-path="url(#clip720)" d="M1642.8 1458.78 Q1641 1461.91 1643.17 1465.28 Q1645.33 1468.61 1651.51 1472.17 Q1657.66 1475.73 1661.65 1475.95 Q1665.63 1476.13 1667.44 1473.01 Q1669.26 1469.86 1667.09 1466.52 Q1664.92 1463.16 1658.76 1459.61 Q1652.59 1456.04 1648.61 1455.85 Q1644.62 1455.63 1642.8 1458.78 M1639.59 1456.93 Q1642.5 1451.9 1648.02 1451.56 Q1653.52 1451.18 1661.1 1455.56 Q1668.66 1459.92 1671.11 1464.89 Q1673.55 1469.83 1670.65 1474.86 Q1667.74 1479.89 1662.23 1480.26 Q1656.72 1480.61 1649.16 1476.24 Q1641.58 1471.87 1639.14 1466.93 Q1636.69 1461.96 1639.59 1456.93 Z" fill="#000000" fill-rule="evenodd" fill-opacity="1" /><path clip-path="url(#clip720)" d="M1650.24 1439.74 L1659.42 1423.84 L1662.83 1425.81 L1655.79 1438 L1663.13 1442.24 Q1663.33 1441.18 1663.7 1440.22 Q1664.05 1439.24 1664.56 1438.36 Q1667.45 1433.35 1671.89 1432.01 Q1676.33 1430.67 1681.02 1433.38 Q1685.85 1436.17 1686.8 1440.72 Q1687.73 1445.27 1684.57 1450.74 Q1683.48 1452.63 1682.03 1454.41 Q1680.58 1456.17 1678.74 1457.88 L1674.67 1455.53 Q1676.69 1454.29 1678.29 1452.65 Q1679.88 1451 1681.12 1448.85 Q1683.12 1445.39 1682.46 1442.31 Q1681.81 1439.23 1678.68 1437.43 Q1675.55 1435.62 1672.56 1436.59 Q1669.57 1437.56 1667.56 1441.03 Q1666.63 1442.65 1666.05 1444.49 Q1665.48 1446.3 1665.27 1448.42 L1650.24 1439.74 Z" fill="#000000" fill-rule="evenodd" fill-opacity="1" /><path clip-path="url(#clip720)" d="M1680.96 1425.88 L1687.2 1415.08 L1690.49 1416.98 L1684.25 1427.78 L1680.96 1425.88 Z" fill="#000000" fill-rule="evenodd" fill-opacity="1" /><path clip-path="url(#clip720)" d="M1702.39 1410.67 L1710.55 1396.54 L1713.95 1398.51 L1702.98 1417.51 L1699.57 1415.54 Q1698.52 1411.86 1696.8 1405.58 Q1695.08 1399.26 1694.5 1397.57 Q1693.44 1394.36 1692.38 1392.73 Q1691.3 1391.07 1689.84 1390.22 Q1687.46 1388.85 1684.98 1389.66 Q1682.52 1390.46 1680.96 1393.14 Q1679.87 1395.05 1679.3 1397.56 Q1678.75 1400.04 1678.7 1403.22 L1674.61 1400.86 Q1675.04 1397.85 1675.77 1395.44 Q1676.49 1393.02 1677.51 1391.26 Q1680.2 1386.61 1684.12 1385.18 Q1688.04 1383.76 1691.93 1386 Q1693.77 1387.07 1695.03 1388.73 Q1696.28 1390.36 1697.48 1393.48 Q1697.77 1394.32 1699 1398.61 Q1700.22 1402.9 1702.39 1410.67 Z" fill="#000000" fill-rule="evenodd" fill-opacity="1" /><path clip-path="url(#clip720)" d="M1707.57 1371.27 Q1706 1374 1706.94 1376.68 Q1707.89 1379.34 1711.13 1381.21 Q1714.36 1383.08 1717.16 1382.58 Q1719.95 1382.05 1721.52 1379.33 Q1723.1 1376.6 1722.15 1373.94 Q1721.19 1371.25 1717.96 1369.39 Q1714.71 1367.51 1711.92 1368.04 Q1709.15 1368.55 1707.57 1371.27 M1699.52 1355.91 L1703.21 1358.04 Q1701.61 1359.14 1700.33 1360.49 Q1699.05 1361.81 1698.18 1363.33 Q1695.86 1367.34 1697.34 1371.03 Q1698.83 1374.7 1704.13 1378.16 Q1703.07 1375.97 1703.18 1373.65 Q1703.26 1371.33 1704.5 1369.18 Q1707.11 1364.67 1711.36 1363.65 Q1715.6 1362.6 1720.31 1365.32 Q1724.92 1367.98 1726.14 1372.31 Q1727.35 1376.65 1724.73 1381.18 Q1721.73 1386.37 1716.18 1386.83 Q1710.6 1387.27 1703.05 1382.91 Q1695.95 1378.81 1693.68 1373.01 Q1691.4 1367.2 1694.67 1361.53 Q1695.55 1360 1696.75 1358.63 Q1697.95 1357.24 1699.52 1355.91 Z" fill="#000000" fill-rule="evenodd" fill-opacity="1" /><path clip-path="url(#clip720)" d="M1873.56 1595.82 L1881.72 1581.69 L1885.13 1583.66 L1874.16 1602.66 L1870.75 1600.69 Q1869.7 1597.01 1867.98 1590.73 Q1866.25 1584.41 1865.68 1582.72 Q1864.62 1579.51 1863.55 1577.88 Q1862.48 1576.22 1861.02 1575.38 Q1858.63 1574 1856.16 1574.81 Q1853.69 1575.61 1852.14 1578.3 Q1851.04 1580.2 1850.48 1582.71 Q1849.92 1585.19 1849.88 1588.38 L1845.79 1586.01 Q1846.22 1583 1846.94 1580.59 Q1847.67 1578.17 1848.69 1576.41 Q1851.37 1571.76 1855.29 1570.33 Q1859.22 1568.91 1863.11 1571.16 Q1864.95 1572.22 1866.21 1573.88 Q1867.46 1575.51 1868.65 1578.63 Q1868.94 1579.47 1870.18 1583.77 Q1871.4 1588.05 1873.56 1595.82 Z" fill="#000000" fill-rule="evenodd" fill-opacity="1" /><path clip-path="url(#clip720)" d="M1867.77 1550.76 Q1865.97 1553.88 1868.14 1557.25 Q1870.31 1560.58 1876.48 1564.15 Q1882.63 1567.7 1886.62 1567.92 Q1890.61 1568.11 1892.41 1564.98 Q1894.23 1561.83 1892.06 1558.5 Q1889.89 1555.13 1883.74 1551.58 Q1877.56 1548.02 1873.58 1547.83 Q1869.59 1547.61 1867.77 1550.76 M1864.57 1548.9 Q1867.47 1543.87 1872.99 1543.53 Q1878.5 1543.16 1886.07 1547.53 Q1893.63 1551.89 1896.08 1556.86 Q1898.52 1561.8 1895.62 1566.83 Q1892.71 1571.86 1887.21 1572.24 Q1881.69 1572.58 1874.13 1568.22 Q1866.55 1563.84 1864.11 1558.91 Q1861.66 1553.94 1864.57 1548.9 Z" fill="#000000" fill-rule="evenodd" fill-opacity="1" /><path clip-path="url(#clip720)" d="M1903.72 1543.58 L1911.88 1529.45 L1915.29 1531.42 L1904.32 1550.42 L1900.91 1548.45 Q1899.86 1544.77 1898.14 1538.49 Q1896.41 1532.17 1895.84 1530.48 Q1894.78 1527.27 1893.72 1525.64 Q1892.64 1523.98 1891.18 1523.13 Q1888.79 1521.76 1886.32 1522.57 Q1883.85 1523.37 1882.3 1526.05 Q1881.2 1527.96 1880.64 1530.47 Q1880.08 1532.95 1880.04 1536.13 L1875.95 1533.77 Q1876.38 1530.76 1877.1 1528.35 Q1877.83 1525.93 1878.85 1524.17 Q1881.53 1519.52 1885.46 1518.09 Q1889.38 1516.67 1893.27 1518.91 Q1895.11 1519.98 1896.37 1521.64 Q1897.62 1523.27 1898.81 1526.39 Q1899.11 1527.23 1900.34 1531.52 Q1901.56 1535.81 1903.72 1543.58 Z" fill="#000000" fill-rule="evenodd" fill-opacity="1" /><path clip-path="url(#clip720)" d="M1917.2 1520.25 L1921.02 1513.63 L1898.18 1500.45 L1895.47 1508.48 L1891.78 1506.35 L1894.47 1498.36 L1896.81 1494.31 L1923.33 1509.62 L1927.15 1503.01 L1930.56 1504.97 L1920.6 1522.21 L1917.2 1520.25 Z" fill="#000000" fill-rule="evenodd" fill-opacity="1" /><path clip-path="url(#clip720)" d="M1921.01 1491.74 L1927.25 1480.93 L1930.54 1482.83 L1924.3 1493.64 L1921.01 1491.74 Z" fill="#000000" fill-rule="evenodd" fill-opacity="1" /><path clip-path="url(#clip720)" d="M1921.57 1457.58 Q1919.76 1460.71 1921.94 1464.07 Q1924.1 1467.41 1930.28 1470.97 Q1936.43 1474.53 1940.42 1474.74 Q1944.4 1474.93 1946.21 1471.8 Q1948.02 1468.66 1945.86 1465.32 Q1943.69 1461.96 1937.53 1458.4 Q1931.36 1454.84 1927.38 1454.65 Q1923.39 1454.43 1921.57 1457.58 M1918.36 1455.73 Q1921.27 1450.7 1926.78 1450.35 Q1932.29 1449.98 1939.87 1454.35 Q1947.43 1458.72 1949.88 1463.69 Q1952.32 1468.62 1949.41 1473.66 Q1946.51 1478.69 1941 1479.06 Q1935.48 1479.4 1927.93 1475.04 Q1920.35 1470.67 1917.91 1465.73 Q1915.46 1460.76 1918.36 1455.73 Z" fill="#000000" fill-rule="evenodd" fill-opacity="1" /><path clip-path="url(#clip720)" d="M1947.63 1437.13 Q1946.05 1439.85 1946.99 1442.53 Q1947.94 1445.19 1951.19 1447.07 Q1954.41 1448.93 1957.21 1448.44 Q1960 1447.91 1961.58 1445.18 Q1963.15 1442.46 1962.2 1439.8 Q1961.24 1437.1 1958.02 1435.24 Q1954.77 1433.37 1951.98 1433.89 Q1949.2 1434.4 1947.63 1437.13 M1939.58 1421.76 L1943.27 1423.89 Q1941.66 1425 1940.38 1426.34 Q1939.11 1427.67 1938.23 1429.19 Q1935.91 1433.2 1937.39 1436.89 Q1938.88 1440.55 1944.18 1444.01 Q1943.12 1441.82 1943.23 1439.51 Q1943.32 1437.18 1944.56 1435.03 Q1947.16 1430.52 1951.41 1429.5 Q1955.65 1428.45 1960.37 1431.17 Q1964.98 1433.83 1966.19 1438.17 Q1967.4 1442.5 1964.79 1447.03 Q1961.79 1452.23 1956.23 1452.68 Q1950.66 1453.12 1943.1 1448.76 Q1936 1444.66 1933.74 1438.86 Q1931.45 1433.05 1934.73 1427.38 Q1935.61 1425.86 1936.8 1424.49 Q1938 1423.1 1939.58 1421.76 Z" fill="#000000" fill-rule="evenodd" fill-opacity="1" /><path clip-path="url(#clip720)" d="M1959.73 1424.68 L1965.97 1413.88 L1969.25 1415.77 L1963.02 1426.58 L1959.73 1424.68 Z" fill="#000000" fill-rule="evenodd" fill-opacity="1" /><path clip-path="url(#clip720)" d="M1960.29 1390.52 Q1958.48 1393.65 1960.65 1397.02 Q1962.82 1400.35 1968.99 1403.92 Q1975.15 1407.47 1979.14 1407.69 Q1983.12 1407.87 1984.92 1404.75 Q1986.74 1401.6 1984.58 1398.27 Q1982.4 1394.9 1976.25 1391.35 Q1970.07 1387.78 1966.09 1387.59 Q1962.1 1387.38 1960.29 1390.52 M1957.08 1388.67 Q1959.98 1383.64 1965.5 1383.3 Q1971.01 1382.92 1978.59 1387.3 Q1986.14 1391.66 1988.59 1396.63 Q1991.04 1401.57 1988.13 1406.6 Q1985.22 1411.63 1979.72 1412.01 Q1974.2 1412.35 1966.64 1407.99 Q1959.06 1403.61 1956.62 1398.67 Q1954.17 1393.7 1957.08 1388.67 Z" fill="#000000" fill-rule="evenodd" fill-opacity="1" /><path clip-path="url(#clip720)" d="M1994.63 1386.13 L1998.45 1379.52 L1975.61 1366.34 L1972.9 1374.37 L1969.21 1372.24 L1971.9 1364.25 L1974.24 1360.2 L2000.76 1375.51 L2004.58 1368.89 L2007.99 1370.86 L1998.03 1388.1 L1994.63 1386.13 Z" fill="#000000" fill-rule="evenodd" fill-opacity="1" /><path clip-path="url(#clip720)" d="M2150.78 1597.31 L2158.94 1583.17 L2162.35 1585.14 L2151.38 1604.15 L2147.97 1602.18 Q2146.91 1598.5 2145.2 1592.21 Q2143.47 1585.9 2142.9 1584.2 Q2141.83 1581 2140.77 1579.37 Q2139.7 1577.7 2138.24 1576.86 Q2135.85 1575.48 2133.37 1576.3 Q2130.91 1577.09 2129.36 1579.78 Q2128.26 1581.68 2127.69 1584.19 Q2127.14 1586.68 2127.09 1589.86 L2123 1587.5 Q2123.43 1584.49 2124.16 1582.07 Q2124.89 1579.66 2125.9 1577.89 Q2128.59 1573.24 2132.51 1571.82 Q2136.43 1570.39 2140.32 1572.64 Q2142.17 1573.7 2143.43 1575.37 Q2144.68 1577 2145.87 1580.12 Q2146.16 1580.95 2147.4 1585.25 Q2148.61 1589.53 2150.78 1597.31 Z" fill="#000000" fill-rule="evenodd" fill-opacity="1" /><path clip-path="url(#clip720)" d="M2144.99 1552.24 Q2143.19 1555.37 2145.36 1558.73 Q2147.52 1562.07 2153.7 1565.63 Q2159.85 1569.19 2163.84 1569.4 Q2167.82 1569.59 2169.63 1566.46 Q2171.45 1563.32 2169.28 1559.98 Q2167.11 1556.62 2160.95 1553.06 Q2154.78 1549.5 2150.8 1549.31 Q2146.81 1549.09 2144.99 1552.24 M2141.78 1550.39 Q2144.69 1545.36 2150.21 1545.01 Q2155.71 1544.64 2163.29 1549.01 Q2170.85 1553.38 2173.3 1558.35 Q2175.74 1563.28 2172.84 1568.32 Q2169.93 1573.35 2164.42 1573.72 Q2158.91 1574.07 2151.35 1569.7 Q2143.77 1565.33 2141.33 1560.39 Q2138.88 1555.42 2141.78 1550.39 Z" fill="#000000" fill-rule="evenodd" fill-opacity="1" /><path clip-path="url(#clip720)" d="M2180.94 1545.06 L2189.1 1530.93 L2192.51 1532.9 L2181.54 1551.9 L2178.13 1549.94 Q2177.07 1546.25 2175.36 1539.97 Q2173.63 1533.65 2173.06 1531.96 Q2172 1528.75 2170.93 1527.12 Q2169.86 1525.46 2168.4 1524.62 Q2166.01 1523.24 2163.54 1524.06 Q2161.07 1524.85 2159.52 1527.54 Q2158.42 1529.44 2157.86 1531.95 Q2157.3 1534.44 2157.26 1537.62 L2153.17 1535.26 Q2153.6 1532.24 2154.32 1529.83 Q2155.05 1527.41 2156.07 1525.65 Q2158.75 1521 2162.67 1519.58 Q2166.6 1518.15 2170.49 1520.4 Q2172.33 1521.46 2173.59 1523.12 Q2174.84 1524.76 2176.03 1527.88 Q2176.32 1528.71 2177.56 1533.01 Q2178.77 1537.29 2180.94 1545.06 Z" fill="#000000" fill-rule="evenodd" fill-opacity="1" /><path clip-path="url(#clip720)" d="M2194.41 1521.73 L2198.23 1515.11 L2175.4 1501.93 L2172.69 1509.96 L2169 1507.83 L2171.69 1499.84 L2174.03 1495.79 L2200.55 1511.11 L2204.37 1504.49 L2207.78 1506.46 L2197.82 1523.7 L2194.41 1521.73 Z" fill="#000000" fill-rule="evenodd" fill-opacity="1" /><path clip-path="url(#clip720)" d="M2198.23 1493.22 L2204.47 1482.42 L2207.76 1484.31 L2201.52 1495.12 L2198.23 1493.22 Z" fill="#000000" fill-rule="evenodd" fill-opacity="1" /><path clip-path="url(#clip720)" d="M2198.79 1459.06 Q2196.98 1462.19 2199.15 1465.56 Q2201.32 1468.89 2207.49 1472.46 Q2213.65 1476.01 2217.64 1476.23 Q2221.62 1476.41 2223.43 1473.29 Q2225.24 1470.14 2223.08 1466.81 Q2220.9 1463.44 2214.75 1459.89 Q2208.58 1456.32 2204.59 1456.13 Q2200.6 1455.92 2198.79 1459.06 M2195.58 1457.21 Q2198.49 1452.18 2204 1451.84 Q2209.51 1451.46 2217.09 1455.84 Q2224.65 1460.2 2227.1 1465.17 Q2229.54 1470.11 2226.63 1475.14 Q2223.73 1480.17 2218.22 1480.55 Q2212.7 1480.89 2205.14 1476.53 Q2197.57 1472.15 2195.12 1467.21 Q2192.67 1462.24 2195.58 1457.21 Z" fill="#000000" fill-rule="evenodd" fill-opacity="1" /><path clip-path="url(#clip720)" d="M2224.84 1438.61 Q2223.27 1441.34 2224.21 1444.02 Q2225.16 1446.68 2228.4 1448.55 Q2231.63 1450.41 2234.43 1449.92 Q2237.22 1449.39 2238.8 1446.67 Q2240.37 1443.94 2239.42 1441.28 Q2238.46 1438.59 2235.23 1436.72 Q2231.99 1434.85 2229.2 1435.38 Q2226.42 1435.88 2224.84 1438.61 M2216.79 1423.24 L2220.48 1425.37 Q2218.88 1426.48 2217.6 1427.82 Q2216.33 1429.15 2215.45 1430.67 Q2213.13 1434.68 2214.61 1438.37 Q2216.1 1442.04 2221.4 1445.5 Q2220.34 1443.31 2220.45 1440.99 Q2220.54 1438.66 2221.77 1436.52 Q2224.38 1432.01 2228.63 1430.99 Q2232.87 1429.93 2237.58 1432.65 Q2242.19 1435.32 2243.41 1439.65 Q2244.62 1443.99 2242 1448.52 Q2239.01 1453.71 2233.45 1454.16 Q2227.88 1454.61 2220.32 1450.24 Q2213.22 1446.15 2210.96 1440.35 Q2208.67 1434.54 2211.95 1428.86 Q2212.83 1427.34 2214.02 1425.97 Q2215.22 1424.58 2216.79 1423.24 Z" fill="#000000" fill-rule="evenodd" fill-opacity="1" /><path clip-path="url(#clip720)" d="M2236.95 1426.17 L2243.18 1415.36 L2246.47 1417.26 L2240.23 1428.06 L2236.95 1426.17 Z" fill="#000000" fill-rule="evenodd" fill-opacity="1" /><path clip-path="url(#clip720)" d="M2237.5 1392.01 Q2235.7 1395.13 2237.87 1398.5 Q2240.03 1401.83 2246.21 1405.4 Q2252.36 1408.95 2256.35 1409.17 Q2260.33 1409.36 2262.14 1406.23 Q2263.96 1403.08 2261.79 1399.75 Q2259.62 1396.38 2253.47 1392.83 Q2247.29 1389.26 2243.31 1389.08 Q2239.32 1388.86 2237.5 1392.01 M2234.3 1390.15 Q2237.2 1385.12 2242.72 1384.78 Q2248.23 1384.41 2255.8 1388.78 Q2263.36 1393.14 2265.81 1398.11 Q2268.25 1403.05 2265.35 1408.08 Q2262.44 1413.11 2256.93 1413.49 Q2251.42 1413.83 2243.86 1409.47 Q2236.28 1405.09 2233.84 1400.16 Q2231.39 1395.19 2234.3 1390.15 Z" fill="#000000" fill-rule="evenodd" fill-opacity="1" /><path clip-path="url(#clip720)" d="M2254.87 1363.92 L2264.94 1383.37 L2270.85 1373.14 L2254.87 1363.92 M2250.73 1362.94 L2253.67 1357.85 L2273.17 1369.11 L2275.64 1364.84 L2279.01 1366.79 L2276.54 1371.06 L2283.6 1375.13 L2281.27 1379.16 L2274.21 1375.09 L2266.41 1388.6 L2262.5 1386.34 L2250.73 1362.94 Z" fill="#000000" fill-rule="evenodd" fill-opacity="1" /><polyline clip-path="url(#clip722)" style="stroke:#000000; stroke-linecap:butt; stroke-linejoin:round; stroke-width:2; stroke-opacity:0.1; fill:none" points="
  201.019,1186.65 2352.76,1186.65 
  "/>
<polyline clip-path="url(#clip722)" style="stroke:#000000; stroke-linecap:butt; stroke-linejoin:round; stroke-width:2; stroke-opacity:0.1; fill:none" points="
  201.019,916.098 2352.76,916.098 
  "/>
<polyline clip-path="url(#clip722)" style="stroke:#000000; stroke-linecap:butt; stroke-linejoin:round; stroke-width:2; stroke-opacity:0.1; fill:none" points="
  201.019,645.551 2352.76,645.551 
  "/>
<polyline clip-path="url(#clip722)" style="stroke:#000000; stroke-linecap:butt; stroke-linejoin:round; stroke-width:2; stroke-opacity:0.1; fill:none" points="
  201.019,375.003 2352.76,375.003 
  "/>
<polyline clip-path="url(#clip722)" style="stroke:#000000; stroke-linecap:butt; stroke-linejoin:round; stroke-width:2; stroke-opacity:0.1; fill:none" points="
  201.019,104.455 2352.76,104.455 
  "/>
<polyline clip-path="url(#clip720)" style="stroke:#000000; stroke-linecap:butt; stroke-linejoin:round; stroke-width:4; stroke-opacity:1; fill:none" points="
  201.019,1330.92 201.019,47.2441 
  "/>
<polyline clip-path="url(#clip720)" style="stroke:#000000; stroke-linecap:butt; stroke-linejoin:round; stroke-width:4; stroke-opacity:1; fill:none" points="
  201.019,1186.65 226.84,1186.65 
  "/>
<polyline clip-path="url(#clip720)" style="stroke:#000000; stroke-linecap:butt; stroke-linejoin:round; stroke-width:4; stroke-opacity:1; fill:none" points="
  201.019,916.098 226.84,916.098 
  "/>
<polyline clip-path="url(#clip720)" style="stroke:#000000; stroke-linecap:butt; stroke-linejoin:round; stroke-width:4; stroke-opacity:1; fill:none" points="
  201.019,645.551 226.84,645.551 
  "/>
<polyline clip-path="url(#clip720)" style="stroke:#000000; stroke-linecap:butt; stroke-linejoin:round; stroke-width:4; stroke-opacity:1; fill:none" points="
  201.019,375.003 226.84,375.003 
  "/>
<polyline clip-path="url(#clip720)" style="stroke:#000000; stroke-linecap:butt; stroke-linejoin:round; stroke-width:4; stroke-opacity:1; fill:none" points="
  201.019,104.455 226.84,104.455 
  "/>
<path clip-path="url(#clip720)" d="M56.6171 1199.99 L72.9365 1199.99 L72.9365 1203.93 L50.9921 1203.93 L50.9921 1199.99 Q53.6541 1197.24 58.2375 1192.61 Q62.8439 1187.95 64.0245 1186.61 Q66.2698 1184.09 67.1494 1182.35 Q68.0522 1180.59 68.0522 1178.9 Q68.0522 1176.15 66.1078 1174.41 Q64.1865 1172.68 61.0847 1172.68 Q58.8856 1172.68 56.4319 1173.44 Q54.0014 1174.2 51.2236 1175.75 L51.2236 1171.03 Q54.0477 1169.9 56.5014 1169.32 Q58.955 1168.74 60.9921 1168.74 Q66.3624 1168.74 69.5568 1171.43 Q72.7513 1174.11 72.7513 1178.6 Q72.7513 1180.73 71.9411 1182.65 Q71.1541 1184.55 69.0476 1187.14 Q68.4689 1187.82 65.367 1191.03 Q62.2652 1194.23 56.6171 1199.99 Z" fill="#000000" fill-rule="evenodd" fill-opacity="1" /><path clip-path="url(#clip720)" d="M86.779 1199.99 L103.098 1199.99 L103.098 1203.93 L81.154 1203.93 L81.154 1199.99 Q83.816 1197.24 88.3993 1192.61 Q93.0058 1187.95 94.1863 1186.61 Q96.4317 1184.09 97.3113 1182.35 Q98.2141 1180.59 98.2141 1178.9 Q98.2141 1176.15 96.2697 1174.41 Q94.3484 1172.68 91.2465 1172.68 Q89.0475 1172.68 86.5938 1173.44 Q84.1632 1174.2 81.3855 1175.75 L81.3855 1171.03 Q84.2095 1169.9 86.6632 1169.32 Q89.1169 1168.74 91.1539 1168.74 Q96.5243 1168.74 99.7187 1171.43 Q102.913 1174.11 102.913 1178.6 Q102.913 1180.73 102.103 1182.65 Q101.316 1184.55 99.2095 1187.14 Q98.6308 1187.82 95.5289 1191.03 Q92.4271 1194.23 86.779 1199.99 Z" fill="#000000" fill-rule="evenodd" fill-opacity="1" /><path clip-path="url(#clip720)" d="M112.959 1169.37 L131.316 1169.37 L131.316 1173.3 L117.242 1173.3 L117.242 1181.77 Q118.26 1181.43 119.279 1181.26 Q120.297 1181.08 121.316 1181.08 Q127.103 1181.08 130.482 1184.25 Q133.862 1187.42 133.862 1192.84 Q133.862 1198.42 130.39 1201.52 Q126.918 1204.6 120.598 1204.6 Q118.422 1204.6 116.154 1204.23 Q113.908 1203.86 111.501 1203.12 L111.501 1198.42 Q113.584 1199.55 115.807 1200.11 Q118.029 1200.66 120.506 1200.66 Q124.51 1200.66 126.848 1198.56 Q129.186 1196.45 129.186 1192.84 Q129.186 1189.23 126.848 1187.12 Q124.51 1185.01 120.506 1185.01 Q118.631 1185.01 116.756 1185.43 Q114.904 1185.85 112.959 1186.73 L112.959 1169.37 Z" fill="#000000" fill-rule="evenodd" fill-opacity="1" /><path clip-path="url(#clip720)" d="M153.075 1172.44 Q149.464 1172.44 147.635 1176.01 Q145.83 1179.55 145.83 1186.68 Q145.83 1193.79 147.635 1197.35 Q149.464 1200.89 153.075 1200.89 Q156.709 1200.89 158.515 1197.35 Q160.343 1193.79 160.343 1186.68 Q160.343 1179.55 158.515 1176.01 Q156.709 1172.44 153.075 1172.44 M153.075 1168.74 Q158.885 1168.74 161.941 1173.35 Q165.019 1177.93 165.019 1186.68 Q165.019 1195.41 161.941 1200.01 Q158.885 1204.6 153.075 1204.6 Q147.265 1204.6 144.186 1200.01 Q141.131 1195.41 141.131 1186.68 Q141.131 1177.93 144.186 1173.35 Q147.265 1168.74 153.075 1168.74 Z" fill="#000000" fill-rule="evenodd" fill-opacity="1" /><path clip-path="url(#clip720)" d="M56.6171 929.443 L72.9365 929.443 L72.9365 933.378 L50.9921 933.378 L50.9921 929.443 Q53.6541 926.689 58.2375 922.059 Q62.8439 917.406 64.0245 916.064 Q66.2698 913.54 67.1494 911.804 Q68.0522 910.045 68.0522 908.355 Q68.0522 905.601 66.1078 903.865 Q64.1865 902.128 61.0847 902.128 Q58.8856 902.128 56.4319 902.892 Q54.0014 903.656 51.2236 905.207 L51.2236 900.485 Q54.0477 899.351 56.5014 898.772 Q58.955 898.193 60.9921 898.193 Q66.3624 898.193 69.5568 900.878 Q72.7513 903.564 72.7513 908.054 Q72.7513 910.184 71.9411 912.105 Q71.1541 914.003 69.0476 916.596 Q68.4689 917.267 65.367 920.485 Q62.2652 923.679 56.6171 929.443 Z" fill="#000000" fill-rule="evenodd" fill-opacity="1" /><path clip-path="url(#clip720)" d="M96.9178 914.744 Q100.274 915.462 102.149 917.73 Q104.047 919.999 104.047 923.332 Q104.047 928.448 100.529 931.249 Q97.0104 934.05 90.529 934.05 Q88.353 934.05 86.0382 933.61 Q83.7466 933.193 81.2929 932.337 L81.2929 927.823 Q83.2373 928.957 85.5521 929.536 Q87.8669 930.114 90.3901 930.114 Q94.7882 930.114 97.0798 928.378 Q99.3946 926.642 99.3946 923.332 Q99.3946 920.277 97.2419 918.564 Q95.1123 916.827 91.2928 916.827 L87.2651 916.827 L87.2651 912.985 L91.478 912.985 Q94.9271 912.985 96.7558 911.619 Q98.5845 910.23 98.5845 907.638 Q98.5845 904.976 96.6863 903.564 Q94.8113 902.128 91.2928 902.128 Q89.3715 902.128 87.1725 902.545 Q84.9734 902.962 82.3346 903.841 L82.3346 899.675 Q84.9966 898.934 87.3114 898.564 Q89.6493 898.193 91.7095 898.193 Q97.0335 898.193 100.135 900.624 Q103.237 903.031 103.237 907.152 Q103.237 910.022 101.594 912.013 Q99.9502 913.98 96.9178 914.744 Z" fill="#000000" fill-rule="evenodd" fill-opacity="1" /><path clip-path="url(#clip720)" d="M122.913 901.897 Q119.302 901.897 117.473 905.462 Q115.668 909.003 115.668 916.133 Q115.668 923.239 117.473 926.804 Q119.302 930.346 122.913 930.346 Q126.547 930.346 128.353 926.804 Q130.182 923.239 130.182 916.133 Q130.182 909.003 128.353 905.462 Q126.547 901.897 122.913 901.897 M122.913 898.193 Q128.723 898.193 131.779 902.8 Q134.857 907.383 134.857 916.133 Q134.857 924.86 131.779 929.466 Q128.723 934.05 122.913 934.05 Q117.103 934.05 114.024 929.466 Q110.969 924.86 110.969 916.133 Q110.969 907.383 114.024 902.8 Q117.103 898.193 122.913 898.193 Z" fill="#000000" fill-rule="evenodd" fill-opacity="1" /><path clip-path="url(#clip720)" d="M153.075 901.897 Q149.464 901.897 147.635 905.462 Q145.83 909.003 145.83 916.133 Q145.83 923.239 147.635 926.804 Q149.464 930.346 153.075 930.346 Q156.709 930.346 158.515 926.804 Q160.343 923.239 160.343 916.133 Q160.343 909.003 158.515 905.462 Q156.709 901.897 153.075 901.897 M153.075 898.193 Q158.885 898.193 161.941 902.8 Q165.019 907.383 165.019 916.133 Q165.019 924.86 161.941 929.466 Q158.885 934.05 153.075 934.05 Q147.265 934.05 144.186 929.466 Q141.131 924.86 141.131 916.133 Q141.131 907.383 144.186 902.8 Q147.265 898.193 153.075 898.193 Z" fill="#000000" fill-rule="evenodd" fill-opacity="1" /><path clip-path="url(#clip720)" d="M56.6171 658.895 L72.9365 658.895 L72.9365 662.831 L50.9921 662.831 L50.9921 658.895 Q53.6541 656.141 58.2375 651.511 Q62.8439 646.858 64.0245 645.516 Q66.2698 642.993 67.1494 641.257 Q68.0522 639.497 68.0522 637.808 Q68.0522 635.053 66.1078 633.317 Q64.1865 631.581 61.0847 631.581 Q58.8856 631.581 56.4319 632.345 Q54.0014 633.108 51.2236 634.659 L51.2236 629.937 Q54.0477 628.803 56.5014 628.224 Q58.955 627.646 60.9921 627.646 Q66.3624 627.646 69.5568 630.331 Q72.7513 633.016 72.7513 637.507 Q72.7513 639.636 71.9411 641.557 Q71.1541 643.456 69.0476 646.048 Q68.4689 646.719 65.367 649.937 Q62.2652 653.131 56.6171 658.895 Z" fill="#000000" fill-rule="evenodd" fill-opacity="1" /><path clip-path="url(#clip720)" d="M96.9178 644.196 Q100.274 644.914 102.149 647.182 Q104.047 649.451 104.047 652.784 Q104.047 657.9 100.529 660.701 Q97.0104 663.502 90.529 663.502 Q88.353 663.502 86.0382 663.062 Q83.7466 662.645 81.2929 661.789 L81.2929 657.275 Q83.2373 658.409 85.5521 658.988 Q87.8669 659.567 90.3901 659.567 Q94.7882 659.567 97.0798 657.831 Q99.3946 656.094 99.3946 652.784 Q99.3946 649.729 97.2419 648.016 Q95.1123 646.28 91.2928 646.28 L87.2651 646.28 L87.2651 642.437 L91.478 642.437 Q94.9271 642.437 96.7558 641.071 Q98.5845 639.682 98.5845 637.09 Q98.5845 634.428 96.6863 633.016 Q94.8113 631.581 91.2928 631.581 Q89.3715 631.581 87.1725 631.997 Q84.9734 632.414 82.3346 633.294 L82.3346 629.127 Q84.9966 628.386 87.3114 628.016 Q89.6493 627.646 91.7095 627.646 Q97.0335 627.646 100.135 630.076 Q103.237 632.483 103.237 636.604 Q103.237 639.474 101.594 641.465 Q99.9502 643.432 96.9178 644.196 Z" fill="#000000" fill-rule="evenodd" fill-opacity="1" /><path clip-path="url(#clip720)" d="M112.959 628.271 L131.316 628.271 L131.316 632.206 L117.242 632.206 L117.242 640.678 Q118.26 640.331 119.279 640.169 Q120.297 639.983 121.316 639.983 Q127.103 639.983 130.482 643.155 Q133.862 646.326 133.862 651.743 Q133.862 657.321 130.39 660.423 Q126.918 663.502 120.598 663.502 Q118.422 663.502 116.154 663.131 Q113.908 662.761 111.501 662.02 L111.501 657.321 Q113.584 658.456 115.807 659.011 Q118.029 659.567 120.506 659.567 Q124.51 659.567 126.848 657.46 Q129.186 655.354 129.186 651.743 Q129.186 648.132 126.848 646.025 Q124.51 643.919 120.506 643.919 Q118.631 643.919 116.756 644.335 Q114.904 644.752 112.959 645.632 L112.959 628.271 Z" fill="#000000" fill-rule="evenodd" fill-opacity="1" /><path clip-path="url(#clip720)" d="M153.075 631.349 Q149.464 631.349 147.635 634.914 Q145.83 638.456 145.83 645.585 Q145.83 652.692 147.635 656.256 Q149.464 659.798 153.075 659.798 Q156.709 659.798 158.515 656.256 Q160.343 652.692 160.343 645.585 Q160.343 638.456 158.515 634.914 Q156.709 631.349 153.075 631.349 M153.075 627.646 Q158.885 627.646 161.941 632.252 Q165.019 636.835 165.019 645.585 Q165.019 654.312 161.941 658.919 Q158.885 663.502 153.075 663.502 Q147.265 663.502 144.186 658.919 Q141.131 654.312 141.131 645.585 Q141.131 636.835 144.186 632.252 Q147.265 627.646 153.075 627.646 Z" fill="#000000" fill-rule="evenodd" fill-opacity="1" /><path clip-path="url(#clip720)" d="M56.6171 388.348 L72.9365 388.348 L72.9365 392.283 L50.9921 392.283 L50.9921 388.348 Q53.6541 385.593 58.2375 380.963 Q62.8439 376.311 64.0245 374.968 Q66.2698 372.445 67.1494 370.709 Q68.0522 368.95 68.0522 367.26 Q68.0522 364.505 66.1078 362.769 Q64.1865 361.033 61.0847 361.033 Q58.8856 361.033 56.4319 361.797 Q54.0014 362.561 51.2236 364.112 L51.2236 359.389 Q54.0477 358.255 56.5014 357.676 Q58.955 357.098 60.9921 357.098 Q66.3624 357.098 69.5568 359.783 Q72.7513 362.468 72.7513 366.959 Q72.7513 369.088 71.9411 371.01 Q71.1541 372.908 69.0476 375.5 Q68.4689 376.172 65.367 379.389 Q62.2652 382.584 56.6171 388.348 Z" fill="#000000" fill-rule="evenodd" fill-opacity="1" /><path clip-path="url(#clip720)" d="M95.5984 361.797 L83.7929 380.246 L95.5984 380.246 L95.5984 361.797 M94.3715 357.723 L100.251 357.723 L100.251 380.246 L105.182 380.246 L105.182 384.135 L100.251 384.135 L100.251 392.283 L95.5984 392.283 L95.5984 384.135 L79.9966 384.135 L79.9966 379.621 L94.3715 357.723 Z" fill="#000000" fill-rule="evenodd" fill-opacity="1" /><path clip-path="url(#clip720)" d="M122.913 360.801 Q119.302 360.801 117.473 364.366 Q115.668 367.908 115.668 375.037 Q115.668 382.144 117.473 385.709 Q119.302 389.25 122.913 389.25 Q126.547 389.25 128.353 385.709 Q130.182 382.144 130.182 375.037 Q130.182 367.908 128.353 364.366 Q126.547 360.801 122.913 360.801 M122.913 357.098 Q128.723 357.098 131.779 361.704 Q134.857 366.288 134.857 375.037 Q134.857 383.764 131.779 388.371 Q128.723 392.954 122.913 392.954 Q117.103 392.954 114.024 388.371 Q110.969 383.764 110.969 375.037 Q110.969 366.288 114.024 361.704 Q117.103 357.098 122.913 357.098 Z" fill="#000000" fill-rule="evenodd" fill-opacity="1" /><path clip-path="url(#clip720)" d="M153.075 360.801 Q149.464 360.801 147.635 364.366 Q145.83 367.908 145.83 375.037 Q145.83 382.144 147.635 385.709 Q149.464 389.25 153.075 389.25 Q156.709 389.25 158.515 385.709 Q160.343 382.144 160.343 375.037 Q160.343 367.908 158.515 364.366 Q156.709 360.801 153.075 360.801 M153.075 357.098 Q158.885 357.098 161.941 361.704 Q165.019 366.288 165.019 375.037 Q165.019 383.764 161.941 388.371 Q158.885 392.954 153.075 392.954 Q147.265 392.954 144.186 388.371 Q141.131 383.764 141.131 375.037 Q141.131 366.288 144.186 361.704 Q147.265 357.098 153.075 357.098 Z" fill="#000000" fill-rule="evenodd" fill-opacity="1" /><path clip-path="url(#clip720)" d="M56.6171 117.8 L72.9365 117.8 L72.9365 121.735 L50.9921 121.735 L50.9921 117.8 Q53.6541 115.045 58.2375 110.416 Q62.8439 105.763 64.0245 104.42 Q66.2698 101.897 67.1494 100.161 Q68.0522 98.4017 68.0522 96.7119 Q68.0522 93.9573 66.1078 92.2212 Q64.1865 90.4851 61.0847 90.4851 Q58.8856 90.4851 56.4319 91.249 Q54.0014 92.0129 51.2236 93.5638 L51.2236 88.8416 Q54.0477 87.7074 56.5014 87.1287 Q58.955 86.55 60.9921 86.55 Q66.3624 86.55 69.5568 89.2351 Q72.7513 91.9203 72.7513 96.411 Q72.7513 98.5406 71.9411 100.462 Q71.1541 102.36 69.0476 104.953 Q68.4689 105.624 65.367 108.842 Q62.2652 112.036 56.6171 117.8 Z" fill="#000000" fill-rule="evenodd" fill-opacity="1" /><path clip-path="url(#clip720)" d="M95.5984 91.249 L83.7929 109.698 L95.5984 109.698 L95.5984 91.249 M94.3715 87.175 L100.251 87.175 L100.251 109.698 L105.182 109.698 L105.182 113.587 L100.251 113.587 L100.251 121.735 L95.5984 121.735 L95.5984 113.587 L79.9966 113.587 L79.9966 109.073 L94.3715 87.175 Z" fill="#000000" fill-rule="evenodd" fill-opacity="1" /><path clip-path="url(#clip720)" d="M112.959 87.175 L131.316 87.175 L131.316 91.1101 L117.242 91.1101 L117.242 99.5823 Q118.26 99.2351 119.279 99.073 Q120.297 98.8879 121.316 98.8879 Q127.103 98.8879 130.482 102.059 Q133.862 105.23 133.862 110.647 Q133.862 116.226 130.39 119.328 Q126.918 122.406 120.598 122.406 Q118.422 122.406 116.154 122.036 Q113.908 121.666 111.501 120.925 L111.501 116.226 Q113.584 117.36 115.807 117.916 Q118.029 118.471 120.506 118.471 Q124.51 118.471 126.848 116.365 Q129.186 114.258 129.186 110.647 Q129.186 107.036 126.848 104.929 Q124.51 102.823 120.506 102.823 Q118.631 102.823 116.756 103.24 Q114.904 103.656 112.959 104.536 L112.959 87.175 Z" fill="#000000" fill-rule="evenodd" fill-opacity="1" /><path clip-path="url(#clip720)" d="M153.075 90.2536 Q149.464 90.2536 147.635 93.8184 Q145.83 97.3601 145.83 104.49 Q145.83 111.596 147.635 115.161 Q149.464 118.703 153.075 118.703 Q156.709 118.703 158.515 115.161 Q160.343 111.596 160.343 104.49 Q160.343 97.3601 158.515 93.8184 Q156.709 90.2536 153.075 90.2536 M153.075 86.55 Q158.885 86.55 161.941 91.1564 Q165.019 95.7397 165.019 104.49 Q165.019 113.216 161.941 117.823 Q158.885 122.406 153.075 122.406 Q147.265 122.406 144.186 117.823 Q141.131 113.216 141.131 104.49 Q141.131 95.7397 144.186 91.1564 Q147.265 86.55 153.075 86.55 Z" fill="#000000" fill-rule="evenodd" fill-opacity="1" /><path clip-path="url(#clip722)" d="
M303.629 637.922 L303.629 609.081 L261.917 609.081 L261.917 545.881 L303.629 545.881 L303.629 471.318 L303.629 545.881 L345.34 545.881 L345.34 609.081 L303.629 609.081 
  L303.629 637.922  Z
  " fill="#ff0000" fill-rule="evenodd" fill-opacity="1"/>
<polyline clip-path="url(#clip722)" style="stroke:#ff0000; stroke-linecap:butt; stroke-linejoin:round; stroke-width:2; stroke-opacity:1; fill:none" points="
  303.629,637.922 303.629,609.081 261.917,609.081 261.917,545.881 303.629,545.881 303.629,471.318 303.629,545.881 345.34,545.881 345.34,609.081 303.629,609.081 
  303.629,637.922 
  "/>
<path clip-path="url(#clip722)" d="
M396.32 687.01 L396.32 642.088 L354.609 642.088 L354.609 475.917 L396.32 475.917 L396.32 468.558 L396.32 475.917 L438.031 475.917 L438.031 642.088 L396.32 642.088 
  L396.32 687.01  Z
  " fill="#ff0000" fill-rule="evenodd" fill-opacity="1"/>
<polyline clip-path="url(#clip722)" style="stroke:#ff0000; stroke-linecap:butt; stroke-linejoin:round; stroke-width:2; stroke-opacity:1; fill:none" points="
  396.32,687.01 396.32,642.088 354.609,642.088 354.609,475.917 396.32,475.917 396.32,468.558 396.32,475.917 438.031,475.917 438.031,642.088 396.32,642.088 
  396.32,687.01 
  "/>
<path clip-path="url(#clip722)" d="
M489.011 429.112 L489.011 382.091 L447.3 382.091 L447.3 375.003 L489.011 375.003 L489.011 286.209 L489.011 375.003 L530.722 375.003 L530.722 382.091 L489.011 382.091 
  L489.011 429.112  Z
  " fill="#ff0000" fill-rule="evenodd" fill-opacity="1"/>
<polyline clip-path="url(#clip722)" style="stroke:#ff0000; stroke-linecap:butt; stroke-linejoin:round; stroke-width:2; stroke-opacity:1; fill:none" points="
  489.011,429.112 489.011,382.091 447.3,382.091 447.3,375.003 489.011,375.003 489.011,286.209 489.011,375.003 530.722,375.003 530.722,382.091 489.011,382.091 
  489.011,429.112 
  "/>
<path clip-path="url(#clip722)" d="
M581.703 728.176 L581.703 690.678 L539.991 690.678 L539.991 510.872 L581.703 510.872 L581.703 494.044 L581.703 510.872 L623.414 510.872 L623.414 690.678 L581.703 690.678 
  L581.703 728.176  Z
  " fill="#ff0000" fill-rule="evenodd" fill-opacity="1"/>
<polyline clip-path="url(#clip722)" style="stroke:#ff0000; stroke-linecap:butt; stroke-linejoin:round; stroke-width:2; stroke-opacity:1; fill:none" points="
  581.703,728.176 581.703,690.678 539.991,690.678 539.991,510.872 581.703,510.872 581.703,494.044 581.703,510.872 623.414,510.872 623.414,690.678 581.703,690.678 
  581.703,728.176 
  "/>
<path clip-path="url(#clip722)" d="
M674.394 1008.08 L674.394 960.143 L632.683 960.143 L632.683 868.698 L674.394 868.698 L674.394 797.057 L674.394 868.698 L716.105 868.698 L716.105 960.143 L674.394 960.143 
  L674.394 1008.08  Z
  " fill="#ff0000" fill-rule="evenodd" fill-opacity="1"/>
<polyline clip-path="url(#clip722)" style="stroke:#ff0000; stroke-linecap:butt; stroke-linejoin:round; stroke-width:2; stroke-opacity:1; fill:none" points="
  674.394,1008.08 674.394,960.143 632.683,960.143 632.683,868.698 674.394,868.698 674.394,797.057 674.394,868.698 716.105,868.698 716.105,960.143 674.394,960.143 
  674.394,1008.08 
  "/>
<path clip-path="url(#clip722)" d="
M767.085 1294.59 L767.085 1245.73 L725.374 1245.73 L725.374 1123.28 L767.085 1123.28 L767.085 995.26 L767.085 1123.28 L808.796 1123.28 L808.796 1245.73 L767.085 1245.73 
  L767.085 1294.59  Z
  " fill="#ff0000" fill-rule="evenodd" fill-opacity="1"/>
<polyline clip-path="url(#clip722)" style="stroke:#ff0000; stroke-linecap:butt; stroke-linejoin:round; stroke-width:2; stroke-opacity:1; fill:none" points="
  767.085,1294.59 767.085,1245.73 725.374,1245.73 725.374,1123.28 767.085,1123.28 767.085,995.26 767.085,1123.28 808.796,1123.28 808.796,1245.73 767.085,1245.73 
  767.085,1294.59 
  "/>
<path clip-path="url(#clip722)" d="
M859.777 1226.04 L859.777 1126.64 L818.065 1126.64 L818.065 1121.88 L859.777 1121.88 L859.777 1042.71 L859.777 1121.88 L901.488 1121.88 L901.488 1126.64 L859.777 1126.64 
  L859.777 1226.04  Z
  " fill="#ff0000" fill-rule="evenodd" fill-opacity="1"/>
<polyline clip-path="url(#clip722)" style="stroke:#ff0000; stroke-linecap:butt; stroke-linejoin:round; stroke-width:2; stroke-opacity:1; fill:none" points="
  859.777,1226.04 859.777,1126.64 818.065,1126.64 818.065,1121.88 859.777,1121.88 859.777,1042.71 859.777,1121.88 901.488,1121.88 901.488,1126.64 859.777,1126.64 
  859.777,1226.04 
  "/>
<path clip-path="url(#clip722)" d="
M952.468 1006.35 L952.468 960.305 L910.757 960.305 L910.757 828.658 L952.468 828.658 L952.468 801.711 L952.468 828.658 L994.179 828.658 L994.179 960.305 L952.468 960.305 
  L952.468 1006.35  Z
  " fill="#ff0000" fill-rule="evenodd" fill-opacity="1"/>
<polyline clip-path="url(#clip722)" style="stroke:#ff0000; stroke-linecap:butt; stroke-linejoin:round; stroke-width:2; stroke-opacity:1; fill:none" points="
  952.468,1006.35 952.468,960.305 910.757,960.305 910.757,828.658 952.468,828.658 952.468,801.711 952.468,828.658 994.179,828.658 994.179,960.305 952.468,960.305 
  952.468,1006.35 
  "/>
<path clip-path="url(#clip722)" d="
M1045.16 943.153 L1045.16 865.668 L1003.45 865.668 L1003.45 800.25 L1045.16 800.25 L1045.16 789.806 L1045.16 800.25 L1086.87 800.25 L1086.87 865.668 L1045.16 865.668 
  L1045.16 943.153  Z
  " fill="#ff0000" fill-rule="evenodd" fill-opacity="1"/>
<polyline clip-path="url(#clip722)" style="stroke:#ff0000; stroke-linecap:butt; stroke-linejoin:round; stroke-width:2; stroke-opacity:1; fill:none" points="
  1045.16,943.153 1045.16,865.668 1003.45,865.668 1003.45,800.25 1045.16,800.25 1045.16,789.806 1045.16,800.25 1086.87,800.25 1086.87,865.668 1045.16,865.668 
  1045.16,943.153 
  "/>
<path clip-path="url(#clip722)" d="
M1137.85 899 L1137.85 897.539 L1096.14 897.539 L1096.14 716.402 L1137.85 716.402 L1137.85 682.616 L1137.85 716.402 L1179.56 716.402 L1179.56 897.539 L1137.85 897.539 
  L1137.85 899  Z
  " fill="#ff0000" fill-rule="evenodd" fill-opacity="1"/>
<polyline clip-path="url(#clip722)" style="stroke:#ff0000; stroke-linecap:butt; stroke-linejoin:round; stroke-width:2; stroke-opacity:1; fill:none" points="
  1137.85,899 1137.85,897.539 1096.14,897.539 1096.14,716.402 1137.85,716.402 1137.85,682.616 1137.85,716.402 1179.56,716.402 1179.56,897.539 1137.85,897.539 
  1137.85,899 
  "/>
<path clip-path="url(#clip722)" d="
M1230.54 1113.49 L1230.54 1108.73 L1188.83 1108.73 L1188.83 868.969 L1230.54 868.969 L1230.54 825.411 L1230.54 868.969 L1272.25 868.969 L1272.25 1108.73 L1230.54 1108.73 
  L1230.54 1113.49  Z
  " fill="#ff0000" fill-rule="evenodd" fill-opacity="1"/>
<polyline clip-path="url(#clip722)" style="stroke:#ff0000; stroke-linecap:butt; stroke-linejoin:round; stroke-width:2; stroke-opacity:1; fill:none" points="
  1230.54,1113.49 1230.54,1108.73 1188.83,1108.73 1188.83,868.969 1230.54,868.969 1230.54,825.411 1230.54,868.969 1272.25,868.969 1272.25,1108.73 1230.54,1108.73 
  1230.54,1113.49 
  "/>
<path clip-path="url(#clip722)" d="
M1323.23 801.981 L1323.23 764.375 L1281.52 764.375 L1281.52 612.597 L1323.23 612.597 L1323.23 589.601 L1323.23 612.597 L1364.94 612.597 L1364.94 764.375 L1323.23 764.375 
  L1323.23 801.981  Z
  " fill="#ff0000" fill-rule="evenodd" fill-opacity="1"/>
<polyline clip-path="url(#clip722)" style="stroke:#ff0000; stroke-linecap:butt; stroke-linejoin:round; stroke-width:2; stroke-opacity:1; fill:none" points="
  1323.23,801.981 1323.23,764.375 1281.52,764.375 1281.52,612.597 1323.23,612.597 1323.23,589.601 1323.23,612.597 1364.94,612.597 1364.94,764.375 1323.23,764.375 
  1323.23,801.981 
  "/>
<path clip-path="url(#clip722)" d="
M1415.92 686.835 L1415.92 672.064 L1374.21 672.064 L1374.21 559.029 L1415.92 559.029 L1415.92 542.742 L1415.92 559.029 L1457.64 559.029 L1457.64 672.064 L1415.92 672.064 
  L1415.92 686.835  Z
  " fill="#ff0000" fill-rule="evenodd" fill-opacity="1"/>
<polyline clip-path="url(#clip722)" style="stroke:#ff0000; stroke-linecap:butt; stroke-linejoin:round; stroke-width:2; stroke-opacity:1; fill:none" points="
  1415.92,686.835 1415.92,672.064 1374.21,672.064 1374.21,559.029 1415.92,559.029 1415.92,542.742 1415.92,559.029 1457.64,559.029 1457.64,672.064 1415.92,672.064 
  1415.92,686.835 
  "/>
<path clip-path="url(#clip722)" d="
M1508.62 590.845 L1508.62 553.564 L1466.9 553.564 L1466.9 338.912 L1508.62 338.912 L1508.62 275.008 L1508.62 338.912 L1550.33 338.912 L1550.33 553.564 L1508.62 553.564 
  L1508.62 590.845  Z
  " fill="#ff0000" fill-rule="evenodd" fill-opacity="1"/>
<polyline clip-path="url(#clip722)" style="stroke:#ff0000; stroke-linecap:butt; stroke-linejoin:round; stroke-width:2; stroke-opacity:1; fill:none" points="
  1508.62,590.845 1508.62,553.564 1466.9,553.564 1466.9,338.912 1508.62,338.912 1508.62,275.008 1508.62,338.912 1550.33,338.912 1550.33,553.564 1508.62,553.564 
  1508.62,590.845 
  "/>
<path clip-path="url(#clip722)" d="
M1601.31 358.824 L1601.31 325.925 L1559.6 325.925 L1559.6 266.784 L1601.31 266.784 L1601.31 197.037 L1601.31 266.784 L1643.02 266.784 L1643.02 325.925 L1601.31 325.925 
  L1601.31 358.824  Z
  " fill="#ff0000" fill-rule="evenodd" fill-opacity="1"/>
<polyline clip-path="url(#clip722)" style="stroke:#ff0000; stroke-linecap:butt; stroke-linejoin:round; stroke-width:2; stroke-opacity:1; fill:none" points="
  1601.31,358.824 1601.31,325.925 1559.6,325.925 1559.6,266.784 1601.31,266.784 1601.31,197.037 1601.31,266.784 1643.02,266.784 1643.02,325.925 1601.31,325.925 
  1601.31,358.824 
  "/>
<path clip-path="url(#clip722)" d="
M1694 307.285 L1694 305.553 L1652.29 305.553 L1652.29 193.573 L1694 193.573 L1694 142.634 L1694 193.573 L1735.71 193.573 L1735.71 305.553 L1694 305.553 
  L1694 307.285  Z
  " fill="#ff0000" fill-rule="evenodd" fill-opacity="1"/>
<polyline clip-path="url(#clip722)" style="stroke:#ff0000; stroke-linecap:butt; stroke-linejoin:round; stroke-width:2; stroke-opacity:1; fill:none" points="
  1694,307.285 1694,305.553 1652.29,305.553 1652.29,193.573 1694,193.573 1694,142.634 1694,193.573 1735.71,193.573 1735.71,305.553 1694,305.553 
  1694,307.285 
  "/>
<path clip-path="url(#clip722)" d="
M1786.69 364.181 L1786.69 361.421 L1744.98 361.421 L1744.98 175.122 L1786.69 175.122 L1786.69 158.565 L1786.69 175.122 L1828.4 175.122 L1828.4 361.421 L1786.69 361.421 
  L1786.69 364.181  Z
  " fill="#ff0000" fill-rule="evenodd" fill-opacity="1"/>
<polyline clip-path="url(#clip722)" style="stroke:#ff0000; stroke-linecap:butt; stroke-linejoin:round; stroke-width:2; stroke-opacity:1; fill:none" points="
  1786.69,364.181 1786.69,361.421 1744.98,361.421 1744.98,175.122 1786.69,175.122 1786.69,158.565 1786.69,175.122 1828.4,175.122 1828.4,361.421 1786.69,361.421 
  1786.69,364.181 
  "/>
<path clip-path="url(#clip722)" d="
M1879.38 333.393 L1879.38 312.452 L1837.67 312.452 L1837.67 256.178 L1879.38 256.178 L1879.38 222.739 L1879.38 256.178 L1921.09 256.178 L1921.09 312.452 L1879.38 312.452 
  L1879.38 333.393  Z
  " fill="#ff0000" fill-rule="evenodd" fill-opacity="1"/>
<polyline clip-path="url(#clip722)" style="stroke:#ff0000; stroke-linecap:butt; stroke-linejoin:round; stroke-width:2; stroke-opacity:1; fill:none" points="
  1879.38,333.393 1879.38,312.452 1837.67,312.452 1837.67,256.178 1879.38,256.178 1879.38,222.739 1879.38,256.178 1921.09,256.178 1921.09,312.452 1879.38,312.452 
  1879.38,333.393 
  "/>
<path clip-path="url(#clip722)" d="
M1972.07 348.598 L1972.07 255.962 L1930.36 255.962 L1930.36 213.702 L1972.07 213.702 L1972.07 169.544 L1972.07 213.702 L2013.78 213.702 L2013.78 255.962 L1972.07 255.962 
  L1972.07 348.598  Z
  " fill="#ff0000" fill-rule="evenodd" fill-opacity="1"/>
<polyline clip-path="url(#clip722)" style="stroke:#ff0000; stroke-linecap:butt; stroke-linejoin:round; stroke-width:2; stroke-opacity:1; fill:none" points="
  1972.07,348.598 1972.07,255.962 1930.36,255.962 1930.36,213.702 1972.07,213.702 1972.07,169.544 1972.07,213.702 2013.78,213.702 2013.78,255.962 1972.07,255.962 
  1972.07,348.598 
  "/>
<path clip-path="url(#clip722)" d="
M2064.76 352.277 L2064.76 259.857 L2023.05 259.857 L2023.05 183.942 L2064.76 183.942 L2064.76 147.743 L2064.76 183.942 L2106.48 183.942 L2106.48 259.857 L2064.76 259.857 
  L2064.76 352.277  Z
  " fill="#ff0000" fill-rule="evenodd" fill-opacity="1"/>
<polyline clip-path="url(#clip722)" style="stroke:#ff0000; stroke-linecap:butt; stroke-linejoin:round; stroke-width:2; stroke-opacity:1; fill:none" points="
  2064.76,352.277 2064.76,259.857 2023.05,259.857 2023.05,183.942 2064.76,183.942 2064.76,147.743 2064.76,183.942 2106.48,183.942 2106.48,259.857 2064.76,259.857 
  2064.76,352.277 
  "/>
<path clip-path="url(#clip722)" d="
M2157.46 467.908 L2157.46 401.949 L2115.74 401.949 L2115.74 350.058 L2157.46 350.058 L2157.46 322.272 L2157.46 350.058 L2199.17 350.058 L2199.17 401.949 L2157.46 401.949 
  L2157.46 467.908  Z
  " fill="#ff0000" fill-rule="evenodd" fill-opacity="1"/>
<polyline clip-path="url(#clip722)" style="stroke:#ff0000; stroke-linecap:butt; stroke-linejoin:round; stroke-width:2; stroke-opacity:1; fill:none" points="
  2157.46,467.908 2157.46,401.949 2115.74,401.949 2115.74,350.058 2157.46,350.058 2157.46,322.272 2157.46,350.058 2199.17,350.058 2199.17,401.949 2157.46,401.949 
  2157.46,467.908 
  "/>
<path clip-path="url(#clip722)" d="
M2250.15 278.85 L2250.15 253.148 L2208.44 253.148 L2208.44 94.9316 L2250.15 94.9316 L2250.15 83.5747 L2250.15 94.9316 L2291.86 94.9316 L2291.86 253.148 L2250.15 253.148 
  L2250.15 278.85  Z
  " fill="#ff0000" fill-rule="evenodd" fill-opacity="1"/>
<polyline clip-path="url(#clip722)" style="stroke:#ff0000; stroke-linecap:butt; stroke-linejoin:round; stroke-width:2; stroke-opacity:1; fill:none" points="
  2250.15,278.85 2250.15,253.148 2208.44,253.148 2208.44,94.9316 2250.15,94.9316 2250.15,83.5747 2250.15,94.9316 2291.86,94.9316 2291.86,253.148 2250.15,253.148 
  2250.15,278.85 
  "/>
<circle clip-path="url(#clip722)" cx="303.629" cy="577.481" r="3" fill="#ff0000" fill-rule="evenodd" fill-opacity="1" stroke="#000000" stroke-opacity="1" stroke-width="0"/>
<circle clip-path="url(#clip722)" cx="396.32" cy="559.002" r="3" fill="#008000" fill-rule="evenodd" fill-opacity="1" stroke="#000000" stroke-opacity="1" stroke-width="0"/>
<circle clip-path="url(#clip722)" cx="489.011" cy="378.547" r="3" fill="#ff0000" fill-rule="evenodd" fill-opacity="1" stroke="#000000" stroke-opacity="1" stroke-width="0"/>
<circle clip-path="url(#clip722)" cx="581.703" cy="600.775" r="3" fill="#ff0000" fill-rule="evenodd" fill-opacity="1" stroke="#000000" stroke-opacity="1" stroke-width="0"/>
<circle clip-path="url(#clip722)" cx="674.394" cy="914.421" r="3" fill="#008000" fill-rule="evenodd" fill-opacity="1" stroke="#000000" stroke-opacity="1" stroke-width="0"/>
<circle clip-path="url(#clip722)" cx="767.085" cy="1184.51" r="3" fill="#ff0000" fill-rule="evenodd" fill-opacity="1" stroke="#000000" stroke-opacity="1" stroke-width="0"/>
<circle clip-path="url(#clip722)" cx="859.777" cy="1124.26" r="3" fill="#008000" fill-rule="evenodd" fill-opacity="1" stroke="#000000" stroke-opacity="1" stroke-width="0"/>
<circle clip-path="url(#clip722)" cx="952.468" cy="894.482" r="3" fill="#008000" fill-rule="evenodd" fill-opacity="1" stroke="#000000" stroke-opacity="1" stroke-width="0"/>
<circle clip-path="url(#clip722)" cx="1045.16" cy="832.959" r="3" fill="#008000" fill-rule="evenodd" fill-opacity="1" stroke="#000000" stroke-opacity="1" stroke-width="0"/>
<circle clip-path="url(#clip722)" cx="1137.85" cy="806.97" r="3" fill="#ff0000" fill-rule="evenodd" fill-opacity="1" stroke="#000000" stroke-opacity="1" stroke-width="0"/>
<circle clip-path="url(#clip722)" cx="1230.54" cy="988.849" r="3" fill="#008000" fill-rule="evenodd" fill-opacity="1" stroke="#000000" stroke-opacity="1" stroke-width="0"/>
<circle clip-path="url(#clip722)" cx="1323.23" cy="688.486" r="3" fill="#008000" fill-rule="evenodd" fill-opacity="1" stroke="#000000" stroke-opacity="1" stroke-width="0"/>
<circle clip-path="url(#clip722)" cx="1415.92" cy="615.547" r="3" fill="#ff0000" fill-rule="evenodd" fill-opacity="1" stroke="#000000" stroke-opacity="1" stroke-width="0"/>
<circle clip-path="url(#clip722)" cx="1508.62" cy="446.238" r="3" fill="#008000" fill-rule="evenodd" fill-opacity="1" stroke="#000000" stroke-opacity="1" stroke-width="0"/>
<circle clip-path="url(#clip722)" cx="1601.31" cy="296.354" r="3" fill="#ff0000" fill-rule="evenodd" fill-opacity="1" stroke="#000000" stroke-opacity="1" stroke-width="0"/>
<circle clip-path="url(#clip722)" cx="1694" cy="249.563" r="3" fill="#008000" fill-rule="evenodd" fill-opacity="1" stroke="#000000" stroke-opacity="1" stroke-width="0"/>
<circle clip-path="url(#clip722)" cx="1786.69" cy="268.272" r="3" fill="#ff0000" fill-rule="evenodd" fill-opacity="1" stroke="#000000" stroke-opacity="1" stroke-width="0"/>
<circle clip-path="url(#clip722)" cx="1879.38" cy="284.315" r="3" fill="#ff0000" fill-rule="evenodd" fill-opacity="1" stroke="#000000" stroke-opacity="1" stroke-width="0"/>
<circle clip-path="url(#clip722)" cx="1972.07" cy="234.832" r="3" fill="#008000" fill-rule="evenodd" fill-opacity="1" stroke="#000000" stroke-opacity="1" stroke-width="0"/>
<circle clip-path="url(#clip722)" cx="2064.76" cy="221.9" r="3" fill="#ff0000" fill-rule="evenodd" fill-opacity="1" stroke="#000000" stroke-opacity="1" stroke-width="0"/>
<circle clip-path="url(#clip722)" cx="2157.46" cy="376.003" r="3" fill="#008000" fill-rule="evenodd" fill-opacity="1" stroke="#000000" stroke-opacity="1" stroke-width="0"/>
<circle clip-path="url(#clip722)" cx="2250.15" cy="174.04" r="3" fill="#008000" fill-rule="evenodd" fill-opacity="1" stroke="#000000" stroke-opacity="1" stroke-width="0"/>
</svg>
